<?xml version="1.0" standalone="no"?>
<!DOCTYPE svg PUBLIC "-//W3C//DTD SVG 1.1//EN" "http://www.w3.org/Graphics/SVG/1.1/DTD/svg11.dtd" >
<svg xmlns="http://www.w3.org/2000/svg" xmlns:xlink="http://www.w3.org/1999/xlink" version="1.1">
<metadata>
Created by FontForge 20230101 at Thu Mar 26 14:31:08 2020
 By Baptiste
Copyright (c) 2020 by TypeType. Designers Yulia Gonina, Ksenia Ushakova, Antonina Zhulkova. Technical designers Ivan Gladkikh, Marina Khodak, Yuri Nako, Viktor Rubenko. All rights reserved.
</metadata>
<defs>
<font id="TTOctosquares-Medium" horiz-adv-x="0" >
  <font-face 
    font-family="TTOctosquares-Medium"
    font-weight="500"
    font-stretch="normal"
    units-per-em="1000"
    panose-1="2 1 0 1 4 0 0 8 3 7"
    ascent="800"
    descent="-200"
    x-height="500"
    cap-height="700"
    bbox="-399 -248 1652 943"
    underline-thickness="50"
    underline-position="-200"
    unicode-range="U+000D-FB04"
  />
<missing-glyph horiz-adv-x="900" 
d="M100 0v284h45v-139h33v139h50v31h-128v126l19 -61h23l34 106l33 -106h23l54 170h-32l-34 -110l-35 110h-19l-35 -110l-31 103v157h700v-150h-110v-170h110v-91q-13 27 -50 27q-27 0 -43.5 -14.5t-16.5 -34.5t14 -32t30 -15t30 -9.5t14 -16.5q0 -21 -28 -21t-28 25h-33
q0 -24 17 -39.5t44 -15.5q33 0 50 20v-163h-700zM311 380h33v62h24l35 -62h37l-40 67q36 17 36 50q0 22 -16 37.5t-41 15.5h-68v-170zM469 380h33v170h-33v-170zM580 380h32v139h50v31h-132v-31h50v-139zM344 473v46h35q10 0 17 -6.5t7 -16.5q0 -23 -24 -23h-35zM722 483v36
h78v-36h-78zM722 411v41h78v-41h-78zM328 143q37 0 59.5 24.5t22.5 61.5t-23 62t-59 25t-59 -25t-23 -62t22.5 -61.5t59.5 -24.5zM585 143q29 0 48 19t19 47v106h-32v-106q0 -15 -9.5 -25t-25.5 -10q-17 0 -26.5 10.5t-9.5 24.5v106h-32v-106q0 -28 19.5 -47t48.5 -19z
M800 224q-9 9 -23.5 15t-25.5 8.5t-19 7.5t-8 12q0 9 7.5 14.5t18.5 5.5q10 0 18 -7t8 -18h24v-38zM328 174q-22 0 -36.5 16t-14.5 39q0 25 13.5 40.5t37.5 15.5t37.5 -15.5t13.5 -40.5q0 -23 -14.5 -39t-36.5 -16z" />
    <glyph glyph-name="f_f" unicode="ff" horiz-adv-x="751" 
d="M115 0v403h-100v97h100v128l72 72h214v-97h-162l-13 -13v-90h239v128l72 72h224v-97h-172l-13 -13v-90h179v-97h-177v-403h-113v403h-237v-403h-113z" />
    <glyph glyph-name="fi" unicode="fi" horiz-adv-x="630" 
d="M115 0v403h-100v97h100v128l72 72h276v-97h-224l-13 -13v-90h332v-500h-113v403h-217v-403h-113z" />
    <glyph glyph-name="fl" unicode="fl" horiz-adv-x="665" 
d="M115 0v403h-100v97h100v128l72 72h401v-700h-113v603h-236l-13 -13v-90h171v-97h-169v-403h-113z" />
    <glyph glyph-name="f_f_i" unicode="ffi" horiz-adv-x="980" 
d="M115 0v403h-100v97h100v128l72 72h217v-97h-165l-13 -13v-90h239v128l72 72h276v-97h-224l-13 -13v-90h332v-500h-113v403h-217v-403h-113v403h-237v-403h-113z" />
    <glyph glyph-name="f_f_l" unicode="ffl" horiz-adv-x="1015" 
d="M115 0v403h-100v97h100v128l72 72h217v-97h-165l-13 -13v-90h239v128l72 72h401v-700h-113v603h-236l-13 -13v-90h171v-97h-169v-403h-113v403h-237v-403h-113z" />
    <glyph glyph-name="f_j" unicode="fj" horiz-adv-x="630" 
d="M210 -200v100h221l14 14v489h-217v-403h-113v403h-100v97h100v128l72 72h276v-97h-224l-13 -13v-90h332v-626l-74 -74h-274z" />
    <glyph glyph-name="f_t" unicode="ft" horiz-adv-x="806" 
d="M115 0v403h-100v97h100v128l72 72h219v-97h-167l-13 -13v-90h259v133h113v-133h177v-97h-177v-288l15 -15h168v-100h-222l-74 74v329h-257v-403h-113z" />
    <glyph glyph-name="f_f_j" unicode="ffj" horiz-adv-x="980" 
d="M560 -200v100h221l14 14v489h-217v-403h-113v403h-237v-403h-113v403h-100v97h100v128l72 72h217v-97h-165l-13 -13v-90h239v128l72 72h276v-97h-224l-13 -13v-90h332v-626l-74 -74h-274z" />
    <glyph glyph-name="r_t" unicode="rt" horiz-adv-x="797" 
d="M72 0v500h89v-40h19l47 40h249v133h113v-133h177v-96h-177v-289l15 -15h168v-100h-222l-74 74v330h-226l-65 -53v-351h-113z" />
    <glyph glyph-name=".notdef" horiz-adv-x="900" 
d="M100 0v284h45v-139h33v139h50v31h-128v126l19 -61h23l34 106l33 -106h23l54 170h-32l-34 -110l-35 110h-19l-35 -110l-31 103v157h700v-150h-110v-170h110v-91q-13 27 -50 27q-27 0 -43.5 -14.5t-16.5 -34.5t14 -32t30 -15t30 -9.5t14 -16.5q0 -21 -28 -21t-28 25h-33
q0 -24 17 -39.5t44 -15.5q33 0 50 20v-163h-700zM311 380h33v62h24l35 -62h37l-40 67q36 17 36 50q0 22 -16 37.5t-41 15.5h-68v-170zM469 380h33v170h-33v-170zM580 380h32v139h50v31h-132v-31h50v-139zM344 473v46h35q10 0 17 -6.5t7 -16.5q0 -23 -24 -23h-35zM722 483v36
h78v-36h-78zM722 411v41h78v-41h-78zM328 143q37 0 59.5 24.5t22.5 61.5t-23 62t-59 25t-59 -25t-23 -62t22.5 -61.5t59.5 -24.5zM585 143q29 0 48 19t19 47v106h-32v-106q0 -15 -9.5 -25t-25.5 -10q-17 0 -26.5 10.5t-9.5 24.5v106h-32v-106q0 -28 19.5 -47t48.5 -19z
M800 224q-9 9 -23.5 15t-25.5 8.5t-19 7.5t-8 12q0 9 7.5 14.5t18.5 5.5q10 0 18 -7t8 -18h24v-38zM328 174q-22 0 -36.5 16t-14.5 39q0 25 13.5 40.5t37.5 15.5t37.5 -15.5t13.5 -40.5q0 -23 -14.5 -39t-36.5 -16z" />
    <glyph glyph-name=".null" 
 />
    <glyph glyph-name="nonmarkingreturn" horiz-adv-x="333" 
 />
    <glyph glyph-name="CR" unicode="&#xd;" horiz-adv-x="340" 
 />
    <glyph glyph-name="space" unicode=" " horiz-adv-x="340" 
 />
    <glyph glyph-name="exclam" unicode="!" horiz-adv-x="346" 
d="M131 203l-17 160v337h118v-337l-17 -160h-84zM107 0v126h132v-126h-132z" />
    <glyph glyph-name="quotedbl" unicode="&#x22;" horiz-adv-x="379" 
d="M73 412l-22 146v142h100v-142l-22 -146h-56zM251 412l-22 146v142h100v-142l-22 -146h-56z" />
    <glyph glyph-name="numbersign" unicode="#" horiz-adv-x="862" 
d="M814 424h-168l-38 -148h156v-92h-180l-47 -184h-99v29l40 155h-180l-47 -184h-99v29l40 155h-144v92h168l38 148h-156v92h180l47 184h99v-29l-40 -155h180l47 184h99v-29l-40 -155h144v-92zM502 276l38 148h-180l-38 -148h180z" />
    <glyph glyph-name="dollar" unicode="$" horiz-adv-x="722" 
d="M324 -100v100h-251v106h432l50 50v96l-51 51h-328l-114 114v170l113 113h149v100h86v-100h230v-106h-408l-50 -50v-84l51 -51h328l114 -114v-182l-113 -113h-152v-100h-86z" />
    <glyph glyph-name="percent" unicode="%" horiz-adv-x="975" 
d="M140 368l-75 75v182l75 75h183l75 -75v-182l-75 -75h-183zM235 0v34l426 666h79v-34l-426 -666h-79zM184 447h95l31 31v112l-31 31h-95l-31 -31v-112zM652 0l-75 75v182l75 75h183l75 -75v-182l-75 -75h-183zM696 79h95l31 31v112l-31 31h-95l-31 -31v-112z" />
    <glyph glyph-name="ampersand" unicode="&#x26;" horiz-adv-x="835" 
d="M182 0l-120 120v154l98 98l-78 77v141l110 110h359v-106h-299l-50 -50v-72l59 -59h212v-103h-231l-60 -60v-84l60 -60h272l63 63v386h113v-142h128v-103h-128v-190l-120 -120h-388z" />
    <glyph glyph-name="quotesingle" unicode="'" horiz-adv-x="201" 
d="M73 412l-22 146v142h100v-142l-22 -146h-56z" />
    <glyph glyph-name="parenleft" unicode="(" horiz-adv-x="397" 
d="M203 -200l-106 106v748l106 106h136v-104h-80l-48 -48v-656l48 -48h80v-104h-136z" />
    <glyph glyph-name="parenright" unicode=")" horiz-adv-x="397" 
d="M58 -200v104h80l48 48v656l-48 48h-80v104h136l106 -106v-748l-106 -106h-136z" />
    <glyph glyph-name="asterisk" unicode="*" horiz-adv-x="501" 
d="M209 337l2 122l-103 -65l-40 72l109 58l-109 58l40 72l103 -64l-2 122h83l-1 -122l102 64l40 -72l-108 -58l108 -58l-40 -72l-102 65l1 -122h-83z" />
    <glyph glyph-name="plus" unicode="+" horiz-adv-x="580" 
d="M244 100v204h-205v92h205v204h92v-204h205v-92h-205v-204h-92z" />
    <glyph glyph-name="comma" unicode="," horiz-adv-x="300" 
d="M95 -162l33 152h-46v136h136v-115l-58 -173h-65z" />
    <glyph glyph-name="hyphen" unicode="-" horiz-adv-x="444" 
d="M68 223v104h308v-104h-308z" />
    <glyph glyph-name="period" unicode="." horiz-adv-x="296" 
d="M82 0v126h132v-126h-132z" />
    <glyph glyph-name="slash" unicode="/" horiz-adv-x="425" 
d="M10 -200v28l307 902h98v-28l-306 -902h-99z" />
    <glyph glyph-name="zero" unicode="0" horiz-adv-x="796" 
d="M219 0l-142 142v416l142 142h358l142 -142v-416l-142 -142h-358zM276 106h244l79 79v330l-79 79h-244l-79 -79v-330z" />
    <glyph glyph-name="one" unicode="1" horiz-adv-x="564" 
d="M40 0v106h203v488h-183v106h303v-594h183v-106h-506z" />
    <glyph glyph-name="two" unicode="2" horiz-adv-x="720" 
d="M58 0v260l131 131h304l49 49v104l-50 50h-408v106h468l110 -110v-192l-110 -110h-304l-70 -70v-109h479v-109h-599z" />
    <glyph glyph-name="three" unicode="3" horiz-adv-x="705" 
d="M44 0v106h424l60 60v83l-60 61h-278v103h259l59 59v72l-50 50h-403v106h463l110 -110v-140l-75 -75l95 -96v-161l-118 -118h-486z" />
    <glyph glyph-name="four" unicode="4" horiz-adv-x="746" 
d="M499 0v136h-457v141l405 423h169v-462h95v-102h-95v-136h-117zM168 238h331v349h-18l-313 -328v-21z" />
    <glyph glyph-name="five" unicode="5" horiz-adv-x="741" 
d="M71 0v106h424l60 60v108l-60 60h-399v366h550v-106h-431v-157h340l120 -120v-197l-120 -120h-484z" />
    <glyph glyph-name="six" unicode="6" horiz-adv-x="770" 
d="M200 0l-123 123v434l143 143h434v-106h-377l-80 -80v-74h384l123 -123v-194l-123 -123h-381zM257 106h267l60 60v111l-60 60h-327v-171z" />
    <glyph glyph-name="seven" unicode="7" horiz-adv-x="664" 
d="M203 0v248l303 267v77h-481v108h602v-225l-304 -267v-208h-120z" />
    <glyph glyph-name="eight" unicode="8" horiz-adv-x="763" 
d="M183 0l-120 120v158l95 95l-75 74v143l110 110h377l110 -110v-143l-74 -74l94 -95v-158l-120 -120h-397zM261 413h241l58 58v76l-50 50h-256l-51 -50v-76zM244 103h276l60 61v86l-60 60h-277l-60 -60v-86z" />
    <glyph glyph-name="nine" unicode="9" horiz-adv-x="770" 
d="M116 0v106h377l80 80v74h-384l-123 123v194l123 123h381l123 -123v-434l-143 -143h-434zM246 363h327v171l-60 60h-267l-60 -60v-111z" />
    <glyph glyph-name="colon" unicode=":" horiz-adv-x="296" 
d="M82 374v126h132v-126h-132zM82 0v126h132v-126h-132z" />
    <glyph glyph-name="semicolon" unicode=";" horiz-adv-x="298" 
d="M84 374v126h132v-126h-132zM95 -162l33 152h-46v136h136v-115l-58 -173h-65z" />
    <glyph glyph-name="less" unicode="&#x3c;" horiz-adv-x="456" 
d="M331 44l-292 291l292 292l66 -67l-226 -225l226 -225z" />
    <glyph glyph-name="equal" unicode="=" horiz-adv-x="580" 
d="M55 401v92h470v-92h-470zM55 207v92h470v-92h-470z" />
    <glyph glyph-name="greater" unicode="&#x3e;" horiz-adv-x="456" 
d="M126 44l-67 66l226 225l-226 225l67 67l291 -292z" />
    <glyph glyph-name="question" unicode="?" horiz-adv-x="689" 
d="M215 203v119l66 66h150l59 59v92l-59 59h-361v102h419l121 -121v-172l-121 -121h-142l-14 -13v-70h-118zM208 0v126h132v-126h-132z" />
    <glyph glyph-name="at" unicode="@" horiz-adv-x="986" 
d="M238 -147l-160 160v484l160 160h520l160 -160v-336l-101 -101h-146l-53 53l-53 -53h-167l-92 92v206l92 92h268v-265l40 -40h65l46 46v269l-105 105h-427l-105 -105v-409l105 -106h537v-92h-584zM445 145h86l40 40v180h-126l-44 -44v-132z" />
    <glyph glyph-name="A" unicode="A" horiz-adv-x="789" 
d="M481 700l285 -660v-40h-115l-72 173h-372l-72 -173h-112v40l282 660h176zM251 279h284l-132 315h-20z" />
    <glyph glyph-name="B" unicode="B" horiz-adv-x="812" 
d="M97 0v700h508l110 -110v-144l-65 -65l100 -100v-161l-120 -120h-533zM217 413h324l54 54v80l-50 50h-328v-184zM217 103h353l60 61v87l-59 59h-354v-207z" />
    <glyph glyph-name="C" unicode="C" horiz-adv-x="716" 
d="M219 0l-142 142v416l142 142h449v-106h-392l-79 -79v-330l79 -79h392v-106h-449z" />
    <glyph glyph-name="D" unicode="D" horiz-adv-x="826" 
d="M97 0v700h510l142 -142v-416l-142 -142h-510zM217 106h333l79 79v330l-79 79h-333v-488z" />
    <glyph glyph-name="E" unicode="E" horiz-adv-x="739" 
d="M97 0v700h592v-106h-472v-190h362v-103h-362v-195h482v-106h-602z" />
    <glyph glyph-name="F" unicode="F" horiz-adv-x="688" 
d="M97 0v700h572v-106h-452v-220h350v-103h-350v-271h-120z" />
    <glyph glyph-name="G" unicode="G" horiz-adv-x="824" 
d="M219 0l-142 142v416l142 142h486v-106h-429l-79 -79v-330l79 -79h288l79 79v122h-251v100h371v-265l-142 -142h-402z" />
    <glyph glyph-name="H" unicode="H" horiz-adv-x="836" 
d="M97 0v700h120v-295h402v295h120v-700h-120v299h-402v-299h-120z" />
    <glyph glyph-name="I" unicode="I" horiz-adv-x="514" 
d="M57 0v98h140v505h-140v97h400v-97h-140v-505h140v-98h-400z" />
    <glyph glyph-name="J" unicode="J" horiz-adv-x="569" 
d="M31 0v106h263l68 68v420h-288v106h408v-569l-131 -131h-320z" />
    <glyph glyph-name="K" unicode="K" horiz-adv-x="753" 
d="M97 0v700h120v-294h162l212 294h115v-41l-223 -303l243 -314v-42h-119l-226 300h-164v-300h-120z" />
    <glyph glyph-name="L" unicode="L" horiz-adv-x="640" 
d="M97 0v700h120v-594h404v-106h-524z" />
    <glyph glyph-name="M" unicode="M" horiz-adv-x="1004" 
d="M97 0v700h200l196 -447h20l196 447h198v-700h-120v575h-15l-197 -448h-146l-196 448h-16v-575h-120z" />
    <glyph glyph-name="N" unicode="N" horiz-adv-x="846" 
d="M97 0v700h200l319 -578h17v578h116v-700h-200l-319 579h-16v-579h-117z" />
    <glyph glyph-name="O" unicode="O" horiz-adv-x="840" 
d="M219 0l-142 142v416l142 142h402l142 -142v-416l-142 -142h-402zM276 106h288l79 79v330l-79 79h-288l-79 -79v-330z" />
    <glyph glyph-name="P" unicode="P" horiz-adv-x="767" 
d="M97 0v700h487l130 -130v-225l-130 -130h-367v-215h-120zM217 321h310l67 68v138l-67 67h-310v-273z" />
    <glyph glyph-name="Q" unicode="Q" horiz-adv-x="840" 
d="M621 700l142 -142v-416l-142 -142h-150v-145h-102v145h-150l-142 142v416l142 142h402zM643 185v330l-79 79h-288l-79 -79v-330l79 -79h93v143h102v-143h93z" />
    <glyph glyph-name="R" unicode="R" horiz-adv-x="802" 
d="M97 0v700h493l130 -130v-198l-125 -125l148 -207v-40h-117l-169 240h-240v-240h-120zM217 343h313l70 70v114l-70 70h-313v-254z" />
    <glyph glyph-name="S" unicode="S" horiz-adv-x="730" 
d="M73 0v106h440l50 50v96l-51 51h-336l-114 114v170l113 113h473v-106h-416l-50 -50v-84l51 -51h336l114 -114v-182l-113 -113h-497z" />
    <glyph glyph-name="T" unicode="T" horiz-adv-x="682" 
d="M281 0v594h-271v106h662v-106h-271v-594h-120z" />
    <glyph glyph-name="U" unicode="U" horiz-adv-x="796" 
d="M231 0l-144 144v556h120v-513l81 -81h220l81 81v513h120v-556l-144 -144h-334z" />
    <glyph glyph-name="V" unicode="V" horiz-adv-x="758" 
d="M284 0l-261 660v40h114l230 -588h28l231 588h109v-40l-261 -660h-190z" />
    <glyph glyph-name="W" unicode="W" horiz-adv-x="1065" 
d="M237 0l-209 660v40h113l184 -587h22l132 408l-42 139v40h112l175 -587h22l181 587h110v-40l-206 -660h-187l-105 339h-11l-111 -339h-180z" />
    <glyph glyph-name="X" unicode="X" horiz-adv-x="728" 
d="M32 0v40l248 323l-228 297v40h119l188 -251h16l188 251h113v-40l-228 -297l248 -323v-40h-118l-208 278h-17l-207 -278h-114z" />
    <glyph glyph-name="Y" unicode="Y" horiz-adv-x="722" 
d="M302 0v237l-285 423v40h116l221 -333h22l221 333h108v-40l-283 -423v-237h-120z" />
    <glyph glyph-name="Z" unicode="Z" horiz-adv-x="696" 
d="M44 0v155l463 411v26h-449v108h593v-155l-463 -410v-26h464v-109h-608z" />
    <glyph glyph-name="bracketleft" unicode="[" horiz-adv-x="401" 
d="M97 -200v960h246v-104h-132v-752h132v-104h-246z" />
    <glyph glyph-name="backslash" unicode="\" horiz-adv-x="425" 
d="M317 -200l-307 902v28h99l306 -902v-28h-98z" />
    <glyph glyph-name="bracketright" unicode="]" horiz-adv-x="401" 
d="M58 -200v104h132v752h-132v104h246v-960h-246z" />
    <glyph glyph-name="asciicircum" unicode="^" horiz-adv-x="537" 
d="M116 471l-61 61l168 168h91l168 -168l-61 -61l-146 147h-13z" />
    <glyph glyph-name="underscore" unicode="_" horiz-adv-x="460" 
d="M-20 -200v92h500v-92h-500z" />
    <glyph glyph-name="grave" unicode="`" horiz-adv-x="228" 
d="M121 560l-91 165v11h110l58 -165v-11h-77z" />
    <glyph glyph-name="a" unicode="a" horiz-adv-x="608" 
d="M135 0l-88 88v132l95 95h286v43l-42 42h-273v100h327l101 -101v-399h-89v47h-17l-58 -47h-242zM188 98h169l71 57v68h-231l-37 -37v-61z" />
    <glyph glyph-name="b" unicode="b" horiz-adv-x="640" 
d="M77 0v700h113v-234h16l40 34h216l116 -116v-268l-116 -116h-385zM190 100h218l57 57v186l-57 57h-144l-74 -61v-239z" />
    <glyph glyph-name="c" unicode="c" horiz-adv-x="554" 
d="M178 0l-116 116v268l116 116h327v-100h-273l-57 -57v-186l57 -57h273v-100h-327z" />
    <glyph glyph-name="d" unicode="d" horiz-adv-x="640" 
d="M178 0l-116 116v268l116 116h272v200h113v-700h-89v48h-20l-58 -48h-218zM232 100h143l75 61v239h-218l-57 -57v-186z" />
    <glyph glyph-name="e" unicode="e" horiz-adv-x="626" 
d="M178 0l-116 116v268l116 116h279l116 -116v-184h-398v-43l57 -57h305v-100h-359zM175 293h285v53l-57 57h-171l-57 -57v-53z" />
    <glyph glyph-name="f" unicode="f" horiz-adv-x="401" 
d="M115 0v403h-100v97h100v128l72 72h224v-97h-172l-13 -13v-90h179v-97h-177v-403h-113z" />
    <glyph glyph-name="g" unicode="g" horiz-adv-x="635" 
d="M100 -200v100h320l30 30v104h-15l-41 -34h-216l-116 116v268l116 116h385v-610l-90 -90h-373zM232 100h144l74 61v239h-218l-57 -57v-186z" />
    <glyph glyph-name="h" unicode="h" horiz-adv-x="637" 
d="M77 0v700h113v-231h15l38 31h220l107 -107v-393h-113v352l-48 48h-148l-71 -58v-342h-113z" />
    <glyph glyph-name="i" unicode="i" horiz-adv-x="257" 
d="M68 594v106h121v-106h-121zM72 0v500h113v-500h-113z" />
    <glyph glyph-name="j" unicode="j" horiz-adv-x="257" 
d="M68 594v106h121v-106h-121zM-82 -200v100h140l14 14v586h113v-626l-74 -74h-193z" />
    <glyph glyph-name="k" unicode="k" horiz-adv-x="595" 
d="M77 0v700h113v-393h116l138 193h109v-34l-149 -205l169 -227v-34h-114l-153 207h-116v-207h-113z" />
    <glyph glyph-name="l" unicode="l" horiz-adv-x="283" 
d="M93 0v603h-100v97h213v-700h-113z" />
    <glyph glyph-name="m" unicode="m" horiz-adv-x="920" 
d="M72 0v500h89v-40h19l47 40h185l58 -58h22l69 58h185l107 -107v-393h-113v352l-48 48h-110l-63 -51v-349h-113v352l-48 48h-110l-63 -51v-349h-113z" />
    <glyph glyph-name="n" unicode="n" horiz-adv-x="632" 
d="M72 0v500h89v-40h19l47 40h231l107 -107v-393h-113v352l-48 48h-156l-63 -52v-348h-113z" />
    <glyph glyph-name="o" unicode="o" horiz-adv-x="643" 
d="M178 0l-116 116v268l116 116h287l116 -116v-268l-116 -116h-287zM232 100h179l57 57v186l-57 57h-179l-57 -57v-186z" />
    <glyph glyph-name="p" unicode="p" horiz-adv-x="635" 
d="M72 -200v700h89v-48h21l57 48h218l116 -116v-268l-116 -116h-272v-200h-113zM185 100h218l57 57v186l-57 57h-143l-75 -61v-239z" />
    <glyph glyph-name="q" unicode="q" horiz-adv-x="635" 
d="M450 -200v234h-15l-41 -34h-216l-116 116v268l116 116h385v-700h-113zM232 100h144l74 61v239h-218l-57 -57v-186z" />
    <glyph glyph-name="r" unicode="r" horiz-adv-x="417" 
d="M72 0v500h89v-40h19l47 40h194v-100h-173l-63 -52v-348h-113z" />
    <glyph glyph-name="s" unicode="s" horiz-adv-x="576" 
d="M63 0v98h326l27 27v50l-27 28h-244l-88 87v123l88 87h358v-97h-305l-28 -28v-47l28 -28h244l87 -87v-125l-87 -88h-379z" />
    <glyph glyph-name="t" unicode="t" horiz-adv-x="436" 
d="M189 0l-74 74v329h-100v97h100v133h113v-133h177v-97h-177v-288l15 -15h168v-100h-222z" />
    <glyph glyph-name="u" unicode="u" horiz-adv-x="617" 
d="M174 0l-107 107v393h113v-352l48 -48h141l63 52v348h113v-500h-89v40h-18l-48 -40h-216z" />
    <glyph glyph-name="v" unicode="v" horiz-adv-x="560" 
d="M197 0l-183 466v34h108l152 -396h16l153 396h103v-34l-183 -466h-166z" />
    <glyph glyph-name="w" unicode="w" horiz-adv-x="808" 
d="M173 0l-154 466v34h107l124 -395h16l92 273l-25 88v34h103l109 -395h16l125 395h104v-34l-154 -466h-160l-64 220h-14l-73 -220h-152z" />
    <glyph glyph-name="x" unicode="x" horiz-adv-x="572" 
d="M28 0v34l178 220l-168 212v34h115l125 -166h19l128 166h108v-34l-167 -207l178 -225v-34h-115l-137 183h-17l-139 -183h-108z" />
    <glyph glyph-name="y" unicode="y" horiz-adv-x="616" 
d="M94 -200v97h304l33 33v96h-14l-31 -26h-212l-107 107v393h113v-352l48 -48h140l63 52v348h113v-610l-90 -90h-360z" />
    <glyph glyph-name="z" unicode="z" horiz-adv-x="537" 
d="M43 0v139l320 247v17h-310v97h440v-139l-319 -246v-17h329v-98h-460z" />
    <glyph glyph-name="braceleft" unicode="{" horiz-adv-x="431" 
d="M241 -200l-106 106v323h-83v103h83v322l106 106h132v-104h-76l-48 -48v-656l48 -48h76v-104h-132z" />
    <glyph glyph-name="bar" unicode="|" horiz-adv-x="341" 
d="M116 -200v960h109v-960h-109z" />
    <glyph glyph-name="braceright" unicode="}" horiz-adv-x="431" 
d="M58 -200v104h76l48 48v656l-48 48h-76v104h132l106 -106v-322h83v-103h-83v-323l-106 -106h-132z" />
    <glyph glyph-name="asciitilde" unicode="~" horiz-adv-x="580" 
d="M61 277v82l66 66h148l68 -70h72l22 22v48h83v-82l-66 -66h-143l-68 70h-77l-22 -22v-48h-83z" />
    <glyph glyph-name="uni00A0" unicode="&#xa0;" horiz-adv-x="340" 
 />
    <glyph glyph-name="exclamdown" unicode="&#xa1;" horiz-adv-x="346" 
d="M107 374v126h132v-126h-132zM114 -200v337l17 160h84l17 -160v-337h-118z" />
    <glyph glyph-name="cent" unicode="&#xa2;" horiz-adv-x="585" 
d="M294 -90v90h-116l-116 116v268l116 116h116v90h89v-90h153v-100h-153v-300h153v-100h-153v-90h-89zM229 100h65v300h-65l-57 -57v-186z" />
    <glyph glyph-name="sterling" unicode="&#xa3;" horiz-adv-x="678" 
d="M37 0v106h135v207h-95v86h95v187l114 114h325v-106h-270l-49 -48v-147h259v-86h-259v-207h359v-106h-614z" />
    <glyph glyph-name="currency" unicode="&#xa4;" horiz-adv-x="613" 
d="M135 104l-57 56l69 69l-18 17v168l17 17l-68 68l57 56l67 -68l17 17h172l18 -18l70 69l56 -56l-69 -70l15 -15v-168l-16 -16l70 -70l-56 -56l-70 70l-18 -18h-172l-16 16zM256 240h98l37 37v106l-37 37h-98l-37 -37v-106z" />
    <glyph glyph-name="yen" unicode="&#xa5;" horiz-adv-x="720" 
d="M703 700v-40l-223 -335h160v-81h-214l-5 -7v-65h219v-82h-219v-90h-120v90h-219v82h219v65l-5 7h-214v81h160l-225 335v40h115l220 -332h23l219 332h109z" />
    <glyph glyph-name="brokenbar" unicode="&#xa6;" horiz-adv-x="341" 
d="M116 360v400h109v-400h-109zM116 -200v400h109v-400h-109z" />
    <glyph glyph-name="section" unicode="&#xa7;" horiz-adv-x="635" 
d="M112 -200v97h283l44 45v42l-68 68h-191l-110 110v176l82 82l-67 66v117l97 97h324v-97h-269l-41 -41v-46l68 -68h191l110 -110v-176l-81 -81l66 -67v-113l-101 -101h-337zM233 147h169l52 52v102l-52 52h-169l-52 -52v-102z" />
    <glyph glyph-name="dieresis" unicode="&#xa8;" horiz-adv-x="372" 
d="M30 598v106h114v-106h-114zM228 598v106h114v-106h-114z" />
    <glyph glyph-name="copyright" unicode="&#xa9;" horiz-adv-x="1052" 
d="M270 -40l-160 160v450l160 160h512l160 -160v-450l-160 -160h-512zM318 47h416l110 110v376l-110 110h-416l-110 -110v-376zM433 150l-92 92v206l92 92h257v-84h-215l-44 -44v-134l44 -44h215v-84h-257z" />
    <glyph glyph-name="ordfeminine" unicode="&#xaa;" horiz-adv-x="457" 
d="M114 330l-71 71v96l71 71h210v32l-30 30h-214v70h256l68 -68v-302h-63v37h-10l-37 -37h-180zM156 400h128l40 40v58h-168l-33 -33v-32z" />
    <glyph glyph-name="guillemotleft" unicode="&#xab;" horiz-adv-x="623" 
d="M256 -9l-219 259l219 259l76 -60l-169 -199l170 -198zM500 -9l-219 259l219 259l76 -60l-169 -199l170 -198z" />
    <glyph glyph-name="logicalnot" unicode="&#xac;" horiz-adv-x="580" 
d="M434 236v91h-379v91h470v-182h-91z" />
    <glyph glyph-name="uni00AD" unicode="&#xad;" horiz-adv-x="444" 
d="M68 223v104h308v-104h-308z" />
    <glyph glyph-name="registered" unicode="&#xae;" horiz-adv-x="1052" 
d="M270 -40l-160 160v450l160 160h512l160 -160v-450l-160 -160h-512zM318 47h416l110 110v376l-110 110h-416l-110 -110v-376zM360 150v390h277l75 -75v-113l-69 -69l87 -117v-16h-93l-93 127h-94v-127h-90zM450 361h145l27 27v41l-27 27h-145v-95z" />
    <glyph glyph-name="macron" unicode="&#xaf;" horiz-adv-x="370" 
d="M30 610v82h310v-82h-310z" />
    <glyph glyph-name="degree" unicode="&#xb0;" horiz-adv-x="452" 
d="M130 369l-74 74v183l74 74h192l74 -74v-183l-74 -74h-192zM174 446h104l30 30v117l-30 30h-104l-30 -30v-117z" />
    <glyph glyph-name="plusminus" unicode="&#xb1;" horiz-adv-x="580" 
d="M244 158v202h-205v91h205v202h92v-202h205v-91h-205v-202h-92zM40 0v91h500v-91h-500z" />
    <glyph glyph-name="uni00B2" unicode="&#xb2;" horiz-adv-x="406" 
d="M43 468v135l65 65h154l21 21v18l-21 21h-208v72h253l60 -60v-82l-60 -60h-154l-26 -26v-32h230v-72h-314z" />
    <glyph glyph-name="uni00B3" unicode="&#xb3;" horiz-adv-x="398" 
d="M43 468v72h220l17 17v22l-22 22h-135v70h125l22 22v18l-17 17h-204v72h250l55 -55v-70l-31 -31l41 -41v-80l-55 -55h-266z" />
    <glyph glyph-name="acute" unicode="&#xb4;" horiz-adv-x="228" 
d="M30 560v11l61 165h107v-11l-90 -165h-78z" />
    <glyph glyph-name="uni00B5" unicode="&#xb5;" horiz-adv-x="638" 
d="M72 -200v700h113v-348l52 -52h162l54 53v347h113v-500h-89v40h-12l-41 -40h-204l-26 26h-9v-226h-113z" />
    <glyph glyph-name="paragraph" unicode="&#xb6;" horiz-adv-x="660" 
d="M248 -200v464h-86l-106 106v224l106 106h186v-900h-100zM454 -200v900h100v-900h-100z" />
    <glyph glyph-name="periodcentered" unicode="&#xb7;" horiz-adv-x="340" 
d="M105 225v126h132v-126h-132z" />
    <glyph glyph-name="cedilla" unicode="&#xb8;" horiz-adv-x="272" 
d="M30 -206v66h124l10 10v22l-10 10h-94v32l21 69l76 6v-6l-10 -29v-8h43l52 -52v-68l-52 -52h-160z" />
    <glyph glyph-name="uni00B9" unicode="&#xb9;" horiz-adv-x="384" 
d="M68 468v73h89v186h-83v73h167v-259h83v-73h-256z" />
    <glyph glyph-name="ordmasculine" unicode="&#xba;" horiz-adv-x="465" 
d="M128 330l-73 73v224l73 73h209l73 -73v-224l-73 -73h-209zM166 403h133l33 33v158l-33 33h-133l-33 -33v-158z" />
    <glyph glyph-name="guillemotright" unicode="&#xbb;" horiz-adv-x="623" 
d="M123 -9l-76 61l170 198l-170 199l77 60l218 -259zM367 -9l-76 61l170 198l-170 199l77 60l218 -259z" />
    <glyph glyph-name="onequarter" unicode="&#xbc;" horiz-adv-x="840" 
d="M68 368v73h89v186h-83v73h167v-259h83v-73h-256zM176 0v34l426 666h79v-34l-426 -666h-79zM670 0v58h-208v70l186 204h104v-206h45v-68h-45v-58h-82zM554 126h116v126h-6l-110 -121v-5z" />
    <glyph glyph-name="onehalf" unicode="&#xbd;" horiz-adv-x="879" 
d="M68 368v73h89v186h-83v73h167v-259h83v-73h-256zM176 0v34l426 666h79v-34l-426 -666h-79zM516 0v135l65 65h154l21 21v18l-21 21h-208v72h253l60 -60v-82l-60 -60h-154l-26 -26v-32h230v-72h-314z" />
    <glyph glyph-name="threequarters" unicode="&#xbe;" horiz-adv-x="854" 
d="M43 368v72h220l17 17v22l-22 22h-135v70h125l22 22v18l-17 17h-204v72h250l55 -55v-70l-31 -31l41 -41v-80l-55 -55h-266zM190 0v34l426 666h79v-34l-426 -666h-79zM684 0v58h-208v70l186 204h104v-206h45v-68h-45v-58h-82zM568 126h116v126h-6l-110 -121v-5z" />
    <glyph glyph-name="questiondown" unicode="&#xbf;" horiz-adv-x="689" 
d="M349 374v126h132v-126h-132zM200 -200l-121 121v172l121 121h143l14 14v69h118v-119l-66 -66h-151l-59 -59v-92l59 -59h361v-102h-419z" />
    <glyph glyph-name="Agrave" unicode="&#xc0;" horiz-adv-x="789" 
d="M436 752h-87l-73 129v11h108l52 -129v-11zM481 700l285 -660v-40h-115l-72 173h-372l-72 -173h-112v40l282 660h176zM251 279h284l-132 315h-20z" />
    <glyph glyph-name="Aacute" unicode="&#xc1;" horiz-adv-x="789" 
d="M510 881l-72 -129h-88v11l53 129h107v-11zM481 700l285 -660v-40h-115l-72 173h-372l-72 -173h-112v40l282 660h176zM251 279h284l-132 315h-20z" />
    <glyph glyph-name="Acircumflex" unicode="&#xc2;" horiz-adv-x="789" 
d="M388 820l-71 -68h-97v26l119 108h111l117 -106v-28h-95l-71 68h-13zM481 700l285 -660v-40h-115l-72 173h-372l-72 -173h-112v40l282 660h176zM251 279h284l-132 315h-20z" />
    <glyph glyph-name="Atilde" unicode="&#xc3;" horiz-adv-x="789" 
d="M296 792v-40h-84v71l55 55h107l56 -53h46l13 13v40h84v-71l-55 -55h-115l-56 53h-38zM481 700l285 -660v-40h-115l-72 173h-372l-72 -173h-112v40l282 660h176zM251 279h284l-132 315h-20z" />
    <glyph glyph-name="Adieresis" unicode="&#xc4;" horiz-adv-x="789" 
d="M351 874v-106h-114v106h114zM549 874v-106h-114v106h114zM481 700l285 -660v-40h-115l-72 173h-372l-72 -173h-112v40l282 660h176zM251 279h284l-132 315h-20z" />
    <glyph glyph-name="Aring" unicode="&#xc5;" horiz-adv-x="789" 
d="M463 728h-140l-57 57v101l57 57h140l57 -57v-101zM339 859v-47l18 -18h72l18 18v47l-18 18h-72zM481 700l285 -660v-40h-115l-72 173h-372l-72 -173h-112v40l282 660h176zM251 279h284l-132 315h-20z" />
    <glyph glyph-name="AE" unicode="&#xc6;" horiz-adv-x="1143" 
d="M648 106h456v-106h-574v188h-305l-94 -188h-113v40l336 660h740v-106h-446v-190h340v-103h-340v-195zM530 294v300h-101l-151 -300h252z" />
    <glyph glyph-name="Ccedilla" unicode="&#xc7;" horiz-adv-x="716" 
d="M276 594l-79 -79v-330l79 -79h392v-106h-218l-9 -26v-8h43l52 -52v-68l-52 -52h-160v66h124l10 10v22l-10 10h-94v32l20 66h-155l-142 142v416l142 142h449v-106h-392z" />
    <glyph glyph-name="Egrave" unicode="&#xc8;" horiz-adv-x="739" 
d="M349 752l-73 129v11h108l52 -129v-11h-87zM97 0v700h592v-106h-472v-190h362v-103h-362v-195h482v-106h-602z" />
    <glyph glyph-name="Eacute" unicode="&#xc9;" horiz-adv-x="739" 
d="M350 752v11l53 129h107v-11l-72 -129h-88zM97 0v700h592v-106h-472v-190h362v-103h-362v-195h482v-106h-602z" />
    <glyph glyph-name="Ecircumflex" unicode="&#xca;" horiz-adv-x="739" 
d="M220 752v26l119 108h111l117 -106v-28h-95l-71 68h-13l-71 -68h-97zM97 0v700h592v-106h-472v-190h362v-103h-362v-195h482v-106h-602z" />
    <glyph glyph-name="Edieresis" unicode="&#xcb;" horiz-adv-x="739" 
d="M237 768v106h114v-106h-114zM435 768v106h114v-106h-114zM97 0v700h592v-106h-472v-190h362v-103h-362v-195h482v-106h-602z" />
    <glyph glyph-name="Igrave" unicode="&#xcc;" horiz-adv-x="514" 
d="M214 752l-73 129v11h108l52 -129v-11h-87zM57 0v98h140v505h-140v97h400v-97h-140v-505h140v-98h-400z" />
    <glyph glyph-name="Iacute" unicode="&#xcd;" horiz-adv-x="514" 
d="M215 752v11l53 129h107v-11l-72 -129h-88zM57 0v98h140v505h-140v97h400v-97h-140v-505h140v-98h-400z" />
    <glyph glyph-name="Icircumflex" unicode="&#xce;" horiz-adv-x="514" 
d="M84 752v26l119 108h111l117 -106v-28h-95l-71 68h-13l-71 -68h-97zM57 0v98h140v505h-140v97h400v-97h-140v-505h140v-98h-400z" />
    <glyph glyph-name="Idieresis" unicode="&#xcf;" horiz-adv-x="514" 
d="M101 768v106h114v-106h-114zM299 768v106h114v-106h-114zM57 0v98h140v505h-140v97h400v-97h-140v-505h140v-98h-400z" />
    <glyph glyph-name="Eth" unicode="&#xd0;" horiz-adv-x="847" 
d="M628 700l142 -142v-416l-142 -142h-510v307h-96v86h96v307h510zM650 185v330l-79 79h-333v-201h238v-86h-238v-201h333z" />
    <glyph glyph-name="Ntilde" unicode="&#xd1;" horiz-adv-x="846" 
d="M243 752v71l55 55h107l56 -53h46l13 13v40h84v-71l-55 -55h-115l-56 53h-38l-13 -13v-40h-84zM97 0v700h200l319 -578h17v578h116v-700h-200l-319 579h-16v-579h-117z" />
    <glyph glyph-name="Ograve" unicode="&#xd2;" horiz-adv-x="840" 
d="M376 752l-73 129v11h108l52 -129v-11h-87zM219 0l-142 142v416l142 142h402l142 -142v-416l-142 -142h-402zM276 106h288l79 79v330l-79 79h-288l-79 -79v-330z" />
    <glyph glyph-name="Oacute" unicode="&#xd3;" horiz-adv-x="840" 
d="M377 752v11l53 129h107v-11l-72 -129h-88zM219 0l-142 142v416l142 142h402l142 -142v-416l-142 -142h-402zM276 106h288l79 79v330l-79 79h-288l-79 -79v-330z" />
    <glyph glyph-name="Ocircumflex" unicode="&#xd4;" horiz-adv-x="840" 
d="M247 752v26l119 108h111l117 -106v-28h-95l-71 68h-13l-71 -68h-97zM219 0l-142 142v416l142 142h402l142 -142v-416l-142 -142h-402zM276 106h288l79 79v330l-79 79h-288l-79 -79v-330z" />
    <glyph glyph-name="Otilde" unicode="&#xd5;" horiz-adv-x="840" 
d="M239 752v71l55 55h107l56 -53h46l13 13v40h84v-71l-55 -55h-115l-56 53h-38l-13 -13v-40h-84zM219 0l-142 142v416l142 142h402l142 -142v-416l-142 -142h-402zM276 106h288l79 79v330l-79 79h-288l-79 -79v-330z" />
    <glyph glyph-name="Odieresis" unicode="&#xd6;" horiz-adv-x="840" 
d="M264 768v106h114v-106h-114zM462 768v106h114v-106h-114zM219 0l-142 142v416l142 142h402l142 -142v-416l-142 -142h-402zM276 106h288l79 79v330l-79 79h-288l-79 -79v-330z" />
    <glyph glyph-name="multiply" unicode="&#xd7;" horiz-adv-x="580" 
d="M114 112l-62 62l175 176l-175 176l62 62l176 -175l176 176l62 -63l-174 -176l174 -176l-62 -62l-176 174z" />
    <glyph glyph-name="Oslash" unicode="&#xd8;" horiz-adv-x="851" 
d="M775 659l-53 -54l47 -47v-416l-142 -142h-402l-35 35l-54 -55l-60 61l53 55l-46 46v416l142 142h402l35 -35l53 54zM200 513v-325l8 -8l375 401l-13 13h-288zM651 188v325l-7 7l-376 -400l14 -14h288z" />
    <glyph glyph-name="Ugrave" unicode="&#xd9;" horiz-adv-x="796" 
d="M355 752l-73 129v11h108l52 -129v-11h-87zM231 0l-144 144v556h120v-513l81 -81h220l81 81v513h120v-556l-144 -144h-334z" />
    <glyph glyph-name="Uacute" unicode="&#xda;" horiz-adv-x="796" 
d="M356 752v11l53 129h107v-11l-72 -129h-88zM231 0l-144 144v556h120v-513l81 -81h220l81 81v513h120v-556l-144 -144h-334z" />
    <glyph glyph-name="Ucircumflex" unicode="&#xdb;" horiz-adv-x="796" 
d="M225 752v26l119 108h111l117 -106v-28h-95l-71 68h-13l-71 -68h-97zM231 0l-144 144v556h120v-513l81 -81h220l81 81v513h120v-556l-144 -144h-334z" />
    <glyph glyph-name="Udieresis" unicode="&#xdc;" horiz-adv-x="796" 
d="M242 768v106h114v-106h-114zM440 768v106h114v-106h-114zM231 0l-144 144v556h120v-513l81 -81h220l81 81v513h120v-556l-144 -144h-334z" />
    <glyph glyph-name="Yacute" unicode="&#xdd;" horiz-adv-x="722" 
d="M320 752v11l53 129h107v-11l-72 -129h-88zM302 0v237l-285 423v40h116l221 -333h22l221 333h108v-40l-283 -423v-237h-120z" />
    <glyph glyph-name="Thorn" unicode="&#xde;" horiz-adv-x="788" 
d="M97 0v700h120v-116h383l130 -130v-194l-130 -130h-383v-130h-120zM217 236h326l67 68v107l-67 67h-326v-242z" />
    <glyph glyph-name="germandbls" unicode="&#xdf;" horiz-adv-x="634" 
d="M77 0v584l116 116h242l112 -112v-144l-50 -50l90 -90v-188l-116 -116h-204v100h150l57 57v112l-57 57h-118v98h85l50 50v73l-53 53h-134l-57 -57v-543h-113z" />
    <glyph glyph-name="agrave" unicode="&#xe0;" horiz-adv-x="608" 
d="M278 560l-91 165v11h110l58 -165v-11h-77zM135 0l-88 88v132l95 95h286v43l-42 42h-273v100h327l101 -101v-399h-89v47h-17l-58 -47h-242zM188 98h169l71 57v68h-231l-37 -37v-61z" />
    <glyph glyph-name="aacute" unicode="&#xe1;" horiz-adv-x="608" 
d="M276 560v11l61 165h107v-11l-90 -165h-78zM135 0l-88 88v132l95 95h286v43l-42 42h-273v100h327l101 -101v-399h-89v47h-17l-58 -47h-242zM188 98h169l71 57v68h-231l-37 -37v-61z" />
    <glyph glyph-name="acircumflex" unicode="&#xe2;" horiz-adv-x="608" 
d="M145 560v27l118 143h111l116 -141v-29h-89l-76 99h-14l-76 -99h-90zM135 0l-88 88v132l95 95h286v43l-42 42h-273v100h327l101 -101v-399h-89v47h-17l-58 -47h-242zM188 98h169l71 57v68h-231l-37 -37v-61z" />
    <glyph glyph-name="atilde" unicode="&#xe3;" horiz-adv-x="608" 
d="M132 565v95l55 55h115l65 -77h37l13 13v64h84v-95l-55 -55h-115l-65 77h-37l-13 -13v-64h-84zM135 0l-88 88v132l95 95h286v43l-42 42h-273v100h327l101 -101v-399h-89v47h-17l-58 -47h-242zM188 98h169l71 57v68h-231l-37 -37v-61z" />
    <glyph glyph-name="adieresis" unicode="&#xe4;" horiz-adv-x="608" 
d="M161 598v106h114v-106h-114zM359 598v106h114v-106h-114zM135 0l-88 88v132l95 95h286v43l-42 42h-273v100h327l101 -101v-399h-89v47h-17l-58 -47h-242zM188 98h169l71 57v68h-231l-37 -37v-61z" />
    <glyph glyph-name="aring" unicode="&#xe5;" horiz-adv-x="608" 
d="M248 549l-57 57v118l57 57h138l57 -57v-118l-57 -57h-138zM282 615h70l18 18v64l-18 18h-70l-18 -18v-64zM135 0l-88 88v132l95 95h286v43l-42 42h-273v100h327l101 -101v-399h-89v47h-17l-58 -47h-242zM188 98h169l71 57v68h-231l-37 -37v-61z" />
    <glyph glyph-name="ae" unicode="&#xe6;" horiz-adv-x="943" 
d="M134 0l-87 87v135l94 93h268v34l-53 54h-247v97h290l66 -65l65 65h244l116 -116v-181h-370v-48l55 -55h275v-100h-319l-74 75l-92 -75h-231zM520 295h257v52l-55 56h-150l-52 -52v-56zM190 98h150l69 54v71h-214l-35 -35v-60z" />
    <glyph glyph-name="ccedilla" unicode="&#xe7;" horiz-adv-x="554" 
d="M232 400l-57 -57v-186l57 -57h273v-100h-150l-9 -26v-8h43l52 -52v-68l-52 -52h-160v66h124l10 10v22l-10 10h-94v32l20 66h-101l-116 116v268l116 116h327v-100h-273z" />
    <glyph glyph-name="egrave" unicode="&#xe8;" horiz-adv-x="626" 
d="M278 560l-91 165v11h110l58 -165v-11h-77zM178 0l-116 116v268l116 116h279l116 -116v-184h-398v-43l57 -57h305v-100h-359zM175 293h285v53l-57 57h-171l-57 -57v-53z" />
    <glyph glyph-name="eacute" unicode="&#xe9;" horiz-adv-x="626" 
d="M276 560v11l61 165h107v-11l-90 -165h-78zM178 0l-116 116v268l116 116h279l116 -116v-184h-398v-43l57 -57h305v-100h-359zM175 293h285v53l-57 57h-171l-57 -57v-53z" />
    <glyph glyph-name="ecircumflex" unicode="&#xea;" horiz-adv-x="626" 
d="M145 560v27l118 143h111l116 -141v-29h-89l-76 99h-14l-76 -99h-90zM178 0l-116 116v268l116 116h279l116 -116v-184h-398v-43l57 -57h305v-100h-359zM175 293h285v53l-57 57h-171l-57 -57v-53z" />
    <glyph glyph-name="edieresis" unicode="&#xeb;" horiz-adv-x="626" 
d="M161 598v106h114v-106h-114zM359 598v106h114v-106h-114zM178 0l-116 116v268l116 116h279l116 -116v-184h-398v-43l57 -57h305v-100h-359zM175 293h285v53l-57 57h-171l-57 -57v-53z" />
    <glyph glyph-name="igrave" unicode="&#xec;" horiz-adv-x="257" 
d="M89 560l-91 165v11h110l58 -165v-11h-77zM72 0v500h113v-500h-113z" />
    <glyph glyph-name="iacute" unicode="&#xed;" horiz-adv-x="257" 
d="M87 560v11l61 165h107v-11l-90 -165h-78zM72 0v500h113v-500h-113z" />
    <glyph glyph-name="icircumflex" unicode="&#xee;" horiz-adv-x="257" 
d="M-44 560v27l118 143h111l116 -141v-29h-89l-76 99h-14l-76 -99h-90zM72 0v500h113v-500h-113z" />
    <glyph glyph-name="idieresis" unicode="&#xef;" horiz-adv-x="257" 
d="M-9 597v107h111v-107h-111zM154 597v107h111v-107h-111zM72 0v500h113v-500h-113z" />
    <glyph glyph-name="eth" unicode="&#xf0;" horiz-adv-x="619" 
d="M394 567l183 -234v-217l-116 -116h-293l-116 116v231l116 116h169v10l-50 65l-150 -41h-13v78l111 30l-52 67v28h107l51 -66l153 42h13v-78zM464 157v152l-42 54h-200l-57 -57v-149l57 -57h185z" />
    <glyph glyph-name="ntilde" unicode="&#xf1;" horiz-adv-x="632" 
d="M134 565v95l55 55h115l65 -77h37l13 13v64h84v-95l-55 -55h-115l-65 77h-37l-13 -13v-64h-84zM72 0v500h89v-40h19l47 40h231l107 -107v-393h-113v352l-48 48h-156l-63 -52v-348h-113z" />
    <glyph glyph-name="ograve" unicode="&#xf2;" horiz-adv-x="643" 
d="M283 560l-91 165v11h110l58 -165v-11h-77zM178 0l-116 116v268l116 116h287l116 -116v-268l-116 -116h-287zM232 100h179l57 57v186l-57 57h-179l-57 -57v-186z" />
    <glyph glyph-name="oacute" unicode="&#xf3;" horiz-adv-x="643" 
d="M281 560v11l61 165h107v-11l-90 -165h-78zM178 0l-116 116v268l116 116h287l116 -116v-268l-116 -116h-287zM232 100h179l57 57v186l-57 57h-179l-57 -57v-186z" />
    <glyph glyph-name="ocircumflex" unicode="&#xf4;" horiz-adv-x="643" 
d="M150 560v27l118 143h111l116 -141v-29h-89l-76 99h-14l-76 -99h-90zM178 0l-116 116v268l116 116h287l116 -116v-268l-116 -116h-287zM232 100h179l57 57v186l-57 57h-179l-57 -57v-186z" />
    <glyph glyph-name="otilde" unicode="&#xf5;" horiz-adv-x="643" 
d="M137 565v95l55 55h115l65 -77h37l13 13v64h84v-95l-55 -55h-115l-65 77h-37l-13 -13v-64h-84zM178 0l-116 116v268l116 116h287l116 -116v-268l-116 -116h-287zM232 100h179l57 57v186l-57 57h-179l-57 -57v-186z" />
    <glyph glyph-name="odieresis" unicode="&#xf6;" horiz-adv-x="643" 
d="M166 598v106h114v-106h-114zM364 598v106h114v-106h-114zM178 0l-116 116v268l116 116h287l116 -116v-268l-116 -116h-287zM232 100h179l57 57v186l-57 57h-179l-57 -57v-186z" />
    <glyph glyph-name="divide" unicode="&#xf7;" horiz-adv-x="580" 
d="M236 488v112h108v-112h-108zM45 304v92h490v-92h-490zM236 100v112h108v-112h-108z" />
    <glyph glyph-name="oslash" unicode="&#xf8;" horiz-adv-x="645" 
d="M590 465l-44 -44l36 -37v-268l-116 -116h-287l-28 28l-45 -44l-51 52l45 43l-37 37v268l116 116h287l29 -29l45 45zM173 345v-190l1 -1l246 244l-5 5h-184zM472 155v190l-2 2l-244 -244l5 -5h184z" />
    <glyph glyph-name="ugrave" unicode="&#xf9;" horiz-adv-x="617" 
d="M267 560l-91 165v11h110l58 -165v-11h-77zM174 0l-107 107v393h113v-352l48 -48h141l63 52v348h113v-500h-89v40h-18l-48 -40h-216z" />
    <glyph glyph-name="uacute" unicode="&#xfa;" horiz-adv-x="617" 
d="M265 560v11l61 165h107v-11l-90 -165h-78zM174 0l-107 107v393h113v-352l48 -48h141l63 52v348h113v-500h-89v40h-18l-48 -40h-216z" />
    <glyph glyph-name="ucircumflex" unicode="&#xfb;" horiz-adv-x="617" 
d="M134 560v27l118 143h111l116 -141v-29h-89l-76 99h-14l-76 -99h-90zM174 0l-107 107v393h113v-352l48 -48h141l63 52v348h113v-500h-89v40h-18l-48 -40h-216z" />
    <glyph glyph-name="udieresis" unicode="&#xfc;" horiz-adv-x="617" 
d="M150 598v106h114v-106h-114zM348 598v106h114v-106h-114zM174 0l-107 107v393h113v-352l48 -48h141l63 52v348h113v-500h-89v40h-18l-48 -40h-216z" />
    <glyph glyph-name="yacute" unicode="&#xfd;" horiz-adv-x="616" 
d="M265 560v11l61 165h107v-11l-90 -165h-78zM94 -200v97h304l33 33v96h-14l-31 -26h-212l-107 107v393h113v-352l48 -48h140l63 52v348h113v-610l-90 -90h-360z" />
    <glyph glyph-name="thorn" unicode="&#xfe;" horiz-adv-x="640" 
d="M77 -200v900h113v-236h13l43 36h216l116 -116v-268l-116 -116h-272v-200h-113zM190 100h218l57 57v186l-57 57h-144l-74 -61v-239z" />
    <glyph glyph-name="ydieresis" unicode="&#xff;" horiz-adv-x="616" 
d="M150 598v106h114v-106h-114zM348 598v106h114v-106h-114zM94 -200v97h304l33 33v96h-14l-31 -26h-212l-107 107v393h113v-352l48 -48h140l63 52v348h113v-610l-90 -90h-360z" />
    <glyph glyph-name="Amacron" unicode="&#x100;" horiz-adv-x="789" 
d="M548 862v-82h-310v82h310zM481 700l285 -660v-40h-115l-72 173h-372l-72 -173h-112v40l282 660h176zM251 279h284l-132 315h-20z" />
    <glyph glyph-name="amacron" unicode="&#x101;" horiz-adv-x="608" 
d="M162 610v82h310v-82h-310zM135 0l-88 88v132l95 95h286v43l-42 42h-273v100h327l101 -101v-399h-89v47h-17l-58 -47h-242zM188 98h169l71 57v68h-231l-37 -37v-61z" />
    <glyph glyph-name="Abreve" unicode="&#x102;" horiz-adv-x="789" 
d="M502 752h-217l-57 57v77h86v-43l16 -16h127l17 16v43h85v-77zM481 700l285 -660v-40h-115l-72 173h-372l-72 -173h-112v40l282 660h176zM251 279h284l-132 315h-20z" />
    <glyph glyph-name="abreve" unicode="&#x103;" horiz-adv-x="608" 
d="M214 560l-57 57v103h84v-69l18 -18h118l18 18v69h84v-103l-57 -57h-208zM135 0l-88 88v132l95 95h286v43l-42 42h-273v100h327l101 -101v-399h-89v47h-17l-58 -47h-242zM188 98h169l71 57v68h-231l-37 -37v-61z" />
    <glyph glyph-name="Aogonek" unicode="&#x104;" horiz-adv-x="789" 
d="M766 0l-97 -80v-40l11 -11h75v-75h-116l-48 48v99l72 59h-12l-72 173h-372l-72 -173h-112v40l282 660h176l285 -660v-40zM251 279h284l-132 315h-20z" />
    <glyph glyph-name="aogonek" unicode="&#x105;" horiz-adv-x="608" 
d="M541 0l-97 -80v-40l11 -11h75v-75h-116l-48 48v99l86 71v35h-17l-58 -47h-242l-88 88v132l95 95h286v43l-42 42h-273v100h327l101 -101v-399zM428 155v68h-231l-37 -37v-61l28 -27h169z" />
    <glyph glyph-name="Cacute" unicode="&#x106;" horiz-adv-x="716" 
d="M384 752v11l53 129h107v-11l-72 -129h-88zM219 0l-142 142v416l142 142h449v-106h-392l-79 -79v-330l79 -79h392v-106h-449z" />
    <glyph glyph-name="cacute" unicode="&#x107;" horiz-adv-x="554" 
d="M283 560v11l61 165h107v-11l-90 -165h-78zM178 0l-116 116v268l116 116h327v-100h-273l-57 -57v-186l57 -57h273v-100h-327z" />
    <glyph glyph-name="Ccircumflex" unicode="&#x108;" horiz-adv-x="716" 
d="M254 752v26l119 108h111l117 -106v-28h-95l-71 68h-13l-71 -68h-97zM219 0l-142 142v416l142 142h449v-106h-392l-79 -79v-330l79 -79h392v-106h-449z" />
    <glyph glyph-name="ccircumflex" unicode="&#x109;" horiz-adv-x="554" 
d="M152 560v27l118 143h111l116 -141v-29h-89l-76 99h-14l-76 -99h-90zM178 0l-116 116v268l116 116h327v-100h-273l-57 -57v-186l57 -57h273v-100h-327z" />
    <glyph glyph-name="Cdotaccent" unicode="&#x10a;" horiz-adv-x="716" 
d="M367 768v106h121v-106h-121zM219 0l-142 142v416l142 142h449v-106h-392l-79 -79v-330l79 -79h392v-106h-449z" />
    <glyph glyph-name="cdotaccent" unicode="&#x10b;" horiz-adv-x="554" 
d="M264 594v106h121v-106h-121zM178 0l-116 116v268l116 116h327v-100h-273l-57 -57v-186l57 -57h273v-100h-327z" />
    <glyph glyph-name="Ccaron" unicode="&#x10c;" horiz-adv-x="716" 
d="M373 752l-119 108v26h97l71 -68h13l71 68h95v-28l-117 -106h-111zM219 0l-142 142v416l142 142h449v-106h-392l-79 -79v-330l79 -79h392v-106h-449z" />
    <glyph glyph-name="ccaron" unicode="&#x10d;" horiz-adv-x="554" 
d="M268 560l-116 142v28h89l77 -99h13l77 99h89v-27l-118 -143h-111zM178 0l-116 116v268l116 116h327v-100h-273l-57 -57v-186l57 -57h273v-100h-327z" />
    <glyph glyph-name="Dcaron" unicode="&#x10e;" horiz-adv-x="826" 
d="M358 752l-119 108v26h97l71 -68h13l71 68h95v-28l-117 -106h-111zM97 0v700h510l142 -142v-416l-142 -142h-510zM217 106h333l79 79v330l-79 79h-333v-488z" />
    <glyph glyph-name="dcaron" unicode="&#x10f;" horiz-adv-x="640" 
d="M612 550v11l9 169h103v-11l-37 -169h-75zM178 0l-116 116v268l116 116h272v200h113v-700h-89v48h-20l-58 -48h-218zM232 100h143l75 61v239h-218l-57 -57v-186z" />
    <glyph glyph-name="Dcroat" unicode="&#x110;" horiz-adv-x="847" 
d="M628 700l142 -142v-416l-142 -142h-510v307h-96v86h96v307h510zM650 185v330l-79 79h-333v-201h238v-86h-238v-201h333z" />
    <glyph glyph-name="dcroat" unicode="&#x111;" horiz-adv-x="653" 
d="M178 0l-116 116v255l116 116h272v67h-217v81h217v65h113v-65h85v-81h-85v-554h-89v48h-20l-58 -48h-218zM232 100h143l75 61v226h-218l-57 -57v-173z" />
    <glyph glyph-name="Emacron" unicode="&#x112;" horiz-adv-x="739" 
d="M238 780v82h310v-82h-310zM97 0v700h592v-106h-472v-190h362v-103h-362v-195h482v-106h-602z" />
    <glyph glyph-name="emacron" unicode="&#x113;" horiz-adv-x="626" 
d="M162 610v82h310v-82h-310zM178 0l-116 116v268l116 116h279l116 -116v-184h-398v-43l57 -57h305v-100h-359zM175 293h285v53l-57 57h-171l-57 -57v-53z" />
    <glyph glyph-name="Ebreve" unicode="&#x114;" horiz-adv-x="739" 
d="M285 752l-57 57v77h86v-43l16 -16h127l17 16v43h85v-77l-57 -57h-217zM97 0v700h592v-106h-472v-190h362v-103h-362v-195h482v-106h-602z" />
    <glyph glyph-name="ebreve" unicode="&#x115;" horiz-adv-x="626" 
d="M214 560l-57 57v103h84v-69l18 -18h118l18 18v69h84v-103l-57 -57h-208zM178 0l-116 116v268l116 116h279l116 -116v-184h-398v-43l57 -57h305v-100h-359zM175 293h285v53l-57 57h-171l-57 -57v-53z" />
    <glyph glyph-name="Edotaccent" unicode="&#x116;" horiz-adv-x="739" 
d="M333 768v106h121v-106h-121zM97 0v700h592v-106h-472v-190h362v-103h-362v-195h482v-106h-602z" />
    <glyph glyph-name="edotaccent" unicode="&#x117;" horiz-adv-x="626" 
d="M257 594v106h121v-106h-121zM178 0l-116 116v268l116 116h279l116 -116v-184h-398v-43l57 -57h305v-100h-359zM175 293h285v53l-57 57h-171l-57 -57v-53z" />
    <glyph glyph-name="Eogonek" unicode="&#x118;" horiz-adv-x="739" 
d="M699 0l-97 -80v-40l11 -11h75v-75h-116l-48 48v99l72 59h-499v700h592v-106h-472v-190h362v-103h-362v-195h482v-106z" />
    <glyph glyph-name="eogonek" unicode="&#x119;" horiz-adv-x="626" 
d="M573 200h-398v-43l57 -57h305v-100l-97 -80v-40l11 -11h75v-75h-116l-48 48v99l72 59h-256l-116 116v268l116 116h279l116 -116v-184zM175 346v-53h285v53l-57 57h-171z" />
    <glyph glyph-name="Ecaron" unicode="&#x11a;" horiz-adv-x="739" 
d="M339 752l-119 108v26h97l71 -68h13l71 68h95v-28l-117 -106h-111zM97 0v700h592v-106h-472v-190h362v-103h-362v-195h482v-106h-602z" />
    <glyph glyph-name="ecaron" unicode="&#x11b;" horiz-adv-x="626" 
d="M261 560l-116 142v28h89l77 -99h13l77 99h89v-27l-118 -143h-111zM178 0l-116 116v268l116 116h279l116 -116v-184h-398v-43l57 -57h305v-100h-359zM175 293h285v53l-57 57h-171l-57 -57v-53z" />
    <glyph glyph-name="Gcircumflex" unicode="&#x11c;" horiz-adv-x="824" 
d="M256 752v26l119 108h111l117 -106v-28h-95l-71 68h-13l-71 -68h-97zM219 0l-142 142v416l142 142h486v-106h-429l-79 -79v-330l79 -79h288l79 79v122h-251v100h371v-265l-142 -142h-402z" />
    <glyph glyph-name="gcircumflex" unicode="&#x11d;" horiz-adv-x="635" 
d="M167 560v27l118 143h111l116 -141v-29h-89l-76 99h-14l-76 -99h-90zM100 -200v100h320l30 30v104h-15l-41 -34h-216l-116 116v268l116 116h385v-610l-90 -90h-373zM232 100h144l74 61v239h-218l-57 -57v-186z" />
    <glyph glyph-name="Gbreve" unicode="&#x11e;" horiz-adv-x="824" 
d="M321 752l-57 57v77h86v-43l16 -16h127l17 16v43h85v-77l-57 -57h-217zM219 0l-142 142v416l142 142h486v-106h-429l-79 -79v-330l79 -79h288l79 79v122h-251v100h371v-265l-142 -142h-402z" />
    <glyph glyph-name="gbreve" unicode="&#x11f;" horiz-adv-x="635" 
d="M236 560l-57 57v103h84v-69l18 -18h118l18 18v69h84v-103l-57 -57h-208zM100 -200v100h320l30 30v104h-15l-41 -34h-216l-116 116v268l116 116h385v-610l-90 -90h-373zM232 100h144l74 61v239h-218l-57 -57v-186z" />
    <glyph glyph-name="Gdotaccent" unicode="&#x120;" horiz-adv-x="824" 
d="M369 768v106h121v-106h-121zM219 0l-142 142v416l142 142h486v-106h-429l-79 -79v-330l79 -79h288l79 79v122h-251v100h371v-265l-142 -142h-402z" />
    <glyph glyph-name="gdotaccent" unicode="&#x121;" horiz-adv-x="635" 
d="M279 594v106h121v-106h-121zM100 -200v100h320l30 30v104h-15l-41 -34h-216l-116 116v268l116 116h385v-610l-90 -90h-373zM232 100h144l74 61v239h-218l-57 -57v-186z" />
    <glyph glyph-name="uni0122" unicode="&#x122;" horiz-adv-x="824" 
d="M219 0l-142 142v416l142 142h486v-106h-429l-79 -79v-330l79 -79h288l79 79v122h-251v100h371v-265l-142 -142h-402zM385 -248l22 101h-43v113h119v-102l-42 -112h-56z" />
    <glyph glyph-name="uni0123" unicode="&#x123;" horiz-adv-x="635" 
d="M280 558v102l34 114h56l-17 -103h46v-113h-119zM100 -200v100h320l30 30v104h-15l-41 -34h-216l-116 116v268l116 116h385v-610l-90 -90h-373zM232 100h144l74 61v239h-218l-57 -57v-186z" />
    <glyph glyph-name="Hcircumflex" unicode="&#x124;" horiz-adv-x="836" 
d="M245 752v26l119 108h111l117 -106v-28h-95l-71 68h-13l-71 -68h-97zM97 0v700h120v-295h402v295h120v-700h-120v299h-402v-299h-120z" />
    <glyph glyph-name="hcircumflex" unicode="&#x125;" horiz-adv-x="637" 
d="M-40 752v26l119 108h111l117 -106v-28h-95l-71 68h-13l-71 -68h-97zM77 0v700h113v-231h15l38 31h220l107 -107v-393h-113v352l-48 48h-148l-71 -58v-342h-113z" />
    <glyph glyph-name="Hbar" unicode="&#x126;" horiz-adv-x="866" 
d="M828 601v-86h-74v-515h-120v299h-402v-299h-120v515h-74v86h74v99h120v-99h402v99h120v-99h74zM634 405v110h-402v-110h402z" />
    <glyph glyph-name="hbar" unicode="&#x127;" horiz-adv-x="650" 
d="M90 0v554h-85v81h85v65h113v-65h217v-81h-217v-98h15l38 31h220l107 -107v-380h-113v339l-48 48h-148l-71 -58v-329h-113z" />
    <glyph glyph-name="Imacron" unicode="&#x12a;" horiz-adv-x="514" 
d="M102 780v82h310v-82h-310zM57 0v98h140v505h-140v97h400v-97h-140v-505h140v-98h-400z" />
    <glyph glyph-name="imacron" unicode="&#x12b;" horiz-adv-x="257" 
d="M-27 610v82h310v-82h-310zM72 0v500h113v-500h-113z" />
    <glyph glyph-name="Ibreve" unicode="&#x12c;" horiz-adv-x="514" 
d="M149 752l-57 57v77h86v-43l16 -16h127l17 16v43h85v-77l-57 -57h-217zM57 0v98h140v505h-140v97h400v-97h-140v-505h140v-98h-400z" />
    <glyph glyph-name="ibreve" unicode="&#x12d;" horiz-adv-x="257" 
d="M25 560l-57 57v103h84v-69l18 -18h118l18 18v69h84v-103l-57 -57h-208zM72 0v500h113v-500h-113z" />
    <glyph glyph-name="Iogonek" unicode="&#x12e;" horiz-adv-x="514" 
d="M457 603h-140v-505h140v-98h-147l-97 -80v-40l11 -11h75v-75h-116l-48 48v99l72 59h-150v98h140v505h-140v97h400v-97z" />
    <glyph glyph-name="iogonek" unicode="&#x12f;" horiz-adv-x="257" 
d="M68 700h121v-106h-121v106zM72 0v500h113v-500l-97 -80v-40l11 -11h75v-75h-116l-48 48v99l72 59h-10z" />
    <glyph glyph-name="Idotaccent" unicode="&#x130;" horiz-adv-x="514" 
d="M197 768v106h121v-106h-121zM57 0v98h140v505h-140v97h400v-97h-140v-505h140v-98h-400z" />
    <glyph glyph-name="dotlessi" unicode="&#x131;" horiz-adv-x="257" 
d="M72 0v500h113v-500h-113z" />
    <glyph glyph-name="IJ" unicode="&#x132;" horiz-adv-x="1083" 
d="M57 0v98h140v505h-140v97h400v-97h-140v-505h140v-98h-400zM545 0v106h263l68 68v420h-288v106h408v-569l-131 -131h-320z" />
    <glyph glyph-name="ij" unicode="&#x133;" horiz-adv-x="514" 
d="M68 594v106h121v-106h-121zM325 594v106h121v-106h-121zM72 -200v100h242l15 15v585h113v-626l-74 -74h-296zM72 0v500h113v-500h-113z" />
    <glyph glyph-name="Jcircumflex" unicode="&#x134;" horiz-adv-x="569" 
d="M106 752v26l119 108h111l117 -106v-28h-95l-71 68h-13l-71 -68h-97zM31 0v106h263l68 68v420h-288v106h408v-569l-131 -131h-320z" />
    <glyph glyph-name="jcircumflex" unicode="&#x135;" horiz-adv-x="257" 
d="M-44 560v27l118 143h111l116 -141v-29h-89l-76 99h-14l-76 -99h-90zM-82 -200v100h140l14 14v586h113v-626l-74 -74h-193z" />
    <glyph glyph-name="uni0136" unicode="&#x136;" horiz-adv-x="753" 
d="M97 0v700h120v-294h162l212 294h115v-41l-223 -303l243 -314v-42h-119l-226 300h-164v-300h-120zM371 -248l22 101h-43v113h119v-102l-42 -112h-56z" />
    <glyph glyph-name="uni0137" unicode="&#x137;" horiz-adv-x="595" 
d="M77 0v700h113v-393h116l138 193h109v-34l-149 -205l169 -227v-34h-114l-153 207h-116v-207h-113zM287 -248l22 101h-43v113h119v-102l-42 -112h-56z" />
    <glyph glyph-name="Lacute" unicode="&#x139;" horiz-adv-x="640" 
d="M116 752v11l53 129h107v-11l-72 -129h-88zM97 0v700h120v-594h404v-106h-524z" />
    <glyph glyph-name="lacute" unicode="&#x13a;" horiz-adv-x="283" 
d="M57 752v11l53 129h107v-11l-72 -129h-88zM93 0v603h-100v97h213v-700h-113z" />
    <glyph glyph-name="uni013B" unicode="&#x13b;" horiz-adv-x="640" 
d="M97 0v700h120v-594h404v-106h-524zM321 -248l22 101h-43v113h119v-102l-42 -112h-56z" />
    <glyph glyph-name="uni013C" unicode="&#x13c;" horiz-adv-x="283" 
d="M93 0v603h-100v97h213v-700h-113zM111 -248l22 101h-43v113h119v-102l-42 -112h-56z" />
    <glyph glyph-name="Lcaron" unicode="&#x13d;" horiz-adv-x="640" 
d="M266 550v11l9 169h103v-11l-37 -169h-75zM97 0v700h120v-594h404v-106h-524z" />
    <glyph glyph-name="lcaron" unicode="&#x13e;" horiz-adv-x="283" 
d="M255 550v11l9 169h103v-11l-37 -169h-75zM93 0v603h-100v97h213v-700h-113z" />
    <glyph glyph-name="Ldot" unicode="&#x13f;" horiz-adv-x="640" 
d="M97 0v700h120v-594h404v-106h-524zM412 343v126h132v-126h-132z" />
    <glyph glyph-name="ldot" unicode="&#x140;" horiz-adv-x="418" 
d="M93 0v603h-100v97h213v-700h-113zM293 279v126h132v-126h-132z" />
    <glyph glyph-name="Lslash" unicode="&#x141;" horiz-adv-x="659" 
d="M236 106h404v-106h-524v254l-73 -41h-25v91l98 54v342h120v-275l214 119h24v-91l-238 -133v-214z" />
    <glyph glyph-name="lslash" unicode="&#x142;" horiz-adv-x="315" 
d="M326 491v-79l-110 -72v-340h-113v266l-87 -57h-23v79l110 72v243h-100v97h213v-266l87 57h23z" />
    <glyph glyph-name="Nacute" unicode="&#x143;" horiz-adv-x="846" 
d="M381 752v11l53 129h107v-11l-72 -129h-88zM97 0v700h200l319 -578h17v578h116v-700h-200l-319 579h-16v-579h-117z" />
    <glyph glyph-name="nacute" unicode="&#x144;" horiz-adv-x="632" 
d="M277 560v11l61 165h107v-11l-90 -165h-78zM72 0v500h89v-40h19l47 40h231l107 -107v-393h-113v352l-48 48h-156l-63 -52v-348h-113z" />
    <glyph glyph-name="uni0145" unicode="&#x145;" horiz-adv-x="846" 
d="M97 0v700h200l319 -578h17v578h116v-700h-200l-319 579h-16v-579h-117zM385 -248l22 101h-43v113h119v-102l-42 -112h-56z" />
    <glyph glyph-name="uni0146" unicode="&#x146;" horiz-adv-x="632" 
d="M72 0v500h89v-40h19l47 40h231l107 -107v-393h-113v352l-48 48h-156l-63 -52v-348h-113zM281 -248l22 101h-43v113h119v-102l-42 -112h-56z" />
    <glyph glyph-name="Ncaron" unicode="&#x147;" horiz-adv-x="846" 
d="M369 752l-119 108v26h97l71 -68h13l71 68h95v-28l-117 -106h-111zM97 0v700h200l319 -578h17v578h116v-700h-200l-319 579h-16v-579h-117z" />
    <glyph glyph-name="ncaron" unicode="&#x148;" horiz-adv-x="632" 
d="M262 560l-116 142v28h89l77 -99h13l77 99h89v-27l-118 -143h-111zM72 0v500h89v-40h19l47 40h231l107 -107v-393h-113v352l-48 48h-156l-63 -52v-348h-113z" />
    <glyph glyph-name="Eng" unicode="&#x14a;" horiz-adv-x="846" 
d="M383 -200v100h214l34 34v66h-82l-319 579h-16v-579h-117v700h200l319 -578h17v578h116v-803l-97 -97h-269z" />
    <glyph glyph-name="eng" unicode="&#x14b;" horiz-adv-x="632" 
d="M458 500l107 -107v-519l-74 -74h-197v100h144l14 14v438l-48 48h-156l-63 -52v-348h-113v500h89v-40h19l47 40h231z" />
    <glyph glyph-name="Omacron" unicode="&#x14c;" horiz-adv-x="840" 
d="M265 780v82h310v-82h-310zM219 0l-142 142v416l142 142h402l142 -142v-416l-142 -142h-402zM276 106h288l79 79v330l-79 79h-288l-79 -79v-330z" />
    <glyph glyph-name="omacron" unicode="&#x14d;" horiz-adv-x="643" 
d="M167 610v82h310v-82h-310zM178 0l-116 116v268l116 116h287l116 -116v-268l-116 -116h-287zM232 100h179l57 57v186l-57 57h-179l-57 -57v-186z" />
    <glyph glyph-name="Obreve" unicode="&#x14e;" horiz-adv-x="840" 
d="M312 752l-57 57v77h86v-43l16 -16h127l17 16v43h85v-77l-57 -57h-217zM219 0l-142 142v416l142 142h402l142 -142v-416l-142 -142h-402zM276 106h288l79 79v330l-79 79h-288l-79 -79v-330z" />
    <glyph glyph-name="obreve" unicode="&#x14f;" horiz-adv-x="643" 
d="M219 560l-57 57v103h84v-69l18 -18h118l18 18v69h84v-103l-57 -57h-208zM178 0l-116 116v268l116 116h287l116 -116v-268l-116 -116h-287zM232 100h179l57 57v186l-57 57h-179l-57 -57v-186z" />
    <glyph glyph-name="Ohungarumlaut" unicode="&#x150;" horiz-adv-x="840" 
d="M296 752v11l42 129h102v-11l-61 -129h-83zM457 752v11l44 129h103v-11l-64 -129h-83zM219 0l-142 142v416l142 142h402l142 -142v-416l-142 -142h-402zM276 106h288l79 79v330l-79 79h-288l-79 -79v-330z" />
    <glyph glyph-name="ohungarumlaut" unicode="&#x151;" horiz-adv-x="643" 
d="M198 560v11l48 165h104v-11l-75 -165h-77zM360 560v11l56 165h105v-11l-84 -165h-77zM178 0l-116 116v268l116 116h287l116 -116v-268l-116 -116h-287zM232 100h179l57 57v186l-57 57h-179l-57 -57v-186z" />
    <glyph glyph-name="OE" unicode="&#x152;" horiz-adv-x="1190" 
d="M219 0l-142 142v416l142 142h921v-106h-446v-192h326v-100h-326v-196h456v-106h-931zM276 106h300v488h-300l-79 -79v-330z" />
    <glyph glyph-name="oe" unicode="&#x153;" horiz-adv-x="986" 
d="M178 0l-116 116v268l116 116h264l64 -64l64 64h247l116 -116v-184h-372v-45l55 -55h277v-100h-323l-64 64l-64 -64h-264zM561 293h259v54l-55 56h-148l-56 -56v-54zM232 100h161l57 57v186l-57 57h-161l-57 -57v-186z" />
    <glyph glyph-name="Racute" unicode="&#x154;" horiz-adv-x="802" 
d="M357 752v11l53 129h107v-11l-72 -129h-88zM97 0v700h493l130 -130v-198l-125 -125l148 -207v-40h-117l-169 240h-240v-240h-120zM217 343h313l70 70v114l-70 70h-313v-254z" />
    <glyph glyph-name="racute" unicode="&#x155;" horiz-adv-x="417" 
d="M205 560v11l61 165h107v-11l-90 -165h-78zM72 0v500h89v-40h19l47 40h194v-100h-173l-63 -52v-348h-113z" />
    <glyph glyph-name="uni0156" unicode="&#x156;" horiz-adv-x="802" 
d="M97 0v700h493l130 -130v-198l-125 -125l148 -207v-40h-117l-169 240h-240v-240h-120zM217 343h313l70 70v114l-70 70h-313v-254zM380 -248l22 101h-43v113h119v-102l-42 -112h-56z" />
    <glyph glyph-name="uni0157" unicode="&#x157;" horiz-adv-x="417" 
d="M72 0v500h89v-40h19l47 40h194v-100h-173l-63 -52v-348h-113zM90 -248l22 101h-43v113h119v-102l-42 -112h-56z" />
    <glyph glyph-name="Rcaron" unicode="&#x158;" horiz-adv-x="802" 
d="M345 752l-119 108v26h97l71 -68h13l71 68h95v-28l-117 -106h-111zM97 0v700h493l130 -130v-198l-125 -125l148 -207v-40h-117l-169 240h-240v-240h-120zM217 343h313l70 70v114l-70 70h-313v-254z" />
    <glyph glyph-name="rcaron" unicode="&#x159;" horiz-adv-x="417" 
d="M190 560l-116 142v28h89l77 -99h13l77 99h89v-27l-118 -143h-111zM72 0v500h89v-40h19l47 40h194v-100h-173l-63 -52v-348h-113z" />
    <glyph glyph-name="Sacute" unicode="&#x15a;" horiz-adv-x="730" 
d="M336 752v11l53 129h107v-11l-72 -129h-88zM73 0v106h440l50 50v96l-51 51h-336l-114 114v170l113 113h473v-106h-416l-50 -50v-84l51 -51h336l114 -114v-182l-113 -113h-497z" />
    <glyph glyph-name="sacute" unicode="&#x15b;" horiz-adv-x="576" 
d="M255 560v11l61 165h107v-11l-90 -165h-78zM63 0v98h326l27 27v50l-27 28h-244l-88 87v123l88 87h358v-97h-305l-28 -28v-47l28 -28h244l87 -87v-125l-87 -88h-379z" />
    <glyph glyph-name="Scircumflex" unicode="&#x15c;" horiz-adv-x="730" 
d="M206 752v26l119 108h111l117 -106v-28h-95l-71 68h-13l-71 -68h-97zM73 0v106h440l50 50v96l-51 51h-336l-114 114v170l113 113h473v-106h-416l-50 -50v-84l51 -51h336l114 -114v-182l-113 -113h-497z" />
    <glyph glyph-name="scircumflex" unicode="&#x15d;" horiz-adv-x="576" 
d="M124 560v27l118 143h111l116 -141v-29h-89l-76 99h-14l-76 -99h-90zM63 0v98h326l27 27v50l-27 28h-244l-88 87v123l88 87h358v-97h-305l-28 -28v-47l28 -28h244l87 -87v-125l-87 -88h-379z" />
    <glyph glyph-name="Scedilla" unicode="&#x15e;" horiz-adv-x="730" 
d="M569 409l114 -114v-182l-113 -113h-175l-9 -26v-8h43l52 -52v-68l-52 -52h-160v66h124l10 10v22l-10 10h-94v32l20 66h-246v106h440l50 50v96l-51 51h-336l-114 114v170l113 113h473v-106h-416l-50 -50v-84l51 -51h336z" />
    <glyph glyph-name="scedilla" unicode="&#x15f;" horiz-adv-x="576" 
d="M442 300l87 -87v-125l-87 -88h-121l-9 -26v-8h43l52 -52v-68l-52 -52h-160v66h124l10 10v22l-10 10h-94v32l20 66h-182v98h326l27 27v50l-27 28h-244l-88 87v123l88 87h358v-97h-305l-28 -28v-47l28 -28h244z" />
    <glyph glyph-name="Scaron" unicode="&#x160;" horiz-adv-x="730" 
d="M325 752l-119 108v26h97l71 -68h13l71 68h95v-28l-117 -106h-111zM73 0v106h440l50 50v96l-51 51h-336l-114 114v170l113 113h473v-106h-416l-50 -50v-84l51 -51h336l114 -114v-182l-113 -113h-497z" />
    <glyph glyph-name="scaron" unicode="&#x161;" horiz-adv-x="576" 
d="M240 560l-116 142v28h89l77 -99h13l77 99h89v-27l-118 -143h-111zM63 0v98h326l27 27v50l-27 28h-244l-88 87v123l88 87h358v-97h-305l-28 -28v-47l28 -28h244l87 -87v-125l-87 -88h-379z" />
    <glyph glyph-name="uni0162" unicode="&#x162;" horiz-adv-x="682" 
d="M380 0l-9 -26v-8h43l52 -52v-68l-52 -52h-160v66h124l10 10v22l-10 10h-94v32l20 66h-23v594h-271v106h662v-106h-271v-594h-21z" />
    <glyph glyph-name="uni0163" unicode="&#x163;" horiz-adv-x="436" 
d="M306 0l-9 -26v-8h43l52 -52v-68l-52 -52h-160v66h124l10 10v22l-10 10h-94v32l20 66h-41l-74 74v329h-100v97h100v133h113v-133h177v-97h-177v-288l15 -15h168v-100h-105z" />
    <glyph glyph-name="Tcaron" unicode="&#x164;" horiz-adv-x="682" 
d="M287 752l-119 108v26h97l71 -68h13l71 68h95v-28l-117 -106h-111zM281 0v594h-271v106h662v-106h-271v-594h-120z" />
    <glyph glyph-name="tcaron" unicode="&#x165;" horiz-adv-x="436" 
d="M277 550v11l9 169h103v-11l-37 -169h-75zM189 0l-74 74v329h-100v97h100v133h113v-133h177v-97h-177v-288l15 -15h168v-100h-222z" />
    <glyph glyph-name="Tbar" unicode="&#x166;" horiz-adv-x="682" 
d="M672 594h-271v-226h176v-86h-176v-282h-120v282h-176v86h176v226h-271v106h662v-106z" />
    <glyph glyph-name="tbar" unicode="&#x167;" horiz-adv-x="436" 
d="M243 100h168v-100h-222l-74 74v152h-74v79h74v98h-100v97h100v133h113v-133h177v-97h-177v-98h152v-79h-152v-111z" />
    <glyph glyph-name="Umacron" unicode="&#x16a;" horiz-adv-x="796" 
d="M243 780v82h310v-82h-310zM231 0l-144 144v556h120v-513l81 -81h220l81 81v513h120v-556l-144 -144h-334z" />
    <glyph glyph-name="umacron" unicode="&#x16b;" horiz-adv-x="617" 
d="M151 610v82h310v-82h-310zM174 0l-107 107v393h113v-352l48 -48h141l63 52v348h113v-500h-89v40h-18l-48 -40h-216z" />
    <glyph glyph-name="Ubreve" unicode="&#x16c;" horiz-adv-x="796" 
d="M290 752l-57 57v77h86v-43l16 -16h127l17 16v43h85v-77l-57 -57h-217zM231 0l-144 144v556h120v-513l81 -81h220l81 81v513h120v-556l-144 -144h-334z" />
    <glyph glyph-name="ubreve" unicode="&#x16d;" horiz-adv-x="617" 
d="M203 560l-57 57v103h84v-69l18 -18h118l18 18v69h84v-103l-57 -57h-208zM174 0l-107 107v393h113v-352l48 -48h141l63 52v348h113v-500h-89v40h-18l-48 -40h-216z" />
    <glyph glyph-name="Uring" unicode="&#x16e;" horiz-adv-x="796" 
d="M329 728l-57 57v101l57 57h140l57 -57v-101l-57 -57h-140zM363 794h72l18 18v47l-18 18h-72l-18 -18v-47zM231 0l-144 144v556h120v-513l81 -81h220l81 81v513h120v-556l-144 -144h-334z" />
    <glyph glyph-name="uring" unicode="&#x16f;" horiz-adv-x="617" 
d="M237 549l-57 57v118l57 57h138l57 -57v-118l-57 -57h-138zM271 615h70l18 18v64l-18 18h-70l-18 -18v-64zM174 0l-107 107v393h113v-352l48 -48h141l63 52v348h113v-500h-89v40h-18l-48 -40h-216z" />
    <glyph glyph-name="Uhungarumlaut" unicode="&#x170;" horiz-adv-x="796" 
d="M275 752v11l42 129h102v-11l-61 -129h-83zM436 752v11l44 129h103v-11l-64 -129h-83zM231 0l-144 144v556h120v-513l81 -81h220l81 81v513h120v-556l-144 -144h-334z" />
    <glyph glyph-name="uhungarumlaut" unicode="&#x171;" horiz-adv-x="617" 
d="M182 560v11l48 165h104v-11l-75 -165h-77zM344 560v11l56 165h105v-11l-84 -165h-77zM174 0l-107 107v393h113v-352l48 -48h141l63 52v348h113v-500h-89v40h-18l-48 -40h-216z" />
    <glyph glyph-name="Uogonek" unicode="&#x172;" horiz-adv-x="796" 
d="M489 -76v-44l11 -11h72v-75h-113l-48 48v96l62 62h-242l-144 144v556h120v-513l81 -81h220l81 81v513h120v-556z" />
    <glyph glyph-name="uogonek" unicode="&#x173;" horiz-adv-x="617" 
d="M545 0l-97 -80v-40l11 -11h75v-75h-116l-48 48v99l86 71v28h-18l-48 -40h-216l-107 107v393h113v-352l48 -48h141l63 52v348h113v-500z" />
    <glyph glyph-name="Wcircumflex" unicode="&#x174;" horiz-adv-x="1065" 
d="M348 752v26l119 108h111l117 -106v-28h-95l-71 68h-13l-71 -68h-97zM237 0l-209 660v40h113l184 -587h22l132 408l-42 139v40h112l175 -587h22l181 587h110v-40l-206 -660h-187l-105 339h-11l-111 -339h-180z" />
    <glyph glyph-name="wcircumflex" unicode="&#x175;" horiz-adv-x="808" 
d="M217 560v27l118 143h111l116 -141v-29h-89l-76 99h-14l-76 -99h-90zM173 0l-154 466v34h107l124 -395h16l92 273l-25 88v34h103l109 -395h16l125 395h104v-34l-154 -466h-160l-64 220h-14l-73 -220h-152z" />
    <glyph glyph-name="Ycircumflex" unicode="&#x176;" horiz-adv-x="722" 
d="M190 752v26l119 108h111l117 -106v-28h-95l-71 68h-13l-71 -68h-97zM302 0v237l-285 423v40h116l221 -333h22l221 333h108v-40l-283 -423v-237h-120z" />
    <glyph glyph-name="ycircumflex" unicode="&#x177;" horiz-adv-x="616" 
d="M134 560v27l118 143h111l116 -141v-29h-89l-76 99h-14l-76 -99h-90zM94 -200v97h304l33 33v96h-14l-31 -26h-212l-107 107v393h113v-352l48 -48h140l63 52v348h113v-610l-90 -90h-360z" />
    <glyph glyph-name="Ydieresis" unicode="&#x178;" horiz-adv-x="722" 
d="M207 768v106h114v-106h-114zM405 768v106h114v-106h-114zM302 0v237l-285 423v40h116l221 -333h22l221 333h108v-40l-283 -423v-237h-120z" />
    <glyph glyph-name="Zacute" unicode="&#x179;" horiz-adv-x="696" 
d="M316 752v11l53 129h107v-11l-72 -129h-88zM44 0v155l463 411v26h-449v108h593v-155l-463 -410v-26h464v-109h-608z" />
    <glyph glyph-name="zacute" unicode="&#x17a;" horiz-adv-x="537" 
d="M241 560v11l61 165h107v-11l-90 -165h-78zM43 0v139l320 247v17h-310v97h440v-139l-319 -246v-17h329v-98h-460z" />
    <glyph glyph-name="Zdotaccent" unicode="&#x17b;" horiz-adv-x="696" 
d="M298 768v106h121v-106h-121zM44 0v155l463 411v26h-449v108h593v-155l-463 -410v-26h464v-109h-608z" />
    <glyph glyph-name="zdotaccent" unicode="&#x17c;" horiz-adv-x="537" 
d="M222 594v106h121v-106h-121zM43 0v139l320 247v17h-310v97h440v-139l-319 -246v-17h329v-98h-460z" />
    <glyph glyph-name="Zcaron" unicode="&#x17d;" horiz-adv-x="696" 
d="M304 752l-119 108v26h97l71 -68h13l71 68h95v-28l-117 -106h-111zM44 0v155l463 411v26h-449v108h593v-155l-463 -410v-26h464v-109h-608z" />
    <glyph glyph-name="zcaron" unicode="&#x17e;" horiz-adv-x="537" 
d="M226 560l-116 142v28h89l77 -99h13l77 99h89v-27l-118 -143h-111zM43 0v139l320 247v17h-310v97h440v-139l-319 -246v-17h329v-98h-460z" />
    <glyph glyph-name="uni018F" unicode="&#x18f;" horiz-adv-x="836" 
d="M215 0l-142 142v270h566v103l-79 79h-429v106h486l142 -142v-416l-142 -142h-402zM272 106h288l79 79v127h-446v-127z" />
    <glyph glyph-name="florin" unicode="&#x192;" horiz-adv-x="509" 
d="M367 598l-14 -14l-25 -134h144v-90h-161l-93 -488l-73 -72h-197v102h143l14 14l85 444h-98v90h115l34 178l72 72h197v-102h-143z" />
    <glyph glyph-name="uni01F4" unicode="&#x1f4;" horiz-adv-x="824" 
d="M386 752v11l53 129h107v-11l-72 -129h-88zM219 0l-142 142v416l142 142h486v-106h-429l-79 -79v-330l79 -79h288l79 79v122h-251v100h371v-265l-142 -142h-402z" />
    <glyph glyph-name="uni01F5" unicode="&#x1f5;" horiz-adv-x="635" 
d="M298 560v11l61 165h107v-11l-90 -165h-78zM100 -200v100h320l30 30v104h-15l-41 -34h-216l-116 116v268l116 116h385v-610l-90 -90h-373zM232 100h144l74 61v239h-218l-57 -57v-186z" />
    <glyph glyph-name="uni0218" unicode="&#x218;" horiz-adv-x="730" 
d="M73 0v106h440l50 50v96l-51 51h-336l-114 114v170l113 113h473v-106h-416l-50 -50v-84l51 -51h336l114 -114v-182l-113 -113h-497zM318 -248l22 101h-43v113h119v-102l-42 -112h-56z" />
    <glyph glyph-name="uni0219" unicode="&#x219;" horiz-adv-x="576" 
d="M63 0v98h326l27 27v50l-27 28h-244l-88 87v123l88 87h358v-97h-305l-28 -28v-47l28 -28h244l87 -87v-125l-87 -88h-379zM244 -248l22 101h-43v113h119v-102l-42 -112h-56z" />
    <glyph glyph-name="uni021A" unicode="&#x21a;" horiz-adv-x="682" 
d="M281 0v594h-271v106h662v-106h-271v-594h-120zM303 -248l22 101h-43v113h119v-102l-42 -112h-56z" />
    <glyph glyph-name="uni021B" unicode="&#x21b;" horiz-adv-x="436" 
d="M189 0l-74 74v329h-100v97h100v133h113v-133h177v-97h-177v-288l15 -15h168v-100h-222zM229 -248l22 101h-43v113h119v-102l-42 -112h-56z" />
    <glyph glyph-name="uni0232" unicode="&#x232;" horiz-adv-x="722" 
d="M208 780v82h310v-82h-310zM302 0v237l-285 423v40h116l221 -333h22l221 333h108v-40l-283 -423v-237h-120z" />
    <glyph glyph-name="uni0233" unicode="&#x233;" horiz-adv-x="616" 
d="M151 610v82h310v-82h-310zM94 -200v97h304l33 33v96h-14l-31 -26h-212l-107 107v393h113v-352l48 -48h140l63 52v348h113v-610l-90 -90h-360z" />
    <glyph glyph-name="uni0237" unicode="&#x237;" horiz-adv-x="257" 
d="M-82 -200v100h140l14 14v586h113v-626l-74 -74h-193z" />
    <glyph glyph-name="uni0244" unicode="&#x244;" horiz-adv-x="826" 
d="M798 461v-86h-74v-231l-144 -144h-334l-144 144v231h-74v86h74v239h120v-239h382v239h120v-239h74zM604 187v188h-382v-188l81 -81h220z" />
    <glyph glyph-name="uni0259" unicode="&#x259;" horiz-adv-x="626" 
d="M169 0l-116 116v185h398v43l-56 56h-306v100h359l116 -116v-268l-116 -116h-279zM223 98h171l57 57v54h-285v-54z" />
    <glyph glyph-name="uni0289" unicode="&#x289;" horiz-adv-x="651" 
d="M637 351v-79h-75v-272h-89v40h-18l-48 -40h-216l-107 107v165h-75v79h75v149h113v-149h252v149h113v-149h75zM449 152v120h-252v-124l48 -48h141z" />
    <glyph glyph-name="uni02BC" unicode="&#x2bc;" horiz-adv-x="254" 
d="M72 412l33 152h-46v136h136v-115l-58 -173h-65z" />
    <glyph glyph-name="circumflex" unicode="&#x2c6;" horiz-adv-x="405" 
d="M30 560v27l118 143h111l116 -141v-29h-89l-76 99h-14l-76 -99h-90z" />
    <glyph glyph-name="caron" unicode="&#x2c7;" horiz-adv-x="405" 
d="M146 560l-116 142v28h89l77 -99h13l77 99h89v-27l-118 -143h-111z" />
    <glyph glyph-name="breve" unicode="&#x2d8;" horiz-adv-x="382" 
d="M87 560l-57 57v103h84v-69l18 -18h118l18 18v69h84v-103l-57 -57h-208z" />
    <glyph glyph-name="dotaccent" unicode="&#x2d9;" horiz-adv-x="181" 
d="M30 594v106h121v-106h-121z" />
    <glyph glyph-name="ring" unicode="&#x2da;" horiz-adv-x="312" 
d="M87 549l-57 57v118l57 57h138l57 -57v-118l-57 -57h-138zM121 615h70l18 18v64l-18 18h-70l-18 -18v-64z" />
    <glyph glyph-name="ogonek" unicode="&#x2db;" horiz-adv-x="235" 
d="M78 -206l-48 48v99l128 105l47 -46l-97 -80v-40l11 -11h75v-75h-116z" />
    <glyph glyph-name="tilde" unicode="&#x2dc;" horiz-adv-x="429" 
d="M30 565v95l55 55h115l65 -77h37l13 13v64h84v-95l-55 -55h-115l-65 77h-37l-13 -13v-64h-84z" />
    <glyph glyph-name="hungarumlaut" unicode="&#x2dd;" horiz-adv-x="382" 
d="M30 560v11l48 165h104v-11l-75 -165h-77zM192 560v11l56 165h105v-11l-84 -165h-77z" />
    <glyph glyph-name="gravecomb" unicode="&#x300;" 
d="M-107 560l-91 165v11h110l58 -165v-11h-77z" />
    <glyph glyph-name="acutecomb" unicode="&#x301;" 
d="M-198 560v11l61 165h107v-11l-90 -165h-78z" />
    <glyph glyph-name="uni0302" unicode="&#x302;" 
d="M-375 560v27l118 143h111l116 -141v-29h-89l-76 99h-14l-76 -99h-90z" />
    <glyph glyph-name="tildecomb" unicode="&#x303;" 
d="M-399 565v95l55 55h115l65 -77h37l13 13v64h84v-95l-55 -55h-115l-65 77h-37l-13 -13v-64h-84z" />
    <glyph glyph-name="uni0304" unicode="&#x304;" 
d="M-340 610v82h310v-82h-310z" />
    <glyph glyph-name="uni0306" unicode="&#x306;" 
d="M-295 560l-57 57v103h84v-69l18 -18h118l18 18v69h84v-103l-57 -57h-208z" />
    <glyph glyph-name="uni0307" unicode="&#x307;" 
d="M-151 594v106h121v-106h-121z" />
    <glyph glyph-name="uni0308" unicode="&#x308;" 
d="M-342 598v106h114v-106h-114zM-144 598v106h114v-106h-114z" />
    <glyph glyph-name="uni030A" unicode="&#x30a;" 
d="M-225 549l-57 57v118l57 57h138l57 -57v-118l-57 -57h-138zM-191 615h70l18 18v64l-18 18h-70l-18 -18v-64z" />
    <glyph glyph-name="uni030B" unicode="&#x30b;" 
d="M-352 560v11l48 165h104v-11l-75 -165h-77zM-190 560v11l56 165h105v-11l-84 -165h-77z" />
    <glyph glyph-name="uni030C" unicode="&#x30c;" 
d="M-259 560l-116 142v28h89l77 -99h13l77 99h89v-27l-118 -143h-111z" />
    <glyph glyph-name="uni0312" unicode="&#x312;" 
d="M-149 558v102l34 114h56l-17 -103h46v-113h-119z" />
    <glyph glyph-name="uni0326" unicode="&#x326;" 
d="M-128 -248l22 101h-43v113h119v-102l-42 -112h-56z" />
    <glyph glyph-name="uni0327" unicode="&#x327;" 
d="M-242 -206v66h124l10 10v22l-10 10h-94v32l21 69l76 6v-6l-10 -29v-8h43l52 -52v-68l-52 -52h-160z" />
    <glyph glyph-name="uni0328" unicode="&#x328;" 
d="M-157 -206l-48 48v99l128 105l47 -46l-97 -80v-40l11 -11h75v-75h-116z" />
    <glyph glyph-name="uni03A9" unicode="&#x3a9;" horiz-adv-x="896" 
d="M107 0v92h116v13l-116 104v349l142 142h398l142 -142v-349l-116 -104v-13h116v-92h-264v107l146 138v272l-81 81h-284l-81 -81v-272l146 -138v-107h-264z" />
    <glyph glyph-name="uni0400" unicode="&#x400;" horiz-adv-x="739" 
d="M349 752l-73 129v11h108l52 -129v-11h-87zM97 0v700h592v-106h-472v-190h362v-103h-362v-195h482v-106h-602z" />
    <glyph glyph-name="uni0401" unicode="&#x401;" horiz-adv-x="739" 
d="M237 768v106h114v-106h-114zM435 768v106h114v-106h-114zM97 0v700h592v-106h-472v-190h362v-103h-362v-195h482v-106h-602z" />
    <glyph glyph-name="uni0402" unicode="&#x402;" horiz-adv-x="918" 
d="M551 -10v102h124l57 57v139l-56 56h-313v-344h-120v594h-233v106h662v-106h-309v-144h373l116 -116v-228l-116 -116h-185z" />
    <glyph glyph-name="uni0403" unicode="&#x403;" horiz-adv-x="653" 
d="M328 752v11l53 129h107v-11l-72 -129h-88zM97 0v700h546v-106h-426v-594h-120z" />
    <glyph glyph-name="uni0404" unicode="&#x404;" horiz-adv-x="731" 
d="M219 0l-142 142v416l142 142h465v-106h-408l-79 -79v-112h379v-103h-379v-115l79 -79h418v-106h-475z" />
    <glyph glyph-name="uni0405" unicode="&#x405;" horiz-adv-x="730" 
d="M73 0v106h440l50 50v96l-51 51h-336l-114 114v170l113 113h473v-106h-416l-50 -50v-84l51 -51h336l114 -114v-182l-113 -113h-497z" />
    <glyph glyph-name="uni0406" unicode="&#x406;" horiz-adv-x="514" 
d="M57 0v98h140v505h-140v97h400v-97h-140v-505h140v-98h-400z" />
    <glyph glyph-name="uni0407" unicode="&#x407;" horiz-adv-x="514" 
d="M101 768v106h114v-106h-114zM299 768v106h114v-106h-114zM57 0v98h140v505h-140v97h400v-97h-140v-505h140v-98h-400z" />
    <glyph glyph-name="uni0408" unicode="&#x408;" horiz-adv-x="569" 
d="M31 0v106h263l68 68v420h-288v106h408v-569l-131 -131h-320z" />
    <glyph glyph-name="uni0409" unicode="&#x409;" horiz-adv-x="1228" 
d="M13 -10v117h105l33 33l47 560h507v-261h355l120 -120v-199l-120 -120h-473v594h-277l-44 -508l-96 -96h-157zM705 106h295l60 60v107l-60 60h-295v-227z" />
    <glyph glyph-name="uni040A" unicode="&#x40a;" horiz-adv-x="1227" 
d="M97 0v700h120v-261h369v261h118v-261h355l120 -120v-199l-120 -120h-473v333h-369v-333h-120zM704 106h295l60 60v107l-60 60h-295v-227z" />
    <glyph glyph-name="uni040B" unicode="&#x40b;" horiz-adv-x="923" 
d="M243 0v594h-233v106h662v-106h-309v-144h373l116 -116v-334h-120v288l-56 56h-313v-344h-120z" />
    <glyph glyph-name="uni040C" unicode="&#x40c;" horiz-adv-x="753" 
d="M361 752v11l53 129h107v-11l-72 -129h-88zM97 0v700h120v-294h162l212 294h115v-41l-223 -303l243 -314v-42h-119l-226 300h-164v-300h-120z" />
    <glyph glyph-name="uni040D" unicode="&#x40d;" horiz-adv-x="844" 
d="M379 752l-73 129v11h108l52 -129v-11h-87zM97 0v700h119v-578h15l326 578h190v-700h-119v578h-14l-327 -578h-190z" />
    <glyph glyph-name="uni040E" unicode="&#x40e;" horiz-adv-x="686" 
d="M244 752l-57 57v77h86v-43l16 -16h127l17 16v43h85v-77l-57 -57h-217zM130 0v109h140l33 66l-280 485v40h114l215 -384h22l193 384h106v-40l-333 -660h-210z" />
    <glyph glyph-name="uni040F" unicode="&#x40f;" horiz-adv-x="816" 
d="M719 700v-700h-252v-160h-118v160h-252v700h120v-594h382v594h120z" />
    <glyph glyph-name="uni0410" unicode="&#x410;" horiz-adv-x="789" 
d="M481 700l285 -660v-40h-115l-72 173h-372l-72 -173h-112v40l282 660h176zM251 279h284l-132 315h-20z" />
    <glyph glyph-name="uni0411" unicode="&#x411;" horiz-adv-x="801" 
d="M97 0v700h590v-106h-470v-154h407l120 -120v-200l-120 -120h-527zM217 103h347l60 61v113l-60 60h-347v-234z" />
    <glyph glyph-name="uni0412" unicode="&#x412;" horiz-adv-x="812" 
d="M97 0v700h508l110 -110v-144l-65 -65l100 -100v-161l-120 -120h-533zM217 413h324l54 54v80l-50 50h-328v-184zM217 103h353l60 61v87l-59 59h-354v-207z" />
    <glyph glyph-name="uni0413" unicode="&#x413;" horiz-adv-x="653" 
d="M97 0v700h546v-106h-426v-594h-120z" />
    <glyph glyph-name="uni0414" unicode="&#x414;" horiz-adv-x="846" 
d="M12 -160v266h77l59 80l40 514h517v-594h108v-266h-118v160h-565v-160h-118zM234 106h351v488h-286l-33 -443z" />
    <glyph glyph-name="uni0415" unicode="&#x415;" horiz-adv-x="739" 
d="M97 0v700h592v-106h-472v-190h362v-103h-362v-195h482v-106h-602z" />
    <glyph glyph-name="uni0416" unicode="&#x416;" horiz-adv-x="1098" 
d="M27 0v42l231 315l-210 302v41h110l203 -294h129v294h118v-294h130l203 294h109v-41l-209 -302l230 -315v-42h-117l-215 300h-131v-300h-118v300h-130l-215 -300h-118z" />
    <glyph glyph-name="uni0417" unicode="&#x417;" horiz-adv-x="719" 
d="M52 0v106h425l60 60v85l-59 59h-279v103h266l59 59v72l-50 50h-410v106h470l110 -110v-141l-77 -77l90 -91v-161l-120 -120h-485z" />
    <glyph glyph-name="uni0418" unicode="&#x418;" horiz-adv-x="844" 
d="M97 0v700h119v-578h15l326 578h190v-700h-119v578h-14l-327 -578h-190z" />
    <glyph glyph-name="uni0419" unicode="&#x419;" horiz-adv-x="844" 
d="M314 752l-57 57v77h86v-43l16 -16h127l17 16v43h85v-77l-57 -57h-217zM97 0v700h119v-578h15l326 578h190v-700h-119v578h-14l-327 -578h-190z" />
    <glyph glyph-name="uni041A" unicode="&#x41a;" horiz-adv-x="753" 
d="M97 0v700h120v-294h162l212 294h115v-41l-223 -303l243 -314v-42h-119l-226 300h-164v-300h-120z" />
    <glyph glyph-name="uni041B" unicode="&#x41b;" horiz-adv-x="821" 
d="M13 -10v117h105l33 33l47 560h526v-700h-120v594h-294l-44 -508l-96 -96h-157z" />
    <glyph glyph-name="uni041C" unicode="&#x41c;" horiz-adv-x="1004" 
d="M97 0v700h200l196 -447h20l196 447h198v-700h-120v575h-15l-197 -448h-146l-196 448h-16v-575h-120z" />
    <glyph glyph-name="uni041D" unicode="&#x41d;" horiz-adv-x="836" 
d="M97 0v700h120v-295h402v295h120v-700h-120v299h-402v-299h-120z" />
    <glyph glyph-name="uni041E" unicode="&#x41e;" horiz-adv-x="840" 
d="M219 0l-142 142v416l142 142h402l142 -142v-416l-142 -142h-402zM276 106h288l79 79v330l-79 79h-288l-79 -79v-330z" />
    <glyph glyph-name="uni041F" unicode="&#x41f;" horiz-adv-x="826" 
d="M97 0v700h632v-700h-120v594h-392v-594h-120z" />
    <glyph glyph-name="uni0420" unicode="&#x420;" horiz-adv-x="767" 
d="M97 0v700h487l130 -130v-225l-130 -130h-367v-215h-120zM217 321h310l67 68v138l-67 67h-310v-273z" />
    <glyph glyph-name="uni0421" unicode="&#x421;" horiz-adv-x="716" 
d="M219 0l-142 142v416l142 142h449v-106h-392l-79 -79v-330l79 -79h392v-106h-449z" />
    <glyph glyph-name="uni0422" unicode="&#x422;" horiz-adv-x="682" 
d="M281 0v594h-271v106h662v-106h-271v-594h-120z" />
    <glyph glyph-name="uni0423" unicode="&#x423;" horiz-adv-x="686" 
d="M130 0v109h140l33 66l-280 485v40h114l215 -384h22l193 384h106v-40l-333 -660h-210z" />
    <glyph glyph-name="uni0424" unicode="&#x424;" horiz-adv-x="1016" 
d="M449 -30v87h-240l-142 142v322l142 142h240v87h118v-87h240l142 -142v-322l-142 -142h-240v-87h-118zM266 163h183v394h-183l-79 -79v-236zM567 163h183l79 79v236l-79 79h-183v-394z" />
    <glyph glyph-name="uni0425" unicode="&#x425;" horiz-adv-x="728" 
d="M32 0v40l248 323l-228 297v40h119l188 -251h16l188 251h113v-40l-228 -297l248 -323v-40h-118l-208 278h-17l-207 -278h-114z" />
    <glyph glyph-name="uni0426" unicode="&#x426;" horiz-adv-x="834" 
d="M709 106h98v-266h-118v160h-592v700h120v-594h372v594h120v-594z" />
    <glyph glyph-name="uni0427" unicode="&#x427;" horiz-adv-x="758" 
d="M541 0v219h-350l-124 124v357h120v-313l62 -62h292v375h120v-700h-120z" />
    <glyph glyph-name="uni0428" unicode="&#x428;" horiz-adv-x="1142" 
d="M97 0v700h120v-594h294v594h120v-594h294v594h120v-700h-948z" />
    <glyph glyph-name="uni0429" unicode="&#x429;" horiz-adv-x="1170" 
d="M1045 106h98v-266h-118v160h-928v700h120v-594h294v594h120v-594h294v594h120v-594z" />
    <glyph glyph-name="uni042A" unicode="&#x42a;" horiz-adv-x="845" 
d="M677 465l120 -120v-225l-120 -120h-504v594h-170v106h290v-235h384zM677 166v133l-60 60h-324v-253h324z" />
    <glyph glyph-name="uni042B" unicode="&#x42b;" horiz-adv-x="1054" 
d="M97 0v700h120v-235h372l120 -120v-225l-120 -120h-492zM837 0v700h120v-700h-120zM217 106h312l60 60v133l-60 60h-312v-253z" />
    <glyph glyph-name="uni042C" unicode="&#x42c;" horiz-adv-x="769" 
d="M97 0v700h120v-235h384l120 -120v-225l-120 -120h-504zM217 106h324l60 60v133l-60 60h-324v-253z" />
    <glyph glyph-name="uni042D" unicode="&#x42d;" horiz-adv-x="716" 
d="M32 0v106h408l79 79v115h-354v103h354v112l-79 79h-398v106h455l142 -142v-416l-142 -142h-465z" />
    <glyph glyph-name="uni042E" unicode="&#x42e;" horiz-adv-x="1085" 
d="M97 0v700h120v-295h152v153l142 142h355l142 -142v-416l-142 -142h-355l-142 142v157h-152v-299h-120zM568 106h241l79 79v330l-79 79h-241l-79 -79v-330z" />
    <glyph glyph-name="uni042F" unicode="&#x42f;" horiz-adv-x="805" 
d="M72 0v40l133 217l-115 115v198l130 130h489v-700h-120v240h-255l-147 -240h-115zM280 343h309v254h-309l-70 -70v-113z" />
    <glyph glyph-name="uni0430" unicode="&#x430;" horiz-adv-x="608" 
d="M135 0l-88 88v132l95 95h286v43l-42 42h-273v100h327l101 -101v-399h-89v47h-17l-58 -47h-242zM188 98h169l71 57v68h-231l-37 -37v-61z" />
    <glyph glyph-name="uni0431" unicode="&#x431;" horiz-adv-x="648" 
d="M183 0l-116 116v462l103 103l370 24h10v-99l-320 -19l-50 -49v-92h16l40 34h239l116 -116v-248l-116 -116h-292zM237 100h184l57 57v166l-57 57h-167l-74 -61v-162z" />
    <glyph glyph-name="uni0432" unicode="&#x432;" horiz-adv-x="618" 
d="M72 0v500h387l87 -87v-102l-42 -40l67 -67v-117l-87 -87h-412zM183 301h217l33 34v36l-35 34h-215v-104zM183 95h240l35 35v44l-37 37h-238v-116z" />
    <glyph glyph-name="uni0433" unicode="&#x433;" horiz-adv-x="471" 
d="M72 0v500h394v-100h-281v-400h-113z" />
    <glyph glyph-name="uni0434" unicode="&#x434;" horiz-adv-x="674" 
d="M14 -140v240h64l49 63l27 337h407v-400h95v-240h-110v140h-422v-140h-110zM208 100h242v300h-194l-21 -265z" />
    <glyph glyph-name="uni0435" unicode="&#x435;" horiz-adv-x="626" 
d="M178 0l-116 116v268l116 116h279l116 -116v-184h-398v-43l57 -57h305v-100h-359zM175 293h285v53l-57 57h-171l-57 -57v-53z" />
    <glyph glyph-name="uni0436" unicode="&#x436;" horiz-adv-x="845" 
d="M22 0v34l161 222l-141 210v34h107l131 -198h87v198h111v-198h87l131 198h107v-34l-140 -210l160 -222v-34h-113l-145 202h-87v-202h-111v202h-87l-145 -202h-113z" />
    <glyph glyph-name="uni0437" unicode="&#x437;" horiz-adv-x="559" 
d="M36 0v100h330l33 33v39l-34 34h-211v92h201l34 34v35l-33 33h-305v100h360l91 -91v-97l-50 -50l60 -61v-110l-91 -91h-385z" />
    <glyph glyph-name="uni0438" unicode="&#x438;" horiz-adv-x="646" 
d="M72 0v500h113v-376h15l206 376h168v-500h-113v377h-14l-206 -377h-169z" />
    <glyph glyph-name="uni0439" unicode="&#x439;" horiz-adv-x="646" 
d="M220 560l-57 57v103h84v-69l18 -18h118l18 18v69h84v-103l-57 -57h-208zM72 0v500h113v-376h15l206 376h168v-500h-113v377h-14l-206 -377h-169z" />
    <glyph glyph-name="uni043A" unicode="&#x43a;" horiz-adv-x="591" 
d="M72 0v500h113v-198h117l139 198h108v-34l-150 -210l170 -222v-34h-114l-153 202h-117v-202h-113z" />
    <glyph glyph-name="uni043B" unicode="&#x43b;" horiz-adv-x="629" 
d="M10 -6v109h85l17 17l29 380h416v-500h-113v400h-198l-25 -327l-79 -79h-132z" />
    <glyph glyph-name="uni043C" unicode="&#x43c;" horiz-adv-x="757" 
d="M72 0v500h177l124 -291h15l124 291h174v-500h-113v371h-14l-119 -271h-122l-119 271h-14v-371h-113z" />
    <glyph glyph-name="uni043D" unicode="&#x43d;" horiz-adv-x="634" 
d="M72 0v500h113v-197h264v197h113v-500h-113v203h-264v-203h-113z" />
    <glyph glyph-name="uni043E" unicode="&#x43e;" horiz-adv-x="643" 
d="M178 0l-116 116v268l116 116h287l116 -116v-268l-116 -116h-287zM232 100h179l57 57v186l-57 57h-179l-57 -57v-186z" />
    <glyph glyph-name="uni043F" unicode="&#x43f;" horiz-adv-x="619" 
d="M72 0v500h475v-500h-113v400h-249v-400h-113z" />
    <glyph glyph-name="uni0440" unicode="&#x440;" horiz-adv-x="635" 
d="M72 -200v700h89v-48h21l57 48h218l116 -116v-268l-116 -116h-272v-200h-113zM185 100h218l57 57v186l-57 57h-143l-75 -61v-239z" />
    <glyph glyph-name="uni0441" unicode="&#x441;" horiz-adv-x="554" 
d="M178 0l-116 116v268l116 116h327v-100h-273l-57 -57v-186l57 -57h273v-100h-327z" />
    <glyph glyph-name="uni0442" unicode="&#x442;" horiz-adv-x="515" 
d="M201 0v400h-186v100h485v-100h-186v-400h-113z" />
    <glyph glyph-name="uni0443" unicode="&#x443;" horiz-adv-x="616" 
d="M94 -200v97h304l33 33v96h-14l-31 -26h-212l-107 107v393h113v-352l48 -48h140l63 52v348h113v-610l-90 -90h-360z" />
    <glyph glyph-name="uni0444" unicode="&#x444;" horiz-adv-x="808" 
d="M349 -200v200h-171l-116 116v268l116 116h171v200h111v-200h170l116 -116v-268l-116 -116h-170v-200h-111zM232 100h117v300h-117l-57 -57v-186zM460 100h116l57 57v186l-57 57h-116v-300z" />
    <glyph glyph-name="uni0445" unicode="&#x445;" horiz-adv-x="572" 
d="M28 0v34l178 220l-168 212v34h115l125 -166h19l128 166h108v-34l-167 -207l178 -225v-34h-115l-137 183h-17l-139 -183h-108z" />
    <glyph glyph-name="uni0446" unicode="&#x446;" horiz-adv-x="649" 
d="M537 100h89v-240h-110v140h-444v500h113v-400h239v400h113v-400z" />
    <glyph glyph-name="uni0447" unicode="&#x447;" horiz-adv-x="573" 
d="M388 0v154h-239l-107 107v239h113v-198l48 -48h185v246h113v-500h-113z" />
    <glyph glyph-name="uni0448" unicode="&#x448;" horiz-adv-x="873" 
d="M72 0v500h113v-400h195v400h113v-400h195v400h113v-500h-729z" />
    <glyph glyph-name="uni0449" unicode="&#x449;" horiz-adv-x="913" 
d="M801 100h89v-240h-110v140h-708v500h113v-400h195v400h113v-400h195v400h113v-400z" />
    <glyph glyph-name="uni044A" unicode="&#x44a;" horiz-adv-x="655" 
d="M516 352l97 -97v-158l-97 -97h-376v400h-138v100h251v-148h263zM500 136v80l-38 39h-209v-157h209z" />
    <glyph glyph-name="uni044B" unicode="&#x44b;" horiz-adv-x="811" 
d="M72 0v500h113v-148h253l97 -97v-158l-97 -97h-366zM626 0v500h113v-500h-113zM185 98h199l38 38v80l-38 39h-199v-157z" />
    <glyph glyph-name="uni044C" unicode="&#x44c;" horiz-adv-x="587" 
d="M72 0v500h113v-148h263l97 -97v-158l-97 -97h-376zM185 98h209l38 38v80l-38 39h-209v-157z" />
    <glyph glyph-name="uni044D" unicode="&#x44d;" horiz-adv-x="567" 
d="M45 0v100h291l56 57v48h-225v93h225v46l-56 56h-285v100h338l116 -116v-268l-116 -116h-344z" />
    <glyph glyph-name="uni044E" unicode="&#x44e;" horiz-adv-x="840" 
d="M72 0v500h113v-198h99v82l116 116h262l116 -116v-268l-116 -116h-262l-116 116v86h-99v-202h-113zM454 100h154l57 57v186l-57 57h-154l-57 -57v-186z" />
    <glyph glyph-name="uni044F" unicode="&#x44f;" horiz-adv-x="611" 
d="M47 0v34l99 143l-84 83v143l97 97h380v-500h-113v163h-158l-110 -163h-111zM214 261h212v142h-212l-39 -39v-65z" />
    <glyph glyph-name="uni0450" unicode="&#x450;" horiz-adv-x="626" 
d="M278 560l-91 165v11h110l58 -165v-11h-77zM178 0l-116 116v268l116 116h279l116 -116v-184h-398v-43l57 -57h305v-100h-359zM175 293h285v53l-57 57h-171l-57 -57v-53z" />
    <glyph glyph-name="uni0451" unicode="&#x451;" horiz-adv-x="626" 
d="M161 598v106h114v-106h-114zM359 598v106h114v-106h-114zM178 0l-116 116v268l116 116h279l116 -116v-184h-398v-43l57 -57h305v-100h-359zM175 293h285v53l-57 57h-171l-57 -57v-53z" />
    <glyph glyph-name="uni0452" unicode="&#x452;" horiz-adv-x="650" 
d="M476 487l107 -107v-506l-74 -74h-197v100h144l14 14v425l-48 48h-148l-71 -58v-329h-113v554h-85v81h85v65h113v-65h217v-81h-217v-98h15l38 31h220z" />
    <glyph glyph-name="uni0453" unicode="&#x453;" horiz-adv-x="471" 
d="M228 560v11l61 165h107v-11l-90 -165h-78zM72 0v500h394v-100h-281v-400h-113z" />
    <glyph glyph-name="uni0454" unicode="&#x454;" horiz-adv-x="571" 
d="M178 0l-116 116v268l116 116h338v-100h-284l-57 -56v-46h237v-93h-237v-48l57 -57h290v-100h-344z" />
    <glyph glyph-name="uni0455" unicode="&#x455;" horiz-adv-x="576" 
d="M63 0v98h326l27 27v50l-27 28h-244l-88 87v123l88 87h358v-97h-305l-28 -28v-47l28 -28h244l87 -87v-125l-87 -88h-379z" />
    <glyph glyph-name="uni0456" unicode="&#x456;" horiz-adv-x="257" 
d="M68 594v106h121v-106h-121zM72 0v500h113v-500h-113z" />
    <glyph glyph-name="uni0457" unicode="&#x457;" horiz-adv-x="257" 
d="M-9 597v107h111v-107h-111zM154 597v107h111v-107h-111zM72 0v500h113v-500h-113z" />
    <glyph glyph-name="uni0458" unicode="&#x458;" horiz-adv-x="257" 
d="M68 594v106h121v-106h-121zM-82 -200v100h140l14 14v586h113v-626l-74 -74h-193z" />
    <glyph glyph-name="uni0459" unicode="&#x459;" horiz-adv-x="933" 
d="M10 -6v109h85l17 17l29 380h404v-170h249l97 -97v-136l-97 -97h-360v400h-188l-25 -327l-79 -79h-132zM545 98h195l38 38v58l-38 39h-195v-135z" />
    <glyph glyph-name="uni045A" unicode="&#x45a;" horiz-adv-x="928" 
d="M72 0v500h113v-170h244v170h111v-170h249l97 -97v-136l-97 -97h-360v230h-244v-230h-113zM540 98h195l38 38v58l-38 39h-195v-135z" />
    <glyph glyph-name="uni045B" unicode="&#x45b;" horiz-adv-x="650" 
d="M90 0v554h-85v81h85v65h113v-65h217v-81h-217v-98h15l38 31h220l107 -107v-380h-113v339l-48 48h-148l-71 -58v-329h-113z" />
    <glyph glyph-name="uni045C" unicode="&#x45c;" horiz-adv-x="591" 
d="M271 560v11l61 165h107v-11l-90 -165h-78zM72 0v500h113v-198h117l139 198h108v-34l-150 -210l170 -222v-34h-114l-153 202h-117v-202h-113z" />
    <glyph glyph-name="uni045D" unicode="&#x45d;" horiz-adv-x="646" 
d="M284 560l-91 165v11h110l58 -165v-11h-77zM72 0v500h113v-376h15l206 376h168v-500h-113v377h-14l-206 -377h-169z" />
    <glyph glyph-name="uni045E" unicode="&#x45e;" horiz-adv-x="616" 
d="M203 560l-57 57v103h84v-69l18 -18h118l18 18v69h84v-103l-57 -57h-208zM94 -200v97h304l33 33v96h-14l-31 -26h-212l-107 107v393h113v-352l48 -48h140l63 52v348h113v-610l-90 -90h-360z" />
    <glyph glyph-name="uni045F" unicode="&#x45f;" horiz-adv-x="614" 
d="M542 500v-500h-180v-140h-110v140h-180v500h113v-400h244v400h113z" />
    <glyph glyph-name="uni0490" unicode="&#x490;" horiz-adv-x="653" 
d="M525 815h118v-221h-426v-594h-120v700h428v115z" />
    <glyph glyph-name="uni0491" unicode="&#x491;" horiz-adv-x="471" 
d="M358 590h108v-190h-281v-400h-113v500h286v90z" />
    <glyph glyph-name="uni0492" unicode="&#x492;" horiz-adv-x="674" 
d="M664 594h-426v-227h238v-86h-238v-281h-120v281h-96v86h96v333h546v-106z" />
    <glyph glyph-name="uni0493" unicode="&#x493;" horiz-adv-x="475" 
d="M470 400h-281v-138h152v-79h-152v-183h-113v183h-74v79h74v238h394v-100z" />
    <glyph glyph-name="uni0494" unicode="&#x494;" horiz-adv-x="762" 
d="M412 -130v106h118l56 56v210l-56 56h-223l-90 -74v-224h-120v700h546v-106h-426v-232h12l50 42h311l116 -116v-302l-116 -116h-178z" />
    <glyph glyph-name="uni0495" unicode="&#x495;" horiz-adv-x="567" 
d="M292 -200v100h99l31 31v195l-52 52h-111l-74 -61v-117h-113v500h390v-100h-277v-160h11l45 38h183l111 -111v-277l-90 -90h-153z" />
    <glyph glyph-name="uni0496" unicode="&#x496;" horiz-adv-x="1118" 
d="M1024 106h85v-266h-118v160h-37l-215 300h-131v-300h-118v300h-130l-215 -300h-118v42l231 315l-210 302v41h110l203 -294h129v294h118v-294h130l203 294h109v-41l-209 -302z" />
    <glyph glyph-name="uni0497" unicode="&#x497;" horiz-adv-x="865" 
d="M775 100h82v-240h-110v140h-37l-145 202h-87v-202h-111v202h-87l-145 -202h-113v34l161 222l-141 210v34h107l131 -198h87v198h111v-198h87l131 198h107v-34l-140 -210z" />
    <glyph glyph-name="uni049A" unicode="&#x49a;" horiz-adv-x="773" 
d="M676 106h88v-266h-118v160h-39l-226 300h-164v-300h-120v700h120v-294h162l212 294h115v-41l-223 -303z" />
    <glyph glyph-name="uni049B" unicode="&#x49b;" horiz-adv-x="611" 
d="M518 100h85v-240h-110v140h-38l-153 202h-117v-202h-113v500h113v-198h117l139 198h108v-34l-150 -210z" />
    <glyph glyph-name="uni049C" unicode="&#x49c;" horiz-adv-x="770" 
d="M97 0v700h120v-294h59v133h81v-133h40l212 294h114v-41l-222 -303l242 -314v-42h-119l-226 300h-41v-133h-81v133h-59v-300h-120z" />
    <glyph glyph-name="uni049D" unicode="&#x49d;" horiz-adv-x="601" 
d="M72 0v500h113v-198h37v107h71v-107h21l138 198h107v-34l-149 -210l169 -222v-34h-113l-152 202h-21v-107h-71v107h-37v-202h-113z" />
    <glyph glyph-name="uni04A2" unicode="&#x4a2;" horiz-adv-x="864" 
d="M739 106h98v-266h-118v160h-100v299h-402v-299h-120v700h120v-295h402v295h120v-594z" />
    <glyph glyph-name="uni04A3" unicode="&#x4a3;" horiz-adv-x="674" 
d="M562 100h89v-240h-110v140h-92v203h-264v-203h-113v500h113v-197h264v197h113v-400z" />
    <glyph glyph-name="uni04AA" unicode="&#x4aa;" horiz-adv-x="716" 
d="M276 594l-79 -79v-330l79 -79h392v-106h-197v-160h-118v160h-134l-142 142v416l142 142h449v-106h-392z" />
    <glyph glyph-name="uni04AB" unicode="&#x4ab;" horiz-adv-x="554" 
d="M232 400l-57 -57v-186l57 -57h273v-100h-133v-140h-110v140h-84l-116 116v268l116 116h327v-100h-273z" />
    <glyph glyph-name="uni04AE" unicode="&#x4ae;" horiz-adv-x="722" 
d="M302 0v237l-285 423v40h116l221 -333h22l221 333h108v-40l-283 -423v-237h-120z" />
    <glyph glyph-name="uni04AF" unicode="&#x4af;" horiz-adv-x="557" 
d="M219 -200v199l-205 463v38h107l149 -361h15l156 361h103v-38l-212 -463v-199h-113z" />
    <glyph glyph-name="uni04B0" unicode="&#x4b0;" horiz-adv-x="722" 
d="M705 660l-283 -423v-8h176v-86h-176v-143h-120v143h-176v86h176v8l-285 423v40h116l221 -333h22l221 333h108v-40z" />
    <glyph glyph-name="uni04B1" unicode="&#x4b1;" horiz-adv-x="567" 
d="M549 462l-212 -463v-14h151v-79h-151v-106h-113v106h-151v79h151v14l-205 463v38h107l149 -361h15l156 361h103v-38z" />
    <glyph glyph-name="uni04B2" unicode="&#x4b2;" horiz-adv-x="743" 
d="M645 106h89v-266h-118v160h-38l-208 278h-17l-207 -278h-114v40l248 323l-228 297v40h119l188 -251h16l188 251h113v-40l-228 -297z" />
    <glyph glyph-name="uni04B3" unicode="&#x4b3;" horiz-adv-x="586" 
d="M492 100h86v-240h-110v140h-39l-137 183h-17l-139 -183h-108v34l178 220l-168 212v34h115l125 -166h19l128 166h108v-34l-167 -207z" />
    <glyph glyph-name="uni04B6" unicode="&#x4b6;" horiz-adv-x="786" 
d="M661 106h98v-266h-118v160h-100v219h-350l-124 124v357h120v-313l62 -62h292v375h120v-594z" />
    <glyph glyph-name="uni04B7" unicode="&#x4b7;" horiz-adv-x="613" 
d="M501 100h89v-240h-110v140h-92v154h-239l-107 107v239h113v-198l48 -48h185v246h113v-400z" />
    <glyph glyph-name="uni04B8" unicode="&#x4b8;" horiz-adv-x="758" 
d="M541 0v219h-134v-133h-81v133h-135l-124 124v357h120v-313l62 -62h77v133h81v-133h134v375h120v-700h-120z" />
    <glyph glyph-name="uni04B9" unicode="&#x4b9;" horiz-adv-x="573" 
d="M388 0v154h-80v-108h-71v108h-88l-107 107v239h113v-198l48 -48h34v108h71v-108h80v246h113v-500h-113z" />
    <glyph glyph-name="uni04BA" unicode="&#x4ba;" horiz-adv-x="759" 
d="M97 0v700h120v-219h350l124 -124v-357h-120v314l-61 61h-293v-375h-120z" />
    <glyph glyph-name="uni04BB" unicode="&#x4bb;" horiz-adv-x="637" 
d="M77 0v700h113v-231h15l38 31h220l107 -107v-393h-113v352l-48 48h-148l-71 -58v-342h-113z" />
    <glyph glyph-name="uni04C1" unicode="&#x4c1;" horiz-adv-x="1098" 
d="M441 752l-57 57v77h86v-43l16 -16h127l17 16v43h85v-77l-57 -57h-217zM27 0v42l231 315l-210 302v41h110l203 -294h129v294h118v-294h130l203 294h109v-41l-209 -302l230 -315v-42h-117l-215 300h-131v-300h-118v300h-130l-215 -300h-118z" />
    <glyph glyph-name="uni04C2" unicode="&#x4c2;" horiz-adv-x="845" 
d="M319 560l-57 57v103h84v-69l18 -18h118l18 18v69h84v-103l-57 -57h-208zM22 0v34l161 222l-141 210v34h107l131 -198h87v198h111v-198h87l131 198h107v-34l-140 -210l160 -222v-34h-113l-145 202h-87v-202h-111v202h-87l-145 -202h-113z" />
    <glyph glyph-name="uni04D2" unicode="&#x4d2;" horiz-adv-x="789" 
d="M351 874v-106h-114v106h114zM549 874v-106h-114v106h114zM481 700l285 -660v-40h-115l-72 173h-372l-72 -173h-112v40l282 660h176zM251 279h284l-132 315h-20z" />
    <glyph glyph-name="uni04D3" unicode="&#x4d3;" horiz-adv-x="608" 
d="M161 598v106h114v-106h-114zM359 598v106h114v-106h-114zM135 0l-88 88v132l95 95h286v43l-42 42h-273v100h327l101 -101v-399h-89v47h-17l-58 -47h-242zM188 98h169l71 57v68h-231l-37 -37v-61z" />
    <glyph glyph-name="uni04D8" unicode="&#x4d8;" horiz-adv-x="836" 
d="M215 0l-142 142v270h566v103l-79 79h-429v106h486l142 -142v-416l-142 -142h-402zM272 106h288l79 79v127h-446v-127z" />
    <glyph glyph-name="uni04D9" unicode="&#x4d9;" horiz-adv-x="626" 
d="M169 0l-116 116v185h398v43l-56 56h-306v100h359l116 -116v-268l-116 -116h-279zM223 98h171l57 57v54h-285v-54z" />
    <glyph glyph-name="uni04E0" unicode="&#x4e0;" horiz-adv-x="704" 
d="M52 0v106h417l60 60v82l-60 60h-272v98l232 178v10h-367v106h560v-91l-251 -190v-11h159l119 -119v-169l-120 -120h-477z" />
    <glyph glyph-name="uni04E1" unicode="&#x4e1;" horiz-adv-x="536" 
d="M22 -200v100h307l57 57v94l-57 57h-204v94l201 187v14h-299v97h452v-91l-204 -190v-14h108l116 -116v-173l-116 -116h-361z" />
    <glyph glyph-name="uni04E2" unicode="&#x4e2;" horiz-adv-x="844" 
d="M267 780v82h310v-82h-310zM97 0v700h119v-578h15l326 578h190v-700h-119v578h-14l-327 -578h-190z" />
    <glyph glyph-name="uni04E3" unicode="&#x4e3;" horiz-adv-x="646" 
d="M168 610v82h310v-82h-310zM72 0v500h113v-376h15l206 376h168v-500h-113v377h-14l-206 -377h-169z" />
    <glyph glyph-name="uni04E6" unicode="&#x4e6;" horiz-adv-x="840" 
d="M264 768v106h114v-106h-114zM462 768v106h114v-106h-114zM219 0l-142 142v416l142 142h402l142 -142v-416l-142 -142h-402zM276 106h288l79 79v330l-79 79h-288l-79 -79v-330z" />
    <glyph glyph-name="uni04E7" unicode="&#x4e7;" horiz-adv-x="643" 
d="M166 598v106h114v-106h-114zM364 598v106h114v-106h-114zM178 0l-116 116v268l116 116h287l116 -116v-268l-116 -116h-287zM232 100h179l57 57v186l-57 57h-179l-57 -57v-186z" />
    <glyph glyph-name="uni04E8" unicode="&#x4e8;" horiz-adv-x="840" 
d="M621 700l142 -142v-416l-142 -142h-402l-142 142v416l142 142h402zM276 594l-79 -79v-120h446v120l-79 79h-288zM564 106l79 79v124h-446v-124l79 -79h288z" />
    <glyph glyph-name="uni04E9" unicode="&#x4e9;" horiz-adv-x="643" 
d="M465 500l116 -116v-268l-116 -116h-287l-116 116v268l116 116h287zM232 400l-57 -57v-54h293v54l-57 57h-179zM411 100l57 57v57h-293v-57l57 -57h179z" />
    <glyph glyph-name="uni04EE" unicode="&#x4ee;" horiz-adv-x="686" 
d="M197 780v82h310v-82h-310zM130 0v109h140l33 66l-280 485v40h114l215 -384h22l193 384h106v-40l-333 -660h-210z" />
    <glyph glyph-name="uni04EF" unicode="&#x4ef;" horiz-adv-x="616" 
d="M151 610v82h310v-82h-310zM94 -200v97h304l33 33v96h-14l-31 -26h-212l-107 107v393h113v-352l48 -48h140l63 52v348h113v-610l-90 -90h-360z" />
    <glyph glyph-name="uni04F0" unicode="&#x4f0;" horiz-adv-x="686" 
d="M196 768v106h114v-106h-114zM394 768v106h114v-106h-114zM130 0v109h140l33 66l-280 485v40h114l215 -384h22l193 384h106v-40l-333 -660h-210z" />
    <glyph glyph-name="uni04F1" unicode="&#x4f1;" horiz-adv-x="616" 
d="M150 598v106h114v-106h-114zM348 598v106h114v-106h-114zM94 -200v97h304l33 33v96h-14l-31 -26h-212l-107 107v393h113v-352l48 -48h140l63 52v348h113v-610l-90 -90h-360z" />
    <glyph glyph-name="Wgrave" unicode="&#x1e80;" horiz-adv-x="1065" 
d="M477 752l-73 129v11h108l52 -129v-11h-87zM237 0l-209 660v40h113l184 -587h22l132 408l-42 139v40h112l175 -587h22l181 587h110v-40l-206 -660h-187l-105 339h-11l-111 -339h-180z" />
    <glyph glyph-name="wgrave" unicode="&#x1e81;" horiz-adv-x="808" 
d="M350 560l-91 165v11h110l58 -165v-11h-77zM173 0l-154 466v34h107l124 -395h16l92 273l-25 88v34h103l109 -395h16l125 395h104v-34l-154 -466h-160l-64 220h-14l-73 -220h-152z" />
    <glyph glyph-name="Wacute" unicode="&#x1e82;" horiz-adv-x="1065" 
d="M478 752v11l53 129h107v-11l-72 -129h-88zM237 0l-209 660v40h113l184 -587h22l132 408l-42 139v40h112l175 -587h22l181 587h110v-40l-206 -660h-187l-105 339h-11l-111 -339h-180z" />
    <glyph glyph-name="wacute" unicode="&#x1e83;" horiz-adv-x="808" 
d="M348 560v11l61 165h107v-11l-90 -165h-78zM173 0l-154 466v34h107l124 -395h16l92 273l-25 88v34h103l109 -395h16l125 395h104v-34l-154 -466h-160l-64 220h-14l-73 -220h-152z" />
    <glyph glyph-name="Wdieresis" unicode="&#x1e84;" horiz-adv-x="1065" 
d="M365 768v106h114v-106h-114zM563 768v106h114v-106h-114zM237 0l-209 660v40h113l184 -587h22l132 408l-42 139v40h112l175 -587h22l181 587h110v-40l-206 -660h-187l-105 339h-11l-111 -339h-180z" />
    <glyph glyph-name="wdieresis" unicode="&#x1e85;" horiz-adv-x="808" 
d="M233 598v106h114v-106h-114zM431 598v106h114v-106h-114zM173 0l-154 466v34h107l124 -395h16l92 273l-25 88v34h103l109 -395h16l125 395h104v-34l-154 -466h-160l-64 220h-14l-73 -220h-152z" />
    <glyph glyph-name="uni1E9E" unicode="&#x1e9e;" horiz-adv-x="786" 
d="M97 0v580l120 120h460v-107l-147 -157v-13h90l119 -119v-184l-120 -120h-318v102h257l61 61v102l-61 61h-173v97l153 163v12h-259l-62 -61v-537h-120z" />
    <glyph glyph-name="Ygrave" unicode="&#x1ef2;" horiz-adv-x="722" 
d="M319 752l-73 129v11h108l52 -129v-11h-87zM302 0v237l-285 423v40h116l221 -333h22l221 333h108v-40l-283 -423v-237h-120z" />
    <glyph glyph-name="ygrave" unicode="&#x1ef3;" horiz-adv-x="616" 
d="M267 560l-91 165v11h110l58 -165v-11h-77zM94 -200v97h304l33 33v96h-14l-31 -26h-212l-107 107v393h113v-352l48 -48h140l63 52v348h113v-610l-90 -90h-360z" />
    <glyph glyph-name="endash" unicode="&#x2013;" horiz-adv-x="600" 
d="M48 229v92h504v-92h-504z" />
    <glyph glyph-name="emdash" unicode="&#x2014;" horiz-adv-x="950" 
d="M48 229v92h854v-92h-854z" />
    <glyph glyph-name="quoteleft" unicode="&#x2018;" horiz-adv-x="254" 
d="M182 700l-32 -152h45v-136h-136v115l58 173h65z" />
    <glyph glyph-name="quoteright" unicode="&#x2019;" horiz-adv-x="254" 
d="M72 412l33 152h-46v136h136v-115l-58 -173h-65z" />
    <glyph glyph-name="quotesinglbase" unicode="&#x201a;" horiz-adv-x="254" 
d="M72 -162l33 152h-46v136h136v-115l-58 -173h-65z" />
    <glyph glyph-name="quotedblleft" unicode="&#x201c;" horiz-adv-x="448" 
d="M182 700l-32 -152h45v-136h-136v115l58 173h65zM376 700l-32 -152h45v-136h-136v115l58 173h65z" />
    <glyph glyph-name="quotedblright" unicode="&#x201d;" horiz-adv-x="448" 
d="M72 412l33 152h-46v136h136v-115l-58 -173h-65zM266 412l33 152h-46v136h136v-115l-58 -173h-65z" />
    <glyph glyph-name="quotedblbase" unicode="&#x201e;" horiz-adv-x="448" 
d="M72 -162l33 152h-46v136h136v-115l-58 -173h-65zM266 -162l33 152h-46v136h136v-115l-58 -173h-65z" />
    <glyph glyph-name="dagger" unicode="&#x2020;" horiz-adv-x="676" 
d="M283 -50v521h-205v100h205v179h111v-179h204v-100h-204v-521h-111z" />
    <glyph glyph-name="daggerdbl" unicode="&#x2021;" horiz-adv-x="676" 
d="M283 -50v180h-205v100h205v241h-205v100h205v179h111v-179h204v-100h-204v-241h204v-100h-204v-180h-111z" />
    <glyph glyph-name="bullet" unicode="&#x2022;" horiz-adv-x="387" 
d="M118 217v146h151v-146h-151z" />
    <glyph glyph-name="ellipsis" unicode="&#x2026;" horiz-adv-x="968" 
d="M102 0v126h132v-126h-132zM418 0v126h132v-126h-132zM734 0v126h132v-126h-132z" />
    <glyph glyph-name="perthousand" unicode="&#x2030;" horiz-adv-x="1384" 
d="M140 368l-75 75v182l75 75h183l75 -75v-182l-75 -75h-183zM235 0v34l426 666h79v-34l-426 -666h-79zM184 447h95l31 31v112l-31 31h-95l-31 -31v-112zM652 0l-75 75v182l75 75h183l75 -75v-182l-75 -75h-183zM1061 0l-75 75v182l75 75h183l75 -75v-182l-75 -75h-183z
M696 79h95l31 31v112l-31 31h-95l-31 -31v-112zM1105 79h95l31 31v112l-31 31h-95l-31 -31v-112z" />
    <glyph glyph-name="guilsinglleft" unicode="&#x2039;" horiz-adv-x="422" 
d="M305 -13l-268 263l266 261l70 -70l-200 -191l202 -192z" />
    <glyph glyph-name="guilsinglright" unicode="&#x203a;" horiz-adv-x="422" 
d="M117 -13l-70 71l202 192l-200 191l70 70l266 -261z" />
    <glyph glyph-name="fraction" unicode="&#x2044;" horiz-adv-x="89" 
d="M-208 0v34l426 666h79v-34l-426 -666h-79z" />
    <glyph glyph-name="uni2070" unicode="&#x2070;" horiz-adv-x="397" 
d="M113 468l-70 70v192l70 70h171l70 -70v-192l-70 -70h-171zM157 541h83l30 30v126l-30 30h-83l-30 -30v-126z" />
    <glyph glyph-name="uni2074" unicode="&#x2074;" horiz-adv-x="367" 
d="M197 468v58h-208v70l186 204h104v-206h45v-68h-45v-58h-82zM81 594h116v126h-6l-110 -121v-5z" />
    <glyph glyph-name="uni2075" unicode="&#x2075;" horiz-adv-x="404" 
d="M56 468v72h200l22 22v26l-22 22h-195v190h281v-72h-197v-48h158l59 -59v-94l-59 -59h-247z" />
    <glyph glyph-name="uni2076" unicode="&#x2076;" horiz-adv-x="394" 
d="M103 468l-60 60v212l60 60h238v-72h-192l-22 -22v-23h179l55 -55v-101l-59 -59h-199zM148 540h108l21 21v36l-22 22h-128v-58z" />
    <glyph glyph-name="uni2077" unicode="&#x2077;" horiz-adv-x="337" 
d="M107 468v27l135 225v7h-195v73h295v-73l-151 -259h-84z" />
    <glyph glyph-name="uni2078" unicode="&#x2078;" horiz-adv-x="414" 
d="M98 468l-55 55v76l42 42l-32 33v71l55 55h198l55 -55v-71l-32 -33l42 -42v-76l-55 -55h-218zM158 669h99l20 20v23l-16 16h-108l-16 -16v-23zM144 540h126l17 17v26l-22 22h-116l-22 -22v-26z" />
    <glyph glyph-name="uni2079" unicode="&#x2079;" horiz-adv-x="394" 
d="M53 468v72h192l22 22v23h-179l-55 55v101l59 59h199l60 -60v-212l-60 -60h-238zM139 649h128v58l-21 21h-108l-21 -21v-36z" />
    <glyph glyph-name="uni2080" unicode="&#x2080;" horiz-adv-x="397" 
d="M113 -100l-70 70v192l70 70h171l70 -70v-192l-70 -70h-171zM157 -27h83l30 30v126l-30 30h-83l-30 -30v-126z" />
    <glyph glyph-name="uni2081" unicode="&#x2081;" horiz-adv-x="384" 
d="M68 -100v73h89v186h-83v73h167v-259h83v-73h-256z" />
    <glyph glyph-name="uni2082" unicode="&#x2082;" horiz-adv-x="406" 
d="M43 -100v135l65 65h154l21 21v18l-21 21h-208v72h253l60 -60v-82l-60 -60h-154l-26 -26v-32h230v-72h-314z" />
    <glyph glyph-name="uni2083" unicode="&#x2083;" horiz-adv-x="398" 
d="M43 -100v72h220l17 17v22l-22 22h-135v70h125l22 22v18l-17 17h-204v72h250l55 -55v-70l-31 -31l41 -41v-80l-55 -55h-266z" />
    <glyph glyph-name="uni2084" unicode="&#x2084;" horiz-adv-x="367" 
d="M197 -100v58h-208v70l186 204h104v-206h45v-68h-45v-58h-82zM81 26h116v126h-6l-110 -121v-5z" />
    <glyph glyph-name="uni2085" unicode="&#x2085;" horiz-adv-x="404" 
d="M56 -100v72h200l22 22v26l-22 22h-195v190h281v-72h-197v-48h158l59 -59v-94l-59 -59h-247z" />
    <glyph glyph-name="uni2086" unicode="&#x2086;" horiz-adv-x="394" 
d="M103 -100l-60 60v212l60 60h238v-72h-192l-22 -22v-23h179l55 -55v-101l-59 -59h-199zM148 -28h108l21 21v36l-22 22h-128v-58z" />
    <glyph glyph-name="uni2087" unicode="&#x2087;" horiz-adv-x="337" 
d="M107 -100v27l135 225v7h-195v73h295v-73l-151 -259h-84z" />
    <glyph glyph-name="uni2088" unicode="&#x2088;" horiz-adv-x="414" 
d="M98 -100l-55 55v76l42 42l-32 33v71l55 55h198l55 -55v-71l-32 -33l42 -42v-76l-55 -55h-218zM158 101h99l20 20v23l-16 16h-108l-16 -16v-23zM144 -28h126l17 17v26l-22 22h-116l-22 -22v-26z" />
    <glyph glyph-name="uni2089" unicode="&#x2089;" horiz-adv-x="394" 
d="M53 -100v72h192l22 22v23h-179l-55 55v101l59 59h199l60 -60v-212l-60 -60h-238zM139 81h128v58l-21 21h-108l-21 -21v-36z" />
    <glyph glyph-name="uni20A9" unicode="&#x20a9;" horiz-adv-x="967" 
d="M945 399h-100l-23 -92h123v-82h-143l-55 -225h-180l-77 313h-8l-83 -313h-173l-57 225h-146v82h125l-23 92h-102v81h82l-46 180v40h112l141 -587h13l113 414l-30 133v40h109l132 -587h13l139 587h108v-40l-44 -180h80v-81z" />
    <glyph glyph-name="Euro" unicode="&#x20ac;" horiz-adv-x="772" 
d="M283 0l-142 142v93h-92v82h92v67h-92v81h92v93l142 142h441v-106h-384l-79 -79v-50h292v-81h-292v-67h292v-82h-292v-50l79 -79h384v-106h-441z" />
    <glyph glyph-name="uni20B4" unicode="&#x20b4;" horiz-adv-x="762" 
d="M47 379v81h439l43 43v51l-40 40h-342v106h397l105 -105v-114l-20 -21h86v-81h-668zM218 0l-105 105v114l20 21h-86v82h668v-82h-439l-43 -43v-51l40 -40h366v-106h-421z" />
    <glyph glyph-name="uni20B8" unicode="&#x20b8;" horiz-adv-x="658" 
d="M10 619v81h638v-81h-638zM269 0v457h-259v106h638v-106h-259v-457h-120z" />
    <glyph glyph-name="uni20B9" unicode="&#x20b9;" horiz-adv-x="699" 
d="M465 0l-413 223v146h326l60 60v21h-386v79h386v18l-63 63h-323v90h595v-79h-136l47 -47v-45h89v-79h-89v-48l-126 -126h-237v-16l414 -218v-42h-144z" />
    <glyph glyph-name="uni20BA" unicode="&#x20ba;" horiz-adv-x="681" 
d="M547 308h117v-164l-144 -144h-406v247l-77 -27h-20v78l97 33v73l-77 -27h-20v78l97 33v212h120v-170l262 90h20v-78l-282 -97v-72l262 90h20v-78l-282 -97v-182h238l75 75v127z" />
    <glyph glyph-name="uni20BD" unicode="&#x20bd;" horiz-adv-x="819" 
d="M145 0v89h-88v81h88v73h-88v81h88v376h491l130 -130v-197l-130 -130h-371v-73h371v-81h-371v-89h-120zM265 349h314l67 67v111l-67 67h-314v-245z" />
    <glyph glyph-name="uni20BF" unicode="&#x20bf;" horiz-adv-x="793" 
d="M254 -100v100h-157v700h157v100h86v-100h67v100h86v-100h93l110 -110v-144l-66 -66l101 -101v-159l-120 -120h-118v-100h-86v100h-67v-100h-86zM217 413h305l54 54v80l-50 50h-309v-184zM217 103h334l60 61v87l-59 59h-335v-207z" />
    <glyph glyph-name="uni2113" unicode="&#x2113;" horiz-adv-x="471" 
d="M184 0l-65 65v140h-80v92h80v330l73 73h152l73 -73v-219l-198 -196v-106l14 -13h150v-93h-199zM219 348h13l85 86v151l-22 23h-53l-23 -23v-237z" />
    <glyph glyph-name="uni2116" unicode="&#x2116;" horiz-adv-x="1252" 
d="M934 369l-74 74v184l74 74h185l74 -74v-184l-74 -74h-185zM97 0v700h200l319 -578h17v578h116v-700h-200l-319 579h-16v-579h-117zM978 448h97l30 30v114l-30 30h-97l-30 -30v-114zM860 213v84h333v-84h-333z" />
    <glyph glyph-name="uni2117" unicode="&#x2117;" horiz-adv-x="1052" 
d="M270 -40l-160 160v450l160 160h512l160 -160v-450l-160 -160h-512zM318 47h416l110 110v376l-110 110h-416l-110 -110v-376zM369 150v390h272l75 -75v-122l-75 -75h-182v-118h-90zM459 352h140l27 27v50l-27 27h-140v-104z" />
    <glyph glyph-name="trademark" unicode="&#x2122;" horiz-adv-x="997" 
d="M161 308v309h-142v83h376v-83h-142v-309h-92zM451 308v392h146l88 -235h7l88 235h146v-392h-92v302h-7l-92 -243h-93l-92 243h-7v-302h-92z" />
    <glyph glyph-name="uni2126" unicode="&#x2126;" horiz-adv-x="896" 
d="M107 0v92h116v13l-116 104v349l142 142h398l142 -142v-349l-116 -104v-13h116v-92h-264v107l146 138v272l-81 81h-284l-81 -81v-272l146 -138v-107h-264z" />
    <glyph glyph-name="estimated" unicode="&#x212e;" horiz-adv-x="850" 
d="M440 -20q-163 0 -271.5 104.5t-108.5 255.5t106.5 255.5t263.5 104.5t263.5 -105t106.5 -260h-576q-14 0 -14 -15v-202q0 -48 75 -80.5t155 -32.5q46 0 89.5 13t73 31t53 38.5t34.5 34t13 18.5h57q-5 -8 -17.5 -23t-42 -40t-64 -45.5t-87.5 -36t-109 -15.5zM224 360h412
q14 0 14 15v190q0 34 -39.5 60t-88.5 38t-92 12q-73 0 -146.5 -30.5t-73.5 -79.5v-190q0 -15 14 -15z" />
    <glyph glyph-name="uni2150" unicode="&#x2150;" horiz-adv-x="810" 
d="M68 368v73h89v186h-83v73h167v-259h83v-73h-256zM176 0v34l426 666h79v-34l-426 -666h-79zM580 0v27l135 225v7h-195v73h295v-73l-151 -259h-84z" />
    <glyph glyph-name="uni2151" unicode="&#x2151;" horiz-adv-x="867" 
d="M68 368v73h89v186h-83v73h167v-259h83v-73h-256zM176 0v34l426 666h79v-34l-426 -666h-79zM526 0v72h192l22 22v23h-179l-55 55v101l59 59h199l60 -60v-212l-60 -60h-238zM612 181h128v58l-21 21h-108l-21 -21v-36z" />
    <glyph glyph-name="uni2152" unicode="&#x2152;" horiz-adv-x="1184" 
d="M68 368v73h89v186h-83v73h167v-259h83v-73h-256zM176 0v34l426 666h79v-34l-426 -666h-79zM541 0v73h89v186h-83v73h167v-259h83v-73h-256zM900 0l-70 70v192l70 70h171l70 -70v-192l-70 -70h-171zM944 73h83l30 30v126l-30 30h-83l-30 -30v-126z" />
    <glyph glyph-name="uni2153" unicode="&#x2153;" horiz-adv-x="871" 
d="M68 368v73h89v186h-83v73h167v-259h83v-73h-256zM176 0v34l426 666h79v-34l-426 -666h-79zM516 0v72h220l17 17v22l-22 22h-135v70h125l22 22v18l-17 17h-204v72h250l55 -55v-70l-31 -31l41 -41v-80l-55 -55h-266z" />
    <glyph glyph-name="uni2154" unicode="&#x2154;" horiz-adv-x="893" 
d="M43 368v135l65 65h154l21 21v18l-21 21h-208v72h253l60 -60v-82l-60 -60h-154l-26 -26v-32h230v-72h-314zM198 0v34l426 666h79v-34l-426 -666h-79zM538 0v72h220l17 17v22l-22 22h-135v70h125l22 22v18l-17 17h-204v72h250l55 -55v-70l-31 -31l41 -41v-80l-55 -55h-266z
" />
    <glyph glyph-name="uni2155" unicode="&#x2155;" horiz-adv-x="877" 
d="M68 368v73h89v186h-83v73h167v-259h83v-73h-256zM176 0v34l426 666h79v-34l-426 -666h-79zM529 0v72h200l22 22v26l-22 22h-195v190h281v-72h-197v-48h158l59 -59v-94l-59 -59h-247z" />
    <glyph glyph-name="uni2156" unicode="&#x2156;" horiz-adv-x="899" 
d="M43 368v135l65 65h154l21 21v18l-21 21h-208v72h253l60 -60v-82l-60 -60h-154l-26 -26v-32h230v-72h-314zM198 0v34l426 666h79v-34l-426 -666h-79zM551 0v72h200l22 22v26l-22 22h-195v190h281v-72h-197v-48h158l59 -59v-94l-59 -59h-247z" />
    <glyph glyph-name="uni2157" unicode="&#x2157;" horiz-adv-x="891" 
d="M43 368v72h220l17 17v22l-22 22h-135v70h125l22 22v18l-17 17h-204v72h250l55 -55v-70l-31 -31l41 -41v-80l-55 -55h-266zM190 0v34l426 666h79v-34l-426 -666h-79zM543 0v72h200l22 22v26l-22 22h-195v190h281v-72h-197v-48h158l59 -59v-94l-59 -59h-247z" />
    <glyph glyph-name="uni2158" unicode="&#x2158;" horiz-adv-x="860" 
d="M197 368v58h-208v70l186 204h104v-206h45v-68h-45v-58h-82zM159 0v34l426 666h79v-34l-426 -666h-79zM81 494h116v126h-6l-110 -121v-5zM512 0v72h200l22 22v26l-22 22h-195v190h281v-72h-197v-48h158l59 -59v-94l-59 -59h-247z" />
    <glyph glyph-name="uni2159" unicode="&#x2159;" horiz-adv-x="867" 
d="M68 368v73h89v186h-83v73h167v-259h83v-73h-256zM176 0v34l426 666h79v-34l-426 -666h-79zM576 0l-60 60v212l60 60h238v-72h-192l-22 -22v-23h179l55 -55v-101l-59 -59h-199zM621 72h108l21 21v36l-22 22h-128v-58z" />
    <glyph glyph-name="uni215A" unicode="&#x215a;" horiz-adv-x="887" 
d="M56 368v72h200l22 22v26l-22 22h-195v190h281v-72h-197v-48h158l59 -59v-94l-59 -59h-247zM196 0v34l426 666h79v-34l-426 -666h-79zM596 0l-60 60v212l60 60h238v-72h-192l-22 -22v-23h179l55 -55v-101l-59 -59h-199zM641 72h108l21 21v36l-22 22h-128v-58z" />
    <glyph glyph-name="oneeighth" unicode="&#x215b;" horiz-adv-x="887" 
d="M68 368v73h89v186h-83v73h167v-259h83v-73h-256zM176 0v34l426 666h79v-34l-426 -666h-79zM571 0l-55 55v76l42 42l-32 33v71l55 55h198l55 -55v-71l-32 -33l42 -42v-76l-55 -55h-218zM631 201h99l20 20v23l-16 16h-108l-16 -16v-23zM617 72h126l17 17v26l-22 22h-116
l-22 -22v-26z" />
    <glyph glyph-name="threeeighths" unicode="&#x215c;" horiz-adv-x="901" 
d="M43 368v72h220l17 17v22l-22 22h-135v70h125l22 22v18l-17 17h-204v72h250l55 -55v-70l-31 -31l41 -41v-80l-55 -55h-266zM190 0v34l426 666h79v-34l-426 -666h-79zM585 0l-55 55v76l42 42l-32 33v71l55 55h198l55 -55v-71l-32 -33l42 -42v-76l-55 -55h-218zM645 201h99
l20 20v23l-16 16h-108l-16 -16v-23zM631 72h126l17 17v26l-22 22h-116l-22 -22v-26z" />
    <glyph glyph-name="fiveeighths" unicode="&#x215d;" horiz-adv-x="907" 
d="M56 368v72h200l22 22v26l-22 22h-195v190h281v-72h-197v-48h158l59 -59v-94l-59 -59h-247zM196 0v34l426 666h79v-34l-426 -666h-79zM591 0l-55 55v76l42 42l-32 33v71l55 55h198l55 -55v-71l-32 -33l42 -42v-76l-55 -55h-218zM651 201h99l20 20v23l-16 16h-108l-16 -16
v-23zM637 72h126l17 17v26l-22 22h-116l-22 -22v-26z" />
    <glyph glyph-name="seveneighths" unicode="&#x215e;" horiz-adv-x="840" 
d="M107 368v27l135 225v7h-195v73h295v-73l-151 -259h-84zM129 0v34l426 666h79v-34l-426 -666h-79zM524 0l-55 55v76l42 42l-32 33v71l55 55h198l55 -55v-71l-32 -33l42 -42v-76l-55 -55h-218zM584 201h99l20 20v23l-16 16h-108l-16 -16v-23zM570 72h126l17 17v26l-22 22
h-116l-22 -22v-26z" />
    <glyph glyph-name="uni215F" unicode="&#x215f;" horiz-adv-x="473" 
d="M68 368v73h89v186h-83v73h167v-259h83v-73h-256zM176 0v34l426 666h79v-34l-426 -666h-79z" />
    <glyph glyph-name="arrowleft" unicode="&#x2190;" horiz-adv-x="1040" 
d="M426 39l-311 311l311 311l63 -63l-190 -190v-10h626v-96h-626v-10l190 -190z" />
    <glyph glyph-name="arrowup" unicode="&#x2191;" horiz-adv-x="1040" 
d="M472 -50v626h-10l-190 -190l-63 63l311 311l311 -311l-63 -63l-190 190h-10v-626h-96z" />
    <glyph glyph-name="arrowright" unicode="&#x2192;" horiz-adv-x="1040" 
d="M614 39l-63 63l190 190v10h-626v96h626v10l-190 190l63 63l311 -311z" />
    <glyph glyph-name="arrowdown" unicode="&#x2193;" horiz-adv-x="1040" 
d="M520 -60l-311 311l63 63l190 -190h10v626h96v-626h10l190 190l63 -63z" />
    <glyph glyph-name="arrowboth" unicode="&#x2194;" horiz-adv-x="1040" 
d="M371 39l-311 311l311 311l63 -63l-190 -190v-10h552v10l-190 190l63 63l311 -311l-311 -311l-63 63l190 190v10h-552v-10l190 -190z" />
    <glyph glyph-name="uni2196" unicode="&#x2196;" horiz-adv-x="1040" 
d="M793 33l-442 443l-7 -7v-269h-90v440h440v-89h-268l-7 -7l442 -443z" />
    <glyph glyph-name="uni2197" unicode="&#x2197;" horiz-adv-x="1040" 
d="M247 33l-68 68l443 443l-7 7h-269v89h440v-440h-89v269l-7 7z" />
    <glyph glyph-name="uni2198" unicode="&#x2198;" horiz-adv-x="1040" 
d="M346 60v90h269l7 7l-443 442l68 68l443 -442l7 7v269h89v-441h-440z" />
    <glyph glyph-name="uni2199" unicode="&#x2199;" horiz-adv-x="1040" 
d="M254 60v441h90v-269l7 -7l442 442l68 -68l-442 -442l7 -7h268v-90h-440z" />
    <glyph glyph-name="partialdiff" unicode="&#x2202;" horiz-adv-x="623" 
d="M173 0l-116 116v224l116 116h265v53l-91 91h-229v100h283l150 -150v-424l-126 -126h-252zM227 100h144l67 67v189h-211l-57 -57v-142z" />
    <glyph glyph-name="emptyset" unicode="&#x2205;" horiz-adv-x="894" 
d="M812 720v-44l-68 -72l46 -46v-416l-142 -142h-402l-35 35l-53 -55h-76v45l68 71l-46 46v416l142 142h402l36 -36l53 56h75zM222 513v-325l8 -8l375 400l-14 14h-288zM673 188v325l-7 7l-376 -401l13 -13h288z" />
    <glyph glyph-name="uni2206" unicode="&#x2206;" horiz-adv-x="733" 
d="M58 0v105l243 595h131l243 -595v-105h-617zM186 107h364v15l-175 442h-14l-175 -442v-15z" />
    <glyph glyph-name="product" unicode="&#x220f;" horiz-adv-x="831" 
d="M188 -100v694h-91v106h637v-106h-90v-694h-116v694h-224v-694h-116z" />
    <glyph glyph-name="summation" unicode="&#x2211;" horiz-adv-x="629" 
d="M59 -100v136l269 264v12l-269 251v137h536v-100l-399 -1v-16l252 -235v-78l-257 -254v-16h409v-100h-541z" />
    <glyph glyph-name="minus" unicode="&#x2212;" horiz-adv-x="580" 
d="M45 304v92h490v-92h-490z" />
    <glyph glyph-name="radical" unicode="&#x221a;" horiz-adv-x="732" 
d="M244 -110l-103 261h-116v104h193l98 -252h16l279 807h101v-34l-308 -886h-160z" />
    <glyph glyph-name="infinity" unicode="&#x221e;" horiz-adv-x="916" 
d="M158 144l-90 90v182l90 90h181l119 -119l119 119h181l90 -90v-182l-90 -90h-181l-119 119l-119 -119h-181zM207 232h98l93 93l-93 94h-98l-41 -41v-105zM612 232h98l41 41v105l-41 41h-98l-94 -94z" />
    <glyph glyph-name="integral" unicode="&#x222b;" horiz-adv-x="410" 
d="M40 -100v97h100l10 11v724l68 68h152v-97h-100l-10 -10v-725l-68 -68h-152z" />
    <glyph glyph-name="approxequal" unicode="&#x2248;" horiz-adv-x="580" 
d="M61 366v82l66 66h148l68 -70h72l22 22v48h83v-82l-66 -66h-143l-68 70h-77l-22 -22v-48h-83zM61 192v82l66 66h148l68 -70h72l22 22v48h83v-82l-66 -66h-143l-68 70h-77l-22 -22v-48h-83z" />
    <glyph glyph-name="notequal" unicode="&#x2260;" horiz-adv-x="580" 
d="M525 401h-168l-43 -102h211v-92h-250l-48 -112h-81v22l38 90h-129v92h168l43 102h-211v92h250l48 112h81v-22l-38 -90h129v-92z" />
    <glyph glyph-name="lessequal" unicode="&#x2264;" horiz-adv-x="467" 
d="M325 128l-286 286l286 286l67 -66l-221 -220l221 -219zM39 0v91h396v-91h-396z" />
    <glyph glyph-name="greaterequal" unicode="&#x2265;" horiz-adv-x="467" 
d="M142 128l-67 67l221 219l-221 220l67 66l286 -286zM428 0h-396v91h396v-91z" />
    <glyph glyph-name="uni2460" unicode="&#x2460;" horiz-adv-x="1024" 
d="M272 -60l-180 180v450l180 180h480l180 -180v-450l-180 -180h-480zM319 23h386l134 134v376l-134 134h-386l-134 -134v-376zM401 179v73h89v186h-83v73h167v-259h83v-73h-256z" />
    <glyph glyph-name="uni2461" unicode="&#x2461;" horiz-adv-x="1024" 
d="M272 -60l-180 180v450l180 180h480l180 -180v-450l-180 -180h-480zM319 23h386l134 134v376l-134 134h-386l-134 -134v-376zM361 179v135l65 65h154l21 21v18l-21 21h-208v72h253l60 -60v-82l-60 -60h-154l-26 -26v-32h230v-72h-314z" />
    <glyph glyph-name="uni2462" unicode="&#x2462;" horiz-adv-x="1024" 
d="M272 -60l-180 180v450l180 180h480l180 -180v-450l-180 -180h-480zM319 23h386l134 134v376l-134 134h-386l-134 -134v-376zM363 179v72h220l17 17v22l-22 22h-135v70h125l22 22v18l-17 17h-204v72h250l55 -55v-70l-31 -31l41 -41v-80l-55 -55h-266z" />
    <glyph glyph-name="uni2463" unicode="&#x2463;" horiz-adv-x="1024" 
d="M272 -60l-180 180v450l180 180h480l180 -180v-450l-180 -180h-480zM319 23h386l134 134v376l-134 134h-386l-134 -134v-376zM542 179v58h-208v70l186 204h104v-206h45v-68h-45v-58h-82zM426 305h116v126h-6l-110 -121v-5z" />
    <glyph glyph-name="uni2464" unicode="&#x2464;" horiz-adv-x="1024" 
d="M272 -60l-180 180v450l180 180h480l180 -180v-450l-180 -180h-480zM319 23h386l134 134v376l-134 134h-386l-134 -134v-376zM369 179v72h200l22 22v26l-22 22h-195v190h281v-72h-197v-48h158l59 -59v-94l-59 -59h-247z" />
    <glyph glyph-name="uni2465" unicode="&#x2465;" horiz-adv-x="1024" 
d="M272 -60l-180 180v450l180 180h480l180 -180v-450l-180 -180h-480zM319 23h386l134 134v376l-134 134h-386l-134 -134v-376zM413 179l-60 60v212l60 60h238v-72h-192l-22 -22v-23h179l55 -55v-101l-59 -59h-199zM458 251h108l21 21v36l-22 22h-128v-58z" />
    <glyph glyph-name="uni2466" unicode="&#x2466;" horiz-adv-x="1024" 
d="M272 -60l-180 180v450l180 180h480l180 -180v-450l-180 -180h-480zM319 23h386l134 134v376l-134 134h-386l-134 -134v-376zM429 179v27l135 225v7h-195v73h295v-73l-151 -259h-84z" />
    <glyph glyph-name="uni2467" unicode="&#x2467;" horiz-adv-x="1024" 
d="M272 -60l-180 180v450l180 180h480l180 -180v-450l-180 -180h-480zM319 23h386l134 134v376l-134 134h-386l-134 -134v-376zM403 179l-55 55v76l42 42l-32 33v71l55 55h198l55 -55v-71l-32 -33l42 -42v-76l-55 -55h-218zM463 380h99l20 20v23l-16 16h-108l-16 -16v-23z
M449 251h126l17 17v26l-22 22h-116l-22 -22v-26z" />
    <glyph glyph-name="uni2468" unicode="&#x2468;" horiz-adv-x="1024" 
d="M272 -60l-180 180v450l180 180h480l180 -180v-450l-180 -180h-480zM319 23h386l134 134v376l-134 134h-386l-134 -134v-376zM373 179v72h192l22 22v23h-179l-55 55v101l59 59h199l60 -60v-212l-60 -60h-238zM459 360h128v58l-21 21h-108l-21 -21v-36z" />
    <glyph glyph-name="uni2469" unicode="&#x2469;" horiz-adv-x="1024" 
d="M272 -60l-180 180v450l180 180h480l180 -180v-450l-180 -180h-480zM319 23h386l134 134v376l-134 134h-386l-134 -134v-376zM266 179v70h64v192h-58v70h136v-262h56v-70h-198zM553 179l-70 70v192l70 70h144l70 -70v-192l-70 -70h-144zM590 251h70l29 29v130l-29 29h-70
l-29 -29v-130z" />
    <glyph glyph-name="uni24EA" unicode="&#x24ea;" horiz-adv-x="1024" 
d="M272 -60l-180 180v450l180 180h480l180 -180v-450l-180 -180h-480zM319 23h386l134 134v376l-134 134h-386l-134 -134v-376zM427 179l-70 70v192l70 70h171l70 -70v-192l-70 -70h-171zM471 252h83l30 30v126l-30 30h-83l-30 -30v-126z" />
    <glyph glyph-name="uni24FF" unicode="&#x24ff;" horiz-adv-x="1024" 
d="M272 -60l-180 180v450l180 180h480l180 -180v-450l-180 -180h-480zM423 179h179l70 70v192l-70 70h-179l-70 -70v-192zM467 252l-30 30v126l30 30h91l30 -30v-126l-30 -30h-91z" />
    <glyph glyph-name="lozenge" unicode="&#x25ca;" horiz-adv-x="602" 
d="M249 0l-212 350l212 350h104l212 -350l-212 -350h-104zM292 93h17l157 257l-157 258h-17l-156 -258z" />
    <glyph glyph-name="uni2776" unicode="&#x2776;" horiz-adv-x="1024" 
d="M272 -60l-180 180v450l180 180h480l180 -180v-450l-180 -180h-480zM401 179h256v73h-83v259h-167v-73h83v-186h-89v-73z" />
    <glyph glyph-name="uni2777" unicode="&#x2777;" horiz-adv-x="1024" 
d="M272 -60l-180 180v450l180 180h480l180 -180v-450l-180 -180h-480zM361 179h314v72h-230v31l26 26h154l60 60v83l-60 60h-253v-72h208l21 -21v-19l-21 -21h-154l-65 -65v-134z" />
    <glyph glyph-name="uni2778" unicode="&#x2778;" horiz-adv-x="1024" 
d="M272 -60l-180 180v450l180 180h480l180 -180v-450l-180 -180h-480zM363 179h266l55 55v78l-41 42l31 32v70l-55 55h-250v-72h204l17 -17v-18l-22 -22h-125v-70h135l22 -22v-22l-17 -17h-220v-72z" />
    <glyph glyph-name="uni2779" unicode="&#x2779;" horiz-adv-x="1024" 
d="M272 -60l-180 180v450l180 180h480l180 -180v-450l-180 -180h-480zM542 179h82v58h45v72h-45v202h-104l-194 -204v-70h216v-58zM426 309v5l111 118h5v-123h-116z" />
    <glyph glyph-name="uni277A" unicode="&#x277a;" horiz-adv-x="1024" 
d="M272 -60l-180 180v450l180 180h480l180 -180v-450l-180 -180h-480zM369 179h247l59 59v94l-59 59h-158v48h197v72h-281v-190h195l22 -22v-26l-22 -22h-200v-72z" />
    <glyph glyph-name="uni277B" unicode="&#x277b;" horiz-adv-x="1024" 
d="M272 -60l-180 180v450l180 180h480l180 -180v-450l-180 -180h-480zM413 179h199l59 59v101l-55 55h-179v23l22 22h192v72h-238l-60 -60v-212zM458 251l-21 21v58h128l22 -22v-36l-21 -21h-108z" />
    <glyph glyph-name="uni277C" unicode="&#x277c;" horiz-adv-x="1024" 
d="M272 -60l-180 180v450l180 180h480l180 -180v-450l-180 -180h-480zM429 179h84l151 259v73h-295v-73h195v-6l-135 -226v-27z" />
    <glyph glyph-name="uni277D" unicode="&#x277d;" horiz-adv-x="1024" 
d="M272 -60l-180 180v450l180 180h480l180 -180v-450l-180 -180h-480zM403 179h218l55 55v76l-42 42l32 33v71l-55 55h-198l-55 -55v-71l32 -33l-42 -42v-76zM463 380l-21 20v23l16 16h108l16 -16v-23l-20 -20h-99zM449 251l-17 17v26l22 22h116l22 -22v-26l-17 -17h-126z
" />
    <glyph glyph-name="uni277E" unicode="&#x277e;" horiz-adv-x="1024" 
d="M272 -60l-180 180v450l180 180h480l180 -180v-450l-180 -180h-480zM373 179h238l60 60v212l-60 60h-199l-59 -59v-101l55 -55h179v-23l-22 -22h-192v-72zM459 360l-22 22v36l21 21h108l21 -21v-58h-128z" />
    <glyph glyph-name="uni277F" unicode="&#x277f;" horiz-adv-x="1024" 
d="M272 -60l-180 180v450l180 180h480l180 -180v-450l-180 -180h-480zM263 179h197v70h-55v262h-136v-70h58v-192h-64v-70zM557 179h142l70 70v192l-70 70h-142l-70 -70v-192zM594 251l-29 29v130l29 29h68l29 -29v-130l-29 -29h-68z" />
    <glyph glyph-name="uni2B6E" unicode="&#x2b6e;" horiz-adv-x="1040" 
d="M322 0l-110 110v391l110 110h203v10l-77 73l57 57l186 -186l-188 -188l-57 57l79 75v10h-167l-54 -54v-319l54 -54h334l54 54v326h92v-362l-110 -110h-406z" />
    <glyph glyph-name="uni2B80" unicode="&#x2b80;" horiz-adv-x="1040" 
d="M301 359l-188 187l187 187l59 -58l-78 -73v-13h478v14l-76 73l58 57l186 -186l-188 -188l-58 58l78 74v12h-478v-13l78 -72zM301 -24l-188 187l187 187l59 -58l-78 -73v-13h478v14l-76 73l58 57l186 -186l-188 -188l-58 58l78 74v12h-478v-13l78 -72z" />
    <glyph glyph-name="uni2B81" unicode="&#x2b81;" horiz-adv-x="1040" 
d="M268 0v551h-10l-125 -126l-63 63l246 247l251 -250l-63 -63l-130 129h-10v-551h-96zM720 -35l-246 247l63 63l125 -126h10v551h96v-551h10l129 129l63 -63z" />
    <glyph glyph-name="uni2B82" unicode="&#x2b82;" horiz-adv-x="1040" 
d="M655 304l-63 63l129 129v10h-551v96h551v10l-126 125l63 63l247 -246zM385 -100l-250 250l247 247l63 -63l-126 -126v-10h551v-96h-551v-10l129 -129z" />
    <glyph glyph-name="uni2B83" unicode="&#x2b83;" horiz-adv-x="1040" 
d="M676 0v551h-10l-129 -129l-63 63l250 250l246 -247l-63 -63l-125 126h-10v-551h-96zM320 -35l-250 250l63 63l129 -129h10v551h96v-551h10l126 126l63 -63z" />
    <glyph glyph-name="brevecombcy.case" unicode="&#xf6d1;" 
d="M-304 752l-57 57v77h86v-43l16 -16h127l17 16v43h85v-77l-57 -57h-217z" />
    <glyph glyph-name="brevecomb-cy" unicode="&#xf6d4;" 
d="M-295 560l-57 57v103h84v-69l18 -18h118l18 18v69h84v-103l-57 -57h-208z" />
    <glyph glyph-name="zero.osf" unicode="&#xf730;" horiz-adv-x="643" 
d="M178 0l-116 116v268l116 116h287l116 -116v-268l-116 -116h-287zM232 100h179l57 57v186l-57 57h-179l-57 -57v-186z" />
    <glyph glyph-name="one.osf" unicode="&#xf731;" horiz-adv-x="499" 
d="M24 0v100h196v300h-170v100h283v-400h181v-100h-490z" />
    <glyph glyph-name="two.osf" unicode="&#xf732;" horiz-adv-x="603" 
d="M45 0v196l100 100h266l30 30v49l-30 30h-344v95h400l87 -87v-122l-87 -88h-266l-43 -42v-61h390v-100h-503z" />
    <glyph glyph-name="three.osf" unicode="&#xf733;" horiz-adv-x="572" 
d="M27 -140v97h322l60 61v64l-61 61h-226v98h210l57 57v53l-51 52h-300v97h356l108 -108v-120l-71 -71l91 -92v-132l-117 -117h-378z" />
    <glyph glyph-name="four.osf" unicode="&#xf734;" horiz-adv-x="634" 
d="M414 -140v156h-377v134l319 350h163v-386h90v-98h-90v-156h-105zM148 114h266v288h-16l-250 -274v-14z" />
    <glyph glyph-name="five.osf" unicode="&#xf735;" horiz-adv-x="599" 
d="M57 -140v97h317l60 61v84l-60 61h-297v337h439v-97h-326v-143h240l117 -117v-166l-117 -117h-373z" />
    <glyph glyph-name="six.osf" unicode="&#xf736;" horiz-adv-x="633" 
d="M468 429l116 -116v-197l-116 -116h-299l-116 116v188l251 336h109v-33l-123 -165v-13h178zM471 157v115l-59 60h-204l-42 -57v-118l57 -57h191z" />
    <glyph glyph-name="seven.osf" unicode="&#xf737;" horiz-adv-x="586" 
d="M159 -140v196l269 275v67h-412v102h525v-205l-269 -275v-160h-113z" />
    <glyph glyph-name="eight.osf" unicode="&#xf738;" horiz-adv-x="650" 
d="M166 0l-104 104v149l85 85l-65 64v139l99 99h288l99 -99v-139l-65 -64l85 -85v-149l-104 -104h-318zM244 375h163l48 49v76l-42 43h-175l-43 -43v-76zM223 98h205l47 47v84l-54 54h-192l-54 -54v-84z" />
    <glyph glyph-name="nine.osf" unicode="&#xf739;" horiz-adv-x="633" 
d="M464 500l116 -116v-188l-250 -336h-110v33l123 165v13h-178l-116 116v197l116 116h299zM222 169h203l42 56v118l-57 57h-191l-57 -57v-115z" />
    <glyph glyph-name="A_A" horiz-adv-x="1613" 
d="M1282 700l308 -660v-40h-115l-79 173h-401l-78 -173h-222l-79 173h-401l-79 -173h-113v40l305 660h173l288 -615h36l284 615h173zM263 279h305l-143 313h-20zM1043 279h305l-142 313h-21z" />
    <glyph glyph-name="Adieresis_Adieresis" horiz-adv-x="1613" 
d="M373 874v-106h-114v106h114zM571 874v-106h-114v106h114zM1153 874v-106h-114v106h114zM1351 874v-106h-114v106h114zM1282 700l308 -660v-40h-115l-79 173h-401l-78 -173h-222l-79 173h-401l-79 -173h-113v40l305 660h173l288 -615h36l284 615h173zM263 279h305
l-143 313h-20zM1043 279h305l-142 313h-21z" />
    <glyph glyph-name="E_E" horiz-adv-x="1445" 
d="M97 0v700h586v-106h-466v-190h356v-103h-356v-199h586v598h592v-106h-472v-190h362v-103h-362v-199h482v-102h-1308z" />
    <glyph glyph-name="F_l" horiz-adv-x="943" 
d="M97 0v700h769v-700h-113v594h-536v-220h354v-103h-354v-271h-120z" />
    <glyph glyph-name="M_M" horiz-adv-x="1749" 
d="M97 0v700h199l211 -450h20l210 450h276l212 -450h20l209 450h198v-700h-120v576h-15l-211 -449h-145l-211 449h-16v-576h-118v576h-17l-211 -449h-145l-210 449h-16v-576h-120z" />
    <glyph glyph-name="N_N" horiz-adv-x="1429" 
d="M97 0v700h194l349 -578h18v578h193l349 -578h16v578h117v-700h-194l-349 579h-18v-579h-193l-349 579h-16v-579h-117z" />
    <glyph glyph-name="T_T" horiz-adv-x="1288" 
d="M281 0v594h-271v106h1268v-106h-271v-594h-120v594h-486v-594h-120z" />
    <glyph glyph-name="_ijdotless" horiz-adv-x="514" 
d="M72 -200v100h242l15 15v585h113v-626l-74 -74h-296zM72 0v500h113v-500h-113z" />
    <glyph glyph-name="snglring" horiz-adv-x="1024" 
d="M272 -60l-180 180v450l180 180h480l180 -180v-450l-180 -180h-480zM319 23h386l134 134v376l-134 134h-386l-134 -134v-376z" />
    <glyph glyph-name="i.loclTRK" horiz-adv-x="257" 
d="M68 594v106h121v-106h-121zM72 0v500h113v-500h-113z" />
    <glyph glyph-name="j.alt" horiz-adv-x="257" 
d="M68 594v106h121v-106h-121zM72 -200v700h113v-700h-113z" />
    <glyph glyph-name="jcircumflex.alt" horiz-adv-x="257" 
d="M-44 560v27l118 143h111l116 -141v-29h-89l-76 99h-14l-76 -99h-90zM72 -200v700h113v-700h-113z" />
    <glyph glyph-name="uni0237.alt" horiz-adv-x="257" 
d="M72 -200v700h113v-700h-113z" />
    <glyph glyph-name="uni0308.alt" 
d="M-304 597v107h111v-107h-111zM-141 597v107h111v-107h-111z" />
    <glyph glyph-name="uni0308.alt.case" 
d="M-304 767v107h111v-107h-111zM-141 767v107h111v-107h-111z" />
    <glyph glyph-name="uni030C.alt" 
d="M-142 550v11l9 169h103v-11l-37 -169h-75z" />
    <glyph glyph-name="uni0328.alt" 
d="M-143 -206l-48 48v96l108 108l46 -46l-76 -76v-44l11 -11h72v-75h-113z" />
    <glyph glyph-name="uni0492.balt" horiz-adv-x="662" 
d="M643 594h-426v-227h310v-86h-310v-281h-120v700h546v-106z" />
    <glyph glyph-name="uni0493.balt" horiz-adv-x="481" 
d="M466 400h-281v-138h209v-79h-209v-183h-113v500h394v-100z" />
    <glyph glyph-name="uni04AA.balt" horiz-adv-x="716" 
d="M276 594l-79 -79v-330l79 -79h392v-106h-218l-9 -26v-8h43l52 -52v-68l-52 -52h-160v66h124l10 10v22l-10 10h-94v32l20 66h-155l-142 142v416l142 142h449v-106h-392z" />
    <glyph glyph-name="uni04AB.balt" horiz-adv-x="554" 
d="M232 400l-57 -57v-186l57 -57h273v-100h-150l-9 -26v-8h43l52 -52v-68l-52 -52h-160v66h124l10 10v22l-10 10h-94v32l20 66h-101l-116 116v268l116 116h327v-100h-273z" />
    <glyph glyph-name="colon.calt" horiz-adv-x="296" 
d="M82 454v126h132v-126h-132zM82 80v126h132v-126h-132z" />
    <glyph glyph-name="parenleft.case" horiz-adv-x="397" 
d="M203 -145l-106 106v748l106 106h136v-104h-80l-48 -48v-656l48 -48h80v-104h-136z" />
    <glyph glyph-name="parenright.case" horiz-adv-x="397" 
d="M58 -145v104h80l48 48v656l-48 48h-80v104h136l106 -106v-748l-106 -106h-136z" />
    <glyph glyph-name="hyphen.case" horiz-adv-x="444" 
d="M68 288v104h308v-104h-308z" />
    <glyph glyph-name="at.case" horiz-adv-x="986" 
d="M238 -67l-160 160v484l160 160h520l160 -160v-336l-101 -101h-146l-53 53l-53 -53h-167l-92 92v206l92 92h268v-265l40 -40h65l46 46v269l-105 105h-427l-105 -105v-409l105 -105h537v-93h-584zM445 225h86l40 40v180h-126l-44 -44v-132z" />
    <glyph glyph-name="bracketleft.case" horiz-adv-x="401" 
d="M97 -145v960h246v-104h-132v-752h132v-104h-246z" />
    <glyph glyph-name="bracketright.case" horiz-adv-x="401" 
d="M58 -145v104h132v752h-132v104h246v-960h-246z" />
    <glyph glyph-name="braceleft.case" horiz-adv-x="431" 
d="M241 -145l-106 106v323h-83v103h83v322l106 106h132v-104h-76l-48 -48v-656l48 -48h76v-104h-132z" />
    <glyph glyph-name="braceright.case" horiz-adv-x="431" 
d="M58 -145v104h76l48 48v656l-48 48h-76v104h132l106 -106v-322h83v-103h-83v-323l-106 -106h-132z" />
    <glyph glyph-name="exclamdown.case" horiz-adv-x="346" 
d="M107 574v126h132v-126h-132zM114 0v337l17 160h84l17 -160v-337h-118z" />
    <glyph glyph-name="guillemotleft.case" horiz-adv-x="623" 
d="M256 72l-219 258l219 259l76 -60l-169 -199l170 -198zM500 72l-219 258l219 259l76 -60l-169 -199l170 -198z" />
    <glyph glyph-name="periodcentered.case" horiz-adv-x="340" 
d="M104 290v126h132v-126h-132z" />
    <glyph glyph-name="guillemotright.case" horiz-adv-x="623" 
d="M123 72l-76 60l170 198l-170 199l77 60l218 -259zM367 72l-76 60l170 198l-170 199l77 60l218 -259z" />
    <glyph glyph-name="questiondown.case" horiz-adv-x="689" 
d="M349 574v126h132v-126h-132zM200 0l-121 121v172l121 121h143l14 14v69h118v-119l-66 -66h-151l-59 -59v-92l59 -59h361v-102h-419z" />
    <glyph glyph-name="gravecomb.case" 
d="M-117 752l-73 129v11h108l52 -129v-11h-87z" />
    <glyph glyph-name="acutecomb.case" 
d="M-190 752v11l53 129h107v-11l-72 -129h-88z" />
    <glyph glyph-name="uni0302.case" 
d="M-377 752v26l119 108h111l117 -106v-28h-95l-71 68h-13l-71 -68h-97z" />
    <glyph glyph-name="tildecomb.case" 
d="M-391 752v71l55 55h107l56 -53h46l13 13v40h84v-71l-55 -55h-115l-56 53h-38l-13 -13v-40h-84z" />
    <glyph glyph-name="uni0304.case" 
d="M-340 780v82h310v-82h-310z" />
    <glyph glyph-name="uni0306.case" 
d="M-304 752l-57 57v77h86v-43l16 -16h127l17 16v43h85v-77l-57 -57h-217z" />
    <glyph glyph-name="uni0307.case" 
d="M-151 768v106h121v-106h-121z" />
    <glyph glyph-name="uni0308.case" 
d="M-342 768v106h114v-106h-114zM-144 768v106h114v-106h-114z" />
    <glyph glyph-name="uni030A.case" 
d="M-227 728l-57 57v101l57 57h140l57 -57v-101l-57 -57h-140zM-193 794h72l18 18v47l-18 18h-72l-18 -18v-47z" />
    <glyph glyph-name="uni030B.case" 
d="M-337 752v11l42 129h102v-11l-61 -129h-83zM-176 752v11l44 129h103v-11l-64 -129h-83z" />
    <glyph glyph-name="uni030C.case" 
d="M-258 752l-119 108v26h97l71 -68h13l71 68h95v-28l-117 -106h-111z" />
    <glyph glyph-name="endash.case" horiz-adv-x="600" 
d="M48 294v92h504v-92h-504z" />
    <glyph glyph-name="emdash.case" horiz-adv-x="950" 
d="M48 294v92h854v-92h-854z" />
    <glyph glyph-name="bullet.case" horiz-adv-x="387" 
d="M118 282v146h151v-146h-151z" />
    <glyph glyph-name="guilsinglleft.case" horiz-adv-x="422" 
d="M305 67l-268 263l266 261l70 -70l-200 -191l202 -192z" />
    <glyph glyph-name="guilsinglright.case" horiz-adv-x="422" 
d="M117 67l-70 71l202 192l-200 191l70 70l266 -261z" />
    <glyph glyph-name="dollar.dnom" horiz-adv-x="323" 
d="M139 -50v50h-120v72h193l17 17v26l-16 16h-142l-61 61v80l60 60h69v50h60v-50h104v-72h-193l-16 -16v-24l17 -17h142l60 -60v-83l-60 -60h-54v-50h-60z" />
    <glyph glyph-name="zero.dnom" horiz-adv-x="397" 
d="M113 0l-70 70v192l70 70h171l70 -70v-192l-70 -70h-171zM157 73h83l30 30v126l-30 30h-83l-30 -30v-126z" />
    <glyph glyph-name="one.dnom" horiz-adv-x="384" 
d="M68 0v73h89v186h-83v73h167v-259h83v-73h-256z" />
    <glyph glyph-name="two.dnom" horiz-adv-x="406" 
d="M43 0v135l65 65h154l21 21v18l-21 21h-208v72h253l60 -60v-82l-60 -60h-154l-26 -26v-32h230v-72h-314z" />
    <glyph glyph-name="three.dnom" horiz-adv-x="398" 
d="M43 0v72h220l17 17v22l-22 22h-135v70h125l22 22v18l-17 17h-204v72h250l55 -55v-70l-31 -31l41 -41v-80l-55 -55h-266z" />
    <glyph glyph-name="four.dnom" horiz-adv-x="367" 
d="M197 0v58h-208v70l186 204h104v-206h45v-68h-45v-58h-82zM81 126h116v126h-6l-110 -121v-5z" />
    <glyph glyph-name="five.dnom" horiz-adv-x="404" 
d="M56 0v72h200l22 22v26l-22 22h-195v190h281v-72h-197v-48h158l59 -59v-94l-59 -59h-247z" />
    <glyph glyph-name="six.dnom" horiz-adv-x="394" 
d="M103 0l-60 60v212l60 60h238v-72h-192l-22 -22v-23h179l55 -55v-101l-59 -59h-199zM148 72h108l21 21v36l-22 22h-128v-58z" />
    <glyph glyph-name="seven.dnom" horiz-adv-x="337" 
d="M107 0v27l135 225v7h-195v73h295v-73l-151 -259h-84z" />
    <glyph glyph-name="eight.dnom" horiz-adv-x="414" 
d="M98 0l-55 55v76l42 42l-32 33v71l55 55h198l55 -55v-71l-32 -33l42 -42v-76l-55 -55h-218zM158 201h99l20 20v23l-16 16h-108l-16 -16v-23zM144 72h126l17 17v26l-22 22h-116l-22 -22v-26z" />
    <glyph glyph-name="nine.dnom" horiz-adv-x="394" 
d="M53 0v72h192l22 22v23h-179l-55 55v101l59 59h199l60 -60v-212l-60 -60h-238zM139 181h128v58l-21 21h-108l-21 -21v-36z" />
    <glyph glyph-name="cent.dnom" horiz-adv-x="297" 
d="M152 -27v50h-68l-74 74v147l74 74h68v50h60v-50h85v-72h-85v-151h85v-72h-85v-50h-60zM124 95h28v151h-28l-32 -32v-87z" />
    <glyph glyph-name="sterling.dnom" horiz-adv-x="313" 
d="M10 0v72h50v65h-45v60h45v75l60 60h170v-72h-126l-20 -20v-43h124v-60h-124v-65h164v-72h-298z" />
    <glyph glyph-name="yen.dnom" horiz-adv-x="354" 
d="M350 332v-14l-96 -161h60v-45h-87l-8 -13v-17h95v-45h-95v-37h-84v37h-95v45h95v19l-7 11h-88v45h61l-97 161v14h81l89 -156h9l89 156h78z" />
    <glyph glyph-name="florin.dnom" horiz-adv-x="279" 
d="M213 260l-15 -15l-10 -60h71v-60h-80l-23 -144l-52 -53h-100v73h61l15 15l17 109h-55v60h65l15 95l52 52h100v-72h-61z" />
    <glyph glyph-name="uni20A9.dnom" horiz-adv-x="452" 
d="M448 187h-57l-11 -45h68v-45h-80l-24 -97h-98l-21 118h-4l-28 -118h-91l-22 97h-76v45h65l-10 45h-55v45h44l-19 84v16h71l53 -257h7l39 160l-12 81v16h62l39 -257h7l59 257h69v-16l-21 -84h46v-45z" />
    <glyph glyph-name="Euro.dnom" horiz-adv-x="337" 
d="M119 0l-70 70v42h-45v43h45v25h-45v42h45v40l70 70h212v-72h-169l-29 -29v-9h133v-42h-133v-25h133v-43h-133v-11l29 -29h169v-72h-212z" />
    <glyph glyph-name="uni20B4.dnom" horiz-adv-x="361" 
d="M10 180v45h234v27l-8 8h-191v72h232l49 -49v-58h25v-45h-341zM84 0l-49 49v58h-25v45h341v-45h-234v-27l8 -8h193v-72h-234z" />
    <glyph glyph-name="uni20B8.dnom" horiz-adv-x="300" 
d="M0 287v45h300v-45h-300zM108 0v185h-108v72h300v-72h-108v-185h-84z" />
    <glyph glyph-name="uni20B9.dnom" horiz-adv-x="355" 
d="M205 0l-195 100v77h196l14 14v14h-210v45h210v14l-14 14h-196v54h336v-45h-45v-37h45v-45h-45v-30l-52 -52h-134v-7l188 -88v-28h-98z" />
    <glyph glyph-name="uni20BA.dnom" horiz-adv-x="352" 
d="M267 134h81v-72l-62 -62h-222v108l-38 -13h-16v42l54 19v34l-38 -13h-16v41l54 19v95h84v-66l117 41h16v-41l-133 -46v-35l117 41h16v-42l-133 -46v-66h100l19 19v43z" />
    <glyph glyph-name="uni20BD.dnom" horiz-adv-x="356" 
d="M53 0v40h-45v45h45v25h-45v45h45v177h239l60 -60v-102l-60 -60h-155v-25h155v-45h-155v-40h-84zM137 177h114l17 18v48l-17 17h-114v-83z" />
    <glyph glyph-name="uni20BF.dnom" horiz-adv-x="345" 
d="M84 -50v50h-69v330h69v50h60v-50h30v50h60v-50h37l55 -55v-69l-25 -25l39 -40v-86l-55 -55h-51v-50h-60v50h-30v-50h-60zM99 203h130l13 13v30l-14 14h-129v-57zM99 70h143l14 14v41l-13 14h-144v-69z" />
    <glyph glyph-name="Iacute_J.loclNLD" horiz-adv-x="1083" 
d="M215 752v11l53 129h107v-11l-72 -129h-88zM750 752v11l53 129h107v-11l-72 -129h-88zM57 0v98h140v505h-140v97h400v-97h-140v-505h140v-98h-400zM545 0v106h263l68 68v420h-288v106h408v-569l-131 -131h-320z" />
    <glyph glyph-name="iacute_j.loclNLD" horiz-adv-x="514" 
d="M87 560v11l61 165h107v-11l-90 -165h-78zM344 560v11l61 165h107v-11l-90 -165h-78zM72 -200v100h242l15 15v585h113v-626l-74 -74h-296zM72 0v500h113v-500h-113z" />
    <glyph glyph-name="dollar.numr" horiz-adv-x="323" 
d="M139 318v50h-120v72h193l17 17v26l-16 16h-142l-61 61v80l60 60h69v50h60v-50h104v-72h-193l-16 -16v-24l17 -17h142l60 -60v-83l-60 -60h-54v-50h-60z" />
    <glyph glyph-name="zero.numr" horiz-adv-x="397" 
d="M113 368l-70 70v192l70 70h171l70 -70v-192l-70 -70h-171zM157 441h83l30 30v126l-30 30h-83l-30 -30v-126z" />
    <glyph glyph-name="one.numr" horiz-adv-x="384" 
d="M68 368v73h89v186h-83v73h167v-259h83v-73h-256z" />
    <glyph glyph-name="two.numr" horiz-adv-x="406" 
d="M43 368v135l65 65h154l21 21v18l-21 21h-208v72h253l60 -60v-82l-60 -60h-154l-26 -26v-32h230v-72h-314z" />
    <glyph glyph-name="three.numr" horiz-adv-x="398" 
d="M43 368v72h220l17 17v22l-22 22h-135v70h125l22 22v18l-17 17h-204v72h250l55 -55v-70l-31 -31l41 -41v-80l-55 -55h-266z" />
    <glyph glyph-name="four.numr" horiz-adv-x="367" 
d="M197 368v58h-208v70l186 204h104v-206h45v-68h-45v-58h-82zM81 494h116v126h-6l-110 -121v-5z" />
    <glyph glyph-name="five.numr" horiz-adv-x="404" 
d="M56 368v72h200l22 22v26l-22 22h-195v190h281v-72h-197v-48h158l59 -59v-94l-59 -59h-247z" />
    <glyph glyph-name="six.numr" horiz-adv-x="394" 
d="M103 368l-60 60v212l60 60h238v-72h-192l-22 -22v-23h179l55 -55v-101l-59 -59h-199zM148 440h108l21 21v36l-22 22h-128v-58z" />
    <glyph glyph-name="seven.numr" horiz-adv-x="337" 
d="M107 368v27l135 225v7h-195v73h295v-73l-151 -259h-84z" />
    <glyph glyph-name="eight.numr" horiz-adv-x="414" 
d="M98 368l-55 55v76l42 42l-32 33v71l55 55h198l55 -55v-71l-32 -33l42 -42v-76l-55 -55h-218zM158 569h99l20 20v23l-16 16h-108l-16 -16v-23zM144 440h126l17 17v26l-22 22h-116l-22 -22v-26z" />
    <glyph glyph-name="nine.numr" horiz-adv-x="394" 
d="M53 368v72h192l22 22v23h-179l-55 55v101l59 59h199l60 -60v-212l-60 -60h-238zM139 549h128v58l-21 21h-108l-21 -21v-36z" />
    <glyph glyph-name="cent.numr" horiz-adv-x="297" 
d="M152 332v50h-68l-74 74v147l74 74h68v50h60v-50h85v-72h-85v-151h85v-72h-85v-50h-60zM124 454h28v151h-28l-32 -32v-87z" />
    <glyph glyph-name="sterling.numr" horiz-adv-x="313" 
d="M10 368v72h50v65h-45v60h45v75l60 60h170v-72h-126l-20 -20v-43h124v-60h-124v-65h164v-72h-298z" />
    <glyph glyph-name="yen.numr" horiz-adv-x="354" 
d="M350 700v-14l-96 -161h60v-45h-87l-8 -13v-17h95v-45h-95v-37h-84v37h-95v45h95v19l-7 11h-88v45h61l-97 161v14h81l89 -156h9l89 156h78z" />
    <glyph glyph-name="florin.numr" horiz-adv-x="279" 
d="M213 628l-15 -15l-10 -60h71v-60h-80l-23 -143l-52 -53h-100v72h61l15 15l17 109h-55v60h65l15 95l52 52h100v-72h-61z" />
    <glyph glyph-name="uni20A9.numr" horiz-adv-x="452" 
d="M448 555h-57l-11 -45h68v-45h-80l-24 -97h-98l-21 118h-4l-28 -118h-91l-22 97h-76v45h65l-10 45h-55v45h44l-19 84v16h71l53 -257h7l39 160l-12 81v16h62l39 -257h7l59 257h69v-16l-21 -84h46v-45z" />
    <glyph glyph-name="Euro.numr" horiz-adv-x="337" 
d="M119 368l-70 70v42h-45v43h45v25h-45v42h45v40l70 70h212v-72h-169l-29 -29v-9h133v-42h-133v-25h133v-43h-133v-11l29 -29h169v-72h-212z" />
    <glyph glyph-name="uni20B4.numr" horiz-adv-x="361" 
d="M10 548v45h234v27l-8 8h-191v72h232l49 -49v-58h25v-45h-341zM84 368l-49 49v58h-25v45h341v-45h-234v-27l8 -8h193v-72h-234z" />
    <glyph glyph-name="uni20B8.numr" horiz-adv-x="300" 
d="M0 655v45h300v-45h-300zM108 368v185h-108v72h300v-72h-108v-185h-84z" />
    <glyph glyph-name="uni20B9.numr" horiz-adv-x="355" 
d="M205 368l-195 100v77h196l14 14v14h-210v45h210v14l-14 14h-196v54h336v-45h-45v-37h45v-45h-45v-30l-52 -52h-134v-7l188 -88v-28h-98z" />
    <glyph glyph-name="uni20BA.numr" horiz-adv-x="352" 
d="M267 502h81v-72l-62 -62h-222v108l-38 -13h-16v42l54 19v34l-38 -13h-16v41l54 19v95h84v-66l117 41h16v-41l-133 -46v-35l117 41h16v-42l-133 -46v-66h100l19 19v43z" />
    <glyph glyph-name="uni20BD.numr" horiz-adv-x="356" 
d="M53 368v40h-45v45h45v25h-45v45h45v177h239l60 -60v-102l-60 -60h-155v-25h155v-45h-155v-40h-84zM137 545h114l17 18v48l-17 17h-114v-83z" />
    <glyph glyph-name="uni20BF.numr" horiz-adv-x="345" 
d="M84 320v50h-69v330h69v50h60v-50h30v50h60v-50h37l55 -55v-69l-25 -25l39 -40v-86l-55 -55h-51v-50h-60v50h-30v-50h-60zM99 573h130l13 13v30l-14 14h-129v-57zM99 440h143l14 14v41l-13 14h-144v-69z" />
    <glyph glyph-name="plus.osf" horiz-adv-x="580" 
d="M244 0v204h-205v92h205v204h92v-204h205v-92h-205v-204h-92z" />
    <glyph glyph-name="zero.osf.zero" horiz-adv-x="643" 
d="M465 500l116 -116v-268l-116 -116h-287l-116 116v268l116 116h287zM232 400l-57 -57v-169l272 190l-36 36h-179zM411 100l57 57v168l-271 -190l35 -35h179z" />
    <glyph glyph-name="less.osf" horiz-adv-x="418" 
d="M293 -4l-254 254l254 254l65 -66l-187 -187l188 -188z" />
    <glyph glyph-name="equal.osf" horiz-adv-x="580" 
d="M55 301v92h470v-92h-470zM55 107v92h470v-92h-470z" />
    <glyph glyph-name="greater.osf" horiz-adv-x="418" 
d="M125 -4l-66 67l188 188l-187 187l65 66l254 -254z" />
    <glyph glyph-name="asciitilde.osf" horiz-adv-x="580" 
d="M61 177v82l66 66h148l68 -70h72l22 22v48h83v-82l-66 -66h-143l-68 70h-77l-22 -22v-48h-83z" />
    <glyph glyph-name="logicalnot.osf" horiz-adv-x="580" 
d="M434 136v91h-379v91h470v-182h-91z" />
    <glyph glyph-name="plusminus.osf" horiz-adv-x="580" 
d="M55 0v91h189v148h-189v91h189v170h92v-170h189v-91h-189v-148h189v-91h-470z" />
    <glyph glyph-name="multiply.osf" horiz-adv-x="580" 
d="M114 12l-62 62l175 176l-175 176l62 62l176 -175l176 176l62 -63l-174 -176l174 -176l-62 -62l-176 174z" />
    <glyph glyph-name="divide.osf" horiz-adv-x="580" 
d="M236 388v112h108v-112h-108zM45 204v92h490v-92h-490zM236 0v112h108v-112h-108z" />
    <glyph glyph-name="minus.osf" horiz-adv-x="580" 
d="M45 204v92h490v-92h-490z" />
    <glyph glyph-name="approxequal.osf" horiz-adv-x="580" 
d="M61 266v82l66 66h148l68 -70h72l22 22v48h83v-82l-66 -66h-143l-68 70h-77l-22 -22v-48h-83zM61 92v82l66 66h148l68 -70h72l22 22v48h83v-82l-66 -66h-143l-68 70h-77l-22 -22v-48h-83z" />
    <glyph glyph-name="notequal.osf" horiz-adv-x="580" 
d="M525 301h-168l-43 -102h211v-92h-250l-48 -112h-81v22l38 90h-129v92h168l43 102h-211v92h250l48 112h81v-22l-38 -90h129v-92z" />
    <glyph glyph-name="lessequal.osf" horiz-adv-x="395" 
d="M250 115l-195 198l195 191l63 -64l-132 -131l132 -131zM340 0h-285v85h285v-85z" />
    <glyph glyph-name="greaterequal.osf" horiz-adv-x="395" 
d="M146 115l-63 63l131 131l-132 131l64 64l194 -191zM55 0v85h285v-85h-285z" />
    <glyph glyph-name="I.ss01" horiz-adv-x="314" 
d="M97 0v700h120v-700h-120z" />
    <glyph glyph-name="Igrave.ss01" horiz-adv-x="314" 
d="M114 752l-73 129v11h108l52 -129v-11h-87zM97 0v700h120v-700h-120z" />
    <glyph glyph-name="Iacute.ss01" horiz-adv-x="314" 
d="M115 752v11l53 129h107v-11l-72 -129h-88zM97 0v700h120v-700h-120z" />
    <glyph glyph-name="Icircumflex.ss01" horiz-adv-x="314" 
d="M-16 752v26l119 108h111l117 -106v-28h-95l-71 68h-13l-71 -68h-97zM97 0v700h120v-700h-120z" />
    <glyph glyph-name="Idieresis.ss01" horiz-adv-x="314" 
d="M20 767v107h111v-107h-111zM183 767v107h111v-107h-111zM97 0v700h120v-700h-120z" />
    <glyph glyph-name="Imacron.ss01" horiz-adv-x="314" 
d="M2 780v82h310v-82h-310zM97 0v700h120v-700h-120z" />
    <glyph glyph-name="Ibreve.ss01" horiz-adv-x="314" 
d="M49 752l-57 57v77h86v-43l16 -16h127l17 16v43h85v-77l-57 -57h-217zM97 0v700h120v-700h-120z" />
    <glyph glyph-name="Iogonek.ss01" horiz-adv-x="314" 
d="M217 0l-97 -80v-40l11 -11h75v-75h-116l-48 48v99l72 59h-17v700h120v-700z" />
    <glyph glyph-name="Idotaccent.ss01" horiz-adv-x="314" 
d="M97 768v106h121v-106h-121zM97 0v700h120v-700h-120z" />
    <glyph glyph-name="IJ.ss01" horiz-adv-x="769" 
d="M97 0v106h397l68 68v420h-252v106h372v-569l-131 -131h-454zM97 190v510h120v-510h-120z" />
    <glyph glyph-name="uni0406.ss01" horiz-adv-x="314" 
d="M97 0v700h120v-700h-120z" />
    <glyph glyph-name="uni0407.ss01" horiz-adv-x="314" 
d="M20 767v107h111v-107h-111zM183 767v107h111v-107h-111zM97 0v700h120v-700h-120z" />
    <glyph glyph-name="Iacute_J_loclNLD.ss01" horiz-adv-x="769" 
d="M115 752v11l53 129h107v-11l-72 -129h-88zM453 752v11l53 129h107v-11l-72 -129h-88zM97 0v106h397l68 68v420h-252v106h372v-569l-131 -131h-454zM97 190v510h120v-510h-120z" />
    <glyph glyph-name="a.ss02" horiz-adv-x="635" 
d="M178 0l-116 116v268l116 116h385v-500h-93v49h-21l-58 -49h-213zM232 100h143l75 61v239h-218l-57 -57v-186z" />
    <glyph glyph-name="agrave.ss02" horiz-adv-x="635" 
d="M300 560l-91 165v11h110l58 -165v-11h-77zM178 0l-116 116v268l116 116h385v-500h-93v49h-21l-58 -49h-213zM232 100h143l75 61v239h-218l-57 -57v-186z" />
    <glyph glyph-name="aacute.ss02" horiz-adv-x="635" 
d="M298 560v11l61 165h107v-11l-90 -165h-78zM178 0l-116 116v268l116 116h385v-500h-93v49h-21l-58 -49h-213zM232 100h143l75 61v239h-218l-57 -57v-186z" />
    <glyph glyph-name="acircumflex.ss02" horiz-adv-x="635" 
d="M167 560v27l118 143h111l116 -141v-29h-89l-76 99h-14l-76 -99h-90zM178 0l-116 116v268l116 116h385v-500h-93v49h-21l-58 -49h-213zM232 100h143l75 61v239h-218l-57 -57v-186z" />
    <glyph glyph-name="atilde.ss02" horiz-adv-x="635" 
d="M154 565v95l55 55h115l65 -77h37l13 13v64h84v-95l-55 -55h-115l-65 77h-37l-13 -13v-64h-84zM178 0l-116 116v268l116 116h385v-500h-93v49h-21l-58 -49h-213zM232 100h143l75 61v239h-218l-57 -57v-186z" />
    <glyph glyph-name="adieresis.ss02" horiz-adv-x="635" 
d="M183 598v106h114v-106h-114zM381 598v106h114v-106h-114zM178 0l-116 116v268l116 116h385v-500h-93v49h-21l-58 -49h-213zM232 100h143l75 61v239h-218l-57 -57v-186z" />
    <glyph glyph-name="aring.ss02" horiz-adv-x="635" 
d="M270 549l-57 57v118l57 57h138l57 -57v-118l-57 -57h-138zM304 615h70l18 18v64l-18 18h-70l-18 -18v-64zM178 0l-116 116v268l116 116h385v-500h-93v49h-21l-58 -49h-213zM232 100h143l75 61v239h-218l-57 -57v-186z" />
    <glyph glyph-name="amacron.ss02" horiz-adv-x="635" 
d="M184 610v82h310v-82h-310zM178 0l-116 116v268l116 116h385v-500h-93v49h-21l-58 -49h-213zM232 100h143l75 61v239h-218l-57 -57v-186z" />
    <glyph glyph-name="abreve.ss02" horiz-adv-x="635" 
d="M236 560l-57 57v103h84v-69l18 -18h118l18 18v69h84v-103l-57 -57h-208zM178 0l-116 116v268l116 116h385v-500h-93v49h-21l-58 -49h-213zM232 100h143l75 61v239h-218l-57 -57v-186z" />
    <glyph glyph-name="aogonek.ss02" horiz-adv-x="635" 
d="M563 0l-97 -80v-40l11 -11h75v-75h-116l-48 48v99l82 67v41h-21l-58 -49h-213l-116 116v268l116 116h385v-500zM450 161v239h-218l-57 -57v-186l57 -57h143z" />
    <glyph glyph-name="uni0430.ss02" horiz-adv-x="635" 
d="M178 0l-116 116v268l116 116h385v-500h-93v49h-21l-58 -49h-213zM232 100h143l75 61v239h-218l-57 -57v-186z" />
    <glyph glyph-name="uni04D3.ss02" horiz-adv-x="635" 
d="M183 598v106h114v-106h-114zM381 598v106h114v-106h-114zM178 0l-116 116v268l116 116h385v-500h-93v49h-21l-58 -49h-213zM232 100h143l75 61v239h-218l-57 -57v-186z" />
    <glyph glyph-name="l.ss03" horiz-adv-x="267" 
d="M77 0v700h113v-700h-113z" />
    <glyph glyph-name="lacute.ss03" horiz-adv-x="267" 
d="M91 752v11l53 129h107v-11l-72 -129h-88zM77 0v700h113v-700h-113z" />
    <glyph glyph-name="uni013C.ss03" horiz-adv-x="267" 
d="M77 0v700h113v-700h-113zM95 -248l22 101h-43v113h119v-102l-42 -112h-56z" />
    <glyph glyph-name="lcaron.ss03" horiz-adv-x="267" 
d="M239 550v11l9 169h103v-11l-37 -169h-75zM77 0v700h113v-700h-113z" />
    <glyph glyph-name="ldot.ss03" horiz-adv-x="397" 
d="M77 0v700h113v-700h-113zM266 287v126h132v-126h-132z" />
    <glyph glyph-name="lslash.ss03" horiz-adv-x="310" 
d="M322 491v-79l-110 -72v-340h-113v266l-87 -57h-24v79l111 72v340h113v-266l87 57h23z" />
    <glyph glyph-name="uni0438.ss04" horiz-adv-x="617" 
d="M174 0l-107 107v393h113v-352l48 -48h141l63 52v348h113v-500h-89v40h-18l-48 -40h-216z" />
    <glyph glyph-name="uni0439.ss04" horiz-adv-x="617" 
d="M203 560l-57 57v103h84v-69l18 -18h118l18 18v69h84v-103l-57 -57h-208zM174 0l-107 107v393h113v-352l48 -48h141l63 52v348h113v-500h-89v40h-18l-48 -40h-216z" />
    <glyph glyph-name="uni045D.ss04" horiz-adv-x="617" 
d="M267 560l-91 165v11h110l58 -165v-11h-77zM174 0l-107 107v393h113v-352l48 -48h141l63 52v348h113v-500h-89v40h-18l-48 -40h-216z" />
    <glyph glyph-name="uni04E3.ss04" horiz-adv-x="617" 
d="M151 610v82h310v-82h-310zM174 0l-107 107v393h113v-352l48 -48h141l63 52v348h113v-500h-89v40h-18l-48 -40h-216z" />
    <glyph glyph-name="dollar.tf" horiz-adv-x="730" 
d="M321 -100v100h-251v106h432l50 50v96l-51 51h-328l-114 114v170l113 113h149v100h86v-100h230v-106h-408l-50 -50v-84l51 -51h328l114 -114v-182l-113 -113h-152v-100h-86z" />
    <glyph glyph-name="zero.tf" horiz-adv-x="730" 
d="M186 0l-142 142v416l142 142h358l142 -142v-416l-142 -142h-358zM243 106h244l79 79v330l-79 79h-244l-79 -79v-330z" />
    <glyph glyph-name="zero.tf.zero" horiz-adv-x="730" 
d="M544 700l142 -142v-416l-142 -142h-358l-142 142v416l142 142h358zM243 594l-79 -79v-276l399 279l-76 76h-244zM487 106l79 79v275l-398 -279l75 -75h244z" />
    <glyph glyph-name="one.tf" horiz-adv-x="730" 
d="M78 0v106h241v488h-214v106h334v-594h231v-106h-592z" />
    <glyph glyph-name="two.tf" horiz-adv-x="730" 
d="M63 0v260l130 131h304l50 49v104l-50 50h-408v106h468l110 -110v-192l-111 -110h-304l-69 -70v-109h479v-109h-599z" />
    <glyph glyph-name="three.tf" horiz-adv-x="730" 
d="M55 0v106h424l60 60v83l-60 61h-278v103h259l59 59v72l-50 50h-403v106h463l110 -110v-140l-75 -75l95 -96v-161l-118 -118h-486z" />
    <glyph glyph-name="four.tf" horiz-adv-x="730" 
d="M486 0v136h-457v141l405 423h169v-462h95v-102h-95v-136h-117zM155 238h331v349h-19l-312 -328v-21z" />
    <glyph glyph-name="five.tf" horiz-adv-x="730" 
d="M60 0v106h424l60 60v108l-60 60h-399v366h550v-106h-431v-157h340l120 -120v-197l-120 -120h-484z" />
    <glyph glyph-name="six.tf" horiz-adv-x="730" 
d="M181 0l-123 123v434l143 143h434v-106h-377l-80 -80v-74h384l123 -123v-194l-123 -123h-381zM238 106h267l60 60v111l-60 60h-327v-171z" />
    <glyph glyph-name="seven.tf" horiz-adv-x="730" 
d="M233 0v248l303 267v77h-481v108h602v-225l-304 -267v-208h-120z" />
    <glyph glyph-name="eight.tf" horiz-adv-x="730" 
d="M167 0l-120 120v158l95 95l-75 74v143l110 110h377l110 -110v-143l-74 -74l94 -95v-158l-120 -120h-397zM245 413h241l58 58v76l-50 50h-256l-51 -50v-76zM228 103h276l60 61v86l-60 60h-277l-60 -60v-86z" />
    <glyph glyph-name="nine.tf" horiz-adv-x="730" 
d="M95 0v106h377l80 80v74h-384l-123 123v194l123 123h381l123 -123v-434l-143 -143h-434zM225 363h327v171l-60 60h-267l-60 -60v-111z" />
    <glyph glyph-name="cent.tf" horiz-adv-x="730" 
d="M363 -90v90h-116l-116 116v268l116 116h116v90h89v-90h153v-100h-153v-300h153v-100h-153v-90h-89zM298 100h65v300h-65l-57 -57v-186z" />
    <glyph glyph-name="sterling.tf" horiz-adv-x="730" 
d="M65 0v106h135v207h-95v86h95v187l114 114h325v-106h-270l-49 -48v-147h259v-86h-259v-207h359v-106h-614z" />
    <glyph glyph-name="yen.tf" horiz-adv-x="730" 
d="M709 700v-40l-224 -335h160v-81h-214l-5 -7v-65h219v-82h-219v-90h-120v90h-219v82h219v65l-5 7h-214v81h160l-224 335v40h115l220 -332h23l219 332h109z" />
    <glyph glyph-name="florin.tf" horiz-adv-x="730" 
d="M492 598l-14 -14l-26 -134h145v-90h-162l-93 -488l-72 -72h-197v102h143l14 14l84 444h-97v90h114l34 178l73 72h197v-102h-143z" />
    <glyph glyph-name="uni20A9.tf" horiz-adv-x="730" 
d="M723 399h-92l-13 -92h105v-82h-118l-34 -225h-160l-39 273h-9l-45 -273h-156l-35 225h-119v82h107l-15 92h-92v81h80l-28 180v40h99l83 -587h14l67 403l-19 144v40h96l79 -587h16l81 587h95v-40l-27 -180h79v-81z" />
    <glyph glyph-name="Euro.tf" horiz-adv-x="730" 
d="M249 0l-142 142v93h-92v82h92v67h-92v81h92v93l142 142h441v-106h-384l-79 -79v-50h292v-81h-292v-67h292v-82h-292v-50l79 -79h384v-106h-441z" />
    <glyph glyph-name="uni20B4.tf" horiz-adv-x="730" 
d="M32 379v81h439l43 43v51l-40 40h-342v106h397l105 -105v-114l-20 -21h86v-81h-668zM203 0l-105 105v114l20 21h-86v82h668v-82h-439l-43 -43v-51l40 -40h366v-106h-421z" />
    <glyph glyph-name="uni20B8.tf" horiz-adv-x="730" 
d="M46 619v81h638v-81h-638zM305 0v457h-259v106h638v-106h-259v-457h-120z" />
    <glyph glyph-name="uni20B9.tf" horiz-adv-x="730" 
d="M481 0l-413 223v146h325l61 60v21h-386v79h386v18l-63 63h-323v90h595v-79h-136l47 -47v-45h89v-79h-89v-48l-126 -126h-237v-16l414 -218v-42h-144z" />
    <glyph glyph-name="uni20BA.tf" horiz-adv-x="730" 
d="M572 308h118v-164l-144 -144h-406v247l-78 -27h-19v78l97 33v73l-78 -27h-19v78l97 33v212h120v-170l262 90h19v-78l-281 -97v-72l262 90h19v-78l-281 -97v-182h237l75 75v127z" />
    <glyph glyph-name="uni20BD.tf" horiz-adv-x="730" 
d="M101 0v89h-88v81h88v73h-88v81h88v376h491l130 -130v-197l-130 -130h-371v-73h371v-81h-371v-89h-120zM221 349h313l68 67v111l-68 67h-313v-245z" />
    <glyph glyph-name="uni20BF.tf" horiz-adv-x="730" 
d="M215 -100v100h-157v700h157v100h86v-100h66v100h86v-100h94l110 -110v-144l-66 -66l101 -101v-159l-120 -120h-119v-100h-86v100h-66v-100h-86zM178 413h304l55 54v80l-51 50h-308v-184zM178 103h333l61 61v87l-59 59h-335v-207z" />
    <glyph glyph-name="zero.tosf" horiz-adv-x="609" 
d="M161 0l-116 116v268l116 116h287l116 -116v-268l-116 -116h-287zM215 100h179l57 57v186l-57 57h-179l-57 -57v-186z" />
    <glyph glyph-name="zero.tosf.zero" horiz-adv-x="609" 
d="M448 500l116 -116v-268l-116 -116h-287l-116 116v268l116 116h287zM215 400l-57 -57v-169l272 190l-36 36h-179zM394 100l57 57v168l-271 -190l35 -35h179z" />
    <glyph glyph-name="one.tosf" horiz-adv-x="609" 
d="M64 0v100h196v300h-170v100h283v-400h181v-100h-490z" />
    <glyph glyph-name="two.tosf" horiz-adv-x="609" 
d="M59 0v196l100 100h266l30 30v49l-30 30h-344v95h400l87 -87v-122l-87 -88h-266l-43 -42v-61h390v-100h-503z" />
    <glyph glyph-name="three.tosf" horiz-adv-x="609" 
d="M49 -140v97h321l61 61v64l-62 61h-225v98h210l57 57v53l-52 52h-299v97h356l108 -108v-120l-71 -71l91 -92v-132l-117 -117h-378z" />
    <glyph glyph-name="four.tosf" horiz-adv-x="609" 
d="M394 -140v156h-377v134l319 350h163v-386h90v-98h-90v-156h-105zM128 114h266v288h-16l-250 -274v-14z" />
    <glyph glyph-name="five.tosf" horiz-adv-x="609" 
d="M57 -140v97h317l60 61v84l-60 61h-297v337h439v-97h-326v-143h240l117 -117v-166l-117 -117h-373z" />
    <glyph glyph-name="six.tosf" horiz-adv-x="609" 
d="M455 429l116 -116v-197l-116 -116h-299l-116 116v188l251 336h109v-33l-123 -165v-13h178zM458 157v115l-59 60h-204l-42 -57v-118l57 -57h191z" />
    <glyph glyph-name="seven.tosf" horiz-adv-x="609" 
d="M182 -140v196l269 275v67h-412v102h525v-205l-269 -275v-160h-113z" />
    <glyph glyph-name="eight.tosf" horiz-adv-x="609" 
d="M146 0l-104 104v149l85 85l-65 64v139l99 99h288l99 -99v-139l-65 -64l85 -85v-149l-104 -104h-318zM223 375h163l49 49v76l-43 43h-175l-42 -43v-76zM202 98h205l48 47v84l-54 54h-192l-54 -54v-84z" />
    <glyph glyph-name="nine.tosf" horiz-adv-x="609" 
d="M453 500l116 -116v-188l-250 -336h-110v33l123 165v13h-178l-116 116v197l116 116h299zM211 169h203l42 56v118l-57 57h-191l-57 -57v-115z" />
    <glyph glyph-name="zero.zero" horiz-adv-x="796" 
d="M577 700l142 -142v-416l-142 -142h-358l-142 142v416l142 142h358zM276 594l-79 -79v-276l399 279l-76 76h-244zM520 106l79 79v275l-398 -279l75 -75h244z" />
    <glyph glyph-name="foundryicon" horiz-adv-x="1538" 
d="M171 230v199h-71v31h178v-31h-72v-199h-35zM832 230v199h-71v31h178v-31h-72v-199h-35zM438 169v224h24l9 -19q19 22 48 22q32 0 54.5 -25t22.5 -59q0 -36 -22.5 -60.5t-54.5 -24.5q-29 0 -47 21v-79h-34zM701 227q-32 0 -55 24.5t-23 60.5q0 35 23 59.5t55 24.5
t54 -24.5t22 -58.5v-15h-120q2 -17 14.5 -29t29.5 -12q27 0 37 17h35q-9 -22 -28.5 -34.5t-43.5 -12.5zM1099 169v224h24l9 -19q19 22 48 22q32 0 54.5 -25t22.5 -59q0 -36 -22.5 -60.5t-54.5 -24.5q-29 0 -47 21v-79h-34zM1362 227q-32 0 -55 24.5t-23 60.5q0 35 23 59.5
t55 24.5t54 -24.5t22 -58.5v-15h-120q2 -17 14.5 -29t29.5 -12q27 0 37 17h35q-9 -22 -28.5 -34.5t-43.5 -12.5zM288 169q-7 0 -10 1v28q23 0 31 20l6 16l-63 159h37l44 -116l44 116h37l-77 -190q-16 -34 -49 -34zM949 169q-7 0 -10 1v28q23 0 31 20l6 16l-63 159h37
l44 -116l44 116h37l-77 -190q-16 -34 -49 -34zM657 325h88q-1 17 -14.5 28.5t-29.5 11.5t-29 -11t-15 -29zM1318 325h88q-1 17 -14.5 28.5t-29.5 11.5t-29 -11t-15 -29zM516 258q19 0 33 16t14 38q0 21 -14 36.5t-33 15.5t-33 -15.5t-14 -36.5q0 -22 13.5 -38t33.5 -16z
M1177 258q19 0 33 16t14 38q0 21 -14 36.5t-33 15.5t-33 -15.5t-14 -36.5q0 -22 13.5 -38t33.5 -16z" />
    </font>
</defs>
</svg>
