<?xml version="1.0" encoding="UTF-8" standalone="no"?>
<!-- Created with Inkscape (http://www.inkscape.org/) -->

<svg
   version="1.1"
   id="svg1"
   width="200"
   height="200"
   viewBox="0 0 200 200"
   sodipodi:docname="logo.svg"
   inkscape:version="1.3 (1:1.3+202307231459+0e150ed6c4)"
   xmlns:inkscape="http://www.inkscape.org/namespaces/inkscape"
   xmlns:sodipodi="http://sodipodi.sourceforge.net/DTD/sodipodi-0.dtd"
   xmlns:xlink="http://www.w3.org/1999/xlink"
   xmlns="http://www.w3.org/2000/svg"
   xmlns:svg="http://www.w3.org/2000/svg">
  <defs
     id="defs1">
    <color-profile
       name="HP-Pavilion-Laptop-14-ce3xxx"
       xlink:href="file:///home/baptiste/.local/share/icc/edid-84547e609aaa716caf8377bcf81e9255.icc"
       id="color-profile1" />
  </defs>
  <sodipodi:namedview
     id="namedview1"
     pagecolor="#505050"
     bordercolor="#eeeeee"
     borderopacity="1"
     inkscape:showpageshadow="0"
     inkscape:pageopacity="0"
     inkscape:pagecheckerboard="0"
     inkscape:deskcolor="#d1d1d1"
     inkscape:zoom="2.4622246"
     inkscape:cx="85.288726"
     inkscape:cy="112.49989"
     inkscape:window-width="1360"
     inkscape:window-height="732"
     inkscape:window-x="0"
     inkscape:window-y="0"
     inkscape:window-maximized="1"
     inkscape:current-layer="g1"
     showguides="false" />
  <g
     inkscape:groupmode="layer"
     inkscape:label="Image"
     id="g1">
    <g
       id="g7"
       transform="matrix(2.5326506,0,0,2.5326506,-12.832192,2.2705462)">
      <path
         id="rect9"
         style="fill:#ffffff;fill-opacity:1;stroke:none;stroke-width:0.231678;stroke-linecap:round"
         d="m 46.935547,2.7070312 c -0.845943,0.1414115 -0.72857,2.340522 -0.982422,2.3710938 -0.270776,0.03261 -0.701794,-2.3255192 -2.228516,-1.6113281 -0.2615,0.122328 -2.067682,1.1085745 -2.509765,1.4667969 -1.214039,0.9837389 0.697481,2.4375553 0.316406,3.0253906 -0.206188,0.318057 -0.839631,-0.00746 -1.302734,-0.050781 -0.463104,-0.043317 -1.102727,-0.082516 -1.285157,0.8613281 -0.181844,0.9239637 -0.494935,2.7291845 -0.515625,3.2226565 -0.04056,0.967463 2.087234,0.613614 2.058594,1.099609 -0.02864,0.485994 -2.583887,0.635054 -1.228516,2.785156 0.123529,0.19596 0.687967,1.263025 0.810547,1.458985 0.346689,0.554223 0.665025,0.818603 1.15625,0.96289 0.38692,0.113649 0.947761,0.02793 1.359375,-0.208984 l 0.220704,-0.126953 0.197265,0.130859 c 0.164976,0.110049 0.195588,0.143691 0.179688,0.207031 -0.04275,0.17033 -0.08718,0.557785 -0.08789,0.769531 -0.002,0.67684 0.460113,1.294824 1.126953,1.50586 0.384709,0.12175 2.442007,0.525085 2.679688,0.52539 h 0.193359 l 0.150391,0.195313 c 0.08292,0.107312 0.348954,0.355523 0.591797,0.550781 l 0.441406,0.353516 -0.09961,0.273437 c -0.09417,0.25528 -0.347697,1.189978 -0.373046,1.375 -0.01095,0.07994 -0.03137,0.08648 -0.498047,0.158203 -0.913168,0.140341 -1.289816,0.320643 -1.640625,0.785157 -0.241574,0.319866 -0.333432,0.642455 -0.332032,1.171875 6.6e-4,0.227657 0.02226,0.566045 0.04883,0.751953 0.02657,0.185905 0.04592,0.340803 0.04102,0.345703 C 43.171092,25.991829 40.69103,24.097425 39.271484,22.798828 38.644368,22.225143 37.485172,21.138709 37.0625,20.650391 l -0.289062,-0.333985 -0.207032,0.01953 c -0.394925,0.03841 -0.815,0.183223 -1.554687,0.537109 -0.292051,0.139725 -0.678681,0.340923 -0.859375,0.447265 -1.054722,0.620737 -2.657185,1.834623 -3.648438,2.763672 -0.214623,0.201155 -0.490626,0.45616 -0.613281,0.566407 -0.794018,0.71369 -2.734241,2.894199 -3.138672,3.527343 -0.03516,0.05505 -0.141008,0.207253 -0.236328,0.337891 -0.345118,0.472977 -0.483113,0.684469 -0.642578,0.984375 -0.08931,0.167967 -0.20503,0.381289 -0.255859,0.474609 -0.496333,0.911139 -0.622155,1.301858 -0.609376,1.882813 0.0218,0.991203 0.0026,1.912889 -0.05273,2.478516 -0.03138,0.320927 -0.03493,0.323233 -0.261719,0.439453 -0.289565,0.14839 -0.582853,0.338815 -1.02539,0.662109 -0.20529,0.149976 -0.412325,0.297535 -0.458985,0.328125 -0.04666,0.03059 -0.146446,0.11569 -0.222656,0.1875 -0.07621,0.07181 -0.281025,0.259334 -0.455078,0.417969 -0.490938,0.44745 -0.601941,0.558923 -1.070312,1.083984 -0.545049,0.611019 -0.502226,0.560232 -0.671876,0.78125 -0.374851,0.488357 -0.958238,1.337695 -1.191406,1.732422 -0.165759,0.280613 -0.596584,1.168215 -0.583984,1.203125 0.0068,0.01896 -0.0144,0.08898 -0.04687,0.154297 -0.09714,0.195358 -0.260738,0.620545 -0.335938,0.873047 -0.08792,0.295212 -0.09808,0.907073 -0.01953,1.214843 0.06362,0.249305 0.303346,0.752288 0.507813,1.06836 0.214498,0.331582 0.664189,0.765473 1.107421,1.066406 0.428356,0.290832 0.676033,0.418752 1.064454,0.552734 l 0.271484,0.09375 v 0.238282 c -7.8e-4,0.243642 -0.05059,0.9697 -0.06836,1 -0.0055,0.0093 -0.02038,0.253694 -0.0332,0.542968 -0.01282,0.289275 -0.02961,0.602003 -0.03711,0.695313 -0.03495,0.433041 -0.04412,2.884706 -0.01367,3.460937 0.06427,1.216192 0.207305,2.731008 0.324219,3.410157 0.18746,1.088964 0.713424,2.788308 1.017578,3.291015 0.03952,0.06532 0.07952,0.141752 0.08984,0.169922 0.05487,0.149704 0.621995,0.957865 0.734375,1.046875 0.206697,0.163709 0.612758,0.365888 0.853516,0.423828 1.431628,0.344549 3.318399,0.334286 6.041015,-0.03125 1.020934,-0.137068 2.436206,-0.400727 3.529297,-0.658203 0.307938,-0.07253 0.941633,-0.209077 1.408203,-0.304687 0.466573,-0.09562 1.007165,-0.21118 1.203125,-0.25586 0.19596,-0.04468 0.570753,-0.119245 0.832031,-0.166015 0.637045,-0.114036 1.055785,-0.203701 1.44336,-0.306641 0.177298,-0.04709 0.512808,-0.123675 0.746093,-0.171875 0.566201,-0.116991 0.562264,-0.116845 0.589844,-0.300781 0.03518,-0.234609 0.290745,-0.724906 0.492188,-0.945313 0.784686,-0.858563 2.163924,-0.936747 2.992187,-0.169922 0.670094,0.620395 0.894741,1.445701 0.621094,2.289063 -0.05946,0.183264 -0.32056,0.597631 -0.505859,0.802734 -0.425138,0.47058 -1.244089,0.708316 -1.953125,0.566407 -0.516689,-0.103415 -0.969866,-0.377855 -1.259766,-0.761719 l -0.08594,-0.113281 -0.453126,0.103515 c -0.249886,0.05721 -0.608294,0.136792 -0.794921,0.175781 -0.186629,0.03898 -0.460072,0.09876 -0.609375,0.134766 -0.245889,0.05931 -0.739106,0.159977 -1.84961,0.373047 -0.429915,0.08248 -0.403221,0.07546 -0.59375,0.126953 -0.07465,0.02018 -0.43624,0.101228 -0.802734,0.179688 l -0.666016,0.142578 0.09961,0.27539 c 0.143521,0.394022 0.748259,2.006325 0.755859,2.015625 0.02344,0.02853 2.13518,-0.428818 2.21875,-0.480468 0.01725,-0.01066 0.04342,-0.09155 0.05664,-0.179688 0.06587,-0.439211 0.354166,-0.890672 0.759765,-1.191406 0.301605,-0.223627 0.527346,-0.330548 0.847657,-0.398438 0.937042,-0.198611 1.90144,0.251698 2.33789,1.091797 0.171621,0.330351 0.243425,0.61899 0.244141,0.966797 7.82e-4,0.388209 -0.0481,0.590669 -0.236328,0.966797 -0.26882,0.537174 -0.623319,0.849015 -1.185547,1.042969 -0.824063,0.284278 -1.774921,0.0389 -2.326172,-0.59961 l -0.15625,-0.179687 -0.634766,0.130859 c -0.800746,0.165188 -1.370422,0.292297 -1.388672,0.310547 -0.01811,0.01811 0.154813,0.533231 0.195313,0.582031 0.02331,0.02809 0.267611,0.648122 0.388672,0.988282 0.0095,0.02672 0.116364,5.88e-4 0.330078,-0.08203 0.294149,-0.113717 0.34011,-0.123023 0.6875,-0.123047 0.319318,-1.9e-5 0.411061,0.01437 0.625,0.0918 0.569281,0.206057 0.940608,0.49391 1.197265,0.927735 0.30169,0.509929 0.390875,0.980583 0.285157,1.505859 -0.06237,0.309858 -0.271237,0.742828 -0.486328,1.009766 -0.211324,0.262261 -0.647022,0.525672 -1.09961,0.664062 -0.05087,0.01556 -0.04501,0.05226 0.05664,0.333985 0.600639,1.664699 0.713529,1.936176 0.90625,2.177734 0.05791,0.07259 0.159542,0.232943 0.226562,0.355469 0.215604,0.394174 0.722557,0.716766 1.361328,0.86914 0.121308,0.02894 0.274524,0.06669 0.339844,0.08398 0.457404,0.121066 1.951821,0.175502 2.798828,0.101562 0.205292,-0.01791 0.60287,-0.04725 0.882813,-0.06641 0.279943,-0.01916 0.561633,-0.04817 0.626953,-0.06445 0.06532,-0.01628 0.218535,-0.03922 0.339844,-0.05078 0.292054,-0.02785 0.589467,-0.08382 1.882812,-0.347657 2.204647,-0.449738 3.747349,-0.888582 6.277344,-1.789062 0.558519,-0.198787 1.605806,-0.621762 1.660156,-0.669922 0.02687,-0.02381 -0.09863,-0.409497 -0.234375,-0.724609 -0.02412,-0.05599 -0.123723,-0.32314 -0.220703,-0.59375 -0.09698,-0.270611 -0.256359,-0.699226 -0.355469,-0.951172 -0.229383,-0.583117 -5.87223,-15.64952 -6.359375,-16.890625 -0.277114,-0.726467 -0.77953,-1.605955 -0.511718,-2.402344 0.454105,-1.068377 1.92712,0.49937 3.375,0.140625 0.919985,-0.264218 1.72285,-0.746364 2.324218,-1.496094 0.367007,-0.392659 0.963447,-1.411467 1.072266,-1.832031 0.02415,-0.09331 0.09847,-0.325684 0.164062,-0.517578 0.145879,-0.426774 0.203255,-0.703304 0.271485,-1.291016 0.09632,-0.829762 0.04126,-1.736979 -0.152344,-2.490234 -0.03984,-0.154985 -0.08545,-0.335071 -0.101562,-0.400391 -0.05744,-0.232943 -0.266821,-0.717714 -0.427735,-0.992187 -0.338899,-0.578074 -0.880335,-1.217894 -1.1875,-1.402344 -0.715417,-0.4296 -0.998957,-0.541654 -1.470703,-0.583984 -0.406145,-0.03644 -0.602807,-0.03289 -0.796875,0.01758 -0.07465,0.01941 -0.15951,0.03587 -0.1875,0.03516 -0.07199,-0.0019 -0.554251,0.165722 -0.759766,0.263672 -0.226249,0.107828 -0.433101,0.269931 -0.8125,0.642578 -0.481372,0.472809 -0.708345,0.780628 -0.96875,1.3125 -0.09645,0.196997 -0.185668,0.369513 -0.199218,0.382813 -0.01356,0.0133 -0.04096,0.08799 -0.06055,0.166015 -0.03462,0.13791 -0.03178,0.1469 0.123047,0.361328 0.374164,0.518202 0.530517,0.981928 0.492187,1.462891 -0.03479,0.43656 -0.150058,0.724975 -0.474609,1.195312 -0.317485,0.460101 -1.022335,0.802735 -1.650391,0.802735 -0.63935,0 -1.340477,-0.33404 -1.695312,-0.808594 -0.523333,-0.699898 -0.585103,-1.623667 -0.160157,-2.378906 0.320257,-0.569173 0.935329,-0.972003 1.589844,-1.039063 0.205519,-0.02106 0.222272,-0.02947 0.263672,-0.128906 0.07192,-0.172733 0.38986,-0.817508 0.41211,-0.835938 0.01126,-0.0093 0.06463,-0.09812 0.11914,-0.199218 0.05451,-0.101102 0.122401,-0.211821 0.150391,-0.244141 0.02799,-0.03232 0.09006,-0.115184 0.136719,-0.183594 0.844729,-1.238625 2.071165,-2.136237 3.310546,-2.423828 0.668076,-0.155026 1.402947,-0.142195 2.066407,0.03711 0.195208,0.05276 0.508224,0.177211 0.521484,0.207031 0.0062,0.014 0.03088,0.02539 0.05469,0.02539 0.05677,1e-6 0.413087,0.191014 0.546876,0.292969 0.05774,0.04401 0.114933,0.08008 0.126953,0.08008 0.04336,0 0.768531,0.633045 0.769531,0.671875 2.62e-4,0.01284 0.07383,0.09987 0.162109,0.19336 0.215499,0.228206 0.606995,0.812185 0.796875,1.1875 0.480962,0.95065 0.785704,2.061044 0.839844,3.054687 0.06519,1.196384 0.01556,1.975387 -0.189453,2.933594 -0.06744,0.315187 -0.408055,1.399411 -0.490235,1.560547 -0.03331,0.06532 -0.160799,0.326176 -0.283203,0.578125 -0.266265,0.548071 -0.530088,0.963895 -0.896484,1.414062 -0.459366,0.564397 -1.108804,1.15479 -1.550781,1.410157 -0.900892,0.520517 -1.585837,0.715337 -2.5,0.710937 -0.43482,-0.0021 -0.58858,-0.01946 -0.851563,-0.0957 -0.05096,-0.01477 -0.04529,0.01811 0.03906,0.248047 0.126995,0.346197 0.678254,1.806931 0.714844,1.894531 0.334172,0.860653 0.659708,1.72519 0.966796,2.595703 0.01252,0.04666 0.04702,0.146053 0.07617,0.220703 1.72665,4.44169 3.314917,8.920746 5.050782,13.369141 0.08645,0.242618 0.190158,0.532331 0.230468,0.644531 0.04031,0.112202 0.08508,0.209344 0.09961,0.214844 0.03114,0.01183 1.496329,-0.710116 1.728515,-0.851562 0.17259,-0.105142 0.148971,-0.08126 0.05664,-0.347657 -0.517348,-1.49264 -3.380768,-9.121582 -3.785156,-10.085937 l -0.11914,-0.314462 H 54.6875 c -0.416288,-0.0017 -1.022355,-0.240334 -1.34375,-0.529297 -0.09638,-0.08665 -0.241849,-0.251761 -0.324219,-0.367188 -0.439661,-0.616129 -0.53387,-1.307189 -0.269531,-1.976562 0.351378,-0.889775 1.195834,-1.449038 2.101562,-1.392578 0.558667,0.03482 0.990608,0.231424 1.408204,0.638672 0.519989,0.507089 0.737069,1.375286 0.523437,2.099609 -0.09287,0.314859 -0.309192,0.692962 -0.5,0.873047 l -0.175781,0.166015 0.07617,0.16211 c 0.136726,0.286241 0.916975,2.447931 0.921875,2.457031 0.957835,2.310104 1.724203,4.697114 2.65625,7.013672 0.03868,0.111978 0.07896,0.219621 0.0918,0.238281 0.01285,0.01866 0.06051,0.149091 0.105468,0.289063 0.04496,0.13997 0.08574,0.258825 0.08984,0.265625 0.01184,0.01983 0.991281,-0.645323 1.144531,-0.777344 0.07676,-0.06613 0.218427,-0.177277 0.316407,-0.248047 0.09798,-0.07076 0.177734,-0.143566 0.177734,-0.160156 -0.567535,-1.636236 -1.260214,-3.22652 -1.814453,-4.867188 -0.0236,-0.05599 -0.06282,-0.150287 -0.08594,-0.210937 -0.03574,-0.09378 -0.0587,-0.111328 -0.154297,-0.111328 -0.193844,10e-7 -0.600477,-0.09944 -0.8125,-0.199219 -1.095466,-0.51553 -1.540147,-1.780907 -1.011718,-2.88086 0.09476,-0.197242 0.188567,-0.323284 0.382812,-0.515624 0.697832,-0.69099 1.632855,-0.868896 2.423828,-0.458985 0.128331,0.06651 0.236888,0.116728 0.242188,0.111328 0.0053,-0.0054 -0.140685,-0.413636 -0.326172,-0.908203 -0.185488,-0.494564 -0.367004,-0.991574 -0.402344,-1.105469 -0.03534,-0.113895 -0.180925,-0.527967 -0.324218,-0.917968 -0.143296,-0.390003 -0.303379,-0.831166 -0.355469,-0.980469 -0.05209,-0.149303 -0.18792,-0.515848 -0.300781,-0.814453 -0.255034,-0.674768 -0.574755,-1.560278 -0.771485,-2.13086 -0.235705,-0.683635 -0.46764,-1.127007 -0.689453,-1.326171 -0.03959,-0.03555 -0.07031,-0.07863 -0.07031,-0.0957 -10e-7,-0.01707 0.158162,-0.202426 0.351562,-0.412109 0.572629,-0.62084 1.534431,-1.957386 1.994141,-2.769531 0.81655,-1.44256 0.798692,-1.405486 1.464843,-2.884766 0.197499,-0.438578 0.399089,-0.919056 0.449219,-1.068359 0.05013,-0.149303 0.14916,-0.416453 0.21875,-0.59375 0.138382,-0.352559 0.587591,-1.727238 0.732422,-2.240235 0.199366,-0.706163 0.437369,-1.720881 0.539063,-2.291015 0.04661,-0.261279 0.10083,-0.546979 0.11914,-0.636719 0.03214,-0.157493 0.140518,-1.040202 0.205078,-1.669922 0.01723,-0.167966 0.03074,-0.492083 0.03125,-0.720703 5.2e-4,-0.228619 0.01535,-0.416016 0.03125,-0.416016 0.0159,0 0.132976,0.06968 0.261719,0.154297 0.330498,0.217245 0.581688,0.28711 1.029297,0.28711 0.780482,0 1.137207,-0.215612 1.876953,-1.136719 0.319004,-0.397214 0.614175,-0.762241 1.140625,-1.402344 0.638331,-0.776137 0.754854,-1.014798 0.777344,-1.59375 0.01328,-0.341966 0.0067,-0.412659 -0.07227,-0.666015 -0.132665,-0.425503 -0.350933,-0.694358 -0.958984,-1.183594 l -0.242188,-0.195313 0.08398,-0.261719 c 0.04593,-0.144235 0.134072,-0.446118 0.195312,-0.669921 l 0.111328,-0.40625 0.572266,-0.08789 c 0.702974,-0.108018 0.966637,-0.193353 1.296875,-0.417969 0.322269,-0.219196 0.511267,-0.48199 0.638672,-0.890625 0.08301,-0.266215 0.08895,-0.320502 0.07031,-0.667968 -0.01117,-0.208367 -0.119491,-1.058175 -0.240234,-1.888672 -0.242512,-1.668043 -0.290665,-1.861791 -0.550781,-2.228516 -0.233089,-0.328621 -0.563583,-0.540593 -1.023438,-0.658203 -0.326399,-0.08347 -0.657151,-0.08304 -1.195312,0.002 -0.233286,0.03684 -0.441871,0.0661 -0.462891,0.06641 -0.02102,2.61e-4 -0.09315,-0.102542 -0.160156,-0.228515 -0.06702,-0.125975 -0.152153,-0.274609 -0.189453,-0.330079 -0.06627,-0.09852 -0.06578,-0.100748 -0.0039,-0.167968 0.151309,-0.164426 0.725484,-0.92827 0.783204,-1.041016 0.285939,-0.558532 0.255393,-1.368699 -0.07227,-1.859375 -0.166055,-0.248669 -0.532624,-0.576543 -1.597656,-1.431641 -0.124758,-0.100166 -0.44841,-0.362274 -0.71875,-0.582031 -0.808103,-0.65689 -1.055488,-0.771484 -1.667969,-0.771484 -0.769132,0 -1.18812,0.271022 -1.933594,1.246094 -0.0743,0.09719 -0.151815,0.177019 -0.171875,0.177734 -0.02006,7.9e-4 -0.150487,-0.03819 -0.289062,-0.08594 -0.138574,-0.04775 -0.425438,-0.131107 -0.638672,-0.185547 -0.213237,-0.05444 -0.39952,-0.11055 -0.41211,-0.125 -0.01259,-0.01445 -0.05676,-0.267976 -0.09766,-0.5625 -0.09606,-0.691681 -0.162888,-0.906902 -0.384766,-1.216797 -0.360449,-0.503442 -0.833884,-0.740143 -1.476562,-0.740235 -0.180998,-2e-5 -0.61755,0.03937 -0.96875,0.08789 -0.351201,0.04852 -0.645397,0.08117 -0.654297,0.07227 -0.0089,-0.0089 0.01694,-0.175556 0.05664,-0.369141 0.09653,-0.470712 0.08282,-1.069927 -0.03125,-1.361328 -0.214204,-0.5472 -0.61205,-0.851676 -1.355469,-1.042969 l -0.144531,-0.03711 C 55.662167,10.019732 56.60416,9.4716254 55.9375,8.2851562 55.270841,7.098687 54.185547,5.4628906 54.185547,5.4628906 53.531214,4.4822241 52.060378,6.5974316 51.359375,6.1269531 51.199314,6.0195284 51.198041,6.0902817 50.90625,5.8574219 50.601988,5.6146092 51.467948,3.6294331 50.615234,3.3808594 49.196206,2.9671998 48.13562,2.8665253 47.117188,2.7089844 c -0.06535,-0.01011 -0.125245,-0.011381 -0.181641,-0.00195 z M 31.773438,32.771484 c 0.165966,-1.3e-4 0.326815,0.01639 0.416015,0.04883 0.477199,0.173563 0.839678,0.632904 1.050781,1.332032 0.08067,0.267179 0.09161,0.373329 0.105469,0.921875 0.01348,0.533368 0.0071,0.67937 -0.05664,1.042969 -0.236923,1.350994 -0.895717,2.605547 -1.279296,3.052734 -0.06403,0.07465 -0.22156,0.259555 -0.34961,0.410156 -0.230232,0.270776 -0.581687,0.543264 -1.019531,0.789063 -0.320158,0.179698 -0.722188,0.244578 -1.082031,0.173828 -0.208822,-0.04106 -0.423485,-0.178136 -0.65625,-0.416016 -0.634763,-0.648711 -0.81304,-2.020006 -0.449219,-3.464844 0.277858,-1.103449 0.753889,-2.052556 1.404297,-2.802734 0.454752,-0.524512 0.976407,-0.892854 1.46875,-1.039063 0.109757,-0.03263 0.281299,-0.04873 0.447265,-0.04883 z m 29.990234,28.59375 -0.101563,0.21875 c -0.11878,0.259131 -0.369953,0.607145 -0.515625,0.714844 -0.05697,0.04212 -0.103515,0.09063 -0.103515,0.107422 0,0.05839 1.308736,3.365508 1.542969,4.103516 0.03859,0.117877 0.11704,0.327621 0.15039,0.394531 0.08735,-0.05897 0.197883,-0.207546 0.226563,-0.349609 0.354515,-1.756172 -0.483393,-3.430661 -1.115235,-4.935547 z" />
      <path
         id="path6"
         style="fill:#3e9ea4;fill-opacity:1;stroke-width:0.106039"
         d="m 58.270686,14.50342 -0.318662,0.0094 c -0.175212,0.0051 -0.660013,0.05802 -1.077505,0.117727 l -0.759242,0.108549 -0.09199,0.260996 c -0.116592,0.330483 -0.313211,0.591626 -0.579458,0.769418 -0.20547,0.137208 -0.669361,0.310082 -0.832075,0.310082 -0.04569,0 -0.08301,0.0084 -0.08301,0.01896 0,0.02469 0.163133,1.123411 0.184374,1.241725 0.01315,0.07325 10e-4,0.09376 -0.06505,0.110345 -0.04466,0.01121 -0.177707,0.06461 -0.295516,0.118725 -0.117808,0.05412 -0.271422,0.122004 -0.341409,0.150851 -0.09911,0.04085 -0.127105,0.07122 -0.127105,0.137282 0,0.04665 -0.03846,0.206375 -0.0854,0.354978 -0.150857,0.477546 -0.385767,0.725075 -1.085287,1.143352 -0.149304,0.08928 -0.447043,0.272352 -0.661668,0.406859 -0.956577,0.599501 -1.259184,0.728114 -1.713633,0.728114 -0.340915,0 -0.72808,-0.123986 -0.990906,-0.317465 -0.180627,-0.132972 -0.418951,-0.417969 -0.614377,-0.7345 -0.07197,-0.116567 -0.07331,-0.116996 -0.07383,-0.02913 -0.001,0.158209 -0.169804,0.685659 -0.273367,0.854223 -0.05523,0.08989 -0.100568,0.176877 -0.100568,0.193351 0,0.01647 0.05732,0.07278 0.127305,0.124911 0.06998,0.05213 0.228526,0.178759 0.352185,0.281548 0.308981,0.256843 0.626011,0.512276 0.741483,0.597217 0.05305,0.03902 0.158876,0.130574 0.235056,0.203529 l 0.138479,0.132693 -0.07962,0.170804 c -0.121119,0.259721 -0.481729,1.287293 -0.559304,1.593711 -0.151815,0.599663 -0.190084,0.813234 -0.230667,1.289415 -0.01113,0.13064 -0.02541,0.243251 -0.03173,0.250221 -0.0063,0.007 -0.435891,0.0729 -0.954589,0.14646 -1.027659,0.145742 -1.187879,0.191671 -1.298395,0.372937 -0.09932,0.162904 -0.08941,0.376601 0.06824,1.469996 0.07535,0.522562 0.166419,1.16382 0.202332,1.425101 0.09378,0.682304 0.123551,0.762406 0.338217,0.909493 0.119,0.08154 0.278712,0.07313 1.13577,-0.05986 1.002833,-0.155603 1.206606,-0.175735 1.206606,-0.119724 0,0.05415 0.418799,0.891133 0.51002,1.01924 0.03669,0.05153 0.06678,0.106534 0.06705,0.122318 9.6e-5,0.01578 0.06906,0.120054 0.152845,0.231663 0.08379,0.11161 0.152248,0.213391 0.152248,0.226077 0,0.01269 0.06103,0.100308 0.135686,0.194749 0.07465,0.09444 0.135885,0.192545 0.135885,0.218094 0,0.02555 -0.0521,0.106208 -0.115731,0.179186 -0.380922,0.436851 -0.474532,0.548542 -0.523588,0.624753 -0.03003,0.04666 -0.08765,0.122951 -0.128104,0.169608 -0.499135,0.575692 -0.567985,0.699538 -0.523388,0.943416 0.03668,0.200564 0.09644,0.275247 0.467318,0.584047 0.424249,0.353234 0.391251,0.3262 0.908297,0.741484 0.242618,0.194865 0.542722,0.439713 0.667055,0.54414 0.384133,0.322629 0.497707,0.41045 0.530971,0.41045 0.01763,0 0.05021,0.02175 0.07223,0.04829 0.02202,0.02653 0.09869,0.05812 0.170405,0.07024 0.238577,0.04031 0.373982,-0.06622 0.884353,-0.69539 0.11354,-0.139972 0.248414,-0.300188 0.299706,-0.356176 0.05129,-0.05599 0.16087,-0.193515 0.243437,-0.305492 0.08257,-0.111976 0.183775,-0.238958 0.224879,-0.282147 0.0824,-0.08658 0.07919,-0.08701 0.537755,0.08959 0.5582,0.214982 0.736891,0.278609 0.95,0.338416 0.392614,0.110185 0.690264,0.170608 1.136768,0.230466 0.233286,0.03128 0.441342,0.06126 0.46233,0.06665 0.02099,0.0054 0.04832,0.08346 0.06066,0.173597 0.01233,0.09013 0.04427,0.278459 0.07104,0.418432 0.02677,0.139971 0.07341,0.47586 0.103761,0.746472 0.06194,0.552243 0.131042,0.749023 0.299307,0.851628 0.158872,0.09688 0.374121,0.08367 1.715628,-0.105157 1.828079,-0.257317 1.936221,-0.281047 2.044465,-0.447763 0.08402,-0.129407 0.09181,-0.261643 0.04111,-0.705767 -0.05253,-0.460115 -0.175181,-1.362996 -0.201335,-1.482367 -0.01205,-0.05499 0.0035,-0.07999 0.06026,-0.09737 0.09892,-0.0303 0.831191,-0.387925 1.094267,-0.534363 0.230578,-0.128347 0.483088,-0.293027 0.780592,-0.50942 l 0.203529,-0.148057 0.138878,0.121718 c 0.0764,0.06699 0.191034,0.163175 0.254611,0.213705 0.226058,0.179665 0.626726,0.50639 0.7776,0.633933 0.08425,0.07122 0.20193,0.154621 0.261394,0.18537 0.147582,0.07632 0.407377,0.07183 0.540549,-0.0094 0.09208,-0.05614 0.347673,-0.344592 0.57028,-0.64331 0.03644,-0.04891 0.199895,-0.249208 0.363159,-0.44517 0.163265,-0.195959 0.393059,-0.475064 0.510617,-0.620163 0.11756,-0.145104 0.29852,-0.366354 0.402269,-0.491862 0.347267,-0.420089 0.397974,-0.535922 0.334825,-0.76463 -0.03616,-0.130949 -0.213136,-0.306819 -0.726917,-0.721928 -0.658318,-0.531889 -0.78146,-0.634941 -0.804337,-0.67404 -0.01305,-0.02231 7.9e-5,-0.08521 0.02913,-0.139876 0.02905,-0.05467 0.08103,-0.175863 0.115333,-0.269177 0.0343,-0.09331 0.08782,-0.23827 0.119124,-0.322254 0.0313,-0.08398 0.06931,-0.198623 0.08441,-0.25461 0.01509,-0.05599 0.05305,-0.170429 0.0842,-0.254411 0.114562,-0.308813 0.197346,-0.675646 0.306091,-1.356061 0.02822,-0.176575 0.06763,-0.33107 0.0876,-0.343405 0.01996,-0.01233 0.130104,-0.03207 0.244834,-0.0439 0.114726,-0.01184 0.577564,-0.08107 1.028618,-0.153645 0.850263,-0.136816 0.985014,-0.179053 1.069125,-0.33662 0.06384,-0.119602 0.05024,-0.302584 -0.105356,-1.414127 -0.325618,-2.326124 -0.311229,-2.260462 -0.528378,-2.382682 -0.07465,-0.04202 -0.18599,-0.07656 -0.247426,-0.07682 -0.06144,-3.07e-4 -0.516758,0.06044 -1.012057,0.135087 -0.993639,0.149761 -1.064735,0.155885 -1.064735,0.09119 0,-0.0716 -0.580976,-1.205427 -0.750862,-1.465408 -0.08537,-0.130639 -0.175178,-0.275796 -0.199537,-0.322453 -0.02436,-0.04666 -0.09663,-0.148976 -0.160629,-0.227474 l -0.11633,-0.142669 0.197941,-0.232862 c 0.108889,-0.128013 0.300962,-0.361584 0.426813,-0.518998 0.782331,-0.978539 0.790268,-0.991458 0.752856,-1.240927 -0.0189,-0.126062 -0.04876,-0.172595 -0.176591,-0.276959 -0.08454,-0.06902 -0.280498,-0.232518 -0.435591,-0.363158 -0.155091,-0.130639 -0.389979,-0.321374 -0.521792,-0.424019 -0.323856,-0.25219 -1.192125,-1.005022 -1.524271,-1.212593 -0.159438,-0.09911 -0.356563,-0.09925 -0.516404,-4.08e-4 -0.06774,0.0419 -0.24819,0.22881 -0.400872,0.415437 -0.152686,0.186629 -0.333811,0.406778 -0.402669,0.489268 -0.06885,0.08249 -0.188619,0.235273 -0.265983,0.339414 -0.07737,0.10414 -0.185153,0.241453 -0.239646,0.305094 l -0.09917,0.115731 -0.184373,-0.085 c -0.101428,-0.04675 -0.275925,-0.119371 -0.387902,-0.161226 -0.111978,-0.04185 -0.295281,-0.111899 -0.407257,-0.155839 -0.241944,-0.09494 -0.606742,-0.201153 -0.865396,-0.252017 -0.356916,-0.07019 -0.73059,-0.132765 -0.918673,-0.153645 l -0.189162,-0.02095 -0.07183,-0.414041 c -0.0395,-0.227681 -0.113659,-0.7086 -0.164819,-1.068726 -0.08906,-0.626909 -0.0977,-0.659967 -0.200934,-0.779395 z m -0.318063,7.651485 c 0.240553,-0.0036 0.479443,0.0067 0.617968,0.03252 0.640079,0.119315 1.515281,0.424297 2.220659,1.191841 0.464129,0.475341 0.74056,1.048584 0.918474,1.677117 0.146966,0.524288 0.133861,1.457559 0.0058,1.919157 -0.118992,0.428818 -0.224747,0.683767 -0.420028,1.012057 -0.177053,0.297647 -0.627679,0.843579 -0.801943,0.97155 -0.719973,0.528713 -1.274255,0.7674 -2.038281,0.877967 -0.201191,0.02912 -0.468415,0.05151 -0.593825,0.04969 -0.377664,-0.0055 -0.918381,-0.131782 -1.466405,-0.342407 -0.48995,-0.188303 -1.142528,-0.724137 -1.564977,-1.284825 -0.323009,-0.428714 -0.582721,-1.092712 -0.674239,-1.724208 -0.172898,-1.193065 0.271875,-2.475879 1.142754,-3.296169 0.303629,-0.285989 0.360596,-0.331257 0.604401,-0.482084 0.462914,-0.286374 0.830214,-0.428872 1.42111,-0.550923 0.145706,-0.0301 0.387991,-0.04766 0.628545,-0.05128 z"
         sodipodi:nodetypes="cccccsssssssssssssscssssscccssssssssssscsssssssssssssssssssssssssssssssscccssssssssssssssssssssssscsssscccsssssssssscccssscccsccssssssssssssssss" />
      <path
         style="fill:#3e9ea4;fill-opacity:1;stroke-width:0.106039"
         d="m 57.629676,28.193466 1.1e-5,4e-6 c 0.254718,0.03733 0.284303,0.03724 0.59574,-0.0018 0.941412,-0.118044 1.715585,-0.842243 1.89023,-1.768217 0.04613,-0.244624 0.04575,-0.311907 -0.0039,-0.684305 -0.07281,-0.5464 -0.220802,-0.872537 -0.552644,-1.217918 -0.464046,-0.482978 -0.971223,-0.703539 -1.620347,-0.704582 -0.9406,-0.0015 -1.752959,0.589615 -2.074766,1.509821 -0.08321,0.237921 -0.09492,0.321014 -0.09557,0.678324 -7.15e-4,0.357799 0.01091,0.442177 0.09538,0.695616 0.261331,0.784097 0.960182,1.374998 1.765841,1.493072 z"
         id="path4" />
      <path
         id="path3"
         style="fill:#2b8591;fill-opacity:1;stroke-width:0.106039"
         d="m 47.633913,3.9181283 c -0.264007,-0.021815 -0.378802,0.052715 -0.44876,0.2915251 -0.04445,0.1517246 -0.169806,0.8077934 -0.239047,1.2509038 -0.01793,0.1147206 -0.02596,0.1208854 -0.162823,0.1281034 -0.07916,0.00418 -0.227988,0.021939 -0.330635,0.039509 -0.102646,0.017571 -0.239972,0.040476 -0.305293,0.050683 -0.230959,0.036101 -0.325286,0.05806 -0.59183,0.1382798 -0.148174,0.044596 -0.270197,0.077672 -0.271371,0.07343 -0.303202,-0.3913701 -0.508163,-0.8964656 -0.860209,-1.2764447 -0.134286,-0.1449415 -0.372648,-0.01779 -0.974144,0.370143 -0.111977,0.07222 -0.422758,0.2642954 -0.690402,0.4268119 -0.611744,0.3714557 -0.717937,0.4672097 -0.717937,0.6471017 0,0.073382 0.01337,0.1478874 0.02973,0.1656166 0.01636,0.017731 0.06797,0.1009888 0.114536,0.1849718 0.04656,0.083983 0.202637,0.3435793 0.346797,0.5768643 0.144161,0.2332862 0.267166,0.4323253 0.273367,0.4423758 0.0062,0.010051 -0.102961,0.1530726 -0.242439,0.317864 -0.30714,0.3628817 -0.641155,0.8618736 -0.830677,1.2405279 -0.137313,0.2743458 -0.142606,0.2799462 -0.246629,0.2615942 -0.250449,-0.044187 -0.833484,-0.1576788 -1.005871,-0.1957467 -0.24489,-0.054078 -0.402466,-0.020038 -0.504631,0.1091473 -0.0646,0.08169 -0.110305,0.2533054 -0.227474,0.8550205 -0.319762,1.642143 -0.320564,1.650801 -0.170006,1.7709 0.118509,0.09453 0.347268,0.16086 0.868588,0.252016 0.544241,0.09517 0.610487,0.109574 0.612981,0.133691 0.0012,0.01167 0.0095,0.105273 0.01856,0.207918 0.03318,0.375439 0.159045,1.021875 0.26798,1.377212 0.04294,0.14007 -0.82725,0.557865 -1.021834,0.720531 -0.195986,0.163834 -0.200225,0.377967 -0.01357,0.697386 0.367922,0.563299 0.651,1.131909 1.090874,1.722812 0.158974,0.213557 0.276521,0.178356 0.691998,-0.07722 0.185914,-0.114365 0.391422,-0.238682 0.456742,-0.27636 0.06532,-0.03768 0.176637,-0.107027 0.247428,-0.154043 l 0.128701,-0.0854 0.14287,0.136284 c 0.322382,0.307831 0.847874,0.67928 1.313359,0.928451 0.225926,0.120938 0.286367,0.168859 0.278954,0.220689 -0.01951,0.136483 -0.04712,0.283104 -0.144665,0.765627 -0.119792,0.592572 -0.12505,0.735962 -0.03093,0.855619 0.08223,0.104541 0.13924,0.121772 0.856616,0.258801 0.302494,0.05778 0.733228,0.141149 0.957184,0.185171 0.223953,0.04402 0.49305,0.08168 0.597816,0.08381 0.162764,0.0033 0.203139,-0.009 0.278555,-0.08441 0.04854,-0.04854 0.09571,-0.113291 0.104757,-0.144065 0.02746,-0.09345 0.218686,-1.063536 0.241641,-1.225962 0.01181,-0.08359 0.02717,-0.161421 0.03432,-0.172999 0.0072,-0.01158 0.139511,-0.03008 0.29412,-0.04111 0.363498,-0.02594 1.024956,-0.145117 1.266068,-0.228072 0.172523,-0.05936 0.190708,-0.06015 0.210113,-0.0096 0.02496,0.06506 0.3523,0.593694 0.599613,0.968358 0.254304,0.385256 0.429536,0.439292 0.745873,0.230067 0.05845,-0.03866 0.488017,-0.304435 0.95459,-0.590433 0.970865,-0.595118 1.018712,-0.641519 0.93284,-0.908098 -0.02623,-0.08143 -0.0566,-0.155684 -0.06744,-0.165017 -0.03141,-0.027 -0.678829,-1.074633 -0.678829,-1.098457 0,-0.01183 0.127249,-0.17788 0.282746,-0.369146 0.349841,-0.430313 0.658676,-0.886164 0.804936,-1.188048 0.08131,-0.167839 0.124138,-0.217604 0.165018,-0.212908 0.513289,0.05897 0.968412,0.146331 1.535046,0.219691 0.05892,0.0076 0.120369,-0.0812 0.145463,-0.129899 0.07065,-0.137087 0.460134,-2.106672 0.460134,-2.326812 0,-0.168639 -0.06141,-0.278981 -0.188762,-0.339415 -0.09587,-0.04549 -0.842434,-0.206981 -1.248908,-0.270174 -0.07216,-0.01121 -0.142371,-0.02727 -0.15604,-0.03572 -0.01367,-0.0084 -0.03447,-0.141905 -0.04629,-0.296513 -0.02963,-0.387624 -0.08557,-0.735907 -0.175195,-1.090475 l -0.07602,-0.3005044 0.152248,-0.089792 c 0.08376,-0.049365 0.169738,-0.1050497 0.191157,-0.1237137 0.02142,-0.018663 0.09226,-0.06286 0.157236,-0.098372 0.274624,-0.1500866 0.775514,-0.5006662 0.826487,-0.5784608 0.06653,-0.1015478 0.07057,-0.2429988 0.01018,-0.3579712 -0.03048,-0.058026 -1.097292,-1.90074 -1.285423,-1.9933847 C 53.15829,6.5855961 53.1164,6.6010162 52.418848,7.0412733 52.207595,7.1746042 51.979137,7.3147341 51.911223,7.3525526 L 51.78771,7.4213936 51.69113,7.3206269 C 51.573834,7.1982367 50.990979,6.7413886 50.711188,6.5526339 50.48952,6.4030917 49.916272,6.1032742 49.851977,6.1032742 c -0.01166,0 -0.02105,0.00368 -0.02694,3.984e-4 -0.01963,-0.010962 -4.4e-5,-0.097958 0.105756,-0.6451063 0.06532,-0.3378044 0.118724,-0.6657431 0.118724,-0.7289124 0,-0.2738458 -0.132515,-0.3962463 -0.512214,-0.472506 C 48.839624,4.1170244 47.799599,3.9318249 47.63391,3.9181327 Z m -0.402068,5.2151256 c 0.989401,0.018257 1.992798,0.702027 2.376098,1.6467871 0.154692,0.381284 0.186862,0.566121 0.186967,1.074911 9.5e-5,0.405895 -0.01146,0.512067 -0.08021,0.729512 -0.138005,0.443967 -0.373339,0.830587 -0.697785,1.170689 -0.321725,0.317075 -0.882657,0.622995 -1.32573,0.723126 -0.520887,0.117716 -1.234276,0.02678 -1.726203,-0.220091 -0.521393,-0.261659 -1.013818,-0.763683 -1.262278,-1.28682 -0.225852,-0.475545 -0.313667,-1.121408 -0.217496,-1.601293 0.117299,-0.717621 0.504618,-1.260967 1.069324,-1.7232104 0.325516,-0.2520988 0.960289,-0.47009 1.479774,-0.5082232 0.115707,-0.00849 0.197543,-0.00493 0.197543,-0.00539 z"
         sodipodi:nodetypes="ssssscscssssssssssssssssccsssssscccscsssscssssssssssscssssssssssccccsssssscccssssssssscsssssssssss" />
      <path
         style="fill:#2b8591;fill-opacity:1;stroke-width:0.106039"
         d="m 47.318022,13.272064 c 0.773549,-0.08299 1.363294,-0.823396 1.248187,-1.567059 -0.05034,-0.325203 -0.176334,-0.581085 -0.392636,-0.797386 -0.3328,-0.332801 -0.801054,-0.497982 -1.210114,-0.426878 -0.449267,0.07809 -0.861194,0.369204 -1.052187,0.743585 -0.105987,0.207748 -0.162689,0.554869 -0.130528,0.799048 0.03538,0.268632 0.218644,0.641328 0.414605,0.843175 0.372764,0.383966 0.937739,0.425366 1.122673,0.405515 z"
         id="path1"
         sodipodi:nodetypes="cssssssc" />
    </g>
  </g>
</svg>
