<?xml version="1.0" encoding="UTF-8"?>
<svg xmlns="http://www.w3.org/2000/svg" version="1.1" viewBox="0 0 311.8 311.8">
  <defs>
    <style>
      .cls-1 {
        fill: #1d1d1b;
      }
    </style>
  </defs>
  <!-- Generator: Adobe Illustrator 28.7.1, SVG Export Plug-In . SVG Version: 1.2.0 Build 142)  -->
  <g>
    <g id="TYPO">
      <path class="cls-1" d="M113.7,131.8c-2.3-2.1-6.1-3.2-11.2-3.2h-11.2c-.5,0-.7.2-.7.7v35.5c0,.5.2.7.7.7h6.6c.5,0,.7-.2.7-.7v-11.5h3.9c4.9,0,8.5-1.1,11-3.2,2.4-2.1,3.6-5.2,3.6-9.1s-1.2-7.1-3.5-9.2h0ZM107.5,145.2c-1.1.8-2.8,1.3-5,1.3h-3.8v-11h3.8c2.3,0,3.9.4,5,1.3s1.6,2.3,1.6,4.3-.6,3.3-1.7,4.1h0Z"/>
      <path class="cls-1" d="M122.7,139.2c-2,1.5-2.8,3.6-2.6,6.3,0,.6.3.9.8.9h5.9c.5,0,.8-.2.7-.7,0-1.9,1.1-2.9,3.7-2.9s2.4.3,2.9.9c.5.6.8,1.6.8,3v2.2l-4.4.4c-2.9.2-5.1.7-6.9,1.4-1.7.7-2.9,1.7-3.7,2.9-.7,1.2-1.1,2.8-1.1,4.8s.6,4.5,1.9,5.8c1.2,1.4,3,2.1,5.2,2.1s2.7-.2,3.9-.7c1.1-.5,2.2-1.1,3.3-2,.8-.7,1.6-1.4,2.4-2.2,0,.5.1,1.1.2,1.6.1.8.2,1.5.3,1.9,0,.2.2.4.3.5s.3.2.5.2h5.5c.6,0,.8-.3.7-.8-.1-1-.2-2-.3-3v-14.8c0-3.5-.9-6-2.7-7.6s-4.7-2.4-8.6-2.4-6.8.7-8.8,2.2h.1ZM134.9,157c-1.1,1.1-2,1.8-2.8,2.3-1.1.6-2.1,1-3.2,1s-1.4-.2-1.9-.7c-.4-.5-.6-1.2-.6-2.2s.4-2.2,1.1-2.8c.7-.6,2.1-1,4-1.2l3.4-.3v3.8h0Z"/>
      <rect class="cls-1" x="147.4" y="127.1" width="7.8" height="38.5" rx=".7" ry=".7"/>
      <path class="cls-1" d="M166.2,166.2c1.4,0,2.7-.2,3.9-.7,1.1-.5,2.2-1.1,3.3-2,.8-.7,1.6-1.4,2.4-2.2,0,.5.1,1.1.2,1.6.1.8.2,1.5.3,1.9,0,.2.2.4.3.5s.3.2.5.2h5.5c.6,0,.8-.3.7-.8-.1-1-.2-2-.3-3v-14.8c0-3.5-.9-6-2.7-7.6s-4.7-2.4-8.6-2.4-6.8.7-8.8,2.2-2.8,3.6-2.6,6.3c0,.6.3.9.8.9h5.9c.5,0,.8-.2.7-.7-.1-1.9,1.1-2.9,3.7-2.9s2.4.3,2.9.9c.5.6.8,1.6.8,3v2.2l-4.4.4c-2.9.2-5.1.7-6.9,1.4-1.7.7-2.9,1.7-3.7,2.9-.7,1.2-1.1,2.8-1.1,4.8s.6,4.5,1.9,5.8c1.2,1.4,3,2.1,5.2,2.1h.1ZM167.7,154.7c.7-.6,2.1-1,4-1.2l3.4-.3v3.8c-1.1,1.1-2,1.8-2.8,2.3-1.1.6-2.1,1-3.2,1s-1.4-.2-1.9-.7c-.4-.5-.6-1.2-.6-2.2s.4-2.2,1.1-2.8h0Z"/>
      <rect class="cls-1" x="188.2" y="137.7" width="7.8" height="27.9" rx=".7" ry=".7"/>
      <path class="cls-1" d="M196.5,129.1c0-1.2-.4-2.2-1.1-2.9-.7-.7-1.8-1-3.2-1s-2.5.3-3.2,1c-.8.7-1.1,1.7-1.1,2.9v1c0,1.2.4,2.1,1.1,2.8.8.7,1.8,1.1,3.2,1.1s2.5-.4,3.2-1.1c.7-.7,1.1-1.7,1.1-2.8v-1Z"/>
      <path class="cls-1" d="M221.8,153.1c-.9-1.2-2.3-2.1-4.3-2.9l-6.4-2.7c-1.1-.5-1.8-.8-2.1-1.2-.4-.3-.6-.8-.6-1.4s.3-1.4.8-1.7c.5-.4,1.4-.6,2.5-.6s2,.2,2.6.6c.6.4.9,1,.9,1.8s.2.9.7.9h5.9c.5,0,.7-.2.7-.7,0-2.7-.9-4.7-2.7-6.1-1.8-1.4-4.6-2.1-8.4-2.1s-6.4.7-8.1,2c-1.7,1.3-2.6,3.3-2.6,6s.4,3.3,1.2,4.5c.8,1.1,2.2,2.1,4.1,2.9l6.5,2.8c1.1.5,1.8.9,2.3,1.3.5.4.7,1,.7,1.7s-.3,1.5-1,1.9c-.6.4-1.6.6-2.9.6s-2.2-.3-2.7-.8-.9-1.4-.9-2.6-.2-.7-.7-.7h-6c-.5,0-.7.2-.7.7-.2,3.1.6,5.4,2.4,6.9,1.8,1.5,4.7,2.2,8.6,2.2s6.7-.7,8.7-2.1c2-1.4,3-3.6,3-6.4s-.4-3.5-1.3-4.6l-.2-.2Z"/>
      <path class="cls-1" d="M102.6,179.1v-1.5c0-2.1-.6-3.7-1.7-4.8s-2.8-1.6-5.2-1.6h-4.8c-.2,0-.3,0-.3.3v14c0,.2,0,.3.3.3h4.8c2.3,0,4.1-.6,5.2-1.7,1.1-1.1,1.7-2.8,1.7-5ZM99.5,179c0,1.3-.3,2.3-.9,3s-1.6,1-3,1h-1.8v-9.1h1.8c1.3,0,2.3.3,3,.9s.9,1.6.9,2.8v1.4h0Z"/>
      <path class="cls-1" d="M114.3,174c.2,0,.3,0,.3-.3v-2.2c0-.2,0-.3-.3-.3h-8.9c-.2,0-.3,0-.3.3v14c0,.2,0,.3.3.3h8.9c.2,0,.3,0,.3-.3v-2.2c0-.2,0-.3-.3-.3h-6v-3.3h5.4c.2,0,.3,0,.3-.3v-2c0-.2,0-.3-.3-.3h-5.4v-3.1h6Z"/>
      <path class="cls-1" d="M109.9,170.1c0,0,.2,0,.3-.2l1.9-2.5v-.2s0-.1-.2-.1h-2.3c0,0-.2,0-.3.2l-1.4,2.5v.2h2Z"/>
      <path class="cls-1" d="M120.7,174.5c.5-.5,1.2-.7,2.2-.7s1.7.2,2.1.7c.5.5.7,1.1.7,1.9s0,.3.2.3h2.6s.2,0,.2-.1v-.2c.1-1.1,0-2-.5-2.8s-1.1-1.4-2.1-1.8c-.9-.4-2.1-.6-3.4-.6-1.9,0-3.4.5-4.5,1.4s-1.6,2.4-1.6,4.3v3.7c0,1.9.5,3.3,1.6,4.2s2.5,1.4,4.5,1.4,2.5-.2,3.4-.6,1.6-1,2.1-1.8.6-1.7.5-2.8c0-.2-.1-.3-.3-.3h-2.6c-.2,0-.3,0-.2.3,0,.7-.2,1.3-.6,1.8-.5.5-1.2.7-2.2.7s-1.7-.2-2.2-.7-.8-1.3-.8-2.3v-3.5c0-1,.3-1.8.8-2.3v-.2Z"/>
      <path class="cls-1" d="M137.1,171c-2,0-3.5.5-4.5,1.4-1,1-1.5,2.4-1.5,4.2v3.8c0,1.8.5,3.2,1.5,4.2s2.5,1.4,4.5,1.4,3.5-.5,4.6-1.4c1-1,1.5-2.4,1.5-4.2v-3.8c0-1.8-.5-3.2-1.5-4.2s-2.5-1.4-4.6-1.4ZM140,180.2c0,1-.2,1.7-.7,2.3-.5.5-1.2.8-2.2.8s-1.7-.3-2.2-.8-.7-1.3-.7-2.3v-3.4c0-1,.2-1.7.7-2.3.5-.5,1.2-.8,2.2-.8s1.7.3,2.2.8.7,1.3.7,2.3v3.4Z"/>
      <path class="cls-1" d="M157.3,171.2h-2.6c-.2,0-.3,0-.3.3v8.8c0,.9-.2,1.7-.7,2.2-.4.5-1.1.8-2.1.8s-1.6-.3-2.1-.8c-.4-.5-.7-1.3-.7-2.2v-8.8c0-.2,0-.3-.3-.3h-2.6c-.2,0-.3,0-.3.3v8.9c0,1.9.5,3.3,1.5,4.2s2.5,1.4,4.4,1.4,3.4-.5,4.4-1.4,1.5-2.3,1.5-4.2v-8.9c0-.2,0-.3-.3-.3h.2Z"/>
      <path class="cls-1" d="M164.1,185.8h3.4c.2,0,.3,0,.3-.2l4.6-14c0-.2,0-.3-.2-.3h-2.8c-.2,0-.3,0-.3.2l-2.4,8.3c-.2.5-.3,1.1-.5,1.6-.1.5-.3,1.1-.4,1.6h0c-.1-.5-.2-1.1-.4-1.6-.1-.5-.3-1.1-.4-1.6l-2.4-8.3c0-.1-.2-.2-.3-.2h-2.8c-.2,0-.3.1-.2.3l4.6,14c0,.1.2.2.3.2h-.1Z"/>
      <path class="cls-1" d="M183.3,174c.2,0,.3,0,.3-.3v-2.2c0-.2,0-.3-.3-.3h-8.8c-.2,0-.3,0-.3.3v14c0,.2,0,.3.3.3h8.8c.2,0,.3,0,.3-.3v-2.2c0-.2,0-.3-.3-.3h-6v-3.3h5.4c.2,0,.3,0,.3-.3v-2c0-.2,0-.3-.3-.3h-5.4v-3.1h6Z"/>
      <path class="cls-1" d="M186.2,171.5v14c0,.2,0,.3.3.3h2.6c.2,0,.3,0,.3-.3v-5.3h1.8l3.2,5.3c0,.1.2.2.4.2h3.1v-.2l-3.5-5.7h0c.9-.3,1.6-.8,2-1.5s.7-1.5.7-2.6-.5-2.6-1.4-3.3c-.9-.8-2.3-1.2-4.3-1.2h-4.9c-.2,0-.3,0-.3.3ZM189.4,173.9h2c.9,0,1.5.1,1.9.4.4.3.6.8.6,1.4s-.2,1.2-.6,1.5c-.4.3-1.1.5-2,.5h-2v-3.8h.1Z"/>
      <path class="cls-1" d="M209.4,171.2h-10.6c-.2,0-.3,0-.3.3v2.2c0,.2,0,.3.3.3h3.7v11.5c0,.2,0,.3.3.3h2.6c.2,0,.3,0,.3-.3v-11.5h3.7c.2,0,.3,0,.3-.3v-2.2c0-.2,0-.3-.3-.3Z"/>
      <path class="cls-1" d="M220.8,174c.2,0,.3,0,.3-.3v-2.2c0-.2,0-.3-.3-.3h-8.8c-.2,0-.3,0-.3.3v14c0,.2,0,.3.3.3h8.8c.2,0,.3,0,.3-.3v-2.2c0-.2,0-.3-.3-.3h-6v-3.3h5.4c.2,0,.3,0,.3-.3v-2c0-.2,0-.3-.3-.3h-5.4v-3.1h6Z"/>
      <g>
        <path class="cls-1" d="M199.2,64.4l-10.2,19.6c1.6.7,3.1,1.5,4.6,2.3l10.2-19.5c.7-1.3.2-2.8-1.1-3.4s0,0,0,0c-1.2-.6-2.7,0-3.4,1.1h-.1Z"/>
        <path class="cls-1" d="M249.3,208.8l-22.5-12.7c-.8,1.5-1.7,3-2.6,4.4l22.5,12.7c1.2.7,2.8.3,3.5-.9s0,0,0,0c.7-1.2.3-2.8-1-3.5h.1Z"/>
        <path class="cls-1" d="M78.9,244.7h0c1.1.9,2.7.8,3.7-.3l20.1-24.8c-1.3-1.1-2.6-2.2-3.8-3.4l-20.2,25c-.8,1-.7,2.6.3,3.5h0Z"/>
        <path class="cls-1" d="M43.8,178.3l31.4-5.8c-.3-1.7-.6-3.4-.8-5.1l-31.6,5.9c-1.3.2-2.3,1.5-2,2.9s0,0,0,0c.2,1.4,1.6,2.4,3,2.1h0Z"/>
        <path class="cls-1" d="M157.8,44.8l-.8,31.9c1.7,0,3.4,0,5.1.3l.8-32c0-1.4-1-2.5-2.4-2.6s0,0,0,0c-1.4,0-2.6,1.1-2.6,2.5h-.1Z"/>
        <path class="cls-1" d="M55.1,102.3l28.8,16.4c.8-1.5,1.7-3,2.6-4.4l-28.8-16.4c-1.2-.7-2.8-.3-3.5.9s0,0,0,0c-.7,1.2-.3,2.8,1,3.5h0Z"/>
        <g>
          <path class="cls-1" d="M271.5,168.4l-35.3-3.9c-.1,1.7-.3,3.4-.6,5.1l35.3,3.9c1.4.2,2.7-.8,2.8-2.2s0,0,0,0c.2-1.4-.9-2.6-2.3-2.8h.1Z"/>
          <path class="cls-1" d="M186.6,232.6c-1.6.7-3.2,1.3-4.8,1.8l11.2,33.5c.5,1.4,2,2.1,3.3,1.6s0,0,0,0c1.3-.5,1.9-1.9,1.5-3.2l-11.3-33.7h.1Z"/>
          <path class="cls-1" d="M135,79.2c1.6-.4,3.3-.8,5-1.1l-8.1-34.5c-.3-1.4-1.7-2.2-3-1.9s0,0,0,0c-1.4.3-2.2,1.7-1.9,3.1l8.1,34.5h0Z"/>
          <path class="cls-1" d="M117.9,270.9h0c1.3.4,2.8-.3,3.2-1.7l10.7-33.7c-1.6-.5-3.3-1-4.9-1.6l-10.7,33.8c-.4,1.3.3,2.8,1.6,3.2h0Z"/>
          <path class="cls-1" d="M50.3,209.1l31.9-15.5c-.8-1.5-1.5-3.1-2.1-4.6l-32,15.5c-1.2.6-1.8,2.1-1.2,3.3s0,0,0,0c.6,1.3,2.1,1.8,3.4,1.2h0Z"/>
        </g>
        <path class="cls-1" d="M165,238.3c-1.7.2-3.4.4-5.1.5l3.1,37.3c.1,1.4,1.3,2.5,2.7,2.3s0,0,0,0c1.4-.1,2.4-1.4,2.3-2.8l-3.1-37.4h.1Z"/>
        <path class="cls-1" d="M245.2,77.9l-29.6,25.6c1.1,1.3,2.2,2.6,3.3,3.9l29.7-25.6c1.1-.9,1.2-2.5.3-3.6s0,0,0,0c-.9-1.1-2.5-1.2-3.6-.2h0Z"/>
        <path class="cls-1" d="M256.6,90.5l-34.2,21.7c1,1.4,1.9,2.8,2.7,4.3l34.2-21.7c1.2-.8,1.6-2.3.8-3.5s0,0,0,0c-.8-1.2-2.3-1.5-3.5-.8Z"/>
        <g>
          <path class="cls-1" d="M51.9,226.3l35.8-23c-1-1.4-1.9-2.9-2.7-4.3l-35.9,23.1c-1.2.8-1.5,2.3-.8,3.5s0,0,0,0c.8,1.2,2.3,1.5,3.5.7h.1Z"/>
          <path class="cls-1" d="M99.8,271.3h0c1.3.6,2.8,0,3.4-1.2l18.2-38.5c-1.6-.7-3.1-1.5-4.6-2.3l-18.2,38.5c-.6,1.3,0,2.8,1.2,3.4h0Z"/>
          <path class="cls-1" d="M31.8,145.8l42.4,4.6c.2-1.7.3-3.4.6-5.1l-42.4-4.6c-1.4-.1-2.6.8-2.8,2.2s0,0,0,0c-.2,1.4.9,2.7,2.3,2.8h0Z"/>
        </g>
        <g>
          <path class="cls-1" d="M38.2,112.5l41,16.3c.6-1.6,1.3-3.2,2-4.7l-41.1-16.4c-1.3-.5-2.8,0-3.3,1.4s0,0,0,0c-.5,1.3,0,2.8,1.4,3.3h0Z"/>
          <path class="cls-1" d="M35.8,196.3l42.2-13c-.5-1.6-1-3.2-1.5-4.9l-42.2,13c-1.3.4-2.1,1.8-1.7,3.1s0,0,0,0c.4,1.4,1.9,2.1,3.2,1.7h0Z"/>
        </g>
        <path class="cls-1" d="M196.4,227.7c-1.5.9-3,1.7-4.5,2.5l21.6,38.5c.7,1.2,2.2,1.7,3.5,1s0,0,0,0c1.2-.7,1.7-2.2,1-3.5l-21.6-38.4h0Z"/>
        <g>
          <path class="cls-1" d="M176.8,28.4l-8.9,49.2c1.7.3,3.4.6,5,1l8.9-49.3c.2-1.4-.7-2.7-2-3s0,0,0,0c-1.4-.2-2.7.7-2.9,2.1h-.1Z"/>
          <path class="cls-1" d="M114.6,87.5c1.5-.9,3-1.7,4.5-2.4l-24.1-43.9c-.7-1.2-2.2-1.7-3.4-1s0,0,0,0c-1.2.7-1.7,2.2-1,3.5l24.1,43.9h0Z"/>
        </g>
        <path class="cls-1" d="M273.4,100.5l-45.4,21.2c.8,1.5,1.5,3.1,2.2,4.6l45.4-21.2c1.3-.6,1.8-2.1,1.3-3.4s0,0,0,0c-.6-1.3-2.1-1.8-3.4-1.2h-.1Z"/>
        <g>
          <path class="cls-1" d="M227.7,45.9l-29,43.4c1.4.9,2.9,1.9,4.2,2.9l29-43.4c.8-1.2.5-2.7-.7-3.5s0,0,0,0c-1.2-.8-2.8-.5-3.5.7h0Z"/>
          <path class="cls-1" d="M145.9,77.2c1.7-.2,3.4-.3,5.1-.4l-4.7-52c-.1-1.4-1.3-2.4-2.7-2.3s0,0,0,0c-1.4.1-2.4,1.4-2.3,2.8l4.7,52h-.1Z"/>
        </g>
        <g>
          <path class="cls-1" d="M149.3,295.4h0c1.4,0,2.6-1.1,2.6-2.5l1.9-54.1c-1.7,0-3.4-.1-5.1-.2l-1.9,54.1c0,1.4,1,2.6,2.4,2.6h.1Z"/>
          <path class="cls-1" d="M281.7,206.2l-50.3-20.2c-.6,1.6-1.3,3.2-1.9,4.7l50.4,20.3c1.3.5,2.8,0,3.3-1.4s0,0,0,0c.5-1.3-.1-2.8-1.4-3.3h-.1Z"/>
          <path class="cls-1" d="M17.1,160.7h0c0,1.4,1.2,2.5,2.6,2.5l54.2-1.8v-5.1l-54.3,1.8c-1.4,0-2.5,1.2-2.5,2.6h0Z"/>
        </g>
        <g>
          <path class="cls-1" d="M254.4,254.4l-40.6-40.5-3.6,3.6,40.6,40.5c1,1,2.6,1,3.6,0s0,0,0,0c1-1,1-2.6,0-3.6Z"/>
          <path class="cls-1" d="M51,249.1l43.7-37.2c-1.1-1.3-2.2-2.6-3.3-3.9l-43.7,37.2c-1.1.9-1.2,2.5-.3,3.6s0,0,0,0c.9,1.1,2.5,1.2,3.6.3h0Z"/>
        </g>
        <g>
          <path class="cls-1" d="M124.5,82.6c1.6-.6,3.2-1.2,4.8-1.8l-22.7-57.4c-.5-1.3-2-2-3.3-1.5s0,0,0,0c-1.3.5-2,2-1.4,3.3l22.6,57.3h0Z"/>
          <path class="cls-1" d="M291.3,189.8l-56.9-14.1c-.4,1.7-.8,3.3-1.3,4.9l56.9,14.2c1.4.3,2.7-.5,3.1-1.8s0,0,0,0c.3-1.4-.5-2.7-1.9-3.1h0Z"/>
          <path class="cls-1" d="M77.6,277.7l34.1-51.4c-1.4-.9-2.9-1.9-4.2-2.9l-34.1,51.4c-.8,1.2-.5,2.7.7,3.5s0,0,0,0c1.2.8,2.8.4,3.5-.7h0Z"/>
          <path class="cls-1" d="M16.1,124.2l59.8,15.3c.4-1.7.8-3.3,1.3-4.9l-59.9-15.3c-1.4-.3-2.7.5-3.1,1.8s0,0,0,0c-.4,1.4.5,2.7,1.8,3.1h0Z"/>
        </g>
        <path class="cls-1" d="M41.1,71.7l48.8,37.7c1-1.4,2.1-2.7,3.2-4l-48.8-37.8c-1.1-.9-2.7-.7-3.6.4s0,0,0,0c-.9,1.1-.7,2.7.5,3.6h0Z"/>
        <g>
          <path class="cls-1" d="M254.4,47h0c-1.1-.9-2.7-.8-3.6.2l-43.1,48.6c1.3,1.1,2.6,2.2,3.8,3.4l43.2-48.6c.9-1,.8-2.7-.2-3.6h0Z"/>
          <path class="cls-1" d="M105.4,93.7c1.3-1,2.7-2.1,4.1-3l-38.9-52.1c-.8-1.1-2.4-1.4-3.5-.5s0,0,0,0c-1.1.8-1.4,2.4-.5,3.6l38.9,52h0Z"/>
          <path class="cls-1" d="M294.3,112.5l-62.1,19.4c.5,1.6,1,3.2,1.5,4.9l62.1-19.4c1.3-.4,2.1-1.8,1.7-3.2s0,0,0,0c-.4-1.3-1.9-2.1-3.2-1.7Z"/>
        </g>
        <path class="cls-1" d="M200.1,15.9l-21.4,64.2c1.6.5,3.3,1,4.9,1.6l21.4-64.2c.4-1.3-.3-2.8-1.6-3.2s0,0,0,0c-1.3-.5-2.8.3-3.2,1.6h0Z"/>
        <path class="cls-1" d="M176,236.2c-1.6.4-3.3.8-5,1.1l14,58.3c.3,1.4,1.7,2.2,3,1.9s0,0,0,0c1.4-.3,2.2-1.7,1.9-3.1l-14-58.3h.1Z"/>
        <path class="cls-1" d="M287.2,153.7h0c0-1.4-1.2-2.6-2.7-2.5l-48.2,2.3c0,1.4.1,2.9.1,4.3s0,.5,0,.8l48.3-2.3c1.4,0,2.4-1.2,2.4-2.6h.1Z"/>
        <path class="cls-1" d="M257.5,234.4l-36.5-29c-1,1.4-2,2.7-3.1,4l36.4,29c1.1.9,2.7.7,3.6-.4s0,0,0,0c.9-1.1.7-2.7-.4-3.6Z"/>
        <path class="cls-1" d="M137,255.4h0c1.4.3,2.7-.7,3-2.1l2.7-15.4c-1.7-.3-3.4-.6-5-.9l-2.7,15.4c-.2,1.4.7,2.7,2,3Z"/>
        <g>
          <path class="cls-1" d="M255.2,141.5h0c-.2-1.4-1.6-2.4-3-2.1l-17.2,3.2c.3,1.7.6,3.3.8,5l17.4-3.3c1.3-.3,2.3-1.5,2-2.9h0Z"/>
          <path class="cls-1" d="M84.3,89.1l12.8,11.9c1.2-1.2,2.4-2.4,3.7-3.5l-13-12.1c-1-.9-2.5-.9-3.5,0s0,0,0,0c-1,1-1,2.7,0,3.7Z"/>
        </g>
        <path class="cls-1" d="M205.7,221.4c-1.3,1.1-2.7,2.1-4.1,3.1l11.4,16.3c.8,1.2,2.4,1.4,3.6.6s0,0,0,0c1.1-.8,1.3-2.4.5-3.5l-11.5-16.4h.1Z"/>
      </g>
    </g>
  </g>
</svg>