<?xml version="1.0" encoding="UTF-8" standalone="no"?>
<!-- Created with Inkscape (http://www.inkscape.org/) -->

<svg
   version="1.1"
   id="svg1"
   width="1394.6667"
   height="580"
   viewBox="0 0 1394.6667 580"
   sodipodi:docname="banner.svg"
   xml:space="preserve"
   inkscape:version="1.3.2 (1:1.3.2+202311252150+091e20ef0f)"
   xmlns:inkscape="http://www.inkscape.org/namespaces/inkscape"
   xmlns:sodipodi="http://sodipodi.sourceforge.net/DTD/sodipodi-0.dtd"
   xmlns="http://www.w3.org/2000/svg"
   xmlns:svg="http://www.w3.org/2000/svg"><defs
     id="defs1"><clipPath
       clipPathUnits="userSpaceOnUse"
       id="clipPath917"><path
         d="m 78.662,50.341 h 57.263 v 57.263 H 78.662 Z"
         id="path915" /></clipPath><style
       id="style1">
      .cls-1 {
        fill: #1d1d1b;
      }
    </style></defs><sodipodi:namedview
     id="namedview1"
     pagecolor="#505050"
     bordercolor="#eeeeee"
     borderopacity="1"
     inkscape:showpageshadow="0"
     inkscape:pageopacity="0"
     inkscape:pagecheckerboard="0"
     inkscape:deskcolor="#d1d1d1"
     inkscape:zoom="0.35779157"
     inkscape:cx="697.33337"
     inkscape:cy="290.67203"
     inkscape:window-width="1360"
     inkscape:window-height="732"
     inkscape:window-x="0"
     inkscape:window-y="0"
     inkscape:window-maximized="1"
     inkscape:current-layer="g1" /><g
     inkscape:groupmode="layer"
     inkscape:label="Image"
     id="g1"><g
       id="g2"
       transform="matrix(1.0602959,0,0,1.0602959,-19.927521,-17.485813)"><g
         id="g913"
         clip-path="url(#clipPath917)"
         transform="matrix(6.6395513,0,0,-6.6395513,276.6935,814.25997)"><g
           id="g919"
           transform="translate(128.5018,52.4806)"><path
             d="m 0,0 c 0.006,0.08 0.01,0.165 0.01,0.254 0,0.761 -0.205,1.359 -0.614,1.794 -0.41,0.435 -0.982,0.653 -1.718,0.653 -0.3,0 -0.591,-0.059 -0.873,-0.178 C -3.476,2.405 -3.724,2.239 -3.938,2.024 -4.153,1.81 -4.324,1.549 -4.452,1.242 -4.58,0.936 -4.644,0.593 -4.644,0.216 c 0,-0.397 0.066,-0.752 0.197,-1.065 0.131,-0.314 0.309,-0.579 0.533,-0.796 0.224,-0.218 0.483,-0.383 0.777,-0.494 0.029,-0.011 0.06,-0.015 0.089,-0.025 h 1.688 c 0.216,0.077 0.409,0.175 0.573,0.298 0.179,0.134 0.331,0.293 0.456,0.475 0.125,0.182 0.216,0.376 0.273,0.58 l -1.064,0.317 c -0.077,-0.211 -0.2,-0.384 -0.37,-0.518 -0.169,-0.134 -0.405,-0.201 -0.705,-0.201 -0.16,0 -0.31,0.027 -0.451,0.081 -0.141,0.054 -0.264,0.129 -0.369,0.225 -0.106,0.096 -0.192,0.21 -0.259,0.341 -0.068,0.131 -0.104,0.273 -0.111,0.427 h 3.378 C -0.009,-0.126 -0.006,-0.08 0,0 m -1.247,0.734 h -2.111 c 0.006,0.109 0.034,0.217 0.082,0.326 0.048,0.109 0.116,0.208 0.206,0.298 0.089,0.089 0.198,0.163 0.326,0.22 0.128,0.058 0.275,0.087 0.441,0.087 0.18,0 0.335,-0.028 0.466,-0.082 0.131,-0.054 0.24,-0.124 0.326,-0.211 0.086,-0.086 0.15,-0.186 0.192,-0.297 0.041,-0.112 0.066,-0.226 0.072,-0.341 m -4.485,2.821 c 0.15,0.153 0.225,0.335 0.225,0.547 0,0.223 -0.075,0.412 -0.225,0.565 -0.151,0.154 -0.338,0.231 -0.562,0.231 -0.217,0 -0.403,-0.077 -0.556,-0.231 -0.154,-0.153 -0.23,-0.342 -0.23,-0.565 0,-0.212 0.076,-0.394 0.23,-0.547 0.153,-0.154 0.339,-0.231 0.556,-0.231 0.224,0 0.411,0.077 0.562,0.231 m -2.48,-2.226 c 0.128,0 0.255,-0.013 0.383,-0.038 V 2.576 C -7.88,2.582 -7.929,2.587 -7.977,2.59 -8.025,2.593 -8.075,2.595 -8.126,2.595 -8.228,2.595 -8.342,2.586 -8.467,2.567 -8.591,2.547 -8.716,2.512 -8.841,2.461 -8.965,2.41 -9.084,2.335 -9.196,2.236 -9.308,2.136 -9.399,2.01 -9.469,1.856 v 0.701 h -1.238 v -4.72 h 1.276 v 2.158 c 0,0.256 0.034,0.469 0.101,0.638 0.067,0.17 0.155,0.306 0.264,0.408 0.108,0.102 0.236,0.176 0.384,0.221 0.147,0.044 0.303,0.067 0.47,0.067 m 1.285,-3.492 h 1.276 v 4.72 h -1.276 z m -4.948,-0.001 c 0.061,0.016 0.115,0.032 0.151,0.049 v 1.055 c -0.032,-0.013 -0.086,-0.022 -0.163,-0.029 -0.076,-0.006 -0.153,-0.009 -0.23,-0.009 -0.185,0 -0.325,0.039 -0.417,0.12 -0.093,0.079 -0.139,0.222 -0.139,0.427 v 1.976 h 0.949 v 1.132 h -0.949 v 1.41 h -1.152 V 3.305 c 0,-0.211 -0.059,-0.388 -0.177,-0.532 -0.119,-0.144 -0.302,-0.216 -0.552,-0.216 h -0.24 V 1.425 h 0.854 v -2.197 c 0,-0.461 0.135,-0.819 0.403,-1.075 0.162,-0.154 0.364,-0.256 0.595,-0.317 z m -5.783,3.147 c -0.08,0.071 -0.119,0.163 -0.119,0.279 0,0.134 0.059,0.246 0.177,0.336 0.118,0.089 0.261,0.134 0.427,0.134 0.134,0 0.248,-0.019 0.341,-0.058 0.092,-0.038 0.171,-0.09 0.235,-0.153 0.063,-0.064 0.11,-0.133 0.139,-0.207 0.029,-0.073 0.049,-0.145 0.062,-0.215 l 1.065,0.239 c -0.013,0.128 -0.054,0.271 -0.125,0.427 -0.07,0.157 -0.177,0.306 -0.321,0.446 -0.144,0.141 -0.331,0.258 -0.561,0.351 -0.231,0.092 -0.512,0.139 -0.845,0.139 -0.256,0 -0.491,-0.042 -0.705,-0.125 -0.214,-0.083 -0.4,-0.194 -0.556,-0.331 -0.157,-0.138 -0.28,-0.301 -0.37,-0.489 -0.089,-0.189 -0.134,-0.389 -0.134,-0.6 0,-0.332 0.106,-0.625 0.317,-0.878 0.211,-0.252 0.547,-0.43 1.007,-0.532 L -17,-0.398 c 0.185,-0.038 0.316,-0.098 0.393,-0.177 0.077,-0.081 0.115,-0.175 0.115,-0.284 0,-0.127 -0.051,-0.238 -0.153,-0.331 -0.103,-0.092 -0.259,-0.139 -0.47,-0.139 -0.282,0 -0.493,0.074 -0.634,0.221 -0.14,0.147 -0.217,0.313 -0.23,0.499 l -1.094,-0.24 c 0.013,-0.134 0.056,-0.286 0.13,-0.456 0.073,-0.169 0.187,-0.328 0.34,-0.475 0.154,-0.147 0.352,-0.271 0.595,-0.374 0.011,-0.004 0.026,-0.006 0.038,-0.01 h 1.688 c 0.221,0.088 0.408,0.203 0.558,0.346 0.153,0.147 0.267,0.313 0.34,0.499 0.074,0.185 0.111,0.374 0.111,0.566 0,0.345 -0.117,0.649 -0.351,0.911 -0.233,0.263 -0.583,0.442 -1.05,0.538 l -0.672,0.144 c -0.128,0.025 -0.232,0.073 -0.312,0.143 m -3.545,-3.146 h 1.219 c -0.013,0.083 -0.024,0.199 -0.034,0.35 -0.009,0.15 -0.014,0.318 -0.014,0.504 v 3.866 h -1.276 v -2.744 c 0,-0.275 -0.077,-0.499 -0.23,-0.672 -0.154,-0.172 -0.374,-0.259 -0.662,-0.259 -0.301,0 -0.52,0.091 -0.658,0.274 -0.137,0.182 -0.206,0.408 -0.206,0.676 v 2.725 h -1.276 v -2.984 c 0,-0.256 0.04,-0.497 0.12,-0.724 0.08,-0.227 0.197,-0.424 0.35,-0.59 0.154,-0.167 0.341,-0.299 0.562,-0.398 0.024,-0.011 0.054,-0.015 0.079,-0.025 h 1.344 c 0.028,0.01 0.055,0.014 0.083,0.025 0.246,0.099 0.433,0.26 0.561,0.484 0,-0.096 0.003,-0.192 0.01,-0.288 0.006,-0.096 0.016,-0.169 0.028,-0.22 m -5.631,0 h 1.218 c -0.013,0.096 -0.022,0.222 -0.029,0.379 -0.006,0.156 -0.009,0.314 -0.009,0.475 v 6.092 h -1.257 V 2.087 c -0.032,0.064 -0.082,0.129 -0.149,0.196 -0.067,0.068 -0.155,0.13 -0.264,0.188 -0.108,0.057 -0.238,0.105 -0.388,0.143 -0.15,0.039 -0.328,0.058 -0.533,0.058 -0.332,0 -0.638,-0.064 -0.916,-0.192 -0.278,-0.128 -0.516,-0.302 -0.715,-0.523 -0.198,-0.22 -0.353,-0.481 -0.465,-0.782 -0.112,-0.3 -0.168,-0.623 -0.168,-0.969 0,-0.358 0.058,-0.689 0.173,-0.992 0.115,-0.305 0.273,-0.567 0.475,-0.787 0.201,-0.221 0.443,-0.394 0.724,-0.518 0.073,-0.033 0.154,-0.049 0.231,-0.073 h 1.317 c 0.069,0.025 0.142,0.043 0.203,0.078 0.227,0.127 0.395,0.284 0.504,0.47 0,-0.109 0.005,-0.215 0.014,-0.317 0.01,-0.103 0.021,-0.179 0.034,-0.23 m -0.058,2.379 c 0,-0.429 -0.112,-0.761 -0.336,-0.998 -0.224,-0.236 -0.498,-0.355 -0.825,-0.355 -0.339,0 -0.618,0.119 -0.839,0.355 -0.221,0.237 -0.331,0.566 -0.331,0.988 0,0.423 0.113,0.749 0.34,0.979 0.227,0.23 0.504,0.345 0.83,0.345 0.327,0 0.601,-0.113 0.825,-0.34 0.224,-0.227 0.336,-0.552 0.336,-0.974 m -5.833,-2.379 h 1.276 v 2.974 c 0,0.256 -0.034,0.499 -0.101,0.729 -0.067,0.23 -0.171,0.428 -0.312,0.595 -0.14,0.166 -0.318,0.299 -0.532,0.398 -0.214,0.099 -0.469,0.149 -0.763,0.149 -0.256,0 -0.51,-0.058 -0.762,-0.173 -0.253,-0.115 -0.453,-0.294 -0.6,-0.537 v 0.585 h -1.238 v -4.72 h 1.276 v 2.715 c 0,0.275 0.077,0.507 0.231,0.695 0.153,0.189 0.37,0.283 0.652,0.283 0.307,0 0.529,-0.089 0.667,-0.268 0.137,-0.18 0.206,-0.403 0.206,-0.672 z m -4.476,5.718 c 0.151,0.153 0.226,0.335 0.226,0.547 0,0.223 -0.075,0.412 -0.226,0.565 -0.15,0.154 -0.337,0.231 -0.561,0.231 -0.217,0 -0.403,-0.077 -0.556,-0.231 -0.154,-0.153 -0.231,-0.342 -0.231,-0.565 0,-0.212 0.077,-0.394 0.231,-0.547 0.153,-0.154 0.339,-0.231 0.556,-0.231 0.224,0 0.411,0.077 0.561,0.231 m -1.194,-5.718 h 1.276 v 4.72 h -1.276 z m -3.507,-0.001 c 0.061,0.016 0.115,0.032 0.152,0.049 v 1.055 c -0.032,-0.013 -0.087,-0.022 -0.164,-0.029 -0.076,-0.006 -0.153,-0.009 -0.23,-0.009 -0.185,0 -0.324,0.039 -0.417,0.12 -0.093,0.079 -0.139,0.222 -0.139,0.427 v 1.976 h 0.95 v 1.132 h -0.95 v 1.41 h -1.152 V 3.305 c 0,-0.211 -0.059,-0.388 -0.177,-0.532 -0.118,-0.144 -0.302,-0.216 -0.552,-0.216 h -0.24 V 1.425 h 0.854 v -2.197 c 0,-0.461 0.135,-0.819 0.403,-1.075 0.162,-0.154 0.364,-0.256 0.595,-0.317 z M -45.291,0 c 0.007,0.08 0.01,0.165 0.01,0.254 0,0.761 -0.205,1.359 -0.614,1.794 -0.409,0.435 -0.982,0.653 -1.717,0.653 -0.301,0 -0.592,-0.059 -0.873,-0.178 -0.282,-0.118 -0.53,-0.284 -0.744,-0.499 C -49.443,1.81 -49.614,1.549 -49.742,1.242 -49.77,1.176 -49.783,1.101 -49.805,1.03 v -1.649 c 0.023,-0.077 0.038,-0.158 0.068,-0.23 0.131,-0.314 0.308,-0.579 0.532,-0.796 0.224,-0.218 0.483,-0.383 0.777,-0.494 0.029,-0.011 0.06,-0.015 0.09,-0.025 h 1.688 c 0.215,0.077 0.408,0.175 0.573,0.298 0.179,0.134 0.331,0.293 0.455,0.475 0.125,0.182 0.216,0.376 0.274,0.58 l -1.065,0.317 c -0.077,-0.211 -0.2,-0.384 -0.369,-0.518 -0.17,-0.134 -0.405,-0.201 -0.706,-0.201 -0.16,0 -0.31,0.027 -0.451,0.081 -0.14,0.054 -0.263,0.129 -0.369,0.225 -0.105,0.096 -0.192,0.21 -0.259,0.341 -0.067,0.131 -0.104,0.273 -0.11,0.427 h 3.377 c 0,0.013 0.003,0.059 0.009,0.139 m -1.247,0.734 h -2.11 c 0.006,0.109 0.033,0.217 0.081,0.326 0.048,0.109 0.117,0.208 0.206,0.298 0.09,0.089 0.198,0.163 0.327,0.22 0.127,0.058 0.274,0.087 0.441,0.087 0.179,0 0.334,-0.028 0.465,-0.082 0.131,-0.054 0.24,-0.124 0.326,-0.211 0.087,-0.086 0.151,-0.186 0.192,-0.297 0.042,-0.112 0.066,-0.226 0.072,-0.341"
             style="fill:#000000;fill-opacity:1;fill-rule:nonzero;stroke:none"
             id="path921" /></g><g
           id="g923"
           transform="translate(115.0055,61.5253)"><path
             d="M 0,0 1.065,0.24 C 1.052,0.368 1.01,0.51 0.94,0.667 0.87,0.823 0.763,0.972 0.618,1.113 0.475,1.253 0.288,1.37 0.058,1.463 -0.173,1.555 -0.455,1.602 -0.787,1.602 -1.043,1.602 -1.278,1.561 -1.492,1.477 -1.706,1.394 -1.892,1.284 -2.048,1.146 -2.205,1.009 -2.329,0.846 -2.418,0.657 -2.508,0.468 -2.552,0.268 -2.552,0.058 c 0,-0.333 0.105,-0.626 0.316,-0.879 0.212,-0.252 0.547,-0.43 1.008,-0.532 l 0.623,-0.144 c 0.186,-0.038 0.317,-0.098 0.394,-0.177 0.077,-0.08 0.115,-0.175 0.115,-0.283 0,-0.128 -0.051,-0.239 -0.153,-0.331 -0.103,-0.093 -0.26,-0.14 -0.471,-0.14 -0.281,0 -0.492,0.074 -0.633,0.221 -0.141,0.147 -0.217,0.313 -0.23,0.499 l -1.094,-0.24 c 0.013,-0.134 0.056,-0.286 0.13,-0.455 0.073,-0.17 0.187,-0.328 0.34,-0.475 0.154,-0.147 0.352,-0.272 0.595,-0.374 0.243,-0.103 0.544,-0.154 0.902,-0.154 0.307,0 0.576,0.045 0.806,0.134 0.23,0.09 0.422,0.208 0.575,0.355 0.154,0.147 0.267,0.313 0.341,0.499 0.073,0.186 0.111,0.374 0.111,0.566 0,0.346 -0.117,0.649 -0.351,0.912 -0.233,0.262 -0.583,0.441 -1.05,0.537 l -0.672,0.144 c -0.128,0.025 -0.232,0.073 -0.312,0.144 -0.08,0.07 -0.12,0.163 -0.12,0.278 0,0.134 0.06,0.246 0.178,0.336 0.118,0.089 0.26,0.134 0.427,0.134 0.134,0 0.247,-0.019 0.34,-0.058 C -0.344,0.537 -0.266,0.486 -0.202,0.422 -0.138,0.358 -0.091,0.289 -0.063,0.216 -0.034,0.142 -0.013,0.07 0,0 m -3.291,-1.099 c 0.006,0.08 0.01,0.165 0.01,0.255 0,0.76 -0.205,1.359 -0.614,1.794 -0.41,0.434 -0.982,0.652 -1.718,0.652 -0.3,0 -0.591,-0.059 -0.873,-0.178 C -6.767,1.306 -7.015,1.14 -7.229,0.926 -7.444,0.711 -7.615,0.451 -7.743,0.144 c -0.128,-0.307 -0.191,-0.649 -0.191,-1.027 0,-0.396 0.065,-0.751 0.196,-1.065 0.131,-0.313 0.309,-0.579 0.533,-0.796 0.224,-0.218 0.483,-0.382 0.777,-0.494 0.294,-0.112 0.604,-0.168 0.931,-0.168 0.287,0 0.551,0.04 0.791,0.12 0.24,0.08 0.449,0.187 0.628,0.321 0.179,0.134 0.331,0.293 0.456,0.475 0.125,0.182 0.216,0.376 0.274,0.581 l -1.065,0.316 c -0.077,-0.211 -0.2,-0.384 -0.37,-0.518 -0.169,-0.134 -0.404,-0.201 -0.705,-0.201 -0.16,0 -0.31,0.027 -0.451,0.081 -0.141,0.055 -0.264,0.13 -0.369,0.226 -0.106,0.096 -0.192,0.209 -0.259,0.34 -0.067,0.131 -0.104,0.274 -0.111,0.427 H -3.3 c 0,0.013 0.003,0.059 0.009,0.139 m -1.247,0.734 h -2.111 c 0.006,0.109 0.034,0.218 0.082,0.327 0.048,0.108 0.116,0.207 0.206,0.297 0.09,0.089 0.198,0.163 0.326,0.22 0.128,0.058 0.275,0.087 0.442,0.087 0.178,0 0.334,-0.027 0.465,-0.082 0.131,-0.054 0.24,-0.124 0.326,-0.211 0.086,-0.086 0.15,-0.185 0.192,-0.297 0.041,-0.112 0.065,-0.225 0.072,-0.341 m -7.253,-1.103 c -0.064,0.166 -0.096,0.355 -0.096,0.566 0,0.211 0.032,0.4 0.096,0.566 0.064,0.166 0.15,0.305 0.259,0.417 0.108,0.112 0.235,0.197 0.379,0.255 0.144,0.057 0.299,0.086 0.465,0.086 0.313,0 0.552,-0.083 0.715,-0.25 0.163,-0.166 0.273,-0.348 0.331,-0.546 L -8.5,0.009 c -0.052,0.199 -0.135,0.394 -0.25,0.586 -0.115,0.191 -0.265,0.361 -0.451,0.508 -0.185,0.147 -0.404,0.267 -0.657,0.36 -0.253,0.092 -0.539,0.139 -0.859,0.139 -0.345,0 -0.666,-0.062 -0.964,-0.187 -0.297,-0.125 -0.556,-0.298 -0.777,-0.518 -0.221,-0.221 -0.393,-0.485 -0.518,-0.792 -0.125,-0.307 -0.187,-0.642 -0.187,-1.007 0,-0.365 0.064,-0.699 0.192,-1.003 0.128,-0.303 0.303,-0.567 0.527,-0.791 0.224,-0.224 0.488,-0.398 0.792,-0.523 0.304,-0.125 0.628,-0.187 0.974,-0.187 0.313,0 0.595,0.047 0.844,0.139 0.249,0.093 0.467,0.214 0.652,0.365 0.186,0.15 0.338,0.319 0.456,0.508 0.118,0.189 0.203,0.382 0.254,0.581 l -1.122,0.374 C -9.62,-1.529 -9.66,-1.621 -9.714,-1.717 -9.769,-1.813 -9.84,-1.9 -9.93,-1.977 c -0.09,-0.076 -0.197,-0.139 -0.321,-0.187 -0.125,-0.048 -0.268,-0.072 -0.427,-0.072 -0.167,0 -0.322,0.029 -0.466,0.087 -0.144,0.058 -0.272,0.144 -0.383,0.259 -0.112,0.115 -0.2,0.256 -0.264,0.422 m -3.588,-1.794 h 1.276 v 2.974 c 0,0.256 -0.034,0.499 -0.101,0.729 -0.067,0.23 -0.171,0.429 -0.312,0.595 -0.141,0.166 -0.318,0.299 -0.532,0.398 -0.215,0.099 -0.469,0.149 -0.763,0.149 -0.256,0 -0.51,-0.058 -0.763,-0.173 -0.253,-0.115 -0.452,-0.294 -0.599,-0.537 v 0.585 h -1.238 v -4.72 h 1.276 v 2.715 c 0,0.275 0.077,0.507 0.23,0.695 0.154,0.189 0.371,0.284 0.653,0.284 0.307,0 0.529,-0.09 0.666,-0.269 0.138,-0.179 0.207,-0.403 0.207,-0.672 z m -4.049,2.163 c 0.006,0.08 0.01,0.165 0.01,0.255 0,0.76 -0.205,1.359 -0.614,1.794 -0.41,0.434 -0.982,0.652 -1.718,0.652 -0.301,0 -0.592,-0.059 -0.873,-0.178 -0.281,-0.118 -0.529,-0.284 -0.743,-0.498 -0.215,-0.215 -0.386,-0.475 -0.514,-0.782 -0.128,-0.307 -0.192,-0.649 -0.192,-1.027 0,-0.396 0.066,-0.751 0.197,-1.065 0.131,-0.313 0.309,-0.579 0.533,-0.796 0.223,-0.218 0.482,-0.382 0.777,-0.494 0.294,-0.112 0.604,-0.168 0.93,-0.168 0.288,0 0.552,0.04 0.792,0.12 0.24,0.08 0.449,0.187 0.628,0.321 0.179,0.134 0.331,0.293 0.456,0.475 0.125,0.182 0.216,0.376 0.273,0.581 l -1.065,0.316 c -0.076,-0.211 -0.2,-0.384 -0.369,-0.518 -0.17,-0.134 -0.405,-0.201 -0.705,-0.201 -0.16,0 -0.31,0.027 -0.451,0.081 -0.141,0.055 -0.264,0.13 -0.369,0.226 -0.106,0.096 -0.192,0.209 -0.259,0.34 -0.068,0.131 -0.105,0.274 -0.111,0.427 h 3.377 c 0,0.013 0.003,0.059 0.01,0.139 m -1.247,0.734 h -2.111 c 0.006,0.109 0.034,0.218 0.082,0.327 0.048,0.108 0.116,0.207 0.206,0.297 0.089,0.089 0.198,0.163 0.326,0.22 0.128,0.058 0.275,0.087 0.441,0.087 0.179,0 0.334,-0.027 0.466,-0.082 0.131,-0.054 0.24,-0.124 0.326,-0.211 0.086,-0.086 0.15,-0.185 0.192,-0.297 0.041,-0.112 0.065,-0.225 0.072,-0.341 m -4.485,2.821 c 0.15,0.153 0.225,0.336 0.225,0.547 0,0.223 -0.075,0.412 -0.225,0.566 -0.151,0.153 -0.338,0.23 -0.562,0.23 -0.217,0 -0.403,-0.077 -0.556,-0.23 -0.154,-0.154 -0.23,-0.343 -0.23,-0.566 0,-0.211 0.076,-0.394 0.23,-0.547 0.153,-0.154 0.339,-0.231 0.556,-0.231 0.224,0 0.411,0.077 0.562,0.231 m -5.455,-3.924 c -0.064,0.166 -0.096,0.355 -0.096,0.566 0,0.211 0.032,0.4 0.096,0.566 0.064,0.166 0.151,0.305 0.259,0.417 0.109,0.112 0.235,0.197 0.379,0.255 0.144,0.057 0.299,0.086 0.466,0.086 0.313,0 0.551,-0.083 0.714,-0.25 0.164,-0.166 0.274,-0.348 0.331,-0.546 l 1.142,0.383 c -0.051,0.199 -0.134,0.394 -0.249,0.586 -0.115,0.191 -0.266,0.361 -0.451,0.508 -0.186,0.147 -0.405,0.267 -0.657,0.36 -0.253,0.092 -0.539,0.139 -0.859,0.139 -0.345,0 -0.667,-0.062 -0.964,-0.187 -0.298,-0.125 -0.557,-0.298 -0.777,-0.518 -0.221,-0.221 -0.394,-0.485 -0.519,-0.792 -0.124,-0.307 -0.187,-0.642 -0.187,-1.007 0,-0.365 0.064,-0.699 0.192,-1.003 0.128,-0.303 0.304,-0.567 0.528,-0.791 0.224,-0.224 0.488,-0.398 0.791,-0.523 0.304,-0.125 0.629,-0.187 0.974,-0.187 0.314,0 0.595,0.047 0.845,0.139 0.249,0.093 0.466,0.214 0.652,0.365 0.185,0.15 0.337,0.319 0.456,0.508 0.118,0.189 0.203,0.382 0.254,0.581 l -1.123,0.374 c -0.025,-0.09 -0.065,-0.182 -0.119,-0.278 -0.055,-0.096 -0.127,-0.183 -0.216,-0.26 -0.09,-0.076 -0.197,-0.139 -0.322,-0.187 -0.125,-0.048 -0.267,-0.072 -0.427,-0.072 -0.166,0 -0.321,0.029 -0.465,0.087 -0.144,0.058 -0.272,0.144 -0.384,0.259 -0.112,0.115 -0.2,0.256 -0.264,0.422 m -4.408,1.353 c -0.08,0.07 -0.12,0.163 -0.12,0.278 0,0.134 0.059,0.246 0.177,0.336 0.119,0.089 0.261,0.134 0.427,0.134 0.135,0 0.248,-0.019 0.341,-0.058 0.093,-0.038 0.171,-0.089 0.235,-0.153 0.064,-0.064 0.11,-0.133 0.139,-0.206 0.029,-0.074 0.05,-0.146 0.062,-0.216 l 1.065,0.24 c -0.012,0.128 -0.054,0.27 -0.124,0.427 -0.071,0.156 -0.178,0.305 -0.322,0.446 -0.144,0.14 -0.331,0.257 -0.561,0.35 -0.23,0.092 -0.512,0.139 -0.844,0.139 -0.256,0 -0.491,-0.041 -0.705,-0.125 -0.215,-0.083 -0.4,-0.193 -0.557,-0.331 -0.157,-0.137 -0.28,-0.3 -0.369,-0.489 -0.083,-0.175 -0.124,-0.36 -0.13,-0.554 V 0.028 c 0.007,-0.32 0.108,-0.604 0.312,-0.849 0.211,-0.252 0.547,-0.43 1.007,-0.532 l 0.624,-0.144 c 0.186,-0.038 0.317,-0.098 0.393,-0.177 0.077,-0.08 0.116,-0.175 0.116,-0.283 0,-0.128 -0.052,-0.239 -0.154,-0.331 -0.102,-0.093 -0.259,-0.14 -0.47,-0.14 -0.282,0 -0.493,0.074 -0.633,0.221 -0.141,0.147 -0.218,0.313 -0.23,0.499 l -0.965,-0.211 v -0.485 c 0.074,-0.169 0.187,-0.328 0.341,-0.474 0.153,-0.147 0.352,-0.272 0.595,-0.374 0.243,-0.103 0.543,-0.154 0.902,-0.154 0.307,0 0.575,0.045 0.805,0.134 0.231,0.09 0.423,0.208 0.576,0.355 0.154,0.147 0.267,0.313 0.341,0.499 0.073,0.186 0.11,0.374 0.11,0.566 0,0.346 -0.117,0.649 -0.35,0.912 -0.234,0.262 -0.584,0.441 -1.051,0.537 l -0.671,0.144 c -0.128,0.025 -0.232,0.073 -0.312,0.144 m 9.944,1.573 h -1.276 v -4.72 h 1.276 z"
             style="fill:#000000;fill-opacity:1;fill-rule:nonzero;stroke:none"
             id="path925" /></g><g
           id="g927"
           transform="translate(92.8812,95.9422)"><path
             d="M 0,0 C -0.159,0.615 -0.417,1.221 -0.774,1.817 -1.132,2.413 -1.599,2.938 -2.174,3.395 -2.75,3.852 -3.43,4.224 -4.215,4.512 -4.999,4.8 -5.888,4.944 -6.88,4.944 -7.953,4.944 -8.95,4.751 -9.874,4.363 -10.797,3.976 -11.601,3.44 -12.286,2.755 -12.971,2.07 -13.507,1.251 -13.895,0.298 -14.01,0.013 -14.103,-0.283 -14.184,-0.584 v -4.454 c 0.084,-0.309 0.182,-0.613 0.304,-0.904 0.397,-0.943 0.943,-1.762 1.638,-2.457 0.695,-0.695 1.514,-1.236 2.458,-1.623 0.943,-0.388 1.951,-0.581 3.023,-0.581 0.973,0 1.846,0.144 2.621,0.432 0.774,0.287 1.449,0.665 2.025,1.132 0.576,0.466 1.047,0.992 1.415,1.578 0.367,0.586 0.63,1.186 0.789,1.802 l -3.485,1.162 c -0.079,-0.279 -0.203,-0.566 -0.372,-0.864 -0.169,-0.298 -0.392,-0.566 -0.67,-0.804 -0.278,-0.239 -0.611,-0.432 -0.998,-0.581 -0.387,-0.149 -0.829,-0.223 -1.325,-0.223 -0.517,0 -0.998,0.089 -1.445,0.268 -0.447,0.178 -0.844,0.446 -1.191,0.804 -0.348,0.357 -0.621,0.794 -0.819,1.31 -0.199,0.516 -0.298,1.102 -0.298,1.758 0,0.655 0.099,1.24 0.298,1.757 0.198,0.516 0.466,0.948 0.804,1.295 0.337,0.348 0.73,0.611 1.177,0.79 0.446,0.178 0.927,0.268 1.444,0.268 0.973,0 1.713,-0.259 2.219,-0.775 0.506,-0.516 0.849,-1.082 1.028,-1.697 z M 3.246,11.05 C 2.77,10.573 2.531,9.988 2.531,9.293 2.531,8.637 2.77,8.072 3.246,7.595 3.723,7.118 4.298,6.88 4.974,6.88 c 0.694,0 1.275,0.238 1.742,0.715 0.466,0.477 0.7,1.042 0.7,1.698 0,0.695 -0.234,1.28 -0.7,1.757 -0.277,0.283 -0.599,0.471 -0.956,0.586 H 4.204 C 3.851,11.521 3.529,11.333 3.246,11.05 M 6.969,4.497 H 3.008 v -14.654 h 3.961 z m 3.276,0 H 9.501 V 0.983 h 2.651 v -6.821 c 0,-1.429 0.417,-2.542 1.25,-3.335 0.835,-0.795 1.966,-1.192 3.396,-1.192 0.576,0 1.047,0.04 1.415,0.119 0.367,0.08 0.64,0.159 0.819,0.239 v 3.276 c -0.1,-0.04 -0.268,-0.07 -0.506,-0.09 -0.239,-0.02 -0.477,-0.029 -0.715,-0.029 -0.576,0 -1.008,0.123 -1.296,0.372 -0.288,0.248 -0.432,0.69 -0.432,1.325 v 6.136 h 2.949 V 4.497 H 16.083 V 8.876 H 12.509 V 6.821 C 12.509,6.165 12.325,5.614 11.958,5.168 11.59,4.721 11.02,4.497 10.245,4.497 m 11.497,-4.08 c -0.398,-0.953 -0.596,-2.016 -0.596,-3.187 0,-1.231 0.204,-2.333 0.611,-3.306 0.407,-0.973 0.957,-1.797 1.653,-2.472 0.695,-0.675 1.499,-1.187 2.412,-1.534 0.914,-0.347 1.877,-0.521 2.89,-0.521 0.893,0 1.712,0.124 2.457,0.372 0.744,0.248 1.395,0.581 1.951,0.998 0.555,0.417 1.027,0.908 1.414,1.474 0.388,0.566 0.67,1.167 0.849,1.802 l -3.306,0.983 c -0.238,-0.655 -0.62,-1.191 -1.147,-1.608 -0.526,-0.417 -1.256,-0.626 -2.189,-0.626 -0.496,0 -0.963,0.084 -1.4,0.253 -0.436,0.169 -0.819,0.403 -1.146,0.7 -0.328,0.298 -0.596,0.651 -0.805,1.058 -0.208,0.406 -0.322,0.849 -0.342,1.325 h 10.484 c 0,0.04 0.01,0.183 0.03,0.432 0.02,0.248 0.03,0.511 0.03,0.789 0,2.363 -0.636,4.219 -1.907,5.57 -1.271,1.35 -3.048,2.025 -5.331,2.025 -0.933,0 -1.837,-0.184 -2.71,-0.551 C 24.77,4.026 24,3.509 23.335,2.844 22.67,2.179 22.139,1.37 21.742,0.417 m 3.395,-1.579 c 0.02,0.338 0.105,0.675 0.253,1.013 0.149,0.338 0.363,0.645 0.641,0.923 0.278,0.278 0.615,0.507 1.013,0.685 0.397,0.179 0.853,0.269 1.37,0.269 0.555,0 1.037,-0.085 1.444,-0.254 0.407,-0.169 0.745,-0.387 1.013,-0.655 0.268,-0.268 0.466,-0.576 0.596,-0.923 0.129,-0.348 0.203,-0.7 0.223,-1.058 z"
             style="fill:#000000;fill-opacity:1;fill-rule:nonzero;stroke:none"
             id="path929" /></g><g
           id="g931"
           transform="translate(126.5242,107.5793)"><path
             d="m 0,0 h -4.527 l -2.711,-4.468 h 3.187 z"
             style="fill:#000000;fill-opacity:1;fill-rule:nonzero;stroke:none"
             id="path933" /></g></g><g
         id="TYPO"
         transform="matrix(1.2717821,0,0,1.2717821,205.15736,91.802351)"><path
           class="cls-1"
           d="m 113.7,131.8 c -2.3,-2.1 -6.1,-3.2 -11.2,-3.2 H 91.3 c -0.5,0 -0.7,0.2 -0.7,0.7 v 35.5 c 0,0.5 0.2,0.7 0.7,0.7 h 6.6 c 0.5,0 0.7,-0.2 0.7,-0.7 v -11.5 h 3.9 c 4.9,0 8.5,-1.1 11,-3.2 2.4,-2.1 3.6,-5.2 3.6,-9.1 0,-3.9 -1.2,-7.1 -3.5,-9.2 v 0 z m -6.2,13.4 c -1.1,0.8 -2.8,1.3 -5,1.3 h -3.8 v -11 h 3.8 c 2.3,0 3.9,0.4 5,1.3 1.1,0.9 1.6,2.3 1.6,4.3 0,2 -0.6,3.3 -1.7,4.1 v 0 z"
           id="path1" /><path
           class="cls-1"
           d="m 122.7,139.2 c -2,1.5 -2.8,3.6 -2.6,6.3 0,0.6 0.3,0.9 0.8,0.9 h 5.9 c 0.5,0 0.8,-0.2 0.7,-0.7 0,-1.9 1.1,-2.9 3.7,-2.9 2.6,0 2.4,0.3 2.9,0.9 0.5,0.6 0.8,1.6 0.8,3 v 2.2 l -4.4,0.4 c -2.9,0.2 -5.1,0.7 -6.9,1.4 -1.7,0.7 -2.9,1.7 -3.7,2.9 -0.7,1.2 -1.1,2.8 -1.1,4.8 0,2 0.6,4.5 1.9,5.8 1.2,1.4 3,2.1 5.2,2.1 2.2,0 2.7,-0.2 3.9,-0.7 1.1,-0.5 2.2,-1.1 3.3,-2 0.8,-0.7 1.6,-1.4 2.4,-2.2 0,0.5 0.1,1.1 0.2,1.6 0.1,0.8 0.2,1.5 0.3,1.9 0,0.2 0.2,0.4 0.3,0.5 0.1,0.1 0.3,0.2 0.5,0.2 h 5.5 c 0.6,0 0.8,-0.3 0.7,-0.8 -0.1,-1 -0.2,-2 -0.3,-3 V 147 c 0,-3.5 -0.9,-6 -2.7,-7.6 -1.8,-1.6 -4.7,-2.4 -8.6,-2.4 -3.9,0 -6.8,0.7 -8.8,2.2 z m 12.2,17.8 c -1.1,1.1 -2,1.8 -2.8,2.3 -1.1,0.6 -2.1,1 -3.2,1 -1.1,0 -1.4,-0.2 -1.9,-0.7 -0.4,-0.5 -0.6,-1.2 -0.6,-2.2 0,-1 0.4,-2.2 1.1,-2.8 0.7,-0.6 2.1,-1 4,-1.2 l 3.4,-0.3 v 3.8 0 z"
           id="path2" /><rect
           class="cls-1"
           x="147.39999"
           y="127.1"
           width="7.8000002"
           height="38.5"
           rx="0.69999999"
           ry="0.69999999"
           id="rect2" /><path
           class="cls-1"
           d="m 166.2,166.2 c 1.4,0 2.7,-0.2 3.9,-0.7 1.1,-0.5 2.2,-1.1 3.3,-2 0.8,-0.7 1.6,-1.4 2.4,-2.2 0,0.5 0.1,1.1 0.2,1.6 0.1,0.8 0.2,1.5 0.3,1.9 0,0.2 0.2,0.4 0.3,0.5 0.1,0.1 0.3,0.2 0.5,0.2 h 5.5 c 0.6,0 0.8,-0.3 0.7,-0.8 -0.1,-1 -0.2,-2 -0.3,-3 v -14.8 c 0,-3.5 -0.9,-6 -2.7,-7.6 -1.8,-1.6 -4.7,-2.4 -8.6,-2.4 -3.9,0 -6.8,0.7 -8.8,2.2 -2,1.5 -2.8,3.6 -2.6,6.3 0,0.6 0.3,0.9 0.8,0.9 h 5.9 c 0.5,0 0.8,-0.2 0.7,-0.7 -0.1,-1.9 1.1,-2.9 3.7,-2.9 2.6,0 2.4,0.3 2.9,0.9 0.5,0.6 0.8,1.6 0.8,3 v 2.2 l -4.4,0.4 c -2.9,0.2 -5.1,0.7 -6.9,1.4 -1.7,0.7 -2.9,1.7 -3.7,2.9 -0.7,1.2 -1.1,2.8 -1.1,4.8 0,2 0.6,4.5 1.9,5.8 1.2,1.4 3,2.1 5.2,2.1 z m 1.5,-11.5 c 0.7,-0.6 2.1,-1 4,-1.2 l 3.4,-0.3 v 3.8 c -1.1,1.1 -2,1.8 -2.8,2.3 -1.1,0.6 -2.1,1 -3.2,1 -1.1,0 -1.4,-0.2 -1.9,-0.7 -0.4,-0.5 -0.6,-1.2 -0.6,-2.2 0,-1 0.4,-2.2 1.1,-2.8 v 0 z"
           id="path3" /><rect
           class="cls-1"
           x="188.2"
           y="137.7"
           width="7.8000002"
           height="27.9"
           rx="0.69999999"
           ry="0.69999999"
           id="rect3" /><path
           class="cls-1"
           d="m 196.5,129.1 c 0,-1.2 -0.4,-2.2 -1.1,-2.9 -0.7,-0.7 -1.8,-1 -3.2,-1 -1.4,0 -2.5,0.3 -3.2,1 -0.8,0.7 -1.1,1.7 -1.1,2.9 v 1 c 0,1.2 0.4,2.1 1.1,2.8 0.8,0.7 1.8,1.1 3.2,1.1 1.4,0 2.5,-0.4 3.2,-1.1 0.7,-0.7 1.1,-1.7 1.1,-2.8 z"
           id="path4" /><path
           class="cls-1"
           d="m 221.8,153.1 c -0.9,-1.2 -2.3,-2.1 -4.3,-2.9 l -6.4,-2.7 c -1.1,-0.5 -1.8,-0.8 -2.1,-1.2 -0.4,-0.3 -0.6,-0.8 -0.6,-1.4 0,-0.6 0.3,-1.4 0.8,-1.7 0.5,-0.4 1.4,-0.6 2.5,-0.6 1.1,0 2,0.2 2.6,0.6 0.6,0.4 0.9,1 0.9,1.8 0,0.8 0.2,0.9 0.7,0.9 h 5.9 c 0.5,0 0.7,-0.2 0.7,-0.7 0,-2.7 -0.9,-4.7 -2.7,-6.1 -1.8,-1.4 -4.6,-2.1 -8.4,-2.1 -3.8,0 -6.4,0.7 -8.1,2 -1.7,1.3 -2.6,3.3 -2.6,6 0,2.7 0.4,3.3 1.2,4.5 0.8,1.1 2.2,2.1 4.1,2.9 l 6.5,2.8 c 1.1,0.5 1.8,0.9 2.3,1.3 0.5,0.4 0.7,1 0.7,1.7 0,0.7 -0.3,1.5 -1,1.9 -0.6,0.4 -1.6,0.6 -2.9,0.6 -1.3,0 -2.2,-0.3 -2.7,-0.8 -0.5,-0.5 -0.9,-1.4 -0.9,-2.6 0,-1.2 -0.2,-0.7 -0.7,-0.7 h -6 c -0.5,0 -0.7,0.2 -0.7,0.7 -0.2,3.1 0.6,5.4 2.4,6.9 1.8,1.5 4.7,2.2 8.6,2.2 3.9,0 6.7,-0.7 8.7,-2.1 2,-1.4 3,-3.6 3,-6.4 0,-2.8 -0.4,-3.5 -1.3,-4.6 z"
           id="path5" /><path
           class="cls-1"
           d="m 102.6,179.1 v -1.5 c 0,-2.1 -0.6,-3.7 -1.7,-4.8 -1.1,-1.1 -2.8,-1.6 -5.2,-1.6 h -4.8 c -0.2,0 -0.3,0 -0.3,0.3 v 14 c 0,0.2 0,0.3 0.3,0.3 h 4.8 c 2.3,0 4.1,-0.6 5.2,-1.7 1.1,-1.1 1.7,-2.8 1.7,-5 z M 99.5,179 c 0,1.3 -0.3,2.3 -0.9,3 -0.6,0.7 -1.6,1 -3,1 h -1.8 v -9.1 h 1.8 c 1.3,0 2.3,0.3 3,0.9 0.7,0.6 0.9,1.6 0.9,2.8 z"
           id="path6" /><path
           class="cls-1"
           d="m 114.3,174 c 0.2,0 0.3,0 0.3,-0.3 v -2.2 c 0,-0.2 0,-0.3 -0.3,-0.3 h -8.9 c -0.2,0 -0.3,0 -0.3,0.3 v 14 c 0,0.2 0,0.3 0.3,0.3 h 8.9 c 0.2,0 0.3,0 0.3,-0.3 v -2.2 c 0,-0.2 0,-0.3 -0.3,-0.3 h -6 v -3.3 h 5.4 c 0.2,0 0.3,0 0.3,-0.3 v -2 c 0,-0.2 0,-0.3 -0.3,-0.3 h -5.4 V 174 Z"
           id="path7" /><path
           class="cls-1"
           d="m 109.9,170.1 c 0,0 0.2,0 0.3,-0.2 l 1.9,-2.5 v -0.2 c 0,0 0,-0.1 -0.2,-0.1 h -2.3 c 0,0 -0.2,0 -0.3,0.2 l -1.4,2.5 v 0.2 h 2 z"
           id="path8" /><path
           class="cls-1"
           d="m 120.7,174.5 c 0.5,-0.5 1.2,-0.7 2.2,-0.7 1,0 1.7,0.2 2.1,0.7 0.5,0.5 0.7,1.1 0.7,1.9 0,0.8 0,0.3 0.2,0.3 h 2.6 c 0,0 0.2,0 0.2,-0.1 v -0.2 c 0.1,-1.1 0,-2 -0.5,-2.8 -0.5,-0.8 -1.1,-1.4 -2.1,-1.8 -0.9,-0.4 -2.1,-0.6 -3.4,-0.6 -1.9,0 -3.4,0.5 -4.5,1.4 -1.1,0.9 -1.6,2.4 -1.6,4.3 v 3.7 c 0,1.9 0.5,3.3 1.6,4.2 1.1,0.9 2.5,1.4 4.5,1.4 2,0 2.5,-0.2 3.4,-0.6 0.9,-0.4 1.6,-1 2.1,-1.8 0.5,-0.8 0.6,-1.7 0.5,-2.8 0,-0.2 -0.1,-0.3 -0.3,-0.3 h -2.6 c -0.2,0 -0.3,0 -0.2,0.3 0,0.7 -0.2,1.3 -0.6,1.8 -0.5,0.5 -1.2,0.7 -2.2,0.7 -1,0 -1.7,-0.2 -2.2,-0.7 -0.5,-0.5 -0.8,-1.3 -0.8,-2.3 V 177 c 0,-1 0.3,-1.8 0.8,-2.3 v -0.2 z"
           id="path9" /><path
           class="cls-1"
           d="m 137.1,171 c -2,0 -3.5,0.5 -4.5,1.4 -1,1 -1.5,2.4 -1.5,4.2 v 3.8 c 0,1.8 0.5,3.2 1.5,4.2 1,1 2.5,1.4 4.5,1.4 2,0 3.5,-0.5 4.6,-1.4 1,-1 1.5,-2.4 1.5,-4.2 v -3.8 c 0,-1.8 -0.5,-3.2 -1.5,-4.2 -1,-1 -2.5,-1.4 -4.6,-1.4 z m 2.9,9.2 c 0,1 -0.2,1.7 -0.7,2.3 -0.5,0.5 -1.2,0.8 -2.2,0.8 -1,0 -1.7,-0.3 -2.2,-0.8 -0.5,-0.5 -0.7,-1.3 -0.7,-2.3 v -3.4 c 0,-1 0.2,-1.7 0.7,-2.3 0.5,-0.5 1.2,-0.8 2.2,-0.8 1,0 1.7,0.3 2.2,0.8 0.5,0.5 0.7,1.3 0.7,2.3 z"
           id="path10" /><path
           class="cls-1"
           d="m 157.3,171.2 h -2.6 c -0.2,0 -0.3,0 -0.3,0.3 v 8.8 c 0,0.9 -0.2,1.7 -0.7,2.2 -0.4,0.5 -1.1,0.8 -2.1,0.8 -1,0 -1.6,-0.3 -2.1,-0.8 -0.4,-0.5 -0.7,-1.3 -0.7,-2.2 v -8.8 c 0,-0.2 0,-0.3 -0.3,-0.3 h -2.6 c -0.2,0 -0.3,0 -0.3,0.3 v 8.9 c 0,1.9 0.5,3.3 1.5,4.2 1,0.9 2.5,1.4 4.4,1.4 1.9,0 3.4,-0.5 4.4,-1.4 1,-0.9 1.5,-2.3 1.5,-4.2 v -8.9 c 0,-0.2 0,-0.3 -0.3,-0.3 z"
           id="path11" /><path
           class="cls-1"
           d="m 164.1,185.8 h 3.4 c 0.2,0 0.3,0 0.3,-0.2 l 4.6,-14 c 0,-0.2 0,-0.3 -0.2,-0.3 h -2.8 c -0.2,0 -0.3,0 -0.3,0.2 l -2.4,8.3 c -0.2,0.5 -0.3,1.1 -0.5,1.6 -0.1,0.5 -0.3,1.1 -0.4,1.6 v 0 c -0.1,-0.5 -0.2,-1.1 -0.4,-1.6 -0.1,-0.5 -0.3,-1.1 -0.4,-1.6 l -2.4,-8.3 c 0,-0.1 -0.2,-0.2 -0.3,-0.2 h -2.8 c -0.2,0 -0.3,0.1 -0.2,0.3 l 4.6,14 c 0,0.1 0.2,0.2 0.3,0.2 z"
           id="path12" /><path
           class="cls-1"
           d="m 183.3,174 c 0.2,0 0.3,0 0.3,-0.3 v -2.2 c 0,-0.2 0,-0.3 -0.3,-0.3 h -8.8 c -0.2,0 -0.3,0 -0.3,0.3 v 14 c 0,0.2 0,0.3 0.3,0.3 h 8.8 c 0.2,0 0.3,0 0.3,-0.3 v -2.2 c 0,-0.2 0,-0.3 -0.3,-0.3 h -6 v -3.3 h 5.4 c 0.2,0 0.3,0 0.3,-0.3 v -2 c 0,-0.2 0,-0.3 -0.3,-0.3 h -5.4 V 174 Z"
           id="path13" /><path
           class="cls-1"
           d="m 186.2,171.5 v 14 c 0,0.2 0,0.3 0.3,0.3 h 2.6 c 0.2,0 0.3,0 0.3,-0.3 v -5.3 h 1.8 l 3.2,5.3 c 0,0.1 0.2,0.2 0.4,0.2 h 3.1 v -0.2 l -3.5,-5.7 v 0 c 0.9,-0.3 1.6,-0.8 2,-1.5 0.4,-0.7 0.7,-1.5 0.7,-2.6 0,-1.1 -0.5,-2.6 -1.4,-3.3 -0.9,-0.8 -2.3,-1.2 -4.3,-1.2 h -4.9 c -0.2,0 -0.3,0 -0.3,0.3 z m 3.2,2.4 h 2 c 0.9,0 1.5,0.1 1.9,0.4 0.4,0.3 0.6,0.8 0.6,1.4 0,0.6 -0.2,1.2 -0.6,1.5 -0.4,0.3 -1.1,0.5 -2,0.5 h -2 v -3.8 z"
           id="path14" /><path
           class="cls-1"
           d="m 209.4,171.2 h -10.6 c -0.2,0 -0.3,0 -0.3,0.3 v 2.2 c 0,0.2 0,0.3 0.3,0.3 h 3.7 v 11.5 c 0,0.2 0,0.3 0.3,0.3 h 2.6 c 0.2,0 0.3,0 0.3,-0.3 V 174 h 3.7 c 0.2,0 0.3,0 0.3,-0.3 v -2.2 c 0,-0.2 0,-0.3 -0.3,-0.3 z"
           id="path15" /><path
           class="cls-1"
           d="m 220.8,174 c 0.2,0 0.3,0 0.3,-0.3 v -2.2 c 0,-0.2 0,-0.3 -0.3,-0.3 H 212 c -0.2,0 -0.3,0 -0.3,0.3 v 14 c 0,0.2 0,0.3 0.3,0.3 h 8.8 c 0.2,0 0.3,0 0.3,-0.3 v -2.2 c 0,-0.2 0,-0.3 -0.3,-0.3 h -6 v -3.3 h 5.4 c 0.2,0 0.3,0 0.3,-0.3 v -2 c 0,-0.2 0,-0.3 -0.3,-0.3 h -5.4 V 174 Z"
           id="path16" /><g
           id="g62"><path
             class="cls-1"
             d="M 199.2,64.4 189,84 c 1.6,0.7 3.1,1.5 4.6,2.3 l 10.2,-19.5 c 0.7,-1.3 0.2,-2.8 -1.1,-3.4 -1.3,-0.6 0,0 0,0 -1.2,-0.6 -2.7,0 -3.4,1.1 h -0.1 z"
             id="path17" /><path
             class="cls-1"
             d="m 249.3,208.8 -22.5,-12.7 c -0.8,1.5 -1.7,3 -2.6,4.4 l 22.5,12.7 c 1.2,0.7 2.8,0.3 3.5,-0.9 0.7,-1.2 0,0 0,0 0.7,-1.2 0.3,-2.8 -1,-3.5 z"
             id="path18" /><path
             class="cls-1"
             d="m 78.9,244.7 v 0 c 1.1,0.9 2.7,0.8 3.7,-0.3 l 20.1,-24.8 c -1.3,-1.1 -2.6,-2.2 -3.8,-3.4 l -20.2,25 c -0.8,1 -0.7,2.6 0.3,3.5 v 0 z"
             id="path19" /><path
             class="cls-1"
             d="m 43.8,178.3 31.4,-5.8 c -0.3,-1.7 -0.6,-3.4 -0.8,-5.1 l -31.6,5.9 c -1.3,0.2 -2.3,1.5 -2,2.9 0.3,1.4 0,0 0,0 0.2,1.4 1.6,2.4 3,2.1 z"
             id="path20" /><path
             class="cls-1"
             d="M 157.8,44.8 157,76.7 c 1.7,0 3.4,0 5.1,0.3 l 0.8,-32 c 0,-1.4 -1,-2.5 -2.4,-2.6 -1.4,-0.1 0,0 0,0 -1.4,0 -2.6,1.1 -2.6,2.5 h -0.1 z"
             id="path21" /><path
             class="cls-1"
             d="m 55.1,102.3 28.8,16.4 c 0.8,-1.5 1.7,-3 2.6,-4.4 L 57.7,97.9 c -1.2,-0.7 -2.8,-0.3 -3.5,0.9 -0.7,1.2 0,0 0,0 -0.7,1.2 -0.3,2.8 1,3.5 v 0 z"
             id="path22" /><g
             id="g27"><path
               class="cls-1"
               d="m 271.5,168.4 -35.3,-3.9 c -0.1,1.7 -0.3,3.4 -0.6,5.1 l 35.3,3.9 c 1.4,0.2 2.7,-0.8 2.8,-2.2 0.1,-1.4 0,0 0,0 0.2,-1.4 -0.9,-2.6 -2.3,-2.8 h 0.1 z"
               id="path23" /><path
               class="cls-1"
               d="m 186.6,232.6 c -1.6,0.7 -3.2,1.3 -4.8,1.8 l 11.2,33.5 c 0.5,1.4 2,2.1 3.3,1.6 1.3,-0.5 0,0 0,0 1.3,-0.5 1.9,-1.9 1.5,-3.2 l -11.3,-33.7 z"
               id="path24" /><path
               class="cls-1"
               d="m 135,79.2 c 1.6,-0.4 3.3,-0.8 5,-1.1 l -8.1,-34.5 c -0.3,-1.4 -1.7,-2.2 -3,-1.9 -1.3,0.3 0,0 0,0 -1.4,0.3 -2.2,1.7 -1.9,3.1 l 8.1,34.5 v 0 z"
               id="path25" /><path
               class="cls-1"
               d="m 117.9,270.9 v 0 c 1.3,0.4 2.8,-0.3 3.2,-1.7 l 10.7,-33.7 c -1.6,-0.5 -3.3,-1 -4.9,-1.6 l -10.7,33.8 c -0.4,1.3 0.3,2.8 1.6,3.2 v 0 z"
               id="path26" /><path
               class="cls-1"
               d="m 50.3,209.1 31.9,-15.5 c -0.8,-1.5 -1.5,-3.1 -2.1,-4.6 l -32,15.5 c -1.2,0.6 -1.8,2.1 -1.2,3.3 0.6,1.2 0,0 0,0 0.6,1.3 2.1,1.8 3.4,1.2 v 0 z"
               id="path27" /></g><path
             class="cls-1"
             d="m 165,238.3 c -1.7,0.2 -3.4,0.4 -5.1,0.5 l 3.1,37.3 c 0.1,1.4 1.3,2.5 2.7,2.3 1.4,-0.2 0,0 0,0 1.4,-0.1 2.4,-1.4 2.3,-2.8 l -3.1,-37.4 h 0.1 z"
             id="path28" /><path
             class="cls-1"
             d="m 245.2,77.9 -29.6,25.6 c 1.1,1.3 2.2,2.6 3.3,3.9 l 29.7,-25.6 c 1.1,-0.9 1.2,-2.5 0.3,-3.6 -0.9,-1.1 0,0 0,0 C 248,77.1 246.4,77 245.3,78 v 0 z"
             id="path29" /><path
             class="cls-1"
             d="m 256.6,90.5 -34.2,21.7 c 1,1.4 1.9,2.8 2.7,4.3 l 34.2,-21.7 c 1.2,-0.8 1.6,-2.3 0.8,-3.5 -0.8,-1.2 0,0 0,0 -0.8,-1.2 -2.3,-1.5 -3.5,-0.8 z"
             id="path30" /><g
             id="g33"><path
               class="cls-1"
               d="m 51.9,226.3 35.8,-23 c -1,-1.4 -1.9,-2.9 -2.7,-4.3 l -35.9,23.1 c -1.2,0.8 -1.5,2.3 -0.8,3.5 0.7,1.2 0,0 0,0 0.8,1.2 2.3,1.5 3.5,0.7 z"
               id="path31" /><path
               class="cls-1"
               d="m 99.8,271.3 v 0 c 1.3,0.6 2.8,0 3.4,-1.2 l 18.2,-38.5 c -1.6,-0.7 -3.1,-1.5 -4.6,-2.3 l -18.2,38.5 c -0.6,1.3 0,2.8 1.2,3.4 v 0 z"
               id="path32" /><path
               class="cls-1"
               d="m 31.8,145.8 42.4,4.6 c 0.2,-1.7 0.3,-3.4 0.6,-5.1 l -42.4,-4.6 c -1.4,-0.1 -2.6,0.8 -2.8,2.2 -0.2,1.4 0,0 0,0 -0.2,1.4 0.9,2.7 2.3,2.8 v 0 z"
               id="path33" /></g><g
             id="g35"><path
               class="cls-1"
               d="m 38.2,112.5 41,16.3 c 0.6,-1.6 1.3,-3.2 2,-4.7 L 40.1,107.7 c -1.3,-0.5 -2.8,0 -3.3,1.4 -0.5,1.4 0,0 0,0 -0.5,1.3 0,2.8 1.4,3.3 v 0 z"
               id="path34" /><path
               class="cls-1"
               d="m 35.8,196.3 42.2,-13 c -0.5,-1.6 -1,-3.2 -1.5,-4.9 l -42.2,13 c -1.3,0.4 -2.1,1.8 -1.7,3.1 0.4,1.3 0,0 0,0 0.4,1.4 1.9,2.1 3.2,1.7 v 0 z"
               id="path35" /></g><path
             class="cls-1"
             d="m 196.4,227.7 c -1.5,0.9 -3,1.7 -4.5,2.5 l 21.6,38.5 c 0.7,1.2 2.2,1.7 3.5,1 1.3,-0.7 0,0 0,0 1.2,-0.7 1.7,-2.2 1,-3.5 l -21.6,-38.4 v 0 z"
             id="path36" /><g
             id="g38"><path
               class="cls-1"
               d="m 176.8,28.4 -8.9,49.2 c 1.7,0.3 3.4,0.6 5,1 l 8.9,-49.3 c 0.2,-1.4 -0.7,-2.7 -2,-3 -1.3,-0.3 0,0 0,0 -1.4,-0.2 -2.7,0.7 -2.9,2.1 z"
               id="path37" /><path
               class="cls-1"
               d="m 114.6,87.5 c 1.5,-0.9 3,-1.7 4.5,-2.4 L 95,41.2 c -0.7,-1.2 -2.2,-1.7 -3.4,-1 -1.2,0.7 0,0 0,0 -1.2,0.7 -1.7,2.2 -1,3.5 l 24.1,43.9 v 0 z"
               id="path38" /></g><path
             class="cls-1"
             d="M 273.4,100.5 228,121.7 c 0.8,1.5 1.5,3.1 2.2,4.6 l 45.4,-21.2 c 1.3,-0.6 1.8,-2.1 1.3,-3.4 -0.5,-1.3 0,0 0,0 -0.6,-1.3 -2.1,-1.8 -3.4,-1.2 z"
             id="path39" /><g
             id="g41"><path
               class="cls-1"
               d="m 227.7,45.9 -29,43.4 c 1.4,0.9 2.9,1.9 4.2,2.9 l 29,-43.4 c 0.8,-1.2 0.5,-2.7 -0.7,-3.5 -1.2,-0.8 0,0 0,0 -1.2,-0.8 -2.8,-0.5 -3.5,0.7 v 0 z"
               id="path40" /><path
               class="cls-1"
               d="m 145.9,77.2 c 1.7,-0.2 3.4,-0.3 5.1,-0.4 l -4.7,-52 c -0.1,-1.4 -1.3,-2.4 -2.7,-2.3 -1.4,0.1 0,0 0,0 -1.4,0.1 -2.4,1.4 -2.3,2.8 l 4.7,52 h -0.1 z"
               id="path41" /></g><g
             id="g44"><path
               class="cls-1"
               d="m 149.3,295.4 v 0 c 1.4,0 2.6,-1.1 2.6,-2.5 l 1.9,-54.1 c -1.7,0 -3.4,-0.1 -5.1,-0.2 l -1.9,54.1 c 0,1.4 1,2.6 2.4,2.6 h 0.1 z"
               id="path42" /><path
               class="cls-1"
               d="M 281.7,206.2 231.4,186 c -0.6,1.6 -1.3,3.2 -1.9,4.7 l 50.4,20.3 c 1.3,0.5 2.8,0 3.3,-1.4 0.5,-1.4 0,0 0,0 0.5,-1.3 -0.1,-2.8 -1.4,-3.3 h -0.1 z"
               id="path43" /><path
               class="cls-1"
               d="m 17.1,160.7 v 0 c 0,1.4 1.2,2.5 2.6,2.5 l 54.2,-1.8 v -5.1 l -54.3,1.8 c -1.4,0 -2.5,1.2 -2.5,2.6 z"
               id="path44" /></g><g
             id="g46"><path
               class="cls-1"
               d="m 254.4,254.4 -40.6,-40.5 -3.6,3.6 40.6,40.5 c 1,1 2.6,1 3.6,0 1,-1 0,0 0,0 1,-1 1,-2.6 0,-3.6 z"
               id="path45" /><path
               class="cls-1"
               d="m 51,249.1 43.7,-37.2 c -1.1,-1.3 -2.2,-2.6 -3.3,-3.9 l -43.7,37.2 c -1.1,0.9 -1.2,2.5 -0.3,3.6 0.9,1.1 0,0 0,0 0.9,1.1 2.5,1.2 3.6,0.3 z"
               id="path46" /></g><g
             id="g50"><path
               class="cls-1"
               d="m 124.5,82.6 c 1.6,-0.6 3.2,-1.2 4.8,-1.8 L 106.6,23.4 c -0.5,-1.3 -2,-2 -3.3,-1.5 -1.3,0.5 0,0 0,0 -1.3,0.5 -2,2 -1.4,3.3 l 22.6,57.3 v 0 z"
               id="path47" /><path
               class="cls-1"
               d="m 291.3,189.8 -56.9,-14.1 c -0.4,1.7 -0.8,3.3 -1.3,4.9 l 56.9,14.2 c 1.4,0.3 2.7,-0.5 3.1,-1.8 0.4,-1.3 0,0 0,0 0.3,-1.4 -0.5,-2.7 -1.9,-3.1 v 0 z"
               id="path48" /><path
               class="cls-1"
               d="m 77.6,277.7 34.1,-51.4 c -1.4,-0.9 -2.9,-1.9 -4.2,-2.9 l -34.1,51.4 c -0.8,1.2 -0.5,2.7 0.7,3.5 1.2,0.8 0,0 0,0 1.2,0.8 2.8,0.4 3.5,-0.7 v 0 z"
               id="path49" /><path
               class="cls-1"
               d="m 16.1,124.2 59.8,15.3 c 0.4,-1.7 0.8,-3.3 1.3,-4.9 L 17.3,119.3 c -1.4,-0.3 -2.7,0.5 -3.1,1.8 -0.4,1.3 0,0 0,0 -0.4,1.4 0.5,2.7 1.8,3.1 v 0 z"
               id="path50" /></g><path
             class="cls-1"
             d="m 41.1,71.7 48.8,37.7 c 1,-1.4 2.1,-2.7 3.2,-4 L 44.3,67.6 c -1.1,-0.9 -2.7,-0.7 -3.6,0.4 -0.9,1.1 0,0 0,0 -0.9,1.1 -0.7,2.7 0.5,3.6 v 0 z"
             id="path51" /><g
             id="g54"><path
               class="cls-1"
               d="m 254.4,47 v 0 c -1.1,-0.9 -2.7,-0.8 -3.6,0.2 l -43.1,48.6 c 1.3,1.1 2.6,2.2 3.8,3.4 l 43.2,-48.6 c 0.9,-1 0.8,-2.7 -0.2,-3.6 v 0 z"
               id="path52" /><path
               class="cls-1"
               d="m 105.4,93.7 c 1.3,-1 2.7,-2.1 4.1,-3 L 70.6,38.6 c -0.8,-1.1 -2.4,-1.4 -3.5,-0.5 -1.1,0.9 0,0 0,0 -1.1,0.8 -1.4,2.4 -0.5,3.6 l 38.9,52 v 0 z"
               id="path53" /><path
               class="cls-1"
               d="m 294.3,112.5 -62.1,19.4 c 0.5,1.6 1,3.2 1.5,4.9 l 62.1,-19.4 c 1.3,-0.4 2.1,-1.8 1.7,-3.2 -0.4,-1.4 0,0 0,0 -0.4,-1.3 -1.9,-2.1 -3.2,-1.7 z"
               id="path54" /></g><path
             class="cls-1"
             d="m 200.1,15.9 -21.4,64.2 c 1.6,0.5 3.3,1 4.9,1.6 L 205,17.5 c 0.4,-1.3 -0.3,-2.8 -1.6,-3.2 -1.3,-0.4 0,0 0,0 -1.3,-0.5 -2.8,0.3 -3.2,1.6 v 0 z"
             id="path55" /><path
             class="cls-1"
             d="m 176,236.2 c -1.6,0.4 -3.3,0.8 -5,1.1 l 14,58.3 c 0.3,1.4 1.7,2.2 3,1.9 1.3,-0.3 0,0 0,0 1.4,-0.3 2.2,-1.7 1.9,-3.1 l -14,-58.3 h 0.1 z"
             id="path56" /><path
             class="cls-1"
             d="m 287.2,153.7 v 0 c 0,-1.4 -1.2,-2.6 -2.7,-2.5 l -48.2,2.3 c 0,1.4 0.1,2.9 0.1,4.3 0,1.4 0,0.5 0,0.8 l 48.3,-2.3 c 1.4,0 2.4,-1.2 2.4,-2.6 z"
             id="path57" /><path
             class="cls-1"
             d="m 257.5,234.4 -36.5,-29 c -1,1.4 -2,2.7 -3.1,4 l 36.4,29 c 1.1,0.9 2.7,0.7 3.6,-0.4 0.9,-1.1 0,0 0,0 0.9,-1.1 0.7,-2.7 -0.4,-3.6 z"
             id="path58" /><path
             class="cls-1"
             d="m 137,255.4 v 0 c 1.4,0.3 2.7,-0.7 3,-2.1 l 2.7,-15.4 c -1.7,-0.3 -3.4,-0.6 -5,-0.9 l -2.7,15.4 c -0.2,1.4 0.7,2.7 2,3 z"
             id="path59" /><g
             id="g61"><path
               class="cls-1"
               d="m 255.2,141.5 v 0 c -0.2,-1.4 -1.6,-2.4 -3,-2.1 l -17.2,3.2 c 0.3,1.7 0.6,3.3 0.8,5 l 17.4,-3.3 c 1.3,-0.3 2.3,-1.5 2,-2.9 v 0 z"
               id="path60" /><path
               class="cls-1"
               d="M 84.3,89.1 97.1,101 c 1.2,-1.2 2.4,-2.4 3.7,-3.5 l -13,-12.1 c -1,-0.9 -2.5,-0.9 -3.5,0 -1,0.9 0,0 0,0 -1,1 -1,2.7 0,3.7 z"
               id="path61" /></g><path
             class="cls-1"
             d="m 205.7,221.4 c -1.3,1.1 -2.7,2.1 -4.1,3.1 l 11.4,16.3 c 0.8,1.2 2.4,1.4 3.6,0.6 1.2,-0.8 0,0 0,0 1.1,-0.8 1.3,-2.4 0.5,-3.5 l -11.5,-16.4 h 0.1 z"
             id="path62" /></g></g></g></g></svg>
