<?xml version="1.0" encoding="UTF-8" standalone="no"?>
<!-- Created with Inkscape (http://www.inkscape.org/) -->

<svg
   version="1.1"
   id="svg1"
   width="1800"
   height="580"
   viewBox="0 0 1799.9999 580"
   sodipodi:docname="banner.svg"
   xml:space="preserve"
   inkscape:version="1.3.2 (1:1.3.2+202311252150+091e20ef0f)"
   xmlns:inkscape="http://www.inkscape.org/namespaces/inkscape"
   xmlns:sodipodi="http://sodipodi.sourceforge.net/DTD/sodipodi-0.dtd"
   xmlns:xlink="http://www.w3.org/1999/xlink"
   xmlns="http://www.w3.org/2000/svg"
   xmlns:svg="http://www.w3.org/2000/svg"><defs
     id="defs1"><linearGradient
       id="swatch5"
       inkscape:swatch="solid"><stop
         style="stop-color:#9aff6b;stop-opacity:1;"
         offset="0"
         id="stop7" /></linearGradient><clipPath
       clipPathUnits="userSpaceOnUse"
       id="clipPath917"><path
         d="m 78.662,50.341 h 57.263 v 57.263 H 78.662 Z"
         id="path915" /></clipPath><style
       id="style1">
      .cls-1 {
        fill: #1d1d1b;
      }
    </style><rect
       x="0"
       y="832"
       width="262.29825"
       height="72.510818"
       id="rect3" /><linearGradient
       id="linearGradient6"
       inkscape:label="Sudrimaker"
       inkscape:swatch="gradient"><stop
         style="stop-color:#d98a47;stop-opacity:1;"
         offset="0.09821911"
         id="stop4" /><stop
         style="stop-color:#2e909d;stop-opacity:1;"
         offset="0.5"
         id="stop5" /><stop
         style="stop-color:#f1e7ab;stop-opacity:1"
         offset="0.87931788"
         id="stop6" /></linearGradient><color-profile
       name="HP-Pavilion-Laptop-14-ce3xxx"
       xlink:href="file:///home/baptiste/.local/share/icc/edid-84547e609aaa716caf8377bcf81e9255.icc"
       id="color-profile2" /><linearGradient
       inkscape:collect="always"
       xlink:href="#linearGradient6"
       id="linearGradient8"
       gradientUnits="userSpaceOnUse"
       x1="33.854343"
       y1="806.21088"
       x2="802.5506"
       y2="36.339424" /><linearGradient
       inkscape:collect="always"
       xlink:href="#linearGradient6"
       id="linearGradient16"
       gradientUnits="userSpaceOnUse"
       x1="0"
       y1="290"
       x2="1800"
       y2="290"
       gradientTransform="translate(-1800)" /></defs><sodipodi:namedview
     id="namedview1"
     pagecolor="#505050"
     bordercolor="#eeeeee"
     borderopacity="1"
     inkscape:showpageshadow="0"
     inkscape:pageopacity="0"
     inkscape:pagecheckerboard="0"
     inkscape:deskcolor="#d1d1d1"
     inkscape:zoom="0.23966581"
     inkscape:cx="905.42743"
     inkscape:cy="588.31921"
     inkscape:window-width="1360"
     inkscape:window-height="732"
     inkscape:window-x="0"
     inkscape:window-y="0"
     inkscape:window-maximized="1"
     inkscape:current-layer="g1" /><g
     inkscape:groupmode="layer"
     inkscape:label="Image"
     id="g1"><rect
       style="opacity:0.788205;fill:url(#linearGradient16);fill-opacity:1;fill-rule:evenodd;stroke:none;stroke-width:4.913;stroke-linecap:round;stroke-linejoin:round;stroke-dasharray:none;paint-order:stroke fill markers"
       id="rect4"
       width="1800"
       height="580"
       x="-1800"
       y="0"
       ry="0"
       transform="scale(-1,1)" /><rect
       style="opacity:1;fill:#ffffff;fill-opacity:1;fill-rule:evenodd;stroke:none;stroke-width:4.84766;stroke-linecap:round;stroke-linejoin:round;stroke-dasharray:none;paint-order:stroke fill markers"
       id="rect16"
       width="402.88013"
       height="402.88013"
       x="214.98599"
       y="90.521217" /><text
       xml:space="preserve"
       style="font-style:normal;font-variant:normal;font-weight:bold;font-stretch:normal;font-size:131.567px;line-height:1.25;font-family:Arial;-inkscape-font-specification:'Arial Bold';stroke-width:3.28917"
       x="856.2514"
       y="466.02045"
       id="text1"><tspan
         sodipodi:role="line"
         id="tspan1"
         x="856.2514"
         y="466.02045"
         style="font-style:normal;font-variant:normal;font-weight:bold;font-stretch:normal;font-family:Arial;-inkscape-font-specification:'Arial Bold';stroke-width:3.28917">X</tspan></text><g
       id="g3"
       transform="translate(19.01763,1.7539489)"><g
         id="g913"
         clip-path="url(#clipPath917)"
         transform="matrix(7.039889,0,0,-7.039889,-358.04838,845.87069)"><g
           id="g919"
           transform="translate(128.5018,52.4806)"><path
             d="m 0,0 c 0.006,0.08 0.01,0.165 0.01,0.254 0,0.761 -0.205,1.359 -0.614,1.794 -0.41,0.435 -0.982,0.653 -1.718,0.653 -0.3,0 -0.591,-0.059 -0.873,-0.178 C -3.476,2.405 -3.724,2.239 -3.938,2.024 -4.153,1.81 -4.324,1.549 -4.452,1.242 -4.58,0.936 -4.644,0.593 -4.644,0.216 c 0,-0.397 0.066,-0.752 0.197,-1.065 0.131,-0.314 0.309,-0.579 0.533,-0.796 0.224,-0.218 0.483,-0.383 0.777,-0.494 0.029,-0.011 0.06,-0.015 0.089,-0.025 h 1.688 c 0.216,0.077 0.409,0.175 0.573,0.298 0.179,0.134 0.331,0.293 0.456,0.475 0.125,0.182 0.216,0.376 0.273,0.58 l -1.064,0.317 c -0.077,-0.211 -0.2,-0.384 -0.37,-0.518 -0.169,-0.134 -0.405,-0.201 -0.705,-0.201 -0.16,0 -0.31,0.027 -0.451,0.081 -0.141,0.054 -0.264,0.129 -0.369,0.225 -0.106,0.096 -0.192,0.21 -0.259,0.341 -0.068,0.131 -0.104,0.273 -0.111,0.427 h 3.378 C -0.009,-0.126 -0.006,-0.08 0,0 m -1.247,0.734 h -2.111 c 0.006,0.109 0.034,0.217 0.082,0.326 0.048,0.109 0.116,0.208 0.206,0.298 0.089,0.089 0.198,0.163 0.326,0.22 0.128,0.058 0.275,0.087 0.441,0.087 0.18,0 0.335,-0.028 0.466,-0.082 0.131,-0.054 0.24,-0.124 0.326,-0.211 0.086,-0.086 0.15,-0.186 0.192,-0.297 0.041,-0.112 0.066,-0.226 0.072,-0.341 m -4.485,2.821 c 0.15,0.153 0.225,0.335 0.225,0.547 0,0.223 -0.075,0.412 -0.225,0.565 -0.151,0.154 -0.338,0.231 -0.562,0.231 -0.217,0 -0.403,-0.077 -0.556,-0.231 -0.154,-0.153 -0.23,-0.342 -0.23,-0.565 0,-0.212 0.076,-0.394 0.23,-0.547 0.153,-0.154 0.339,-0.231 0.556,-0.231 0.224,0 0.411,0.077 0.562,0.231 m -2.48,-2.226 c 0.128,0 0.255,-0.013 0.383,-0.038 V 2.576 C -7.88,2.582 -7.929,2.587 -7.977,2.59 -8.025,2.593 -8.075,2.595 -8.126,2.595 -8.228,2.595 -8.342,2.586 -8.467,2.567 -8.591,2.547 -8.716,2.512 -8.841,2.461 -8.965,2.41 -9.084,2.335 -9.196,2.236 -9.308,2.136 -9.399,2.01 -9.469,1.856 v 0.701 h -1.238 v -4.72 h 1.276 v 2.158 c 0,0.256 0.034,0.469 0.101,0.638 0.067,0.17 0.155,0.306 0.264,0.408 0.108,0.102 0.236,0.176 0.384,0.221 0.147,0.044 0.303,0.067 0.47,0.067 m 1.285,-3.492 h 1.276 v 4.72 h -1.276 z m -4.948,-0.001 c 0.061,0.016 0.115,0.032 0.151,0.049 v 1.055 c -0.032,-0.013 -0.086,-0.022 -0.163,-0.029 -0.076,-0.006 -0.153,-0.009 -0.23,-0.009 -0.185,0 -0.325,0.039 -0.417,0.12 -0.093,0.079 -0.139,0.222 -0.139,0.427 v 1.976 h 0.949 v 1.132 h -0.949 v 1.41 h -1.152 V 3.305 c 0,-0.211 -0.059,-0.388 -0.177,-0.532 -0.119,-0.144 -0.302,-0.216 -0.552,-0.216 h -0.24 V 1.425 h 0.854 v -2.197 c 0,-0.461 0.135,-0.819 0.403,-1.075 0.162,-0.154 0.364,-0.256 0.595,-0.317 z m -5.783,3.147 c -0.08,0.071 -0.119,0.163 -0.119,0.279 0,0.134 0.059,0.246 0.177,0.336 0.118,0.089 0.261,0.134 0.427,0.134 0.134,0 0.248,-0.019 0.341,-0.058 0.092,-0.038 0.171,-0.09 0.235,-0.153 0.063,-0.064 0.11,-0.133 0.139,-0.207 0.029,-0.073 0.049,-0.145 0.062,-0.215 l 1.065,0.239 c -0.013,0.128 -0.054,0.271 -0.125,0.427 -0.07,0.157 -0.177,0.306 -0.321,0.446 -0.144,0.141 -0.331,0.258 -0.561,0.351 -0.231,0.092 -0.512,0.139 -0.845,0.139 -0.256,0 -0.491,-0.042 -0.705,-0.125 -0.214,-0.083 -0.4,-0.194 -0.556,-0.331 -0.157,-0.138 -0.28,-0.301 -0.37,-0.489 -0.089,-0.189 -0.134,-0.389 -0.134,-0.6 0,-0.332 0.106,-0.625 0.317,-0.878 0.211,-0.252 0.547,-0.43 1.007,-0.532 L -17,-0.398 c 0.185,-0.038 0.316,-0.098 0.393,-0.177 0.077,-0.081 0.115,-0.175 0.115,-0.284 0,-0.127 -0.051,-0.238 -0.153,-0.331 -0.103,-0.092 -0.259,-0.139 -0.47,-0.139 -0.282,0 -0.493,0.074 -0.634,0.221 -0.14,0.147 -0.217,0.313 -0.23,0.499 l -1.094,-0.24 c 0.013,-0.134 0.056,-0.286 0.13,-0.456 0.073,-0.169 0.187,-0.328 0.34,-0.475 0.154,-0.147 0.352,-0.271 0.595,-0.374 0.011,-0.004 0.026,-0.006 0.038,-0.01 h 1.688 c 0.221,0.088 0.408,0.203 0.558,0.346 0.153,0.147 0.267,0.313 0.34,0.499 0.074,0.185 0.111,0.374 0.111,0.566 0,0.345 -0.117,0.649 -0.351,0.911 -0.233,0.263 -0.583,0.442 -1.05,0.538 l -0.672,0.144 c -0.128,0.025 -0.232,0.073 -0.312,0.143 m -3.545,-3.146 h 1.219 c -0.013,0.083 -0.024,0.199 -0.034,0.35 -0.009,0.15 -0.014,0.318 -0.014,0.504 v 3.866 h -1.276 v -2.744 c 0,-0.275 -0.077,-0.499 -0.23,-0.672 -0.154,-0.172 -0.374,-0.259 -0.662,-0.259 -0.301,0 -0.52,0.091 -0.658,0.274 -0.137,0.182 -0.206,0.408 -0.206,0.676 v 2.725 h -1.276 v -2.984 c 0,-0.256 0.04,-0.497 0.12,-0.724 0.08,-0.227 0.197,-0.424 0.35,-0.59 0.154,-0.167 0.341,-0.299 0.562,-0.398 0.024,-0.011 0.054,-0.015 0.079,-0.025 h 1.344 c 0.028,0.01 0.055,0.014 0.083,0.025 0.246,0.099 0.433,0.26 0.561,0.484 0,-0.096 0.003,-0.192 0.01,-0.288 0.006,-0.096 0.016,-0.169 0.028,-0.22 m -5.631,0 h 1.218 c -0.013,0.096 -0.022,0.222 -0.029,0.379 -0.006,0.156 -0.009,0.314 -0.009,0.475 v 6.092 h -1.257 V 2.087 c -0.032,0.064 -0.082,0.129 -0.149,0.196 -0.067,0.068 -0.155,0.13 -0.264,0.188 -0.108,0.057 -0.238,0.105 -0.388,0.143 -0.15,0.039 -0.328,0.058 -0.533,0.058 -0.332,0 -0.638,-0.064 -0.916,-0.192 -0.278,-0.128 -0.516,-0.302 -0.715,-0.523 -0.198,-0.22 -0.353,-0.481 -0.465,-0.782 -0.112,-0.3 -0.168,-0.623 -0.168,-0.969 0,-0.358 0.058,-0.689 0.173,-0.992 0.115,-0.305 0.273,-0.567 0.475,-0.787 0.201,-0.221 0.443,-0.394 0.724,-0.518 0.073,-0.033 0.154,-0.049 0.231,-0.073 h 1.317 c 0.069,0.025 0.142,0.043 0.203,0.078 0.227,0.127 0.395,0.284 0.504,0.47 0,-0.109 0.005,-0.215 0.014,-0.317 0.01,-0.103 0.021,-0.179 0.034,-0.23 m -0.058,2.379 c 0,-0.429 -0.112,-0.761 -0.336,-0.998 -0.224,-0.236 -0.498,-0.355 -0.825,-0.355 -0.339,0 -0.618,0.119 -0.839,0.355 -0.221,0.237 -0.331,0.566 -0.331,0.988 0,0.423 0.113,0.749 0.34,0.979 0.227,0.23 0.504,0.345 0.83,0.345 0.327,0 0.601,-0.113 0.825,-0.34 0.224,-0.227 0.336,-0.552 0.336,-0.974 m -5.833,-2.379 h 1.276 v 2.974 c 0,0.256 -0.034,0.499 -0.101,0.729 -0.067,0.23 -0.171,0.428 -0.312,0.595 -0.14,0.166 -0.318,0.299 -0.532,0.398 -0.214,0.099 -0.469,0.149 -0.763,0.149 -0.256,0 -0.51,-0.058 -0.762,-0.173 -0.253,-0.115 -0.453,-0.294 -0.6,-0.537 v 0.585 h -1.238 v -4.72 h 1.276 v 2.715 c 0,0.275 0.077,0.507 0.231,0.695 0.153,0.189 0.37,0.283 0.652,0.283 0.307,0 0.529,-0.089 0.667,-0.268 0.137,-0.18 0.206,-0.403 0.206,-0.672 z m -4.476,5.718 c 0.151,0.153 0.226,0.335 0.226,0.547 0,0.223 -0.075,0.412 -0.226,0.565 -0.15,0.154 -0.337,0.231 -0.561,0.231 -0.217,0 -0.403,-0.077 -0.556,-0.231 -0.154,-0.153 -0.231,-0.342 -0.231,-0.565 0,-0.212 0.077,-0.394 0.231,-0.547 0.153,-0.154 0.339,-0.231 0.556,-0.231 0.224,0 0.411,0.077 0.561,0.231 m -1.194,-5.718 h 1.276 v 4.72 h -1.276 z m -3.507,-0.001 c 0.061,0.016 0.115,0.032 0.152,0.049 v 1.055 c -0.032,-0.013 -0.087,-0.022 -0.164,-0.029 -0.076,-0.006 -0.153,-0.009 -0.23,-0.009 -0.185,0 -0.324,0.039 -0.417,0.12 -0.093,0.079 -0.139,0.222 -0.139,0.427 v 1.976 h 0.95 v 1.132 h -0.95 v 1.41 h -1.152 V 3.305 c 0,-0.211 -0.059,-0.388 -0.177,-0.532 -0.118,-0.144 -0.302,-0.216 -0.552,-0.216 h -0.24 V 1.425 h 0.854 v -2.197 c 0,-0.461 0.135,-0.819 0.403,-1.075 0.162,-0.154 0.364,-0.256 0.595,-0.317 z M -45.291,0 c 0.007,0.08 0.01,0.165 0.01,0.254 0,0.761 -0.205,1.359 -0.614,1.794 -0.409,0.435 -0.982,0.653 -1.717,0.653 -0.301,0 -0.592,-0.059 -0.873,-0.178 -0.282,-0.118 -0.53,-0.284 -0.744,-0.499 C -49.443,1.81 -49.614,1.549 -49.742,1.242 -49.77,1.176 -49.783,1.101 -49.805,1.03 v -1.649 c 0.023,-0.077 0.038,-0.158 0.068,-0.23 0.131,-0.314 0.308,-0.579 0.532,-0.796 0.224,-0.218 0.483,-0.383 0.777,-0.494 0.029,-0.011 0.06,-0.015 0.09,-0.025 h 1.688 c 0.215,0.077 0.408,0.175 0.573,0.298 0.179,0.134 0.331,0.293 0.455,0.475 0.125,0.182 0.216,0.376 0.274,0.58 l -1.065,0.317 c -0.077,-0.211 -0.2,-0.384 -0.369,-0.518 -0.17,-0.134 -0.405,-0.201 -0.706,-0.201 -0.16,0 -0.31,0.027 -0.451,0.081 -0.14,0.054 -0.263,0.129 -0.369,0.225 -0.105,0.096 -0.192,0.21 -0.259,0.341 -0.067,0.131 -0.104,0.273 -0.11,0.427 h 3.377 c 0,0.013 0.003,0.059 0.009,0.139 m -1.247,0.734 h -2.11 c 0.006,0.109 0.033,0.217 0.081,0.326 0.048,0.109 0.117,0.208 0.206,0.298 0.09,0.089 0.198,0.163 0.327,0.22 0.127,0.058 0.274,0.087 0.441,0.087 0.179,0 0.334,-0.028 0.465,-0.082 0.131,-0.054 0.24,-0.124 0.326,-0.211 0.087,-0.086 0.151,-0.186 0.192,-0.297 0.042,-0.112 0.066,-0.226 0.072,-0.341"
             style="fill:#000000;fill-opacity:1;fill-rule:nonzero;stroke:none"
             id="path921" /></g><g
           id="g923"
           transform="translate(115.0055,61.5253)"><path
             d="M 0,0 1.065,0.24 C 1.052,0.368 1.01,0.51 0.94,0.667 0.87,0.823 0.763,0.972 0.618,1.113 0.475,1.253 0.288,1.37 0.058,1.463 -0.173,1.555 -0.455,1.602 -0.787,1.602 -1.043,1.602 -1.278,1.561 -1.492,1.477 -1.706,1.394 -1.892,1.284 -2.048,1.146 -2.205,1.009 -2.329,0.846 -2.418,0.657 -2.508,0.468 -2.552,0.268 -2.552,0.058 c 0,-0.333 0.105,-0.626 0.316,-0.879 0.212,-0.252 0.547,-0.43 1.008,-0.532 l 0.623,-0.144 c 0.186,-0.038 0.317,-0.098 0.394,-0.177 0.077,-0.08 0.115,-0.175 0.115,-0.283 0,-0.128 -0.051,-0.239 -0.153,-0.331 -0.103,-0.093 -0.26,-0.14 -0.471,-0.14 -0.281,0 -0.492,0.074 -0.633,0.221 -0.141,0.147 -0.217,0.313 -0.23,0.499 l -1.094,-0.24 c 0.013,-0.134 0.056,-0.286 0.13,-0.455 0.073,-0.17 0.187,-0.328 0.34,-0.475 0.154,-0.147 0.352,-0.272 0.595,-0.374 0.243,-0.103 0.544,-0.154 0.902,-0.154 0.307,0 0.576,0.045 0.806,0.134 0.23,0.09 0.422,0.208 0.575,0.355 0.154,0.147 0.267,0.313 0.341,0.499 0.073,0.186 0.111,0.374 0.111,0.566 0,0.346 -0.117,0.649 -0.351,0.912 -0.233,0.262 -0.583,0.441 -1.05,0.537 l -0.672,0.144 c -0.128,0.025 -0.232,0.073 -0.312,0.144 -0.08,0.07 -0.12,0.163 -0.12,0.278 0,0.134 0.06,0.246 0.178,0.336 0.118,0.089 0.26,0.134 0.427,0.134 0.134,0 0.247,-0.019 0.34,-0.058 C -0.344,0.537 -0.266,0.486 -0.202,0.422 -0.138,0.358 -0.091,0.289 -0.063,0.216 -0.034,0.142 -0.013,0.07 0,0 m -3.291,-1.099 c 0.006,0.08 0.01,0.165 0.01,0.255 0,0.76 -0.205,1.359 -0.614,1.794 -0.41,0.434 -0.982,0.652 -1.718,0.652 -0.3,0 -0.591,-0.059 -0.873,-0.178 C -6.767,1.306 -7.015,1.14 -7.229,0.926 -7.444,0.711 -7.615,0.451 -7.743,0.144 c -0.128,-0.307 -0.191,-0.649 -0.191,-1.027 0,-0.396 0.065,-0.751 0.196,-1.065 0.131,-0.313 0.309,-0.579 0.533,-0.796 0.224,-0.218 0.483,-0.382 0.777,-0.494 0.294,-0.112 0.604,-0.168 0.931,-0.168 0.287,0 0.551,0.04 0.791,0.12 0.24,0.08 0.449,0.187 0.628,0.321 0.179,0.134 0.331,0.293 0.456,0.475 0.125,0.182 0.216,0.376 0.274,0.581 l -1.065,0.316 c -0.077,-0.211 -0.2,-0.384 -0.37,-0.518 -0.169,-0.134 -0.404,-0.201 -0.705,-0.201 -0.16,0 -0.31,0.027 -0.451,0.081 -0.141,0.055 -0.264,0.13 -0.369,0.226 -0.106,0.096 -0.192,0.209 -0.259,0.34 -0.067,0.131 -0.104,0.274 -0.111,0.427 H -3.3 c 0,0.013 0.003,0.059 0.009,0.139 m -1.247,0.734 h -2.111 c 0.006,0.109 0.034,0.218 0.082,0.327 0.048,0.108 0.116,0.207 0.206,0.297 0.09,0.089 0.198,0.163 0.326,0.22 0.128,0.058 0.275,0.087 0.442,0.087 0.178,0 0.334,-0.027 0.465,-0.082 0.131,-0.054 0.24,-0.124 0.326,-0.211 0.086,-0.086 0.15,-0.185 0.192,-0.297 0.041,-0.112 0.065,-0.225 0.072,-0.341 m -7.253,-1.103 c -0.064,0.166 -0.096,0.355 -0.096,0.566 0,0.211 0.032,0.4 0.096,0.566 0.064,0.166 0.15,0.305 0.259,0.417 0.108,0.112 0.235,0.197 0.379,0.255 0.144,0.057 0.299,0.086 0.465,0.086 0.313,0 0.552,-0.083 0.715,-0.25 0.163,-0.166 0.273,-0.348 0.331,-0.546 L -8.5,0.009 c -0.052,0.199 -0.135,0.394 -0.25,0.586 -0.115,0.191 -0.265,0.361 -0.451,0.508 -0.185,0.147 -0.404,0.267 -0.657,0.36 -0.253,0.092 -0.539,0.139 -0.859,0.139 -0.345,0 -0.666,-0.062 -0.964,-0.187 -0.297,-0.125 -0.556,-0.298 -0.777,-0.518 -0.221,-0.221 -0.393,-0.485 -0.518,-0.792 -0.125,-0.307 -0.187,-0.642 -0.187,-1.007 0,-0.365 0.064,-0.699 0.192,-1.003 0.128,-0.303 0.303,-0.567 0.527,-0.791 0.224,-0.224 0.488,-0.398 0.792,-0.523 0.304,-0.125 0.628,-0.187 0.974,-0.187 0.313,0 0.595,0.047 0.844,0.139 0.249,0.093 0.467,0.214 0.652,0.365 0.186,0.15 0.338,0.319 0.456,0.508 0.118,0.189 0.203,0.382 0.254,0.581 l -1.122,0.374 C -9.62,-1.529 -9.66,-1.621 -9.714,-1.717 -9.769,-1.813 -9.84,-1.9 -9.93,-1.977 c -0.09,-0.076 -0.197,-0.139 -0.321,-0.187 -0.125,-0.048 -0.268,-0.072 -0.427,-0.072 -0.167,0 -0.322,0.029 -0.466,0.087 -0.144,0.058 -0.272,0.144 -0.383,0.259 -0.112,0.115 -0.2,0.256 -0.264,0.422 m -3.588,-1.794 h 1.276 v 2.974 c 0,0.256 -0.034,0.499 -0.101,0.729 -0.067,0.23 -0.171,0.429 -0.312,0.595 -0.141,0.166 -0.318,0.299 -0.532,0.398 -0.215,0.099 -0.469,0.149 -0.763,0.149 -0.256,0 -0.51,-0.058 -0.763,-0.173 -0.253,-0.115 -0.452,-0.294 -0.599,-0.537 v 0.585 h -1.238 v -4.72 h 1.276 v 2.715 c 0,0.275 0.077,0.507 0.23,0.695 0.154,0.189 0.371,0.284 0.653,0.284 0.307,0 0.529,-0.09 0.666,-0.269 0.138,-0.179 0.207,-0.403 0.207,-0.672 z m -4.049,2.163 c 0.006,0.08 0.01,0.165 0.01,0.255 0,0.76 -0.205,1.359 -0.614,1.794 -0.41,0.434 -0.982,0.652 -1.718,0.652 -0.301,0 -0.592,-0.059 -0.873,-0.178 -0.281,-0.118 -0.529,-0.284 -0.743,-0.498 -0.215,-0.215 -0.386,-0.475 -0.514,-0.782 -0.128,-0.307 -0.192,-0.649 -0.192,-1.027 0,-0.396 0.066,-0.751 0.197,-1.065 0.131,-0.313 0.309,-0.579 0.533,-0.796 0.223,-0.218 0.482,-0.382 0.777,-0.494 0.294,-0.112 0.604,-0.168 0.93,-0.168 0.288,0 0.552,0.04 0.792,0.12 0.24,0.08 0.449,0.187 0.628,0.321 0.179,0.134 0.331,0.293 0.456,0.475 0.125,0.182 0.216,0.376 0.273,0.581 l -1.065,0.316 c -0.076,-0.211 -0.2,-0.384 -0.369,-0.518 -0.17,-0.134 -0.405,-0.201 -0.705,-0.201 -0.16,0 -0.31,0.027 -0.451,0.081 -0.141,0.055 -0.264,0.13 -0.369,0.226 -0.106,0.096 -0.192,0.209 -0.259,0.34 -0.068,0.131 -0.105,0.274 -0.111,0.427 h 3.377 c 0,0.013 0.003,0.059 0.01,0.139 m -1.247,0.734 h -2.111 c 0.006,0.109 0.034,0.218 0.082,0.327 0.048,0.108 0.116,0.207 0.206,0.297 0.089,0.089 0.198,0.163 0.326,0.22 0.128,0.058 0.275,0.087 0.441,0.087 0.179,0 0.334,-0.027 0.466,-0.082 0.131,-0.054 0.24,-0.124 0.326,-0.211 0.086,-0.086 0.15,-0.185 0.192,-0.297 0.041,-0.112 0.065,-0.225 0.072,-0.341 m -4.485,2.821 c 0.15,0.153 0.225,0.336 0.225,0.547 0,0.223 -0.075,0.412 -0.225,0.566 -0.151,0.153 -0.338,0.23 -0.562,0.23 -0.217,0 -0.403,-0.077 -0.556,-0.23 -0.154,-0.154 -0.23,-0.343 -0.23,-0.566 0,-0.211 0.076,-0.394 0.23,-0.547 0.153,-0.154 0.339,-0.231 0.556,-0.231 0.224,0 0.411,0.077 0.562,0.231 m -5.455,-3.924 c -0.064,0.166 -0.096,0.355 -0.096,0.566 0,0.211 0.032,0.4 0.096,0.566 0.064,0.166 0.151,0.305 0.259,0.417 0.109,0.112 0.235,0.197 0.379,0.255 0.144,0.057 0.299,0.086 0.466,0.086 0.313,0 0.551,-0.083 0.714,-0.25 0.164,-0.166 0.274,-0.348 0.331,-0.546 l 1.142,0.383 c -0.051,0.199 -0.134,0.394 -0.249,0.586 -0.115,0.191 -0.266,0.361 -0.451,0.508 -0.186,0.147 -0.405,0.267 -0.657,0.36 -0.253,0.092 -0.539,0.139 -0.859,0.139 -0.345,0 -0.667,-0.062 -0.964,-0.187 -0.298,-0.125 -0.557,-0.298 -0.777,-0.518 -0.221,-0.221 -0.394,-0.485 -0.519,-0.792 -0.124,-0.307 -0.187,-0.642 -0.187,-1.007 0,-0.365 0.064,-0.699 0.192,-1.003 0.128,-0.303 0.304,-0.567 0.528,-0.791 0.224,-0.224 0.488,-0.398 0.791,-0.523 0.304,-0.125 0.629,-0.187 0.974,-0.187 0.314,0 0.595,0.047 0.845,0.139 0.249,0.093 0.466,0.214 0.652,0.365 0.185,0.15 0.337,0.319 0.456,0.508 0.118,0.189 0.203,0.382 0.254,0.581 l -1.123,0.374 c -0.025,-0.09 -0.065,-0.182 -0.119,-0.278 -0.055,-0.096 -0.127,-0.183 -0.216,-0.26 -0.09,-0.076 -0.197,-0.139 -0.322,-0.187 -0.125,-0.048 -0.267,-0.072 -0.427,-0.072 -0.166,0 -0.321,0.029 -0.465,0.087 -0.144,0.058 -0.272,0.144 -0.384,0.259 -0.112,0.115 -0.2,0.256 -0.264,0.422 m -4.408,1.353 c -0.08,0.07 -0.12,0.163 -0.12,0.278 0,0.134 0.059,0.246 0.177,0.336 0.119,0.089 0.261,0.134 0.427,0.134 0.135,0 0.248,-0.019 0.341,-0.058 0.093,-0.038 0.171,-0.089 0.235,-0.153 0.064,-0.064 0.11,-0.133 0.139,-0.206 0.029,-0.074 0.05,-0.146 0.062,-0.216 l 1.065,0.24 c -0.012,0.128 -0.054,0.27 -0.124,0.427 -0.071,0.156 -0.178,0.305 -0.322,0.446 -0.144,0.14 -0.331,0.257 -0.561,0.35 -0.23,0.092 -0.512,0.139 -0.844,0.139 -0.256,0 -0.491,-0.041 -0.705,-0.125 -0.215,-0.083 -0.4,-0.193 -0.557,-0.331 -0.157,-0.137 -0.28,-0.3 -0.369,-0.489 -0.083,-0.175 -0.124,-0.36 -0.13,-0.554 V 0.028 c 0.007,-0.32 0.108,-0.604 0.312,-0.849 0.211,-0.252 0.547,-0.43 1.007,-0.532 l 0.624,-0.144 c 0.186,-0.038 0.317,-0.098 0.393,-0.177 0.077,-0.08 0.116,-0.175 0.116,-0.283 0,-0.128 -0.052,-0.239 -0.154,-0.331 -0.102,-0.093 -0.259,-0.14 -0.47,-0.14 -0.282,0 -0.493,0.074 -0.633,0.221 -0.141,0.147 -0.218,0.313 -0.23,0.499 l -0.965,-0.211 v -0.485 c 0.074,-0.169 0.187,-0.328 0.341,-0.474 0.153,-0.147 0.352,-0.272 0.595,-0.374 0.243,-0.103 0.543,-0.154 0.902,-0.154 0.307,0 0.575,0.045 0.805,0.134 0.231,0.09 0.423,0.208 0.576,0.355 0.154,0.147 0.267,0.313 0.341,0.499 0.073,0.186 0.11,0.374 0.11,0.566 0,0.346 -0.117,0.649 -0.35,0.912 -0.234,0.262 -0.584,0.441 -1.051,0.537 l -0.671,0.144 c -0.128,0.025 -0.232,0.073 -0.312,0.144 m 9.944,1.573 h -1.276 v -4.72 h 1.276 z"
             style="fill:#000000;fill-opacity:1;fill-rule:nonzero;stroke:none"
             id="path925" /></g><g
           id="g927"
           transform="translate(92.8812,95.9422)"><path
             d="M 0,0 C -0.159,0.615 -0.417,1.221 -0.774,1.817 -1.132,2.413 -1.599,2.938 -2.174,3.395 -2.75,3.852 -3.43,4.224 -4.215,4.512 -4.999,4.8 -5.888,4.944 -6.88,4.944 -7.953,4.944 -8.95,4.751 -9.874,4.363 -10.797,3.976 -11.601,3.44 -12.286,2.755 -12.971,2.07 -13.507,1.251 -13.895,0.298 -14.01,0.013 -14.103,-0.283 -14.184,-0.584 v -4.454 c 0.084,-0.309 0.182,-0.613 0.304,-0.904 0.397,-0.943 0.943,-1.762 1.638,-2.457 0.695,-0.695 1.514,-1.236 2.458,-1.623 0.943,-0.388 1.951,-0.581 3.023,-0.581 0.973,0 1.846,0.144 2.621,0.432 0.774,0.287 1.449,0.665 2.025,1.132 0.576,0.466 1.047,0.992 1.415,1.578 0.367,0.586 0.63,1.186 0.789,1.802 l -3.485,1.162 c -0.079,-0.279 -0.203,-0.566 -0.372,-0.864 -0.169,-0.298 -0.392,-0.566 -0.67,-0.804 -0.278,-0.239 -0.611,-0.432 -0.998,-0.581 -0.387,-0.149 -0.829,-0.223 -1.325,-0.223 -0.517,0 -0.998,0.089 -1.445,0.268 -0.447,0.178 -0.844,0.446 -1.191,0.804 -0.348,0.357 -0.621,0.794 -0.819,1.31 -0.199,0.516 -0.298,1.102 -0.298,1.758 0,0.655 0.099,1.24 0.298,1.757 0.198,0.516 0.466,0.948 0.804,1.295 0.337,0.348 0.73,0.611 1.177,0.79 0.446,0.178 0.927,0.268 1.444,0.268 0.973,0 1.713,-0.259 2.219,-0.775 0.506,-0.516 0.849,-1.082 1.028,-1.697 z M 3.246,11.05 C 2.77,10.573 2.531,9.988 2.531,9.293 2.531,8.637 2.77,8.072 3.246,7.595 3.723,7.118 4.298,6.88 4.974,6.88 c 0.694,0 1.275,0.238 1.742,0.715 0.466,0.477 0.7,1.042 0.7,1.698 0,0.695 -0.234,1.28 -0.7,1.757 -0.277,0.283 -0.599,0.471 -0.956,0.586 H 4.204 C 3.851,11.521 3.529,11.333 3.246,11.05 M 6.969,4.497 H 3.008 v -14.654 h 3.961 z m 3.276,0 H 9.501 V 0.983 h 2.651 v -6.821 c 0,-1.429 0.417,-2.542 1.25,-3.335 0.835,-0.795 1.966,-1.192 3.396,-1.192 0.576,0 1.047,0.04 1.415,0.119 0.367,0.08 0.64,0.159 0.819,0.239 v 3.276 c -0.1,-0.04 -0.268,-0.07 -0.506,-0.09 -0.239,-0.02 -0.477,-0.029 -0.715,-0.029 -0.576,0 -1.008,0.123 -1.296,0.372 -0.288,0.248 -0.432,0.69 -0.432,1.325 v 6.136 h 2.949 V 4.497 H 16.083 V 8.876 H 12.509 V 6.821 C 12.509,6.165 12.325,5.614 11.958,5.168 11.59,4.721 11.02,4.497 10.245,4.497 m 11.497,-4.08 c -0.398,-0.953 -0.596,-2.016 -0.596,-3.187 0,-1.231 0.204,-2.333 0.611,-3.306 0.407,-0.973 0.957,-1.797 1.653,-2.472 0.695,-0.675 1.499,-1.187 2.412,-1.534 0.914,-0.347 1.877,-0.521 2.89,-0.521 0.893,0 1.712,0.124 2.457,0.372 0.744,0.248 1.395,0.581 1.951,0.998 0.555,0.417 1.027,0.908 1.414,1.474 0.388,0.566 0.67,1.167 0.849,1.802 l -3.306,0.983 c -0.238,-0.655 -0.62,-1.191 -1.147,-1.608 -0.526,-0.417 -1.256,-0.626 -2.189,-0.626 -0.496,0 -0.963,0.084 -1.4,0.253 -0.436,0.169 -0.819,0.403 -1.146,0.7 -0.328,0.298 -0.596,0.651 -0.805,1.058 -0.208,0.406 -0.322,0.849 -0.342,1.325 h 10.484 c 0,0.04 0.01,0.183 0.03,0.432 0.02,0.248 0.03,0.511 0.03,0.789 0,2.363 -0.636,4.219 -1.907,5.57 -1.271,1.35 -3.048,2.025 -5.331,2.025 -0.933,0 -1.837,-0.184 -2.71,-0.551 C 24.77,4.026 24,3.509 23.335,2.844 22.67,2.179 22.139,1.37 21.742,0.417 m 3.395,-1.579 c 0.02,0.338 0.105,0.675 0.253,1.013 0.149,0.338 0.363,0.645 0.641,0.923 0.278,0.278 0.615,0.507 1.013,0.685 0.397,0.179 0.853,0.269 1.37,0.269 0.555,0 1.037,-0.085 1.444,-0.254 0.407,-0.169 0.745,-0.387 1.013,-0.655 0.268,-0.268 0.466,-0.576 0.596,-0.923 0.129,-0.348 0.203,-0.7 0.223,-1.058 z"
             style="fill:#000000;fill-opacity:1;fill-rule:nonzero;stroke:none"
             id="path929" /></g><g
           id="g931"
           transform="translate(126.5242,107.5793)"><path
             d="m 0,0 h -4.527 l -2.711,-4.468 h 3.187 z"
             style="fill:#000000;fill-opacity:1;fill-rule:nonzero;stroke:none"
             id="path933" /></g></g><g
         id="g2"
         transform="matrix(0.44508743,0,0,0.44508743,1208.7933,77.143311)"><rect
           style="opacity:1;fill:url(#linearGradient8);fill-opacity:1;fill-rule:evenodd;stroke:#ffffff;stroke-width:31.4914;stroke-linejoin:bevel;stroke-opacity:1"
           id="rect2"
           width="738.28485"
           height="738.68994"
           x="48.520073"
           y="52.085125"
           ry="140.56902"
           rx="144.24484" /><path
           id="rect9"
           style="fill:#ffffff;fill-opacity:1;stroke:none;stroke-width:2.26772;stroke-linecap:round"
           d="m 443.33008,17.759766 c -8.28029,1.384167 -7.13242,22.901928 -9.61719,23.201172 -2.65042,0.319193 -6.86079,-22.771914 -21.80469,-15.78125 -2.55962,1.197374 -19.54287,11.972427 -24.57031,14.36914 -15.75695,7.51175 0.81873,21.606743 -3.45588,26.96841 -5.81792,7.297433 -17.43021,-3.78274 -20.4213,10.20959 -1.94999,9.122038 -4.11138,26.611152 -4.78279,31.731152 -1.64884,12.57378 19.35747,6.85002 20.29736,10.6733 1.13759,4.62751 -24.05055,6.48122 -10.78387,27.52692 1.20913,1.91809 6.72983,12.3573 7.92968,14.27539 3.39347,5.42487 6.50817,8.02129 11.31641,9.4336 3.78725,1.11242 9.27963,0.26428 13.30859,-2.05469 l 2.15821,-1.24219 1.93554,1.29102 c 1.61479,1.07715 1.9056,1.41324 1.75,2.0332 -0.41844,1.66723 -0.84847,5.45276 -0.85546,7.52539 -0.0197,6.62506 4.50992,12.67457 11.0371,14.74024 3.76562,1.19172 23.89228,5.13567 26.21875,5.13867 l 1.89063,0.004 1.47656,1.90821 c 0.81163,1.05039 3.41987,3.47354 5.79688,5.38476 l 4.32226,3.47657 -0.98437,2.66796 c -0.92176,2.49874 -3.4023,11.64013 -3.65039,13.45118 -0.10719,0.78249 -0.30507,0.84483 -4.87305,1.54687 -8.93829,1.37368 -12.63066,3.13878 -16.06445,7.68555 -2.36453,3.13092 -3.25774,6.29253 -3.24414,11.47461 0.006,2.22836 0.22237,5.53966 0.48242,7.35937 0.26009,1.81967 0.43462,3.34859 0.38672,3.39649 -22.05029,-10.47997 -46.30829,-29.03515 -60.20313,-41.7461 -6.13835,-5.61536 -17.49365,-16.25148 -21.63086,-21.03125 l -2.82422,-3.26367 -2.03711,0.19922 c -3.86561,0.37593 -7.96484,1.79195 -15.20507,5.25586 -2.85865,1.36766 -6.64344,3.33995 -8.41211,4.38086 -10.32385,6.07591 -26.01029,17.95704 -35.71289,27.05078 -2.10077,1.96895 -4.80139,4.4619 -6.00196,5.54102 -7.77203,6.98576 -26.76594,28.33193 -30.72461,34.52929 -0.34418,0.53882 -1.3892,2.02598 -2.32226,3.30469 -3.37809,4.62961 -4.72818,6.69532 -6.28906,9.63086 -0.87421,1.6441 -1.9966,3.737 -2.49414,4.65039 -4.85821,8.91843 -6.09773,12.74707 -5.97266,18.43359 0.21337,9.70211 0.0198,18.70962 -0.52149,24.2461 -0.3071,3.14131 -0.3309,3.17881 -2.55078,4.3164 -2.83433,1.45248 -5.71716,3.31014 -10.04883,6.47461 -2.00941,1.468 -4.02768,2.91544 -4.48437,3.21485 -0.45669,0.29939 -1.43961,1.11939 -2.18555,1.82226 -0.74594,0.70288 -2.75141,2.54686 -4.45508,4.09961 -4.8054,4.37975 -5.88032,5.47192 -10.46484,10.61133 -5.33506,5.98079 -4.9117,5.48702 -6.57226,7.65039 -3.66913,4.78015 -9.38568,13.08164 -11.66797,16.94531 -1.62248,2.7467 -5.844,11.44539 -5.72071,11.78711 0.0669,0.18555 -0.13913,0.86063 -0.45703,1.5 -0.95081,1.9122 -2.55299,6.07729 -3.28906,8.54883 -0.86054,2.88961 -0.95439,8.8781 -0.18555,11.89063 0.62278,2.44025 2.96153,7.3691 4.96289,10.46289 2.09957,3.24559 6.5053,7.48408 10.84375,10.42968 4.19285,2.84672 6.62384,4.11042 10.42578,5.42188 l 2.65821,0.91601 -0.008,2.32032 c -0.008,2.38482 -0.48819,9.49836 -0.66211,9.79492 -0.0535,0.0913 -0.19875,2.48102 -0.32422,5.3125 -0.12546,2.83149 -0.28958,5.89717 -0.36328,6.81055 -0.3421,4.2387 -0.44844,28.23666 -0.15039,33.87695 0.62907,11.90436 2.04701,26.7332 3.1914,33.38086 1.8349,10.65902 6.97209,27.29617 9.94922,32.21679 0.38683,0.63937 0.78762,1.38829 0.88867,1.66407 0.53709,1.46534 6.07383,9.37098 7.17383,10.24219 2.0232,1.60241 6.01254,3.57736 8.36914,4.14453 14.01311,3.37252 32.47152,3.27911 59.1211,-0.29883 9.99314,-1.34166 23.84354,-3.92508 34.54296,-6.44531 3.01417,-0.70997 9.21631,-2.05825 13.78321,-2.99415 4.56691,-0.93589 9.87291,-2.05877 11.79101,-2.49609 1.9181,-0.4373 5.57926,-1.16915 8.13672,-1.62695 6.23553,-1.11621 10.32351,-1.98264 14.11719,-2.99024 1.73543,-0.46094 5.02318,-1.2235 7.30664,-1.69531 5.54211,-1.14512 5.51711,-1.13318 5.78711,-2.93359 0.34436,-2.29641 2.84465,-7.10043 4.8164,-9.25782 7.6807,-8.40381 21.18184,-9.17186 29.28907,-1.66601 6.55906,6.07256 8.74883,14.1571 6.07031,22.41211 -0.58204,1.79383 -3.13742,5.84982 -4.95117,7.85742 -4.16135,4.60612 -12.16917,6.92616 -19.10938,5.53711 -5.05745,-1.01225 -9.49442,-3.69186 -12.33203,-7.44922 l -0.8418,-1.11523 -4.44726,1.01758 c -2.44596,0.56 -5.94278,1.3313 -7.76953,1.71289 -1.82677,0.38159 -4.5171,0.98149 -5.97852,1.33398 -2.40682,0.58053 -7.23169,1.54919 -18.10156,3.63477 -4.20812,0.80738 -3.94755,0.75183 -5.8125,1.25586 -0.73071,0.19748 -4.26228,0.98786 -7.84961,1.75585 l -6.52344,1.39649 0.98438,2.70117 c 1.40482,3.85678 7.31582,19.6257 7.39062,19.7168 0.22946,0.27921 20.90661,-4.18977 21.72461,-4.69531 0.16887,-0.10438 0.41164,-0.89505 0.54102,-1.75782 0.6447,-4.2991 3.46935,-8.73017 7.43945,-11.67383 2.95218,-2.1889 5.16355,-3.22608 8.29883,-3.89062 9.17198,-1.94405 18.60684,2.46246 22.87891,10.68555 1.6799,3.23354 2.39925,6.06238 2.40625,9.46679 0.008,3.79987 -0.47595,5.76955 -2.31836,9.45117 -2.63126,5.25799 -6.11006,8.31638 -11.61329,10.21485 -8.06611,2.78259 -17.36203,0.38858 -22.75781,-5.86133 l -1.52929,-1.76953 -6.21485,1.28125 c -7.83788,1.6169 -13.40925,2.86434 -13.58789,3.04297 -0.17728,0.1773 1.51178,5.22937 1.9082,5.70703 0.22818,0.27495 2.60604,6.34036 3.79102,9.66992 0.0931,0.26157 1.13858,-0.002 3.23047,-0.81055 2.87919,-1.1129 3.34773,-1.19508 6.74805,-1.19531 3.12555,-2.3e-4 4.00747,0.12877 6.10156,0.88672 5.57225,2.01693 9.20652,4.83175 11.71875,9.07813 2.95295,4.9913 3.82776,9.61043 2.79297,14.75195 -0.61045,3.03296 -2.64854,7.26997 -4.75391,9.88281 -2.06849,2.56708 -6.34145,5.14541 -10.77148,6.5 -0.49794,0.15226 -0.43831,0.50415 0.55664,3.26172 5.87919,16.29445 6.98861,18.95784 8.875,21.32227 0.56683,0.71047 1.56668,2.27334 2.22265,3.47265 2.11039,3.85827 7.06397,7.02805 13.31641,8.51953 1.18739,0.28324 2.68291,0.65305 3.32227,0.82227 4.47717,1.18499 19.10968,1.71392 27.40039,0.99023 2.00943,-0.17539 5.89659,-0.47262 8.63671,-0.66015 2.74015,-0.18755 5.50518,-0.47152 6.14454,-0.63086 0.63937,-0.15935 2.1329,-0.3829 3.32031,-0.4961 2.85869,-0.27263 5.77403,-0.80812 18.43359,-3.39062 21.57958,-4.40214 36.68115,-8.70933 61.44531,-17.52344 5.46692,-1.94576 15.71023,-6.07348 16.24219,-6.54492 0.26296,-0.23305 -0.95447,-4.02107 -2.2832,-7.10547 -0.23609,-0.54804 -1.20501,-3.16369 -2.1543,-5.8125 -0.94929,-2.64879 -2.52014,-6.83466 -3.49023,-9.30078 -2.24527,-5.70766 -57.48173,-153.18188 -62.25,-165.33008 -2.71247,-7.11082 -7.6214,-15.7282 -5,-23.52344 4.44488,-10.45752 18.85713,4.90211 33.02929,1.39063 9.00503,-2.58622 16.86954,-7.30602 22.75586,-14.64453 3.59235,-3.84344 9.429,-13.81897 10.49414,-17.93555 0.23635,-0.91336 0.95562,-3.19593 1.59766,-5.07422 1.4279,-4.17736 2.00015,-6.88992 2.66797,-12.64258 0.94284,-8.12189 0.39702,-16.99024 -1.49805,-24.36328 -0.38991,-1.51703 -0.83648,-3.28055 -0.99414,-3.91992 -0.56226,-2.28009 -2.60072,-7.01848 -4.17578,-9.70508 -3.31723,-5.65832 -8.62816,-11.92503 -11.63476,-13.73047 -7.00267,-4.20502 -9.77894,-5.30833 -14.39649,-5.72265 -3.97546,-0.35669 -5.90511,-0.31235 -7.80469,0.18164 -0.7307,0.19003 -1.5541,0.33903 -1.82812,0.33203 -0.70468,-0.0184 -5.43174,1.6194 -7.44336,2.57812 -2.21459,1.05544 -4.23362,2.65519 -7.94727,6.30274 -4.71177,4.62796 -6.92962,7.63376 -9.47851,12.83984 -0.94408,1.92825 -1.82631,3.61397 -1.95899,3.74414 -0.1327,0.13016 -0.3981,0.86133 -0.58984,1.625 -0.33891,1.34989 -0.30451,1.44801 1.21094,3.54688 3.6624,5.07227 5.18766,9.61059 4.8125,14.31836 -0.34049,4.27315 -1.45604,7.08763 -4.63282,11.6914 -3.1076,4.50357 -10.02237,7.86914 -16.16992,7.86914 -6.2581,0 -13.11467,-3.27294 -16.58789,-7.91796 -5.12248,-6.85077 -5.73368,-15.90442 -1.57422,-23.29688 3.13475,-5.57118 9.16182,-9.50575 15.56836,-10.16211 2.01171,-0.2061 2.17875,-0.28644 2.58399,-1.25976 0.704,-1.69075 3.81151,-8.00129 4.02929,-8.18165 0.11025,-0.0914 0.63831,-0.97527 1.17188,-1.96484 0.53355,-0.98961 1.19278,-2.05865 1.4668,-2.375 0.27402,-0.31636 0.87338,-1.12332 1.33007,-1.79297 8.2684,-12.12395 20.28273,-20.92327 32.41407,-23.73828 6.53928,-1.51738 13.73443,-1.38594 20.22851,0.36914 1.91076,0.51642 4.964,1.72569 5.09375,2.01758 0.0609,0.13706 0.30209,0.25 0.53516,0.25 0.5557,0 4.05372,1.87119 5.36328,2.86914 0.56526,0.43078 1.12454,0.7832 1.24219,0.7832 0.42444,0 7.52495,6.19999 7.53515,6.58008 0.003,0.12571 0.71398,0.97747 1.57813,1.89258 2.10934,2.23374 5.94805,7.94938 7.80664,11.62305 4.70775,9.30518 7.69659,20.16657 8.22656,29.89258 0.63811,11.71047 0.14144,19.34936 -1.86523,28.72851 -0.66008,3.08512 -3.99442,13.70206 -4.79883,15.2793 -0.32607,0.63938 -1.57337,3.18034 -2.77149,5.64648 -2.60626,5.36465 -5.18512,9.43546 -8.77148,13.8418 -4.49639,5.52444 -10.85547,11.30706 -15.18164,13.80664 -8.81814,5.09495 -15.52463,7.00238 -24.47266,6.95898 -4.2561,-0.0207 -5.75203,-0.18926 -8.32617,-0.93554 -0.49877,-0.14461 -0.44868,0.17703 0.37695,2.42773 1.24306,3.38864 6.63207,17.67972 6.99024,18.53711 3.27095,8.42428 6.45899,16.88742 9.46484,25.4082 0.12252,0.45669 0.45688,1.42945 0.74219,2.16016 16.90083,43.47627 32.45429,87.31944 49.44531,130.86133 0.84621,2.3748 1.86131,5.21622 2.25586,6.31445 0.39455,1.09826 0.83434,2.0416 0.97656,2.0957 0.30483,0.11575 14.64139,-6.94166 16.91407,-8.32617 1.68935,-1.02915 1.45649,-0.79678 0.55273,-3.40429 -5.06391,-14.61031 -33.08471,-89.2892 -37.04297,-98.72852 l -1.16211,-3.07227 -1.38476,-0.008 c -4.07473,-0.0169 -10.00451,-2.35319 -13.15039,-5.18164 -0.94342,-0.84818 -2.37541,-2.46587 -3.18164,-3.5957 -4.3035,-6.03082 -5.22414,-12.78006 -2.63672,-19.33203 3.43935,-8.70932 11.70484,-14.18737 20.57031,-13.63477 5.46834,0.34087 9.7074,2.25986 13.79492,6.24609 5.08963,4.96351 7.20631,13.46876 5.11524,20.5586 -0.90898,3.08191 -3.03077,6.78416 -4.89844,8.54687 l -1.7207,1.62305 0.75195,1.57617 c 1.3383,2.8018 8.97584,23.95818 9.02344,24.04688 9.3755,22.61181 16.87106,45.98907 25.99414,68.66406 0.3786,1.09606 0.79029,2.14349 0.91601,2.32617 0.12571,0.18268 0.58918,1.45219 1.0293,2.82227 0.44012,1.37007 0.83335,2.54473 0.87305,2.61133 0.11588,0.19413 9.69526,-6.31518 11.19531,-7.60743 0.75136,-0.64729 2.15032,-1.74482 3.10937,-2.4375 0.95905,-0.69268 1.74414,-1.39232 1.74414,-1.55468 -5.55516,-16.01584 -12.3445,-31.58141 -17.76953,-47.64063 -0.23102,-0.54802 -0.60578,-1.48248 -0.83203,-2.07617 -0.34981,-0.91788 -0.57597,-1.08008 -1.51172,-1.08008 -1.89739,10e-6 -5.8778,-0.97842 -7.95312,-1.95508 -10.72265,-5.04612 -15.07278,-17.4385 -9.90039,-28.20507 0.92749,-1.93067 1.84283,-3.1642 3.74414,-5.04688 6.83053,-6.76355 15.97652,-8.49082 23.71875,-4.47852 1.25612,0.65099 2.327,1.14089 2.3789,1.0879 0.0519,-0.053 -1.39144,-4.05751 -3.20703,-8.89844 -1.8156,-4.84091 -3.58379,-9.7133 -3.92968,-10.82813 -0.34589,-1.11483 -1.7771,-5.15133 -3.17969,-8.96875 -1.40261,-3.81743 -2.96666,-8.13625 -3.47656,-9.59765 -0.5099,-1.46141 -1.83083,-5.04789 -2.93555,-7.97071 -2.49634,-6.60477 -5.64077,-15.27244 -7.56641,-20.85742 -2.30713,-6.69158 -4.56127,-11.04076 -6.73242,-12.99023 -0.38756,-0.348 -0.70508,-0.76847 -0.70508,-0.93555 0,-0.16707 1.55032,-1.98273 3.44336,-4.03516 5.60503,-6.07692 15.03151,-19.16187 19.53125,-27.11132 7.99258,-14.12011 7.80574,-13.7529 14.32617,-28.23243 1.93317,-4.2929 3.91559,-9.00148 4.40625,-10.46289 0.49066,-1.46142 1.44968,-4.07708 2.13086,-5.8125 1.35452,-3.45092 5.75424,-16.8986 7.17188,-21.91992 1.95143,-6.91209 4.29365,-16.83931 5.28906,-22.41992 0.45616,-2.55745 0.97699,-5.36768 1.15625,-6.24609 0.31462,-1.54157 1.37388,-10.176 2.00586,-16.33985 0.16855,-1.64409 0.31141,-4.81887 0.31641,-7.05664 0.005,-2.23778 0.13542,-4.07031 0.29101,-4.07031 0.1556,0 1.31406,0.67949 2.57422,1.50781 3.23499,2.12639 5.69098,2.81055 10.07227,2.81055 7.63954,0 11.12246,-2.11095 18.36328,-11.12695 3.12247,-3.88803 6.02275,-7.44742 11.17578,-13.7129 6.24812,-7.597 7.39122,-9.94051 7.61133,-15.60742 0.13003,-3.34723 0.0545,-4.04156 -0.71875,-6.52148 -1.29856,-4.16491 -3.43106,-6.79913 -9.38282,-11.58789 l -2.37109,-1.90625 0.81836,-2.56641 c 0.44954,-1.41181 1.30685,-4.36013 1.90625,-6.55078 l 1.08984,-3.98242 5.61719,-0.86328 c 6.88086,-1.0573 9.45896,-1.88734 12.69141,-4.08594 3.15442,-2.14553 4.99316,-4.71308 6.24023,-8.71289 0.81249,-2.60577 0.86995,-3.14774 0.6875,-6.54883 -0.10936,-2.03953 -1.1658,-10.36114 -2.34765,-18.49023 -2.37376,-16.32717 -2.84066,-18.21316 -5.38672,-21.80274 -2.28153,-3.21661 -5.51057,-5.29802 -10.01172,-6.44922 -3.19487,-0.81701 -6.4433,-0.81038 -11.71094,0.0215 -2.28346,0.36062 -4.32164,0.65715 -4.52734,0.66015 -0.20572,0.003 -0.91046,-1.00522 -1.56641,-2.23828 -0.65597,-1.23307 -1.49033,-2.68558 -1.85547,-3.22851 -0.64852,-0.96434 -0.6505,-1.00412 -0.0449,-1.66211 1.48105,-1.60944 7.11861,-9.08392 7.68359,-10.1875 2.79886,-5.46704 2.48453,-13.39052 -0.72265,-18.19336 -1.62538,-2.43403 -5.21195,-5.64965 -15.63672,-14.01953 -1.22117,-0.98046 -4.3851,-3.54233 -7.03125,-5.69336 -7.90989,-6.42981 -10.32715,-7.54883 -16.32227,-7.54883 -7.52844,0 -11.64063,2.64913 -18.9375,12.19336 -0.72728,0.95127 -1.48334,1.73714 -1.67968,1.74414 -0.19635,0.008 -1.46782,-0.36854 -2.82422,-0.83594 -1.3564,-0.46739 -4.17258,-1.28546 -6.25977,-1.81836 -2.08721,-0.53288 -3.89624,-1.08511 -4.01953,-1.22656 -0.12329,-0.14145 -0.55275,-2.61711 -0.95312,-5.5 -0.94024,-6.77031 -1.60947,-8.88074 -3.78126,-11.91406 -3.52815,-4.9278 -8.16439,-7.25496 -14.45507,-7.25586 -1.77164,-2.6e-4 -6.03503,0.38834 -9.47266,0.86328 -3.43764,0.47494 -6.3213,0.79198 -6.4082,0.70508 -0.087,-0.0869 0.16025,-1.70868 0.54883,-3.60352 0.94483,-4.60743 0.80991,-10.46607 -0.30664,-13.31836 -2.09667,-5.356112 -5.97324,-8.346339 -13.25,-10.218748 L 521.625,94.142578 c 7.13143,-4.815667 16.34769,-10.177587 9.82227,-21.791016 -6.52542,-11.613427 -17.15039,-27.623046 -17.15039,-27.623046 -6.40477,-9.598986 -20.80249,11.095382 -27.66407,6.490234 -1.56671,-1.051497 -1.57552,-0.343762 -4.43164,-2.623047 -2.97819,-2.376705 5.50866,-21.812997 -2.83789,-24.246094 -13.88977,-4.048993 -24.2794,-5.045844 -34.24805,-6.58789 -0.63969,-0.099 -1.23313,-0.09423 -1.78515,-0.002 z M 294.91797,312.02344 c 1.62452,-10e-4 3.19912,0.15705 4.07226,0.47461 4.67093,1.69887 8.22078,6.19975 10.28711,13.04297 0.78967,2.61521 0.91121,3.66 1.04688,9.02929 0.13192,5.22073 0.052,6.65196 -0.57227,10.21094 -2.31906,13.22385 -8.7591,25.50565 -12.51367,29.88281 -0.62675,0.73071 -2.16458,2.53565 -3.41797,4.00977 -2.25356,2.65042 -5.70061,5.31672 -9.98633,7.72265 -3.13376,1.75921 -7.05784,2.38784 -10.58007,1.69532 -2.04399,-0.40189 -4.15719,-1.73604 -6.43555,-4.06446 -6.2132,-6.34974 -7.94984,-19.7658 -4.38867,-33.9082 2.71972,-10.8008 7.37193,-20.09068 13.73828,-27.43359 4.45121,-5.13404 9.55779,-8.75052 14.37695,-10.18164 1.07432,-0.31935 2.74852,-0.47947 4.37305,-0.48047 z m 293.55664,279.88672 -0.98242,2.14648 c -1.16265,2.53644 -3.62296,5.94583 -5.04883,7 -0.55769,0.41232 -1.01367,0.88446 -1.01367,1.04883 0,0.57151 12.79907,32.94419 15.09179,40.16797 0.37771,1.15381 1.14429,3.19465 1.47071,3.84961 0.85501,-0.57723 1.95171,-2.03134 2.23242,-3.42188 3.47007,-17.18981 -4.74118,-33.58233 -10.92578,-48.3125 z"
           sodipodi:nodetypes="ssssssssssscsscsccccccssscscscccssssssscsssssssssssssssscccsssssscssssssssssssssscccssssscccssssscsscccsssssssssssssssssssssssssccccssssssssscssssssssssssssssssssssscsssssssssssccccscsscccsssssscccccsssssccssssssssssssssssssssssssssssssssccccccssssssscsscsssssscssssssssssccscssssscscscsssssssccccssccscccs" /><path
           id="path6"
           style="fill:#3e9ea4;fill-opacity:1;stroke-width:1.03793"
           d="m 554.28636,133.2161 -3.11914,0.0918 c -1.71502,0.0499 -6.46037,0.56791 -10.54688,1.15234 l -7.43164,1.0625 -0.90039,2.55469 c -1.14123,3.23485 -3.06578,5.79099 -5.67187,7.53126 -2.01119,1.34302 -6.55186,3.03515 -8.14454,3.03515 -0.44725,0 -0.8125,0.0827 -0.8125,0.18555 0,0.24165 1.59678,10.99621 1.80469,12.1543 0.12872,0.71703 0.0101,0.91774 -0.63672,1.08008 -0.43716,0.10974 -1.73944,0.63237 -2.89258,1.16211 -1.15314,0.52975 -2.65675,1.1942 -3.34179,1.47656 -0.97012,0.39986 -1.24414,0.69716 -1.24414,1.34375 0,0.45658 -0.37645,2.02005 -0.83594,3.47461 -1.47663,4.67433 -3.77598,7.0972 -10.62305,11.1914 -1.46142,0.87386 -4.37576,2.66584 -6.47656,3.98243 -9.3632,5.86806 -12.32519,7.12695 -16.77344,7.12695 -3.33696,0 -7.12662,-1.2136 -9.69922,-3.10742 -1.76802,-1.30156 -4.10079,-4.09118 -6.01367,-7.18946 -0.70442,-1.14099 -0.71754,-1.14518 -0.72265,-0.28515 -0.0102,1.54859 -1.66208,6.71139 -2.67578,8.36133 -0.54059,0.87985 -0.98438,1.73132 -0.98438,1.89257 0,0.16124 0.56104,0.71242 1.24609,1.22266 0.68503,0.51024 2.23687,1.74973 3.44727,2.75586 3.02438,2.51404 6.12754,5.01427 7.25781,5.8457 0.51924,0.38197 1.55512,1.27809 2.30078,1.99219 l 1.35547,1.29883 -0.7793,1.67187 c -1.18554,2.54221 -4.71528,12.60032 -5.4746,15.59961 -1.486,5.86965 -1.86059,7.96013 -2.25782,12.6211 -0.10897,1.27874 -0.2487,2.381 -0.31054,2.44922 -0.0619,0.0682 -4.26661,0.71354 -9.34375,1.43359 -10.05896,1.42656 -11.62724,1.87612 -12.70899,3.65039 -0.97215,1.59455 -0.8752,3.68626 0.66797,14.38867 0.7375,5.11496 1.62895,11.39174 1.98047,13.94922 0.91798,6.67856 1.20935,7.46261 3.31055,8.90234 1.1648,0.7981 2.7281,0.71577 11.11718,-0.58593 9.81597,-1.52308 11.81055,-1.72013 11.81055,-1.17188 0,0.53002 4.0993,8.72262 4.99219,9.97656 0.35911,0.50435 0.65369,1.04278 0.65625,1.19727 9.4e-4,0.15448 0.67596,1.17512 1.49609,2.26758 0.82013,1.09246 1.49024,2.08872 1.49024,2.21289 0,0.12419 0.59742,0.98184 1.32812,1.90625 0.73071,0.92441 1.33008,1.88468 1.33008,2.13476 0,0.2501 -0.50993,1.03958 -1.13281,1.75391 -3.72855,4.276 -4.64483,5.36926 -5.125,6.11523 -0.29395,0.45669 -0.85796,1.20347 -1.25391,1.66016 -4.88565,5.63501 -5.55957,6.84724 -5.12305,9.23438 0.35899,1.96317 0.94394,2.69418 4.57422,5.71679 4.15265,3.45754 3.82966,3.19292 8.89063,7.25782 2.3748,1.90738 5.31229,4.30401 6.52929,5.32617 3.75998,3.15797 4.87167,4.01758 5.19727,4.01758 0.17259,0 0.49147,0.21289 0.70703,0.47265 0.21556,0.25972 0.96596,0.56893 1.66797,0.6875 2.33524,0.39454 3.66062,-0.64817 8.65625,-6.80664 1.11136,-1.37008 2.43154,-2.93831 2.93359,-3.48633 0.50207,-0.54804 1.57464,-1.89417 2.38282,-2.99023 0.80817,-1.09605 1.79884,-2.33898 2.20117,-2.76172 0.80656,-0.84749 0.77518,-0.85171 5.26367,0.87695 5.4638,2.1043 7.21287,2.7271 9.29883,3.3125 3.843,1.07852 6.75646,1.66995 11.12695,2.25586 2.28346,0.30614 4.31996,0.59958 4.52539,0.65235 0.20543,0.0528 0.47301,0.81697 0.59375,1.69921 0.12073,0.88223 0.43332,2.72562 0.69531,4.09571 0.26199,1.37007 0.71854,4.65783 1.01563,7.30664 0.60628,5.40549 1.28267,7.33162 2.92969,8.33594 1.55508,0.94827 3.66199,0.81899 16.79297,-1.0293 17.89367,-2.51868 18.95219,-2.75096 20.01171,-4.38281 0.82242,-1.26667 0.89866,-2.56102 0.40235,-6.90821 -0.51419,-4.50372 -1.71471,-13.34133 -1.97071,-14.50976 -0.11791,-0.53825 0.0343,-0.78299 0.58985,-0.95313 0.96827,-0.29654 8.13589,-3.7971 10.71094,-5.23047 2.25695,-1.25629 4.72858,-2.86822 7.64062,-4.98632 l 1.99219,-1.44922 1.35937,1.1914 c 0.74778,0.6557 1.86988,1.5972 2.49219,2.0918 2.21271,1.7586 6.13454,4.95666 7.61133,6.20508 0.82465,0.69714 1.97654,1.51347 2.55859,1.81445 1.44456,0.74702 3.9875,0.70304 5.29102,-0.0918 0.90126,-0.54952 3.4031,-3.37294 5.58203,-6.29687 0.35672,-0.47871 1.95662,-2.4393 3.55469,-4.35742 1.59807,-1.9181 3.84735,-4.65004 4.99804,-6.07031 1.1507,-1.42031 2.92198,-3.58595 3.9375,-4.81446 3.39913,-4.11193 3.89546,-5.24573 3.27735,-7.48437 -0.35391,-1.28176 -2.08623,-3.00322 -7.11524,-7.06641 -6.44377,-5.20625 -7.64911,-6.21495 -7.87304,-6.59766 -0.12776,-0.21834 7.8e-4,-0.83402 0.28515,-1.36914 0.28436,-0.53512 0.79312,-1.72139 1.12891,-2.63476 0.33578,-0.91338 0.85962,-2.33225 1.16601,-3.1543 0.30639,-0.82204 0.67842,-1.94417 0.82618,-2.49219 0.14774,-0.54804 0.51925,-1.66819 0.82422,-2.49023 1.12136,-3.02273 1.93167,-6.61338 2.99609,-13.27344 0.27625,-1.72836 0.662,-3.2406 0.85742,-3.36133 0.19542,-0.12073 1.27349,-0.31393 2.39649,-0.42968 1.12297,-0.11588 5.65333,-0.79349 10.06836,-1.50391 8.32257,-1.33919 9.64155,-1.75261 10.46484,-3.29492 0.62492,-1.17069 0.49175,-2.96176 -1.03125,-13.8418 -3.18722,-22.76865 -3.04638,-22.12594 -5.17188,-23.32226 -0.73071,-0.41128 -1.82052,-0.7494 -2.42187,-0.75196 -0.60135,-0.003 -5.05815,0.59156 -9.90625,1.32227 -9.72597,1.46589 -10.42188,1.52583 -10.42188,0.89258 0,-0.70086 -5.68673,-11.799 -7.34961,-14.34375 -0.83558,-1.27873 -1.71468,-2.69956 -1.95312,-3.15625 -0.23843,-0.45669 -0.94586,-1.45821 -1.57227,-2.22657 l -1.13867,-1.39648 1.9375,-2.2793 c 1.06583,-1.25303 2.94588,-3.53927 4.17774,-5.08008 7.65764,-9.57817 7.73533,-9.70462 7.36914,-12.14648 -0.18502,-1.23393 -0.47725,-1.6894 -1.72852,-2.71094 -0.82754,-0.67562 -2.74558,-2.27595 -4.26367,-3.55468 -1.51806,-1.27873 -3.8172,-3.14568 -5.10742,-4.1504 -3.16998,-2.46849 -11.6688,-9.83739 -14.91992,-11.86914 -1.56062,-0.9701 -3.49012,-0.97144 -5.05469,-0.004 -0.66302,0.41009 -2.42934,2.23965 -3.92383,4.0664 -1.49452,1.82677 -3.26742,3.98164 -3.94141,4.78907 -0.67396,0.80742 -1.84625,2.30291 -2.60351,3.32226 -0.75727,1.01935 -1.81232,2.3634 -2.34571,2.98633 l -0.9707,1.13281 -1.80469,-0.83203 c -0.9928,-0.45763 -2.70081,-1.16843 -3.79687,-1.57812 -1.09607,-0.40968 -2.89028,-1.09529 -3.98633,-1.52539 -2.3682,-0.92929 -5.93893,-1.96893 -8.4707,-2.4668 -3.49358,-0.68702 -7.15119,-1.29954 -8.99219,-1.50391 l -1.85156,-0.20508 -0.70313,-4.05273 c -0.38658,-2.22859 -1.11252,-6.93594 -1.61328,-10.46094 -0.87171,-6.13634 -0.9563,-6.45992 -1.96679,-7.62891 z m -3.11328,74.89454 c 2.35459,-0.0354 4.6929,0.0656 6.04882,0.31836 6.26524,1.16788 14.83192,4.15311 21.73633,11.66602 4.543,4.65275 7.24877,10.26378 8.99024,16.41601 1.43854,5.13186 1.31026,14.26693 0.0566,18.78516 -1.16472,4.19737 -2.19987,6.69287 -4.11133,9.90625 -1.73304,2.91344 -6.14387,8.25715 -7.84961,9.50976 -7.04726,5.17517 -12.4727,7.5115 -19.95117,8.59375 -1.9693,0.285 -4.58496,0.50421 -5.8125,0.48633 -3.69666,-0.0539 -8.98933,-1.28991 -14.35352,-3.35156 -4.79574,-1.84315 -11.18333,-7.08802 -15.31836,-12.57617 -3.16169,-4.19635 -5.70381,-10.69572 -6.59961,-16.87695 -1.69237,-11.678 2.66118,-24.23449 11.18555,-32.26368 2.97199,-2.79933 3.52959,-3.24242 5.91602,-4.71875 4.53111,-2.8031 8.12633,-4.1979 13.91015,-5.39257 1.42621,-0.29459 3.79775,-0.46655 6.15235,-0.50196 z"
           sodipodi:nodetypes="cccccsssssssssssssscssssscccssssssssssscsssssssssssssssssssssssssssssssscccssssssssssssssssssssssscsssscccsssssssssscccssscccsccssssssssssssssss" /><ellipse
           style="opacity:1;fill:#3e9ea4;fill-opacity:1;fill-rule:evenodd;stroke:none;stroke-width:26;stroke-linejoin:bevel;stroke-dasharray:none;stroke-opacity:1;paint-order:stroke markers fill"
           id="path8"
           cx="551.23584"
           cy="245.9325"
           rx="21.442242"
           ry="21.556532" /><path
           id="path3"
           style="fill:#2b8591;fill-opacity:1;stroke-width:1.03793"
           d="m 450.17112,29.604775 c -2.58416,-0.213528 -3.7078,0.515986 -4.39257,2.853516 -0.43507,1.485116 -1.6621,7.906872 -2.33985,12.244141 -0.17547,1.122912 -0.25407,1.183254 -1.59375,1.253906 -0.7748,0.04089 -2.2316,0.214739 -3.23633,0.386719 -1.00472,0.171993 -2.3489,0.396185 -2.98828,0.496094 -2.26068,0.353363 -3.18398,0.568304 -5.79297,1.353515 -1.45036,0.436511 -2.64475,0.760273 -2.65625,0.71875 -2.96781,-3.830823 -4.97401,-8.774816 -8.41992,-12.494141 -1.31443,-1.418722 -3.64757,-0.174135 -9.53515,3.623047 -1.09606,0.706907 -4.13806,2.586985 -6.75782,4.177735 -5.9879,3.635896 -7.02734,4.573158 -7.02734,6.333984 0,0.718276 0.1309,1.447556 0.29101,1.621094 0.16011,0.173552 0.66534,0.988502 1.1211,1.810547 0.45576,0.822045 1.98346,3.363035 3.39453,5.646484 1.41108,2.28346 2.61509,4.231702 2.67578,4.330078 0.0607,0.09838 -1.0078,1.498311 -2.37305,3.111328 -3.00636,3.551971 -6.27577,8.436222 -8.13086,12.142579 -1.34405,2.685361 -1.39586,2.740179 -2.41406,2.560546 -2.45146,-0.432511 -8.15834,-1.543398 -9.8457,-1.916015 -2.39704,-0.52933 -3.93944,-0.196138 -4.93945,1.068359 -0.63236,0.799597 -1.07969,2.479413 -2.22657,8.369141 -3.12991,16.073678 -3.13776,16.158428 -1.66406,17.333978 1.16,0.92532 3.39914,1.57454 8.50195,2.4668 5.32715,0.93151 5.97559,1.07253 6,1.30859 0.0115,0.11422 0.0929,1.03044 0.18164,2.03516 0.32477,3.67488 1.55677,10.00235 2.62305,13.48047 0.42035,1.37104 -8.09732,5.46051 -10.00195,7.05273 -1.91836,1.60364 -1.95985,3.69963 -0.13281,6.82618 3.60131,5.51371 6.37214,11.0794 10.67773,16.86329 1.55608,2.09035 2.70665,1.7458 6.77344,-0.75586 1.81977,-1.11943 3.83133,-2.33628 4.4707,-2.70508 0.63937,-0.36877 1.72896,-1.0476 2.42188,-1.50781 l 1.25976,-0.83594 1.39844,1.33398 c 3.15555,3.01312 8.29919,6.64895 12.85547,9.08789 2.21142,1.18377 2.80303,1.65284 2.73047,2.16016 -0.19096,1.33593 -0.4612,2.77109 -1.41602,7.49414 -1.17255,5.80023 -1.22402,7.20377 -0.30273,8.375 0.80491,1.02327 1.36292,1.19193 8.38476,2.5332 2.96088,0.56555 7.17701,1.3816 9.36914,1.8125 2.19211,0.4309 4.82609,0.79949 5.85157,0.82032 1.59317,0.0325 1.98837,-0.0879 2.72656,-0.82618 0.47516,-0.47514 0.93685,-1.10892 1.02539,-1.41015 0.26879,-0.91473 2.14055,-10.41014 2.36523,-12 0.11562,-0.81818 0.26594,-1.58003 0.33594,-1.69336 0.0701,-0.11332 1.36556,-0.2944 2.87891,-0.40235 3.55801,-0.25387 10.03251,-1.42044 12.39257,-2.23242 1.6887,-0.581 1.8667,-0.58872 2.05664,-0.0937 0.24435,0.63678 3.44839,5.81122 5.86915,9.47852 2.48919,3.77098 4.2044,4.29989 7.30078,2.25195 0.57213,-0.3784 4.77683,-2.97988 9.34375,-5.7793 9.50306,-5.82515 9.9714,-6.27934 9.13086,-8.88867 -0.25674,-0.79702 -0.55399,-1.52388 -0.66016,-1.61523 -0.30742,-0.2643 -6.64453,-10.51876 -6.64453,-10.75195 0,-0.11575 1.24554,-1.74114 2.76758,-3.61329 3.42433,-4.21201 6.44728,-8.67399 7.8789,-11.62891 0.79592,-1.64284 1.2151,-2.12996 1.61524,-2.08399 5.02419,0.57721 9.47904,1.43232 15.02539,2.15039 0.57672,0.0747 1.1782,-0.79484 1.42383,-1.27148 0.69154,-1.34184 4.5039,-20.62061 4.5039,-22.77539 0,-1.65068 -0.60109,-2.73073 -1.84765,-3.32227 -0.93838,-0.44528 -8.24594,-2.02598 -12.22461,-2.64453 -0.70636,-0.10974 -1.39356,-0.26695 -1.52735,-0.34961 -0.1338,-0.0827 -0.33737,-1.389 -0.45312,-2.90234 -0.29005,-3.794157 -0.83753,-7.203227 -1.71485,-10.673827 l -0.74414,-2.941405 1.49024,-0.878906 c 0.81981,-0.483194 1.66143,-1.028251 1.87109,-1.210938 0.20966,-0.182674 0.90304,-0.615289 1.53906,-0.96289 2.68809,-1.469083 7.59092,-4.900638 8.08985,-5.66211 0.65121,-0.993974 0.69077,-2.378529 0.0996,-3.503906 -0.29837,-0.567969 -10.74056,-18.604891 -12.58203,-19.511719 -2.05319,-1.011057 -2.46322,-0.860123 -9.29102,3.449219 -2.06779,1.305074 -4.30399,2.676698 -4.96875,3.046875 l -1.20898,0.673828 -0.94532,-0.986328 c -1.14801,-1.198265 -6.85313,-5.670002 -9.59179,-7.517578 -2.16974,-1.463754 -7.78082,-4.398438 -8.41016,-4.398438 -0.11417,0 -0.20608,0.03606 -0.26367,0.0039 -0.19217,-0.107301 -4.4e-4,-0.958838 1.03516,-6.314453 0.63936,-3.306509 1.1621,-6.51645 1.1621,-7.134766 0,-2.680467 -1.29709,-3.878552 -5.01367,-4.625 -6.82905,-1.371561 -17.00906,-3.184338 -18.63086,-3.31836 z m -3.93554,51.046876 c 9.68449,0.178704 19.50598,6.871606 23.25781,16.119142 1.51416,3.732097 1.82905,5.541317 1.83008,10.521477 9.3e-4,3.973 -0.11218,5.01223 -0.78516,7.14063 -1.35082,4.34566 -3.65433,8.12999 -6.83008,11.45898 -3.14912,3.10361 -8.63966,6.09803 -12.97656,7.07813 -5.09856,1.15223 -12.08138,0.26216 -16.89648,-2.1543 -5.10352,-2.56118 -9.92349,-7.47511 -12.35547,-12.5957 -2.2107,-4.65474 -3.07025,-10.9766 -2.12891,-15.67383 1.14815,-7.024237 4.93932,-12.342638 10.4668,-16.867186 3.18623,-2.467603 9.39953,-4.601352 14.48437,-4.974609 1.13257,-0.08314 1.9336,-0.0483 1.9336,-0.05273 z"
           sodipodi:nodetypes="ssssscscssssssssssssssssccsssssscccscsssscssssssssssscssssssssssccccsssssscccssssssssscsssssssssss" /><ellipse
           style="opacity:1;fill:#2b8591;fill-opacity:1;fill-rule:evenodd;stroke:none;stroke-width:30;stroke-linejoin:bevel;stroke-opacity:1"
           id="path7"
           cx="445.69077"
           cy="107.44221"
           rx="13.746797"
           ry="13.760478" /><path
           style="font-size:40px;line-height:1.25;font-family:TTOctosquares-Bold;-inkscape-font-specification:TTOctosquares-Bold;text-align:center;text-anchor:middle;white-space:pre;fill:#ffffff"
           d="m 12.309644,868.56146 v -5.8 h 17.48 l 1.32,-1.32 v -2.68 l -1.4,-1.4 h -12.96 l -4.96,-4.96 v -7.08 l 4.76,-4.76 h 19.96 v 5.8 h -16.6 l -1.32,1.32 v 2.52 l 1.4,1.36 h 12.96 l 4.96,4.96 v 7.28 l -4.76,4.76 z m 34.119924,0 -4.44,-4.44 v -15.68 h 6.36 v 13.56 l 1.36,1.36 h 4.6 l 1.88,-1.52 v -13.4 h 6.36 v 20.12 h -5.08 v -1.6 h -0.76 l -1.88,1.6 z m 25.719954,0 -4.72,-4.72 v -10.68 l 4.72,-4.72 h 10.24 v -7.88 h 6.36 v 28 h -5.08 v -1.76 h -0.84 l -2.12,1.76 z m 3.28,-5.2 h 4.76 l 2.2,-1.72 v -8 h -6.96 l -1.64,1.64 v 6.44 z m 18.799994,5.2 v -20.12 h 5.08 v 1.6 h 0.760004 l 1.88,-1.6 h 7.36 v 5.2 h -6.84 l -1.88,1.52 v 13.4 z m 17.479964,-23.28 v -4.72 h 6.52 v 4.72 z m 0.08,23.28 v -20.12 h 6.36 v 20.12 z m 11.63994,0 v -20.12 h 5.08 v 1.6 h 0.76 l 1.88,-1.6 h 7.48 l 2.24,2.24 h 0.92 l 2.64,-2.24 h 7.48 l 4.44,4.44 v 15.68 h -6.36 v -13.56 l -1.36,-1.36 h -3.68 l -1.88,1.52 v 13.4 h -6.36 v -13.56 l -1.36,-1.36 h -3.68 l -1.88,1.52 v 13.4 z m 40.67996,0 -3.68,-3.68 v -5.12 l 3.8,-3.8 h 11.12 v -1.28 l -1.16,-1.2 h -11.04 v -5.04 h 14.44 l 4.12,4.12 v 16 h -5.08 v -1.64 h -0.64 l -1.96,1.64 z m 3.4,-4.8 h 6 l 1.84,-1.48 v -2.24 h -7.56 l -1,1 v 2 z m 19.47995,4.8 v -28 h 6.36 v 15.08 h 3.44 l 5.32,-7.2 h 6.12 v 1.68 l -6,7.84 6.8,8.92 v 1.68 h -6.44 l -5.8,-7.72 h -3.44 v 7.72 z m 29.23993,0 -4.72,-4.72 v -10.68 l 4.72,-4.72 h 12.28 l 4.72,4.72 v 7.4 h -15.36 v 1.28 l 1.64,1.64 h 12.2 v 5.08 z m 1.64,-12.08 h 9 v -1.6 l -1.64,-1.64 h -5.72 l -1.64,1.64 z m 19.95996,12.08 v -20.12 h 5.08 v 1.6 h 0.76 l 1.88,-1.6 h 7.36 v 5.2 h -6.84 l -1.88,1.52 v 13.4 z"
           id="text2"
           transform="matrix(3.0628202,0,0,3.0628202,12.299989,-1733.1614)"
           aria-label="Sudrimaker" /></g></g></g></svg>
